M48
;DRILL file {KiCad no-vcs-found-895c0bb~58~ubuntu16.04.1} date Wed Jul 19 10:40:32 2017
;FORMAT={-:-/ absolute / inch / decimal}
FMAT,2
INCH,TZ
T1C0.024
T2C0.025
T3C0.030
T4C0.039
T5C0.049
T6C0.051
T7C0.060
T8C0.081
%
G90
G05
M72
T1
X5.215Y-4.8075
X5.2225Y-4.6025
X5.295Y-4.405
X5.6Y-4.565
X5.6Y-4.615
X5.67Y-3.01
X5.675Y-2.245
X5.675Y-2.54
X5.675Y-2.84
X5.785Y-4.165
X5.795Y-3.06
X5.795Y-3.245
X5.87Y-3.245
X5.875Y-2.855
X5.93Y-3.5275
X5.9325Y-4.05
X5.975Y-2.24
X5.975Y-2.415
X6.015Y-3.505
X6.07Y-3.22
X6.14Y-3.22
X6.14Y-4.565
X6.14Y-4.615
X6.175Y-2.845
X6.22Y-3.105
X6.375Y-2.26
X6.375Y-2.845
X6.655Y-3.26
X6.86Y-3.33
T2
X5.625Y-4.33
X5.625Y-4.38
X5.625Y-4.43
T3
X5.9759Y-2.9746
X5.9759Y-3.2305
X5.8145Y-4.4509
X6.0704Y-4.4509
X5.7491Y-5.1595
X5.7491Y-5.4154
X5.8891Y-5.1595
X5.8891Y-5.4154
X5.8146Y-4.3091
X6.0705Y-4.3091
T4
X5.5428Y-4.7528
X5.5428Y-4.9496
X5.7396Y-4.7528
X5.7396Y-4.9496
X5.4823Y-5.2084
X5.4823Y-5.3462
T5
X5.475Y-2.155
X5.475Y-2.755
X5.575Y-2.155
X5.575Y-2.755
X5.675Y-2.155
X5.675Y-2.755
X5.775Y-2.155
X5.775Y-2.755
X5.875Y-2.155
X5.875Y-2.755
X5.975Y-2.155
X5.975Y-2.755
X6.075Y-2.155
X6.075Y-2.755
X6.175Y-2.155
X6.175Y-2.755
X6.275Y-2.155
X6.275Y-2.755
X6.375Y-2.155
X6.375Y-2.755
X6.475Y-2.155
X6.475Y-2.755
X6.575Y-2.155
X6.575Y-2.755
X6.675Y-2.155
X6.675Y-2.755
X6.775Y-2.155
X6.775Y-2.755
X6.875Y-2.155
X6.875Y-2.755
X5.445Y-3.005
X5.445Y-3.105
X5.445Y-3.205
X5.445Y-3.305
X5.445Y-3.405
X5.445Y-3.505
X5.445Y-3.605
X5.445Y-3.705
X5.445Y-3.805
X5.445Y-3.905
X5.445Y-4.005
X5.445Y-4.105
X6.0349Y-4.7424
X6.0349Y-5.6424
X6.1349Y-4.7424
X6.1349Y-5.6424
X6.2349Y-4.7424
X6.2349Y-5.6424
X6.3349Y-4.7424
X6.3349Y-5.6424
X6.4349Y-4.7424
X6.4349Y-5.6424
X6.5349Y-4.7424
X6.5349Y-5.6424
X6.6349Y-4.7424
X6.6349Y-5.6424
T6
X5.1Y-3.7
X5.1Y-3.8
X5.1Y-3.9
X5.1Y-4.955
X5.1Y-5.055
X5.1Y-5.155
X5.1Y-5.255
X5.1Y-5.355
X5.1Y-5.455
X5.1Y-4.605
X5.1Y-4.705
X5.1Y-4.805
X5.1016Y-3.0567
X5.1016Y-3.1567
X5.1016Y-3.2567
X5.1016Y-3.3567
X5.1016Y-3.4567
X5.1016Y-3.5567
X5.1Y-4.05
X5.1Y-4.15
X5.1Y-4.25
X5.1Y-4.35
X5.1Y-4.45
X5.1016Y-2.7079
X5.1016Y-2.8079
X5.1016Y-2.9079
X5.1016Y-2.1614
X5.1016Y-2.2614
X5.1016Y-2.3614
X5.1016Y-2.4614
X5.1016Y-2.5614
X5.53Y-5.5937
X5.63Y-5.5937
X5.73Y-5.5937
X5.83Y-5.5937
T7
X5.2Y-2.26
X5.2Y-2.805
X5.2Y-5.455
X5.205Y-3.46
X5.205Y-3.7
X5.205Y-5.055
X5.21Y-4.45
X5.35Y-3.905
X5.39Y-4.35
X5.405Y-2.25
X5.405Y-5.59
X5.535Y-4.33
X5.555Y-2.5575
X5.575Y-3.755
X5.575Y-4.025
X5.58Y-3.01
X5.585Y-3.295
X5.665Y-5.16
X5.76Y-3.39
X5.76Y-3.93
X5.775Y-2.25
X5.89Y-5.07
X5.95Y-3.41
X6.155Y-4.45
X6.275Y-2.26
X6.275Y-2.4325
X6.535Y-5.54
T8
X5.39Y-5.205
T0
M30
