G04 #@! TF.GenerationSoftware,KiCad,Pcbnew,no-vcs-found-895c0bb~58~ubuntu16.04.1*
G04 #@! TF.CreationDate,2017-07-11T17:07:46-04:00*
G04 #@! TF.ProjectId,alim,616C696D2E6B696361645F7063620000,rev?*
G04 #@! TF.SameCoordinates,Original
G04 #@! TF.FileFunction,Soldermask,Top*
G04 #@! TF.FilePolarity,Negative*
%FSLAX46Y46*%
G04 Gerber Fmt 4.6, Leading zero omitted, Abs format (unit mm)*
G04 Created by KiCad (PCBNEW no-vcs-found-895c0bb~58~ubuntu16.04.1) date Tue Jul 11 17:07:46 2017*
%MOMM*%
%LPD*%
G01*
G04 APERTURE LIST*
%ADD10R,0.800000X1.300000*%
%ADD11R,1.900000X1.600000*%
%ADD12R,1.500000X1.000000*%
%ADD13C,1.700000*%
%ADD14C,2.400000*%
%ADD15R,1.600000X1.900000*%
%ADD16R,0.960000X1.400000*%
%ADD17R,1.300000X2.700000*%
%ADD18R,2.700000X1.300000*%
%ADD19R,1.000000X1.400000*%
%ADD20C,1.500000*%
%ADD21C,2.600000*%
G04 APERTURE END LIST*
D10*
X138736200Y-56574200D03*
X138060800Y-56574200D03*
X137385400Y-56574200D03*
X138736200Y-54374200D03*
X138060800Y-54374200D03*
X137385400Y-54374200D03*
X132818000Y-62822600D03*
X132142600Y-62822600D03*
X131467200Y-62822600D03*
X132818000Y-60622600D03*
X132142600Y-60622600D03*
X131467200Y-60622600D03*
D11*
X135496400Y-54371000D03*
X135496400Y-56471000D03*
X129400400Y-60771800D03*
X129400400Y-62871800D03*
X141440000Y-54472600D03*
X141440000Y-56572600D03*
X134988400Y-60771800D03*
X134988400Y-62871800D03*
X110706000Y-80507600D03*
X110706000Y-82607600D03*
X125895200Y-71719200D03*
X125895200Y-73819200D03*
X125234800Y-84343000D03*
X125234800Y-86443000D03*
X118122800Y-80431400D03*
X118122800Y-82531400D03*
X131915000Y-67426600D03*
X131915000Y-69526600D03*
X131889600Y-72201800D03*
X131889600Y-74301800D03*
X134785200Y-80025000D03*
X134785200Y-82125000D03*
X134759800Y-84266800D03*
X134759800Y-86366800D03*
X123583800Y-67325000D03*
X123583800Y-69425000D03*
X123101200Y-79745600D03*
X123101200Y-81845600D03*
D12*
X112945000Y-83266000D03*
X112945000Y-81366000D03*
X115745000Y-83266000D03*
X115745000Y-82316000D03*
X115745000Y-81366000D03*
D13*
X111592800Y-63151000D03*
X111592800Y-61151000D03*
D14*
X116382800Y-74853800D03*
X113842800Y-74853800D03*
X111302800Y-74853800D03*
D13*
X111571600Y-52596800D03*
X111571600Y-54596800D03*
D14*
X116382800Y-67894200D03*
X116382800Y-70434200D03*
X145719800Y-58648600D03*
X145719800Y-61188600D03*
X145719800Y-63728600D03*
X145719800Y-66268600D03*
X145719800Y-68808600D03*
X145719800Y-71348600D03*
X145719800Y-73888600D03*
X145719800Y-76428600D03*
X145719800Y-78968600D03*
X145719800Y-81508600D03*
X145719800Y-84048600D03*
X145719800Y-86588600D03*
D15*
X138440400Y-52209800D03*
X136340400Y-52209800D03*
X132522200Y-58128000D03*
X130422200Y-58128000D03*
D11*
X125920400Y-69428600D03*
X125920400Y-67328600D03*
X125234600Y-81823800D03*
X125234600Y-79723800D03*
D16*
X112257200Y-70630600D03*
X113207200Y-68370600D03*
X111307200Y-68370600D03*
D17*
X113622200Y-85210800D03*
X110522200Y-85210800D03*
D11*
X134201000Y-67452000D03*
X134201000Y-69552000D03*
D18*
X134563000Y-71391400D03*
X134563000Y-74491400D03*
X131616600Y-79290800D03*
X131616600Y-82390800D03*
X131591200Y-83888200D03*
X131591200Y-86988200D03*
D19*
X127935000Y-69562600D03*
X129835000Y-69562600D03*
X127935000Y-72262600D03*
X128885000Y-72262600D03*
X129835000Y-72262600D03*
X127198400Y-81881600D03*
X129098400Y-81881600D03*
X127198400Y-84581600D03*
X128148400Y-84581600D03*
X129098400Y-84581600D03*
D20*
X124319000Y-54064400D03*
X124319000Y-56604400D03*
X124319000Y-59144400D03*
X124319000Y-61684400D03*
X116699000Y-54064400D03*
X116699000Y-56604400D03*
X116699000Y-59144400D03*
X116699000Y-61684400D03*
D13*
X131248400Y-52618200D03*
X129248400Y-52618200D03*
D21*
X105003600Y-67716400D03*
M02*
