G04 #@! TF.GenerationSoftware,KiCad,Pcbnew,no-vcs-found-895c0bb~58~ubuntu16.04.1*
G04 #@! TF.CreationDate,2017-07-11T17:07:46-04:00*
G04 #@! TF.ProjectId,alim,616C696D2E6B696361645F7063620000,rev?*
G04 #@! TF.SameCoordinates,Original
G04 #@! TF.FileFunction,Other,User*
%FSLAX46Y46*%
G04 Gerber Fmt 4.6, Leading zero omitted, Abs format (unit mm)*
G04 Created by KiCad (PCBNEW no-vcs-found-895c0bb~58~ubuntu16.04.1) date Tue Jul 11 17:07:46 2017*
%MOMM*%
%LPD*%
G01*
G04 APERTURE LIST*
%ADD10C,0.300000*%
G04 APERTURE END LIST*
D10*
X152055428Y-64695142D02*
X152055428Y-63838000D01*
X152055428Y-64266571D02*
X153555428Y-64266571D01*
X153341142Y-64123714D01*
X153198285Y-63980857D01*
X153126857Y-63838000D01*
X152198285Y-65338000D02*
X152126857Y-65409428D01*
X152055428Y-65338000D01*
X152126857Y-65266571D01*
X152198285Y-65338000D01*
X152055428Y-65338000D01*
X153555428Y-65909428D02*
X153555428Y-66909428D01*
X152055428Y-66266571D01*
X153555428Y-67766571D02*
X153555428Y-67909428D01*
X153484000Y-68052285D01*
X153412571Y-68123714D01*
X153269714Y-68195142D01*
X152984000Y-68266571D01*
X152626857Y-68266571D01*
X152341142Y-68195142D01*
X152198285Y-68123714D01*
X152126857Y-68052285D01*
X152055428Y-67909428D01*
X152055428Y-67766571D01*
X152126857Y-67623714D01*
X152198285Y-67552285D01*
X152341142Y-67480857D01*
X152626857Y-67409428D01*
X152984000Y-67409428D01*
X153269714Y-67480857D01*
X153412571Y-67552285D01*
X153484000Y-67623714D01*
X153555428Y-67766571D01*
X153555428Y-69195142D02*
X153555428Y-69338000D01*
X153484000Y-69480857D01*
X153412571Y-69552285D01*
X153269714Y-69623714D01*
X152984000Y-69695142D01*
X152626857Y-69695142D01*
X152341142Y-69623714D01*
X152198285Y-69552285D01*
X152126857Y-69480857D01*
X152055428Y-69338000D01*
X152055428Y-69195142D01*
X152126857Y-69052285D01*
X152198285Y-68980857D01*
X152341142Y-68909428D01*
X152626857Y-68838000D01*
X152984000Y-68838000D01*
X153269714Y-68909428D01*
X153412571Y-68980857D01*
X153484000Y-69052285D01*
X153555428Y-69195142D01*
X153555428Y-70623714D02*
X153555428Y-70766571D01*
X153484000Y-70909428D01*
X153412571Y-70980857D01*
X153269714Y-71052285D01*
X152984000Y-71123714D01*
X152626857Y-71123714D01*
X152341142Y-71052285D01*
X152198285Y-70980857D01*
X152126857Y-70909428D01*
X152055428Y-70766571D01*
X152055428Y-70623714D01*
X152126857Y-70480857D01*
X152198285Y-70409428D01*
X152341142Y-70338000D01*
X152626857Y-70266571D01*
X152984000Y-70266571D01*
X153269714Y-70338000D01*
X153412571Y-70409428D01*
X153484000Y-70480857D01*
X153555428Y-70623714D01*
X152055428Y-72909428D02*
X153055428Y-72909428D01*
X153555428Y-72909428D02*
X153484000Y-72838000D01*
X153412571Y-72909428D01*
X153484000Y-72980857D01*
X153555428Y-72909428D01*
X153412571Y-72909428D01*
X153055428Y-73623714D02*
X152055428Y-73623714D01*
X152912571Y-73623714D02*
X152984000Y-73695142D01*
X153055428Y-73838000D01*
X153055428Y-74052285D01*
X152984000Y-74195142D01*
X152841142Y-74266571D01*
X152055428Y-74266571D01*
X151384000Y-47498000D02*
X151384000Y-90678000D01*
X148590000Y-47498000D02*
X154084000Y-47498000D01*
X148590000Y-90678000D02*
X154084000Y-90678000D01*
X151384000Y-90678000D02*
X150797579Y-89551496D01*
X151384000Y-90678000D02*
X151970421Y-89551496D01*
X151384000Y-47498000D02*
X150797579Y-48624504D01*
X151384000Y-47498000D02*
X151970421Y-48624504D01*
X120702142Y-44413571D02*
X119845000Y-44413571D01*
X120273571Y-44413571D02*
X120273571Y-42913571D01*
X120130714Y-43127857D01*
X119987857Y-43270714D01*
X119845000Y-43342142D01*
X121345000Y-44270714D02*
X121416428Y-44342142D01*
X121345000Y-44413571D01*
X121273571Y-44342142D01*
X121345000Y-44270714D01*
X121345000Y-44413571D01*
X122273571Y-43556428D02*
X122130714Y-43485000D01*
X122059285Y-43413571D01*
X121987857Y-43270714D01*
X121987857Y-43199285D01*
X122059285Y-43056428D01*
X122130714Y-42985000D01*
X122273571Y-42913571D01*
X122559285Y-42913571D01*
X122702142Y-42985000D01*
X122773571Y-43056428D01*
X122845000Y-43199285D01*
X122845000Y-43270714D01*
X122773571Y-43413571D01*
X122702142Y-43485000D01*
X122559285Y-43556428D01*
X122273571Y-43556428D01*
X122130714Y-43627857D01*
X122059285Y-43699285D01*
X121987857Y-43842142D01*
X121987857Y-44127857D01*
X122059285Y-44270714D01*
X122130714Y-44342142D01*
X122273571Y-44413571D01*
X122559285Y-44413571D01*
X122702142Y-44342142D01*
X122773571Y-44270714D01*
X122845000Y-44127857D01*
X122845000Y-43842142D01*
X122773571Y-43699285D01*
X122702142Y-43627857D01*
X122559285Y-43556428D01*
X124202142Y-42913571D02*
X123487857Y-42913571D01*
X123416428Y-43627857D01*
X123487857Y-43556428D01*
X123630714Y-43485000D01*
X123987857Y-43485000D01*
X124130714Y-43556428D01*
X124202142Y-43627857D01*
X124273571Y-43770714D01*
X124273571Y-44127857D01*
X124202142Y-44270714D01*
X124130714Y-44342142D01*
X123987857Y-44413571D01*
X123630714Y-44413571D01*
X123487857Y-44342142D01*
X123416428Y-44270714D01*
X125202142Y-42913571D02*
X125345000Y-42913571D01*
X125487857Y-42985000D01*
X125559285Y-43056428D01*
X125630714Y-43199285D01*
X125702142Y-43485000D01*
X125702142Y-43842142D01*
X125630714Y-44127857D01*
X125559285Y-44270714D01*
X125487857Y-44342142D01*
X125345000Y-44413571D01*
X125202142Y-44413571D01*
X125059285Y-44342142D01*
X124987857Y-44270714D01*
X124916428Y-44127857D01*
X124845000Y-43842142D01*
X124845000Y-43485000D01*
X124916428Y-43199285D01*
X124987857Y-43056428D01*
X125059285Y-42985000D01*
X125202142Y-42913571D01*
X126630714Y-42913571D02*
X126773571Y-42913571D01*
X126916428Y-42985000D01*
X126987857Y-43056428D01*
X127059285Y-43199285D01*
X127130714Y-43485000D01*
X127130714Y-43842142D01*
X127059285Y-44127857D01*
X126987857Y-44270714D01*
X126916428Y-44342142D01*
X126773571Y-44413571D01*
X126630714Y-44413571D01*
X126487857Y-44342142D01*
X126416428Y-44270714D01*
X126345000Y-44127857D01*
X126273571Y-43842142D01*
X126273571Y-43485000D01*
X126345000Y-43199285D01*
X126416428Y-43056428D01*
X126487857Y-42985000D01*
X126630714Y-42913571D01*
X128916428Y-44413571D02*
X128916428Y-43413571D01*
X128916428Y-42913571D02*
X128845000Y-42985000D01*
X128916428Y-43056428D01*
X128987857Y-42985000D01*
X128916428Y-42913571D01*
X128916428Y-43056428D01*
X129630714Y-43413571D02*
X129630714Y-44413571D01*
X129630714Y-43556428D02*
X129702142Y-43485000D01*
X129845000Y-43413571D01*
X130059285Y-43413571D01*
X130202142Y-43485000D01*
X130273571Y-43627857D01*
X130273571Y-44413571D01*
X101600000Y-45085000D02*
X148590000Y-45085000D01*
X101600000Y-47498000D02*
X101600000Y-42385000D01*
X148590000Y-47498000D02*
X148590000Y-42385000D01*
X148590000Y-45085000D02*
X147463496Y-45671421D01*
X148590000Y-45085000D02*
X147463496Y-44498579D01*
X101600000Y-45085000D02*
X102726504Y-45671421D01*
X101600000Y-45085000D02*
X102726504Y-44498579D01*
M02*
