G04 #@! TF.GenerationSoftware,KiCad,Pcbnew,no-vcs-found-895c0bb~58~ubuntu16.04.1*
G04 #@! TF.CreationDate,2017-07-19T10:40:22-04:00*
G04 #@! TF.ProjectId,Noeud,4E6F6575642E6B696361645F70636200,rev?*
G04 #@! TF.SameCoordinates,Original
G04 #@! TF.FileFunction,Copper,L1,Top,Plane*
G04 #@! TF.FilePolarity,Positive*
%FSLAX46Y46*%
G04 Gerber Fmt 4.6, Leading zero omitted, Abs format (unit mm)*
G04 Created by KiCad (PCBNEW no-vcs-found-895c0bb~58~ubuntu16.04.1) date Wed Jul 19 10:40:22 2017*
%MOMM*%
%LPD*%
G01*
G04 APERTURE LIST*
%ADD10C,1.500000*%
%ADD11R,1.300000X1.500000*%
%ADD12C,2.000000*%
%ADD13C,1.400000*%
%ADD14C,1.016000*%
%ADD15C,1.200000*%
%ADD16C,2.184400*%
%ADD17C,0.700000*%
%ADD18C,0.762000*%
%ADD19C,1.016000*%
%ADD20C,0.254000*%
%ADD21C,0.127000*%
G04 APERTURE END LIST*
D10*
X139251000Y-132294000D03*
D11*
X139251000Y-135794000D03*
D12*
X129540000Y-122047000D03*
X129540000Y-119507000D03*
X129540000Y-116967000D03*
X129540000Y-113030000D03*
X129540000Y-110490000D03*
X129540000Y-107950000D03*
X129540000Y-105410000D03*
X129540000Y-102870000D03*
X129540000Y-125857000D03*
X129540000Y-128397000D03*
X129540000Y-130937000D03*
X129540000Y-133477000D03*
X129540000Y-136017000D03*
X129540000Y-138557000D03*
X138303000Y-76327000D03*
X138303000Y-78867000D03*
X138303000Y-81407000D03*
X138303000Y-83947000D03*
X138303000Y-86487000D03*
X138303000Y-89027000D03*
X138303000Y-91567000D03*
X138303000Y-94107000D03*
X138303000Y-96647000D03*
X138303000Y-99187000D03*
X138303000Y-101727000D03*
X138303000Y-104267000D03*
X168526000Y-120457000D03*
X165986000Y-120457000D03*
X163446000Y-120457000D03*
X160906000Y-120457000D03*
X158366000Y-120457000D03*
X155826000Y-120457000D03*
X168526000Y-143317000D03*
X153286000Y-120457000D03*
X165986000Y-143317000D03*
X163446000Y-143317000D03*
X160906000Y-143317000D03*
X158366000Y-143317000D03*
X155826000Y-143317000D03*
X153286000Y-143317000D03*
X129580000Y-54900000D03*
X129580000Y-57440000D03*
X129580000Y-59980000D03*
X129580000Y-62520000D03*
X129580000Y-65060000D03*
X129580000Y-68780000D03*
X129580000Y-71320000D03*
X129580000Y-73860000D03*
X129580000Y-90340000D03*
X129580000Y-87800000D03*
X129580000Y-85260000D03*
X129580000Y-82720000D03*
X129580000Y-80180000D03*
X129580000Y-77640000D03*
D13*
X145787000Y-120721000D03*
X145787000Y-125721000D03*
X140787000Y-120721000D03*
X140787000Y-125721000D03*
D14*
X142875000Y-109982000D03*
X142875000Y-111252000D03*
X142875000Y-112522000D03*
D15*
X149582000Y-131052000D03*
X149582000Y-137552000D03*
X151789000Y-82054000D03*
X151789000Y-75554000D03*
X146026000Y-137552000D03*
X146026000Y-131052000D03*
X154190000Y-109450000D03*
X147690000Y-109450000D03*
X154189000Y-113054000D03*
X147689000Y-113054000D03*
D12*
X148082000Y-142081000D03*
X145542000Y-142081000D03*
X143002000Y-142081000D03*
X140462000Y-142081000D03*
X129540000Y-99060000D03*
X129540000Y-96520000D03*
X129540000Y-93980000D03*
X139065000Y-69977000D03*
X141605000Y-69977000D03*
X144145000Y-69977000D03*
X146685000Y-69977000D03*
X149225000Y-69977000D03*
X151765000Y-69977000D03*
X154305000Y-69977000D03*
X156845000Y-69977000D03*
X159385000Y-69977000D03*
X161925000Y-69977000D03*
X164465000Y-69977000D03*
X167005000Y-69977000D03*
X169545000Y-69977000D03*
X172085000Y-69977000D03*
X174625000Y-69977000D03*
X174625000Y-54737000D03*
X172085000Y-54737000D03*
X169545000Y-54737000D03*
X167005000Y-54737000D03*
X164465000Y-54737000D03*
X161925000Y-54737000D03*
X159385000Y-54737000D03*
X156845000Y-54737000D03*
X154305000Y-54737000D03*
X151765000Y-54737000D03*
X149225000Y-54737000D03*
X146685000Y-54737000D03*
X144145000Y-54737000D03*
X141605000Y-54737000D03*
X139065000Y-54737000D03*
D16*
X136906000Y-110490000D03*
X136906000Y-132207000D03*
X137287000Y-57150000D03*
X141097000Y-64960500D03*
D17*
X161925000Y-57404000D03*
X132461000Y-122110500D03*
X132651500Y-116903500D03*
X134493000Y-111887000D03*
X150685500Y-102870000D03*
X150622000Y-89598500D03*
D16*
X135890000Y-99187000D03*
X140589000Y-109982000D03*
X143891000Y-131064000D03*
X132080000Y-138557000D03*
X132207000Y-128397000D03*
X132334000Y-113030000D03*
D17*
X147193000Y-77724000D03*
X147193000Y-82423000D03*
X142240000Y-115951000D03*
X155956000Y-115951000D03*
X155956000Y-117221000D03*
X142240000Y-117221000D03*
X151765000Y-61341000D03*
X151765000Y-56896000D03*
X157988000Y-78867000D03*
X161925000Y-72263000D03*
D16*
X141732000Y-76454000D03*
X141859000Y-83693000D03*
X159385000Y-61785500D03*
X159385000Y-57404000D03*
X141605000Y-95377000D03*
X151130000Y-86614000D03*
X156337000Y-113030000D03*
X149606000Y-128778000D03*
X165989000Y-140716000D03*
X137287000Y-141986000D03*
X132207000Y-93980000D03*
X132207000Y-87884000D03*
X132080000Y-71247000D03*
X132080000Y-57404000D03*
X141605000Y-102235000D03*
X146304000Y-99822000D03*
X146304000Y-86106000D03*
X146685000Y-57150000D03*
D17*
X144145000Y-57023000D03*
X144145000Y-64516000D03*
X149098000Y-82423000D03*
X144145000Y-72136000D03*
X144018000Y-76454000D03*
X174244000Y-84582000D03*
X169037000Y-82804000D03*
X149225000Y-72517000D03*
X152781000Y-89027000D03*
X154178000Y-81788000D03*
X146939000Y-105791000D03*
X156845000Y-72263000D03*
X155956000Y-81788000D03*
D18*
X136906000Y-110490000D02*
X136906000Y-132207000D01*
D19*
X137287000Y-57150000D02*
X137287000Y-59118500D01*
X141097000Y-62928500D02*
X141097000Y-64960500D01*
X137287000Y-59118500D02*
X141097000Y-62928500D01*
D20*
X140208000Y-86169500D02*
X140208000Y-87249000D01*
X161925000Y-64008000D02*
X159448500Y-66484500D01*
X159448500Y-66484500D02*
X136461500Y-66484500D01*
X136461500Y-66484500D02*
X135699500Y-67246500D01*
X135699500Y-67246500D02*
X135699500Y-72771000D01*
X135699500Y-72771000D02*
X137350500Y-74422000D01*
X137350500Y-74422000D02*
X139446000Y-74422000D01*
X139446000Y-74422000D02*
X140208000Y-75184000D01*
X140208000Y-75184000D02*
X140208000Y-86169500D01*
X161925000Y-57404000D02*
X161925000Y-61976000D01*
X161925000Y-61976000D02*
X161925000Y-64008000D01*
X132461000Y-117094000D02*
X132461000Y-122110500D01*
X132651500Y-116903500D02*
X132461000Y-117094000D01*
X134493000Y-109220000D02*
X134493000Y-111887000D01*
X135890000Y-107823000D02*
X134493000Y-109220000D01*
X142557500Y-107823000D02*
X135890000Y-107823000D01*
X145542000Y-104838500D02*
X142557500Y-107823000D01*
X148717000Y-104838500D02*
X145542000Y-104838500D01*
X150685500Y-102870000D02*
X148717000Y-104838500D01*
X142557500Y-89598500D02*
X150622000Y-89598500D01*
X140208000Y-87249000D02*
X142557500Y-89598500D01*
X147193000Y-78105000D02*
X147193000Y-77724000D01*
X147193000Y-82423000D02*
X147193000Y-78105000D01*
X142240000Y-115951000D02*
X155956000Y-115951000D01*
X142240000Y-117221000D02*
X145288000Y-117221000D01*
X145288000Y-117221000D02*
X155956000Y-117221000D01*
X151765000Y-56896000D02*
X151765000Y-61341000D01*
X161925000Y-75438000D02*
X161925000Y-78232000D01*
X157988000Y-78867000D02*
X161290000Y-78867000D01*
X161290000Y-78867000D02*
X161671000Y-78486000D01*
X161925000Y-72263000D02*
X161925000Y-75311000D01*
X161925000Y-75311000D02*
X161925000Y-75438000D01*
X161925000Y-78232000D02*
X161671000Y-78486000D01*
D18*
X141732000Y-83566000D02*
X141732000Y-76454000D01*
X141859000Y-83693000D02*
X141732000Y-83566000D01*
X159385000Y-57404000D02*
X159385000Y-61341000D01*
X159385000Y-61785500D02*
X159385000Y-61341000D01*
X141605000Y-102235000D02*
X145542000Y-102235000D01*
X146304000Y-101473000D02*
X146304000Y-99822000D01*
X145542000Y-102235000D02*
X146304000Y-101473000D01*
D20*
X144145000Y-57023000D02*
X144145000Y-64516000D01*
X144653000Y-72644000D02*
X144145000Y-72136000D01*
X145542000Y-73533000D02*
X145161000Y-73152000D01*
X145161000Y-73152000D02*
X144780000Y-72771000D01*
X144780000Y-72771000D02*
X144653000Y-72644000D01*
X149098000Y-77089000D02*
X146177000Y-74168000D01*
X149098000Y-77343000D02*
X149098000Y-77089000D01*
X149098000Y-77724000D02*
X149098000Y-77343000D01*
X149098000Y-78359000D02*
X149098000Y-77724000D01*
X149098000Y-82423000D02*
X149098000Y-78359000D01*
X146177000Y-74168000D02*
X145542000Y-73533000D01*
X146177000Y-84582000D02*
X144526000Y-84582000D01*
X144018000Y-82423000D02*
X144018000Y-76454000D01*
X149479000Y-84582000D02*
X146177000Y-84582000D01*
X151511000Y-84582000D02*
X149479000Y-84582000D01*
X153416000Y-84582000D02*
X151511000Y-84582000D01*
X161290000Y-84582000D02*
X153416000Y-84582000D01*
X162179000Y-84582000D02*
X161290000Y-84582000D01*
X174244000Y-84582000D02*
X162179000Y-84582000D01*
X144018000Y-84074000D02*
X144018000Y-82423000D01*
X144526000Y-84582000D02*
X144018000Y-84074000D01*
X169037000Y-82804000D02*
X153289000Y-82804000D01*
X153289000Y-82804000D02*
X155067000Y-82804000D01*
X155067000Y-82804000D02*
X154813000Y-82804000D01*
X154813000Y-82804000D02*
X153289000Y-82804000D01*
X153289000Y-82804000D02*
X153162000Y-82677000D01*
X149225000Y-74930000D02*
X149225000Y-72517000D01*
X153162000Y-78867000D02*
X149225000Y-74930000D01*
X153162000Y-82677000D02*
X153162000Y-78867000D01*
X151800000Y-75565000D02*
X153543000Y-75565000D01*
X154178000Y-81788000D02*
X154178000Y-76200000D01*
X146939000Y-105791000D02*
X149479000Y-105791000D01*
X149479000Y-105791000D02*
X151130000Y-105791000D01*
X151130000Y-105791000D02*
X152781000Y-104140000D01*
X152781000Y-104140000D02*
X152781000Y-89027000D01*
X154178000Y-76200000D02*
X153543000Y-75565000D01*
X151800000Y-75565000D02*
X151789000Y-75554000D01*
X156845000Y-77089000D02*
X156845000Y-72263000D01*
X155956000Y-77978000D02*
X156845000Y-77089000D01*
X155956000Y-81788000D02*
X155956000Y-77978000D01*
D21*
G36*
X134429500Y-61441698D02*
X133813099Y-62058099D01*
X133799334Y-62078700D01*
X133794500Y-62103000D01*
X133794500Y-76708000D01*
X133799334Y-76732300D01*
X133813099Y-76752901D01*
X133833700Y-76766666D01*
X133858000Y-76771500D01*
X134429500Y-76771500D01*
X134429500Y-77279500D01*
X133858000Y-77279500D01*
X133833700Y-77284334D01*
X133813099Y-77298099D01*
X133799334Y-77318700D01*
X133794500Y-77343000D01*
X133794500Y-91059000D01*
X133799334Y-91083300D01*
X133813099Y-91103901D01*
X133833700Y-91117666D01*
X133858000Y-91122500D01*
X134493000Y-91122500D01*
X134517300Y-91117666D01*
X134537901Y-91103901D01*
X134551666Y-91083300D01*
X134556500Y-91059000D01*
X134556500Y-87820500D01*
X137772890Y-87820500D01*
X137557671Y-87909427D01*
X137186729Y-88279722D01*
X136985730Y-88763783D01*
X136985272Y-89287917D01*
X137185427Y-89772329D01*
X137555722Y-90143271D01*
X137926257Y-90297130D01*
X137557671Y-90449427D01*
X137186729Y-90819722D01*
X136985730Y-91303783D01*
X136985272Y-91827917D01*
X137185427Y-92312329D01*
X137555722Y-92683271D01*
X137926257Y-92837130D01*
X137557671Y-92989427D01*
X137186729Y-93359722D01*
X136985730Y-93843783D01*
X136985272Y-94367917D01*
X137185427Y-94852329D01*
X137485506Y-95152932D01*
X137396281Y-95381070D01*
X138303000Y-96287790D01*
X139209719Y-95381070D01*
X139120382Y-95152646D01*
X139419271Y-94854278D01*
X139620270Y-94370217D01*
X139620728Y-93846083D01*
X139420573Y-93361671D01*
X139050278Y-92990729D01*
X138679743Y-92836870D01*
X139048329Y-92684573D01*
X139419271Y-92314278D01*
X139620270Y-91830217D01*
X139620728Y-91306083D01*
X139420573Y-90821671D01*
X139050278Y-90450729D01*
X138679743Y-90296870D01*
X139048329Y-90144573D01*
X139419271Y-89774278D01*
X139620270Y-89290217D01*
X139620728Y-88766083D01*
X139420573Y-88281671D01*
X139050278Y-87910729D01*
X138832982Y-87820500D01*
X140150882Y-87820500D01*
X142243191Y-89912809D01*
X142387397Y-90009164D01*
X142557500Y-90043000D01*
X150122560Y-90043000D01*
X150243398Y-90164049D01*
X150488644Y-90265884D01*
X150754191Y-90266116D01*
X150999614Y-90164709D01*
X151187549Y-89977102D01*
X151289384Y-89731856D01*
X151289616Y-89466309D01*
X151188209Y-89220886D01*
X151000602Y-89032951D01*
X150755356Y-88931116D01*
X150489809Y-88930884D01*
X150244386Y-89032291D01*
X150122464Y-89154000D01*
X142741618Y-89154000D01*
X141408118Y-87820500D01*
X149352000Y-87820500D01*
X149376300Y-87815666D01*
X149396901Y-87801901D01*
X149410666Y-87781300D01*
X149415500Y-87757000D01*
X149415500Y-85534500D01*
X175577500Y-85534500D01*
X175577500Y-144716500D01*
X166840480Y-144716500D01*
X166892719Y-144582930D01*
X165986000Y-143676210D01*
X165079281Y-144582930D01*
X165131520Y-144716500D01*
X135191500Y-144716500D01*
X135191500Y-143346930D01*
X139555281Y-143346930D01*
X139660586Y-143616183D01*
X140309079Y-143806012D01*
X140980853Y-143733224D01*
X141263414Y-143616183D01*
X141278379Y-143577917D01*
X151968272Y-143577917D01*
X152168427Y-144062329D01*
X152538722Y-144433271D01*
X153022783Y-144634270D01*
X153546917Y-144634728D01*
X154031329Y-144434573D01*
X154402271Y-144064278D01*
X154556130Y-143693743D01*
X154708427Y-144062329D01*
X155078722Y-144433271D01*
X155562783Y-144634270D01*
X156086917Y-144634728D01*
X156571329Y-144434573D01*
X156942271Y-144064278D01*
X157096130Y-143693743D01*
X157248427Y-144062329D01*
X157618722Y-144433271D01*
X158102783Y-144634270D01*
X158626917Y-144634728D01*
X159111329Y-144434573D01*
X159482271Y-144064278D01*
X159636130Y-143693743D01*
X159788427Y-144062329D01*
X160158722Y-144433271D01*
X160642783Y-144634270D01*
X161166917Y-144634728D01*
X161651329Y-144434573D01*
X162022271Y-144064278D01*
X162176130Y-143693743D01*
X162328427Y-144062329D01*
X162698722Y-144433271D01*
X163182783Y-144634270D01*
X163706917Y-144634728D01*
X164191329Y-144434573D01*
X164491932Y-144134494D01*
X164720070Y-144223719D01*
X165626790Y-143317000D01*
X166345210Y-143317000D01*
X167251930Y-144223719D01*
X167480354Y-144134382D01*
X167778722Y-144433271D01*
X168262783Y-144634270D01*
X168786917Y-144634728D01*
X169271329Y-144434573D01*
X169642271Y-144064278D01*
X169843270Y-143580217D01*
X169843728Y-143056083D01*
X169643573Y-142571671D01*
X169273278Y-142200729D01*
X168789217Y-141999730D01*
X168265083Y-141999272D01*
X167780671Y-142199427D01*
X167480068Y-142499506D01*
X167251930Y-142410281D01*
X166345210Y-143317000D01*
X165626790Y-143317000D01*
X164720070Y-142410281D01*
X164491646Y-142499618D01*
X164193278Y-142200729D01*
X163832858Y-142051070D01*
X165079281Y-142051070D01*
X165986000Y-142957790D01*
X166892719Y-142051070D01*
X166787414Y-141781817D01*
X166138921Y-141591988D01*
X165467147Y-141664776D01*
X165184586Y-141781817D01*
X165079281Y-142051070D01*
X163832858Y-142051070D01*
X163709217Y-141999730D01*
X163185083Y-141999272D01*
X162700671Y-142199427D01*
X162329729Y-142569722D01*
X162175870Y-142940257D01*
X162023573Y-142571671D01*
X161653278Y-142200729D01*
X161169217Y-141999730D01*
X160645083Y-141999272D01*
X160160671Y-142199427D01*
X159789729Y-142569722D01*
X159635870Y-142940257D01*
X159483573Y-142571671D01*
X159113278Y-142200729D01*
X158629217Y-141999730D01*
X158105083Y-141999272D01*
X157620671Y-142199427D01*
X157249729Y-142569722D01*
X157095870Y-142940257D01*
X156943573Y-142571671D01*
X156573278Y-142200729D01*
X156089217Y-141999730D01*
X155565083Y-141999272D01*
X155080671Y-142199427D01*
X154709729Y-142569722D01*
X154555870Y-142940257D01*
X154403573Y-142571671D01*
X154033278Y-142200729D01*
X153549217Y-141999730D01*
X153025083Y-141999272D01*
X152540671Y-142199427D01*
X152169729Y-142569722D01*
X151968730Y-143053783D01*
X151968272Y-143577917D01*
X141278379Y-143577917D01*
X141368719Y-143346930D01*
X140462000Y-142440210D01*
X139555281Y-143346930D01*
X135191500Y-143346930D01*
X135191500Y-141928079D01*
X138736988Y-141928079D01*
X138809776Y-142599853D01*
X138926817Y-142882414D01*
X139196070Y-142987719D01*
X140102790Y-142081000D01*
X140821210Y-142081000D01*
X141727930Y-142987719D01*
X141956354Y-142898382D01*
X142254722Y-143197271D01*
X142738783Y-143398270D01*
X143262917Y-143398728D01*
X143747329Y-143198573D01*
X144118271Y-142828278D01*
X144272130Y-142457743D01*
X144424427Y-142826329D01*
X144794722Y-143197271D01*
X145278783Y-143398270D01*
X145802917Y-143398728D01*
X146287329Y-143198573D01*
X146658271Y-142828278D01*
X146812130Y-142457743D01*
X146964427Y-142826329D01*
X147334722Y-143197271D01*
X147818783Y-143398270D01*
X148342917Y-143398728D01*
X148827329Y-143198573D01*
X149198271Y-142828278D01*
X149399270Y-142344217D01*
X149399728Y-141820083D01*
X149199573Y-141335671D01*
X148829278Y-140964729D01*
X148345217Y-140763730D01*
X147821083Y-140763272D01*
X147336671Y-140963427D01*
X146965729Y-141333722D01*
X146811870Y-141704257D01*
X146659573Y-141335671D01*
X146289278Y-140964729D01*
X145805217Y-140763730D01*
X145281083Y-140763272D01*
X144796671Y-140963427D01*
X144425729Y-141333722D01*
X144271870Y-141704257D01*
X144119573Y-141335671D01*
X143749278Y-140964729D01*
X143265217Y-140763730D01*
X142741083Y-140763272D01*
X142256671Y-140963427D01*
X141956068Y-141263506D01*
X141727930Y-141174281D01*
X140821210Y-142081000D01*
X140102790Y-142081000D01*
X139196070Y-141174281D01*
X138926817Y-141279586D01*
X138736988Y-141928079D01*
X135191500Y-141928079D01*
X135191500Y-140815070D01*
X139555281Y-140815070D01*
X140462000Y-141721790D01*
X141368719Y-140815070D01*
X141263414Y-140545817D01*
X140614921Y-140355988D01*
X139943147Y-140428776D01*
X139660586Y-140545817D01*
X139555281Y-140815070D01*
X135191500Y-140815070D01*
X135191500Y-138874500D01*
X148082000Y-138874500D01*
X148106300Y-138869666D01*
X148126901Y-138855901D01*
X148140666Y-138835300D01*
X148145500Y-138811000D01*
X148145500Y-137733701D01*
X148664341Y-137733701D01*
X148803728Y-138071043D01*
X149061599Y-138329365D01*
X149398697Y-138469340D01*
X149763701Y-138469659D01*
X150101043Y-138330272D01*
X150359365Y-138072401D01*
X150499340Y-137735303D01*
X150499659Y-137370299D01*
X150360272Y-137032957D01*
X150102401Y-136774635D01*
X149765303Y-136634660D01*
X149400299Y-136634341D01*
X149062957Y-136773728D01*
X148804635Y-137031599D01*
X148664660Y-137368697D01*
X148664341Y-137733701D01*
X148145500Y-137733701D01*
X148145500Y-132024198D01*
X148969013Y-132024198D01*
X149023754Y-132252490D01*
X149525656Y-132374740D01*
X150036135Y-132295614D01*
X150140246Y-132252490D01*
X150194987Y-132024198D01*
X149582000Y-131411210D01*
X148969013Y-132024198D01*
X148145500Y-132024198D01*
X148145500Y-130995656D01*
X148259260Y-130995656D01*
X148338386Y-131506135D01*
X148381510Y-131610246D01*
X148609802Y-131664987D01*
X149222790Y-131052000D01*
X149941210Y-131052000D01*
X150554198Y-131664987D01*
X150782490Y-131610246D01*
X150904740Y-131108344D01*
X150825614Y-130597865D01*
X150782490Y-130493754D01*
X150554198Y-130439013D01*
X149941210Y-131052000D01*
X149222790Y-131052000D01*
X148609802Y-130439013D01*
X148381510Y-130493754D01*
X148259260Y-130995656D01*
X148145500Y-130995656D01*
X148145500Y-130079802D01*
X148969013Y-130079802D01*
X149582000Y-130692790D01*
X150194987Y-130079802D01*
X150140246Y-129851510D01*
X149638344Y-129729260D01*
X149127865Y-129808386D01*
X149023754Y-129851510D01*
X148969013Y-130079802D01*
X148145500Y-130079802D01*
X148145500Y-120717917D01*
X151968272Y-120717917D01*
X152168427Y-121202329D01*
X152538722Y-121573271D01*
X153022783Y-121774270D01*
X153546917Y-121774728D01*
X154031329Y-121574573D01*
X154402271Y-121204278D01*
X154556130Y-120833743D01*
X154708427Y-121202329D01*
X155078722Y-121573271D01*
X155562783Y-121774270D01*
X156086917Y-121774728D01*
X156571329Y-121574573D01*
X156942271Y-121204278D01*
X157096130Y-120833743D01*
X157248427Y-121202329D01*
X157618722Y-121573271D01*
X158102783Y-121774270D01*
X158626917Y-121774728D01*
X159111329Y-121574573D01*
X159482271Y-121204278D01*
X159636130Y-120833743D01*
X159788427Y-121202329D01*
X160158722Y-121573271D01*
X160642783Y-121774270D01*
X161166917Y-121774728D01*
X161651329Y-121574573D01*
X162022271Y-121204278D01*
X162176130Y-120833743D01*
X162328427Y-121202329D01*
X162698722Y-121573271D01*
X163182783Y-121774270D01*
X163706917Y-121774728D01*
X164191329Y-121574573D01*
X164562271Y-121204278D01*
X164716130Y-120833743D01*
X164868427Y-121202329D01*
X165238722Y-121573271D01*
X165722783Y-121774270D01*
X166246917Y-121774728D01*
X166731329Y-121574573D01*
X167102271Y-121204278D01*
X167256130Y-120833743D01*
X167408427Y-121202329D01*
X167778722Y-121573271D01*
X168262783Y-121774270D01*
X168786917Y-121774728D01*
X169271329Y-121574573D01*
X169642271Y-121204278D01*
X169843270Y-120720217D01*
X169843728Y-120196083D01*
X169643573Y-119711671D01*
X169273278Y-119340729D01*
X168789217Y-119139730D01*
X168265083Y-119139272D01*
X167780671Y-119339427D01*
X167409729Y-119709722D01*
X167255870Y-120080257D01*
X167103573Y-119711671D01*
X166733278Y-119340729D01*
X166249217Y-119139730D01*
X165725083Y-119139272D01*
X165240671Y-119339427D01*
X164869729Y-119709722D01*
X164715870Y-120080257D01*
X164563573Y-119711671D01*
X164193278Y-119340729D01*
X163709217Y-119139730D01*
X163185083Y-119139272D01*
X162700671Y-119339427D01*
X162329729Y-119709722D01*
X162175870Y-120080257D01*
X162023573Y-119711671D01*
X161653278Y-119340729D01*
X161169217Y-119139730D01*
X160645083Y-119139272D01*
X160160671Y-119339427D01*
X159789729Y-119709722D01*
X159635870Y-120080257D01*
X159483573Y-119711671D01*
X159113278Y-119340729D01*
X158629217Y-119139730D01*
X158105083Y-119139272D01*
X157620671Y-119339427D01*
X157249729Y-119709722D01*
X157095870Y-120080257D01*
X156943573Y-119711671D01*
X156573278Y-119340729D01*
X156089217Y-119139730D01*
X155565083Y-119139272D01*
X155080671Y-119339427D01*
X154709729Y-119709722D01*
X154555870Y-120080257D01*
X154403573Y-119711671D01*
X154033278Y-119340729D01*
X153549217Y-119139730D01*
X153025083Y-119139272D01*
X152540671Y-119339427D01*
X152169729Y-119709722D01*
X151968730Y-120193783D01*
X151968272Y-120717917D01*
X148145500Y-120717917D01*
X148145500Y-117665500D01*
X155456560Y-117665500D01*
X155577398Y-117786549D01*
X155822644Y-117888384D01*
X156088191Y-117888616D01*
X156333614Y-117787209D01*
X156521549Y-117599602D01*
X156623384Y-117354356D01*
X156623616Y-117088809D01*
X156522209Y-116843386D01*
X156334602Y-116655451D01*
X156167237Y-116585955D01*
X156333614Y-116517209D01*
X156521549Y-116329602D01*
X156623384Y-116084356D01*
X156623616Y-115818809D01*
X156522209Y-115573386D01*
X156334602Y-115385451D01*
X156089356Y-115283616D01*
X155823809Y-115283384D01*
X155578386Y-115384791D01*
X155456464Y-115506500D01*
X148145500Y-115506500D01*
X148145500Y-114026198D01*
X153576013Y-114026198D01*
X153630754Y-114254490D01*
X154132656Y-114376740D01*
X154643135Y-114297614D01*
X154747246Y-114254490D01*
X154801987Y-114026198D01*
X154189000Y-113413210D01*
X153576013Y-114026198D01*
X148145500Y-114026198D01*
X148145500Y-113858114D01*
X148208043Y-113832272D01*
X148466365Y-113574401D01*
X148606340Y-113237303D01*
X148606549Y-112997656D01*
X152866260Y-112997656D01*
X152945386Y-113508135D01*
X152988510Y-113612246D01*
X153216802Y-113666987D01*
X153829790Y-113054000D01*
X154548210Y-113054000D01*
X155161198Y-113666987D01*
X155389490Y-113612246D01*
X155511740Y-113110344D01*
X155432614Y-112599865D01*
X155389490Y-112495754D01*
X155161198Y-112441013D01*
X154548210Y-113054000D01*
X153829790Y-113054000D01*
X153216802Y-112441013D01*
X152988510Y-112495754D01*
X152866260Y-112997656D01*
X148606549Y-112997656D01*
X148606659Y-112872299D01*
X148467272Y-112534957D01*
X148209401Y-112276635D01*
X148145500Y-112250101D01*
X148145500Y-112081802D01*
X153576013Y-112081802D01*
X154189000Y-112694790D01*
X154801987Y-112081802D01*
X154747246Y-111853510D01*
X154245344Y-111731260D01*
X153734865Y-111810386D01*
X153630754Y-111853510D01*
X153576013Y-112081802D01*
X148145500Y-112081802D01*
X148145500Y-110254527D01*
X148209043Y-110228272D01*
X148467365Y-109970401D01*
X148607340Y-109633303D01*
X148607341Y-109631701D01*
X153272341Y-109631701D01*
X153411728Y-109969043D01*
X153669599Y-110227365D01*
X154006697Y-110367340D01*
X154371701Y-110367659D01*
X154709043Y-110228272D01*
X154967365Y-109970401D01*
X155107340Y-109633303D01*
X155107659Y-109268299D01*
X154968272Y-108930957D01*
X154710401Y-108672635D01*
X154373303Y-108532660D01*
X154008299Y-108532341D01*
X153670957Y-108671728D01*
X153412635Y-108929599D01*
X153272660Y-109266697D01*
X153272341Y-109631701D01*
X148607341Y-109631701D01*
X148607659Y-109268299D01*
X148468272Y-108930957D01*
X148210401Y-108672635D01*
X148145500Y-108645686D01*
X148145500Y-106235500D01*
X151130000Y-106235500D01*
X151300103Y-106201664D01*
X151444309Y-106105309D01*
X153095309Y-104454309D01*
X153191665Y-104310102D01*
X153225500Y-104140000D01*
X153225500Y-89526440D01*
X153346549Y-89405602D01*
X153448384Y-89160356D01*
X153448616Y-88894809D01*
X153347209Y-88649386D01*
X153159602Y-88461451D01*
X152914356Y-88359616D01*
X152648809Y-88359384D01*
X152403386Y-88460791D01*
X152215451Y-88648398D01*
X152113616Y-88893644D01*
X152113384Y-89159191D01*
X152214791Y-89404614D01*
X152336500Y-89526536D01*
X152336500Y-103955882D01*
X150945882Y-105346500D01*
X148145500Y-105346500D01*
X148145500Y-105283000D01*
X148717000Y-105283000D01*
X148887103Y-105249164D01*
X149031309Y-105152809D01*
X150646651Y-103537467D01*
X150817691Y-103537616D01*
X151063114Y-103436209D01*
X151251049Y-103248602D01*
X151352884Y-103003356D01*
X151353116Y-102737809D01*
X151251709Y-102492386D01*
X151064102Y-102304451D01*
X150818856Y-102202616D01*
X150553309Y-102202384D01*
X150307886Y-102303791D01*
X150119951Y-102491398D01*
X150018116Y-102736644D01*
X150017965Y-102908917D01*
X148532882Y-104394000D01*
X148145500Y-104394000D01*
X148145500Y-97663000D01*
X148140666Y-97638700D01*
X148126901Y-97618099D01*
X148106300Y-97604334D01*
X148082000Y-97599500D01*
X139614713Y-97599500D01*
X139568931Y-97553718D01*
X139838183Y-97448414D01*
X140028012Y-96799921D01*
X139955224Y-96128147D01*
X139838183Y-95845586D01*
X139568930Y-95740281D01*
X138662210Y-96647000D01*
X138676353Y-96661142D01*
X138317142Y-97020353D01*
X138303000Y-97006210D01*
X138288858Y-97020353D01*
X137929647Y-96661142D01*
X137943790Y-96647000D01*
X137037070Y-95740281D01*
X136767817Y-95845586D01*
X136577988Y-96494079D01*
X136650776Y-97165853D01*
X136767817Y-97448414D01*
X137037069Y-97553718D01*
X136991287Y-97599500D01*
X134493000Y-97599500D01*
X134468700Y-97604334D01*
X134448099Y-97618099D01*
X134434334Y-97638700D01*
X134429500Y-97663000D01*
X134429500Y-98107500D01*
X133858000Y-98107500D01*
X133833700Y-98112334D01*
X133813099Y-98126099D01*
X133799334Y-98146700D01*
X133794500Y-98171000D01*
X133794500Y-100520500D01*
X127063500Y-100520500D01*
X127063500Y-96780917D01*
X128222272Y-96780917D01*
X128422427Y-97265329D01*
X128792722Y-97636271D01*
X129163257Y-97790130D01*
X128794671Y-97942427D01*
X128423729Y-98312722D01*
X128222730Y-98796783D01*
X128222272Y-99320917D01*
X128422427Y-99805329D01*
X128792722Y-100176271D01*
X129276783Y-100377270D01*
X129800917Y-100377728D01*
X130285329Y-100177573D01*
X130656271Y-99807278D01*
X130857270Y-99323217D01*
X130857728Y-98799083D01*
X130657573Y-98314671D01*
X130287278Y-97943729D01*
X129916743Y-97789870D01*
X130285329Y-97637573D01*
X130656271Y-97267278D01*
X130857270Y-96783217D01*
X130857728Y-96259083D01*
X130657573Y-95774671D01*
X130357494Y-95474068D01*
X130446719Y-95245930D01*
X129540000Y-94339210D01*
X128633281Y-95245930D01*
X128722618Y-95474354D01*
X128423729Y-95772722D01*
X128222730Y-96256783D01*
X128222272Y-96780917D01*
X127063500Y-96780917D01*
X127063500Y-93827079D01*
X127814988Y-93827079D01*
X127887776Y-94498853D01*
X128004817Y-94781414D01*
X128274070Y-94886719D01*
X129180790Y-93980000D01*
X129899210Y-93980000D01*
X130805930Y-94886719D01*
X131075183Y-94781414D01*
X131265012Y-94132921D01*
X131192224Y-93461147D01*
X131075183Y-93178586D01*
X130805930Y-93073281D01*
X129899210Y-93980000D01*
X129180790Y-93980000D01*
X128274070Y-93073281D01*
X128004817Y-93178586D01*
X127814988Y-93827079D01*
X127063500Y-93827079D01*
X127063500Y-92714070D01*
X128633281Y-92714070D01*
X129540000Y-93620790D01*
X130446719Y-92714070D01*
X130341414Y-92444817D01*
X129692921Y-92254988D01*
X129021147Y-92327776D01*
X128738586Y-92444817D01*
X128633281Y-92714070D01*
X127063500Y-92714070D01*
X127063500Y-91605930D01*
X128673281Y-91605930D01*
X128778586Y-91875183D01*
X129427079Y-92065012D01*
X130098853Y-91992224D01*
X130381414Y-91875183D01*
X130452274Y-91694000D01*
X133794500Y-91694000D01*
X133794500Y-97536000D01*
X133799334Y-97560300D01*
X133813099Y-97580901D01*
X133833700Y-97594666D01*
X133858000Y-97599500D01*
X134493000Y-97599500D01*
X134517300Y-97594666D01*
X134537901Y-97580901D01*
X134551666Y-97560300D01*
X134556500Y-97536000D01*
X134556500Y-91694000D01*
X134551666Y-91669700D01*
X134537901Y-91649099D01*
X134517300Y-91635334D01*
X134493000Y-91630500D01*
X133858000Y-91630500D01*
X133833700Y-91635334D01*
X133813099Y-91649099D01*
X133799334Y-91669700D01*
X133794500Y-91694000D01*
X130452274Y-91694000D01*
X130486719Y-91605930D01*
X129580000Y-90699210D01*
X128673281Y-91605930D01*
X127063500Y-91605930D01*
X127063500Y-90187079D01*
X127854988Y-90187079D01*
X127927776Y-90858853D01*
X128044817Y-91141414D01*
X128314070Y-91246719D01*
X129220790Y-90340000D01*
X129939210Y-90340000D01*
X130845930Y-91246719D01*
X131115183Y-91141414D01*
X131305012Y-90492921D01*
X131232224Y-89821147D01*
X131115183Y-89538586D01*
X130845930Y-89433281D01*
X129939210Y-90340000D01*
X129220790Y-90340000D01*
X128314070Y-89433281D01*
X128044817Y-89538586D01*
X127854988Y-90187079D01*
X127063500Y-90187079D01*
X127063500Y-89065930D01*
X128673281Y-89065930D01*
X128674873Y-89070000D01*
X128673281Y-89074070D01*
X128678509Y-89079298D01*
X128778586Y-89335183D01*
X128998878Y-89399668D01*
X129580000Y-89980790D01*
X130115433Y-89445356D01*
X130381414Y-89335183D01*
X130481491Y-89079298D01*
X130486719Y-89074070D01*
X130485127Y-89070000D01*
X130486719Y-89065930D01*
X130481491Y-89060702D01*
X130381414Y-88804817D01*
X130161122Y-88740332D01*
X129580000Y-88159210D01*
X129044567Y-88694644D01*
X128778586Y-88804817D01*
X128678509Y-89060702D01*
X128673281Y-89065930D01*
X127063500Y-89065930D01*
X127063500Y-87647079D01*
X127854988Y-87647079D01*
X127927776Y-88318853D01*
X128044817Y-88601414D01*
X128314070Y-88706719D01*
X129220790Y-87800000D01*
X129939210Y-87800000D01*
X130845930Y-88706719D01*
X131115183Y-88601414D01*
X131305012Y-87952921D01*
X131232224Y-87281147D01*
X131115183Y-86998586D01*
X130845930Y-86893281D01*
X129939210Y-87800000D01*
X129220790Y-87800000D01*
X128314070Y-86893281D01*
X128044817Y-86998586D01*
X127854988Y-87647079D01*
X127063500Y-87647079D01*
X127063500Y-77900917D01*
X128262272Y-77900917D01*
X128462427Y-78385329D01*
X128832722Y-78756271D01*
X129203257Y-78910130D01*
X128834671Y-79062427D01*
X128463729Y-79432722D01*
X128262730Y-79916783D01*
X128262272Y-80440917D01*
X128462427Y-80925329D01*
X128832722Y-81296271D01*
X129203257Y-81450130D01*
X128834671Y-81602427D01*
X128463729Y-81972722D01*
X128262730Y-82456783D01*
X128262272Y-82980917D01*
X128462427Y-83465329D01*
X128832722Y-83836271D01*
X129203257Y-83990130D01*
X128834671Y-84142427D01*
X128463729Y-84512722D01*
X128262730Y-84996783D01*
X128262272Y-85520917D01*
X128462427Y-86005329D01*
X128762506Y-86305932D01*
X128673281Y-86534070D01*
X129580000Y-87440790D01*
X130486719Y-86534070D01*
X130397382Y-86305646D01*
X130696271Y-86007278D01*
X130897270Y-85523217D01*
X130897728Y-84999083D01*
X130697573Y-84514671D01*
X130327278Y-84143729D01*
X129956743Y-83989870D01*
X130325329Y-83837573D01*
X130696271Y-83467278D01*
X130897270Y-82983217D01*
X130897728Y-82459083D01*
X130697573Y-81974671D01*
X130327278Y-81603729D01*
X129956743Y-81449870D01*
X130325329Y-81297573D01*
X130696271Y-80927278D01*
X130897270Y-80443217D01*
X130897728Y-79919083D01*
X130697573Y-79434671D01*
X130327278Y-79063729D01*
X129956743Y-78909870D01*
X130325329Y-78757573D01*
X130696271Y-78387278D01*
X130897270Y-77903217D01*
X130897728Y-77379083D01*
X130697573Y-76894671D01*
X130327278Y-76523729D01*
X129843217Y-76322730D01*
X129319083Y-76322272D01*
X128834671Y-76522427D01*
X128463729Y-76892722D01*
X128262730Y-77376783D01*
X128262272Y-77900917D01*
X127063500Y-77900917D01*
X127063500Y-74120917D01*
X128262272Y-74120917D01*
X128462427Y-74605329D01*
X128832722Y-74976271D01*
X129316783Y-75177270D01*
X129840917Y-75177728D01*
X130325329Y-74977573D01*
X130696271Y-74607278D01*
X130897270Y-74123217D01*
X130897728Y-73599083D01*
X130697573Y-73114671D01*
X130397494Y-72814068D01*
X130486719Y-72585930D01*
X129580000Y-71679210D01*
X128673281Y-72585930D01*
X128762618Y-72814354D01*
X128463729Y-73112722D01*
X128262730Y-73596783D01*
X128262272Y-74120917D01*
X127063500Y-74120917D01*
X127063500Y-71167079D01*
X127854988Y-71167079D01*
X127927776Y-71838853D01*
X128044817Y-72121414D01*
X128314070Y-72226719D01*
X129220790Y-71320000D01*
X129939210Y-71320000D01*
X130845930Y-72226719D01*
X131115183Y-72121414D01*
X131305012Y-71472921D01*
X131232224Y-70801147D01*
X131115183Y-70518586D01*
X130845930Y-70413281D01*
X129939210Y-71320000D01*
X129220790Y-71320000D01*
X128314070Y-70413281D01*
X128044817Y-70518586D01*
X127854988Y-71167079D01*
X127063500Y-71167079D01*
X127063500Y-69040917D01*
X128262272Y-69040917D01*
X128462427Y-69525329D01*
X128762506Y-69825932D01*
X128673281Y-70054070D01*
X129580000Y-70960790D01*
X130486719Y-70054070D01*
X130397382Y-69825646D01*
X130696271Y-69527278D01*
X130897270Y-69043217D01*
X130897728Y-68519083D01*
X130697573Y-68034671D01*
X130327278Y-67663729D01*
X129843217Y-67462730D01*
X129319083Y-67462272D01*
X128834671Y-67662427D01*
X128463729Y-68032722D01*
X128262730Y-68516783D01*
X128262272Y-69040917D01*
X127063500Y-69040917D01*
X127063500Y-60240917D01*
X128262272Y-60240917D01*
X128462427Y-60725329D01*
X128832722Y-61096271D01*
X129203257Y-61250130D01*
X128834671Y-61402427D01*
X128463729Y-61772722D01*
X128262730Y-62256783D01*
X128262272Y-62780917D01*
X128462427Y-63265329D01*
X128832722Y-63636271D01*
X129203257Y-63790130D01*
X128834671Y-63942427D01*
X128463729Y-64312722D01*
X128262730Y-64796783D01*
X128262272Y-65320917D01*
X128462427Y-65805329D01*
X128832722Y-66176271D01*
X129316783Y-66377270D01*
X129840917Y-66377728D01*
X130325329Y-66177573D01*
X130696271Y-65807278D01*
X130897270Y-65323217D01*
X130897728Y-64799083D01*
X130697573Y-64314671D01*
X130327278Y-63943729D01*
X129956743Y-63789870D01*
X130325329Y-63637573D01*
X130696271Y-63267278D01*
X130897270Y-62783217D01*
X130897728Y-62259083D01*
X130697573Y-61774671D01*
X130327278Y-61403729D01*
X129956743Y-61249870D01*
X130325329Y-61097573D01*
X130696271Y-60727278D01*
X130897270Y-60243217D01*
X130897728Y-59719083D01*
X130697573Y-59234671D01*
X130397494Y-58934068D01*
X130486719Y-58705930D01*
X129580000Y-57799210D01*
X128673281Y-58705930D01*
X128762618Y-58934354D01*
X128463729Y-59232722D01*
X128262730Y-59716783D01*
X128262272Y-60240917D01*
X127063500Y-60240917D01*
X127063500Y-57287079D01*
X127854988Y-57287079D01*
X127927776Y-57958853D01*
X128044817Y-58241414D01*
X128314070Y-58346719D01*
X129220790Y-57440000D01*
X129939210Y-57440000D01*
X130845930Y-58346719D01*
X131115183Y-58241414D01*
X131305012Y-57592921D01*
X131232224Y-56921147D01*
X131115183Y-56638586D01*
X130845930Y-56533281D01*
X129939210Y-57440000D01*
X129220790Y-57440000D01*
X128314070Y-56533281D01*
X128044817Y-56638586D01*
X127854988Y-57287079D01*
X127063500Y-57287079D01*
X127063500Y-55160917D01*
X128262272Y-55160917D01*
X128462427Y-55645329D01*
X128762506Y-55945932D01*
X128673281Y-56174070D01*
X129580000Y-57080790D01*
X130486719Y-56174070D01*
X130397382Y-55945646D01*
X130696271Y-55647278D01*
X130897270Y-55163217D01*
X130897728Y-54639083D01*
X130697573Y-54154671D01*
X130327278Y-53783729D01*
X129843217Y-53582730D01*
X129319083Y-53582272D01*
X128834671Y-53782427D01*
X128463729Y-54152722D01*
X128262730Y-54636783D01*
X128262272Y-55160917D01*
X127063500Y-55160917D01*
X127063500Y-53530500D01*
X134429500Y-53530500D01*
X134429500Y-61441698D01*
X134429500Y-61441698D01*
G37*
X134429500Y-61441698D02*
X133813099Y-62058099D01*
X133799334Y-62078700D01*
X133794500Y-62103000D01*
X133794500Y-76708000D01*
X133799334Y-76732300D01*
X133813099Y-76752901D01*
X133833700Y-76766666D01*
X133858000Y-76771500D01*
X134429500Y-76771500D01*
X134429500Y-77279500D01*
X133858000Y-77279500D01*
X133833700Y-77284334D01*
X133813099Y-77298099D01*
X133799334Y-77318700D01*
X133794500Y-77343000D01*
X133794500Y-91059000D01*
X133799334Y-91083300D01*
X133813099Y-91103901D01*
X133833700Y-91117666D01*
X133858000Y-91122500D01*
X134493000Y-91122500D01*
X134517300Y-91117666D01*
X134537901Y-91103901D01*
X134551666Y-91083300D01*
X134556500Y-91059000D01*
X134556500Y-87820500D01*
X137772890Y-87820500D01*
X137557671Y-87909427D01*
X137186729Y-88279722D01*
X136985730Y-88763783D01*
X136985272Y-89287917D01*
X137185427Y-89772329D01*
X137555722Y-90143271D01*
X137926257Y-90297130D01*
X137557671Y-90449427D01*
X137186729Y-90819722D01*
X136985730Y-91303783D01*
X136985272Y-91827917D01*
X137185427Y-92312329D01*
X137555722Y-92683271D01*
X137926257Y-92837130D01*
X137557671Y-92989427D01*
X137186729Y-93359722D01*
X136985730Y-93843783D01*
X136985272Y-94367917D01*
X137185427Y-94852329D01*
X137485506Y-95152932D01*
X137396281Y-95381070D01*
X138303000Y-96287790D01*
X139209719Y-95381070D01*
X139120382Y-95152646D01*
X139419271Y-94854278D01*
X139620270Y-94370217D01*
X139620728Y-93846083D01*
X139420573Y-93361671D01*
X139050278Y-92990729D01*
X138679743Y-92836870D01*
X139048329Y-92684573D01*
X139419271Y-92314278D01*
X139620270Y-91830217D01*
X139620728Y-91306083D01*
X139420573Y-90821671D01*
X139050278Y-90450729D01*
X138679743Y-90296870D01*
X139048329Y-90144573D01*
X139419271Y-89774278D01*
X139620270Y-89290217D01*
X139620728Y-88766083D01*
X139420573Y-88281671D01*
X139050278Y-87910729D01*
X138832982Y-87820500D01*
X140150882Y-87820500D01*
X142243191Y-89912809D01*
X142387397Y-90009164D01*
X142557500Y-90043000D01*
X150122560Y-90043000D01*
X150243398Y-90164049D01*
X150488644Y-90265884D01*
X150754191Y-90266116D01*
X150999614Y-90164709D01*
X151187549Y-89977102D01*
X151289384Y-89731856D01*
X151289616Y-89466309D01*
X151188209Y-89220886D01*
X151000602Y-89032951D01*
X150755356Y-88931116D01*
X150489809Y-88930884D01*
X150244386Y-89032291D01*
X150122464Y-89154000D01*
X142741618Y-89154000D01*
X141408118Y-87820500D01*
X149352000Y-87820500D01*
X149376300Y-87815666D01*
X149396901Y-87801901D01*
X149410666Y-87781300D01*
X149415500Y-87757000D01*
X149415500Y-85534500D01*
X175577500Y-85534500D01*
X175577500Y-144716500D01*
X166840480Y-144716500D01*
X166892719Y-144582930D01*
X165986000Y-143676210D01*
X165079281Y-144582930D01*
X165131520Y-144716500D01*
X135191500Y-144716500D01*
X135191500Y-143346930D01*
X139555281Y-143346930D01*
X139660586Y-143616183D01*
X140309079Y-143806012D01*
X140980853Y-143733224D01*
X141263414Y-143616183D01*
X141278379Y-143577917D01*
X151968272Y-143577917D01*
X152168427Y-144062329D01*
X152538722Y-144433271D01*
X153022783Y-144634270D01*
X153546917Y-144634728D01*
X154031329Y-144434573D01*
X154402271Y-144064278D01*
X154556130Y-143693743D01*
X154708427Y-144062329D01*
X155078722Y-144433271D01*
X155562783Y-144634270D01*
X156086917Y-144634728D01*
X156571329Y-144434573D01*
X156942271Y-144064278D01*
X157096130Y-143693743D01*
X157248427Y-144062329D01*
X157618722Y-144433271D01*
X158102783Y-144634270D01*
X158626917Y-144634728D01*
X159111329Y-144434573D01*
X159482271Y-144064278D01*
X159636130Y-143693743D01*
X159788427Y-144062329D01*
X160158722Y-144433271D01*
X160642783Y-144634270D01*
X161166917Y-144634728D01*
X161651329Y-144434573D01*
X162022271Y-144064278D01*
X162176130Y-143693743D01*
X162328427Y-144062329D01*
X162698722Y-144433271D01*
X163182783Y-144634270D01*
X163706917Y-144634728D01*
X164191329Y-144434573D01*
X164491932Y-144134494D01*
X164720070Y-144223719D01*
X165626790Y-143317000D01*
X166345210Y-143317000D01*
X167251930Y-144223719D01*
X167480354Y-144134382D01*
X167778722Y-144433271D01*
X168262783Y-144634270D01*
X168786917Y-144634728D01*
X169271329Y-144434573D01*
X169642271Y-144064278D01*
X169843270Y-143580217D01*
X169843728Y-143056083D01*
X169643573Y-142571671D01*
X169273278Y-142200729D01*
X168789217Y-141999730D01*
X168265083Y-141999272D01*
X167780671Y-142199427D01*
X167480068Y-142499506D01*
X167251930Y-142410281D01*
X166345210Y-143317000D01*
X165626790Y-143317000D01*
X164720070Y-142410281D01*
X164491646Y-142499618D01*
X164193278Y-142200729D01*
X163832858Y-142051070D01*
X165079281Y-142051070D01*
X165986000Y-142957790D01*
X166892719Y-142051070D01*
X166787414Y-141781817D01*
X166138921Y-141591988D01*
X165467147Y-141664776D01*
X165184586Y-141781817D01*
X165079281Y-142051070D01*
X163832858Y-142051070D01*
X163709217Y-141999730D01*
X163185083Y-141999272D01*
X162700671Y-142199427D01*
X162329729Y-142569722D01*
X162175870Y-142940257D01*
X162023573Y-142571671D01*
X161653278Y-142200729D01*
X161169217Y-141999730D01*
X160645083Y-141999272D01*
X160160671Y-142199427D01*
X159789729Y-142569722D01*
X159635870Y-142940257D01*
X159483573Y-142571671D01*
X159113278Y-142200729D01*
X158629217Y-141999730D01*
X158105083Y-141999272D01*
X157620671Y-142199427D01*
X157249729Y-142569722D01*
X157095870Y-142940257D01*
X156943573Y-142571671D01*
X156573278Y-142200729D01*
X156089217Y-141999730D01*
X155565083Y-141999272D01*
X155080671Y-142199427D01*
X154709729Y-142569722D01*
X154555870Y-142940257D01*
X154403573Y-142571671D01*
X154033278Y-142200729D01*
X153549217Y-141999730D01*
X153025083Y-141999272D01*
X152540671Y-142199427D01*
X152169729Y-142569722D01*
X151968730Y-143053783D01*
X151968272Y-143577917D01*
X141278379Y-143577917D01*
X141368719Y-143346930D01*
X140462000Y-142440210D01*
X139555281Y-143346930D01*
X135191500Y-143346930D01*
X135191500Y-141928079D01*
X138736988Y-141928079D01*
X138809776Y-142599853D01*
X138926817Y-142882414D01*
X139196070Y-142987719D01*
X140102790Y-142081000D01*
X140821210Y-142081000D01*
X141727930Y-142987719D01*
X141956354Y-142898382D01*
X142254722Y-143197271D01*
X142738783Y-143398270D01*
X143262917Y-143398728D01*
X143747329Y-143198573D01*
X144118271Y-142828278D01*
X144272130Y-142457743D01*
X144424427Y-142826329D01*
X144794722Y-143197271D01*
X145278783Y-143398270D01*
X145802917Y-143398728D01*
X146287329Y-143198573D01*
X146658271Y-142828278D01*
X146812130Y-142457743D01*
X146964427Y-142826329D01*
X147334722Y-143197271D01*
X147818783Y-143398270D01*
X148342917Y-143398728D01*
X148827329Y-143198573D01*
X149198271Y-142828278D01*
X149399270Y-142344217D01*
X149399728Y-141820083D01*
X149199573Y-141335671D01*
X148829278Y-140964729D01*
X148345217Y-140763730D01*
X147821083Y-140763272D01*
X147336671Y-140963427D01*
X146965729Y-141333722D01*
X146811870Y-141704257D01*
X146659573Y-141335671D01*
X146289278Y-140964729D01*
X145805217Y-140763730D01*
X145281083Y-140763272D01*
X144796671Y-140963427D01*
X144425729Y-141333722D01*
X144271870Y-141704257D01*
X144119573Y-141335671D01*
X143749278Y-140964729D01*
X143265217Y-140763730D01*
X142741083Y-140763272D01*
X142256671Y-140963427D01*
X141956068Y-141263506D01*
X141727930Y-141174281D01*
X140821210Y-142081000D01*
X140102790Y-142081000D01*
X139196070Y-141174281D01*
X138926817Y-141279586D01*
X138736988Y-141928079D01*
X135191500Y-141928079D01*
X135191500Y-140815070D01*
X139555281Y-140815070D01*
X140462000Y-141721790D01*
X141368719Y-140815070D01*
X141263414Y-140545817D01*
X140614921Y-140355988D01*
X139943147Y-140428776D01*
X139660586Y-140545817D01*
X139555281Y-140815070D01*
X135191500Y-140815070D01*
X135191500Y-138874500D01*
X148082000Y-138874500D01*
X148106300Y-138869666D01*
X148126901Y-138855901D01*
X148140666Y-138835300D01*
X148145500Y-138811000D01*
X148145500Y-137733701D01*
X148664341Y-137733701D01*
X148803728Y-138071043D01*
X149061599Y-138329365D01*
X149398697Y-138469340D01*
X149763701Y-138469659D01*
X150101043Y-138330272D01*
X150359365Y-138072401D01*
X150499340Y-137735303D01*
X150499659Y-137370299D01*
X150360272Y-137032957D01*
X150102401Y-136774635D01*
X149765303Y-136634660D01*
X149400299Y-136634341D01*
X149062957Y-136773728D01*
X148804635Y-137031599D01*
X148664660Y-137368697D01*
X148664341Y-137733701D01*
X148145500Y-137733701D01*
X148145500Y-132024198D01*
X148969013Y-132024198D01*
X149023754Y-132252490D01*
X149525656Y-132374740D01*
X150036135Y-132295614D01*
X150140246Y-132252490D01*
X150194987Y-132024198D01*
X149582000Y-131411210D01*
X148969013Y-132024198D01*
X148145500Y-132024198D01*
X148145500Y-130995656D01*
X148259260Y-130995656D01*
X148338386Y-131506135D01*
X148381510Y-131610246D01*
X148609802Y-131664987D01*
X149222790Y-131052000D01*
X149941210Y-131052000D01*
X150554198Y-131664987D01*
X150782490Y-131610246D01*
X150904740Y-131108344D01*
X150825614Y-130597865D01*
X150782490Y-130493754D01*
X150554198Y-130439013D01*
X149941210Y-131052000D01*
X149222790Y-131052000D01*
X148609802Y-130439013D01*
X148381510Y-130493754D01*
X148259260Y-130995656D01*
X148145500Y-130995656D01*
X148145500Y-130079802D01*
X148969013Y-130079802D01*
X149582000Y-130692790D01*
X150194987Y-130079802D01*
X150140246Y-129851510D01*
X149638344Y-129729260D01*
X149127865Y-129808386D01*
X149023754Y-129851510D01*
X148969013Y-130079802D01*
X148145500Y-130079802D01*
X148145500Y-120717917D01*
X151968272Y-120717917D01*
X152168427Y-121202329D01*
X152538722Y-121573271D01*
X153022783Y-121774270D01*
X153546917Y-121774728D01*
X154031329Y-121574573D01*
X154402271Y-121204278D01*
X154556130Y-120833743D01*
X154708427Y-121202329D01*
X155078722Y-121573271D01*
X155562783Y-121774270D01*
X156086917Y-121774728D01*
X156571329Y-121574573D01*
X156942271Y-121204278D01*
X157096130Y-120833743D01*
X157248427Y-121202329D01*
X157618722Y-121573271D01*
X158102783Y-121774270D01*
X158626917Y-121774728D01*
X159111329Y-121574573D01*
X159482271Y-121204278D01*
X159636130Y-120833743D01*
X159788427Y-121202329D01*
X160158722Y-121573271D01*
X160642783Y-121774270D01*
X161166917Y-121774728D01*
X161651329Y-121574573D01*
X162022271Y-121204278D01*
X162176130Y-120833743D01*
X162328427Y-121202329D01*
X162698722Y-121573271D01*
X163182783Y-121774270D01*
X163706917Y-121774728D01*
X164191329Y-121574573D01*
X164562271Y-121204278D01*
X164716130Y-120833743D01*
X164868427Y-121202329D01*
X165238722Y-121573271D01*
X165722783Y-121774270D01*
X166246917Y-121774728D01*
X166731329Y-121574573D01*
X167102271Y-121204278D01*
X167256130Y-120833743D01*
X167408427Y-121202329D01*
X167778722Y-121573271D01*
X168262783Y-121774270D01*
X168786917Y-121774728D01*
X169271329Y-121574573D01*
X169642271Y-121204278D01*
X169843270Y-120720217D01*
X169843728Y-120196083D01*
X169643573Y-119711671D01*
X169273278Y-119340729D01*
X168789217Y-119139730D01*
X168265083Y-119139272D01*
X167780671Y-119339427D01*
X167409729Y-119709722D01*
X167255870Y-120080257D01*
X167103573Y-119711671D01*
X166733278Y-119340729D01*
X166249217Y-119139730D01*
X165725083Y-119139272D01*
X165240671Y-119339427D01*
X164869729Y-119709722D01*
X164715870Y-120080257D01*
X164563573Y-119711671D01*
X164193278Y-119340729D01*
X163709217Y-119139730D01*
X163185083Y-119139272D01*
X162700671Y-119339427D01*
X162329729Y-119709722D01*
X162175870Y-120080257D01*
X162023573Y-119711671D01*
X161653278Y-119340729D01*
X161169217Y-119139730D01*
X160645083Y-119139272D01*
X160160671Y-119339427D01*
X159789729Y-119709722D01*
X159635870Y-120080257D01*
X159483573Y-119711671D01*
X159113278Y-119340729D01*
X158629217Y-119139730D01*
X158105083Y-119139272D01*
X157620671Y-119339427D01*
X157249729Y-119709722D01*
X157095870Y-120080257D01*
X156943573Y-119711671D01*
X156573278Y-119340729D01*
X156089217Y-119139730D01*
X155565083Y-119139272D01*
X155080671Y-119339427D01*
X154709729Y-119709722D01*
X154555870Y-120080257D01*
X154403573Y-119711671D01*
X154033278Y-119340729D01*
X153549217Y-119139730D01*
X153025083Y-119139272D01*
X152540671Y-119339427D01*
X152169729Y-119709722D01*
X151968730Y-120193783D01*
X151968272Y-120717917D01*
X148145500Y-120717917D01*
X148145500Y-117665500D01*
X155456560Y-117665500D01*
X155577398Y-117786549D01*
X155822644Y-117888384D01*
X156088191Y-117888616D01*
X156333614Y-117787209D01*
X156521549Y-117599602D01*
X156623384Y-117354356D01*
X156623616Y-117088809D01*
X156522209Y-116843386D01*
X156334602Y-116655451D01*
X156167237Y-116585955D01*
X156333614Y-116517209D01*
X156521549Y-116329602D01*
X156623384Y-116084356D01*
X156623616Y-115818809D01*
X156522209Y-115573386D01*
X156334602Y-115385451D01*
X156089356Y-115283616D01*
X155823809Y-115283384D01*
X155578386Y-115384791D01*
X155456464Y-115506500D01*
X148145500Y-115506500D01*
X148145500Y-114026198D01*
X153576013Y-114026198D01*
X153630754Y-114254490D01*
X154132656Y-114376740D01*
X154643135Y-114297614D01*
X154747246Y-114254490D01*
X154801987Y-114026198D01*
X154189000Y-113413210D01*
X153576013Y-114026198D01*
X148145500Y-114026198D01*
X148145500Y-113858114D01*
X148208043Y-113832272D01*
X148466365Y-113574401D01*
X148606340Y-113237303D01*
X148606549Y-112997656D01*
X152866260Y-112997656D01*
X152945386Y-113508135D01*
X152988510Y-113612246D01*
X153216802Y-113666987D01*
X153829790Y-113054000D01*
X154548210Y-113054000D01*
X155161198Y-113666987D01*
X155389490Y-113612246D01*
X155511740Y-113110344D01*
X155432614Y-112599865D01*
X155389490Y-112495754D01*
X155161198Y-112441013D01*
X154548210Y-113054000D01*
X153829790Y-113054000D01*
X153216802Y-112441013D01*
X152988510Y-112495754D01*
X152866260Y-112997656D01*
X148606549Y-112997656D01*
X148606659Y-112872299D01*
X148467272Y-112534957D01*
X148209401Y-112276635D01*
X148145500Y-112250101D01*
X148145500Y-112081802D01*
X153576013Y-112081802D01*
X154189000Y-112694790D01*
X154801987Y-112081802D01*
X154747246Y-111853510D01*
X154245344Y-111731260D01*
X153734865Y-111810386D01*
X153630754Y-111853510D01*
X153576013Y-112081802D01*
X148145500Y-112081802D01*
X148145500Y-110254527D01*
X148209043Y-110228272D01*
X148467365Y-109970401D01*
X148607340Y-109633303D01*
X148607341Y-109631701D01*
X153272341Y-109631701D01*
X153411728Y-109969043D01*
X153669599Y-110227365D01*
X154006697Y-110367340D01*
X154371701Y-110367659D01*
X154709043Y-110228272D01*
X154967365Y-109970401D01*
X155107340Y-109633303D01*
X155107659Y-109268299D01*
X154968272Y-108930957D01*
X154710401Y-108672635D01*
X154373303Y-108532660D01*
X154008299Y-108532341D01*
X153670957Y-108671728D01*
X153412635Y-108929599D01*
X153272660Y-109266697D01*
X153272341Y-109631701D01*
X148607341Y-109631701D01*
X148607659Y-109268299D01*
X148468272Y-108930957D01*
X148210401Y-108672635D01*
X148145500Y-108645686D01*
X148145500Y-106235500D01*
X151130000Y-106235500D01*
X151300103Y-106201664D01*
X151444309Y-106105309D01*
X153095309Y-104454309D01*
X153191665Y-104310102D01*
X153225500Y-104140000D01*
X153225500Y-89526440D01*
X153346549Y-89405602D01*
X153448384Y-89160356D01*
X153448616Y-88894809D01*
X153347209Y-88649386D01*
X153159602Y-88461451D01*
X152914356Y-88359616D01*
X152648809Y-88359384D01*
X152403386Y-88460791D01*
X152215451Y-88648398D01*
X152113616Y-88893644D01*
X152113384Y-89159191D01*
X152214791Y-89404614D01*
X152336500Y-89526536D01*
X152336500Y-103955882D01*
X150945882Y-105346500D01*
X148145500Y-105346500D01*
X148145500Y-105283000D01*
X148717000Y-105283000D01*
X148887103Y-105249164D01*
X149031309Y-105152809D01*
X150646651Y-103537467D01*
X150817691Y-103537616D01*
X151063114Y-103436209D01*
X151251049Y-103248602D01*
X151352884Y-103003356D01*
X151353116Y-102737809D01*
X151251709Y-102492386D01*
X151064102Y-102304451D01*
X150818856Y-102202616D01*
X150553309Y-102202384D01*
X150307886Y-102303791D01*
X150119951Y-102491398D01*
X150018116Y-102736644D01*
X150017965Y-102908917D01*
X148532882Y-104394000D01*
X148145500Y-104394000D01*
X148145500Y-97663000D01*
X148140666Y-97638700D01*
X148126901Y-97618099D01*
X148106300Y-97604334D01*
X148082000Y-97599500D01*
X139614713Y-97599500D01*
X139568931Y-97553718D01*
X139838183Y-97448414D01*
X140028012Y-96799921D01*
X139955224Y-96128147D01*
X139838183Y-95845586D01*
X139568930Y-95740281D01*
X138662210Y-96647000D01*
X138676353Y-96661142D01*
X138317142Y-97020353D01*
X138303000Y-97006210D01*
X138288858Y-97020353D01*
X137929647Y-96661142D01*
X137943790Y-96647000D01*
X137037070Y-95740281D01*
X136767817Y-95845586D01*
X136577988Y-96494079D01*
X136650776Y-97165853D01*
X136767817Y-97448414D01*
X137037069Y-97553718D01*
X136991287Y-97599500D01*
X134493000Y-97599500D01*
X134468700Y-97604334D01*
X134448099Y-97618099D01*
X134434334Y-97638700D01*
X134429500Y-97663000D01*
X134429500Y-98107500D01*
X133858000Y-98107500D01*
X133833700Y-98112334D01*
X133813099Y-98126099D01*
X133799334Y-98146700D01*
X133794500Y-98171000D01*
X133794500Y-100520500D01*
X127063500Y-100520500D01*
X127063500Y-96780917D01*
X128222272Y-96780917D01*
X128422427Y-97265329D01*
X128792722Y-97636271D01*
X129163257Y-97790130D01*
X128794671Y-97942427D01*
X128423729Y-98312722D01*
X128222730Y-98796783D01*
X128222272Y-99320917D01*
X128422427Y-99805329D01*
X128792722Y-100176271D01*
X129276783Y-100377270D01*
X129800917Y-100377728D01*
X130285329Y-100177573D01*
X130656271Y-99807278D01*
X130857270Y-99323217D01*
X130857728Y-98799083D01*
X130657573Y-98314671D01*
X130287278Y-97943729D01*
X129916743Y-97789870D01*
X130285329Y-97637573D01*
X130656271Y-97267278D01*
X130857270Y-96783217D01*
X130857728Y-96259083D01*
X130657573Y-95774671D01*
X130357494Y-95474068D01*
X130446719Y-95245930D01*
X129540000Y-94339210D01*
X128633281Y-95245930D01*
X128722618Y-95474354D01*
X128423729Y-95772722D01*
X128222730Y-96256783D01*
X128222272Y-96780917D01*
X127063500Y-96780917D01*
X127063500Y-93827079D01*
X127814988Y-93827079D01*
X127887776Y-94498853D01*
X128004817Y-94781414D01*
X128274070Y-94886719D01*
X129180790Y-93980000D01*
X129899210Y-93980000D01*
X130805930Y-94886719D01*
X131075183Y-94781414D01*
X131265012Y-94132921D01*
X131192224Y-93461147D01*
X131075183Y-93178586D01*
X130805930Y-93073281D01*
X129899210Y-93980000D01*
X129180790Y-93980000D01*
X128274070Y-93073281D01*
X128004817Y-93178586D01*
X127814988Y-93827079D01*
X127063500Y-93827079D01*
X127063500Y-92714070D01*
X128633281Y-92714070D01*
X129540000Y-93620790D01*
X130446719Y-92714070D01*
X130341414Y-92444817D01*
X129692921Y-92254988D01*
X129021147Y-92327776D01*
X128738586Y-92444817D01*
X128633281Y-92714070D01*
X127063500Y-92714070D01*
X127063500Y-91605930D01*
X128673281Y-91605930D01*
X128778586Y-91875183D01*
X129427079Y-92065012D01*
X130098853Y-91992224D01*
X130381414Y-91875183D01*
X130452274Y-91694000D01*
X133794500Y-91694000D01*
X133794500Y-97536000D01*
X133799334Y-97560300D01*
X133813099Y-97580901D01*
X133833700Y-97594666D01*
X133858000Y-97599500D01*
X134493000Y-97599500D01*
X134517300Y-97594666D01*
X134537901Y-97580901D01*
X134551666Y-97560300D01*
X134556500Y-97536000D01*
X134556500Y-91694000D01*
X134551666Y-91669700D01*
X134537901Y-91649099D01*
X134517300Y-91635334D01*
X134493000Y-91630500D01*
X133858000Y-91630500D01*
X133833700Y-91635334D01*
X133813099Y-91649099D01*
X133799334Y-91669700D01*
X133794500Y-91694000D01*
X130452274Y-91694000D01*
X130486719Y-91605930D01*
X129580000Y-90699210D01*
X128673281Y-91605930D01*
X127063500Y-91605930D01*
X127063500Y-90187079D01*
X127854988Y-90187079D01*
X127927776Y-90858853D01*
X128044817Y-91141414D01*
X128314070Y-91246719D01*
X129220790Y-90340000D01*
X129939210Y-90340000D01*
X130845930Y-91246719D01*
X131115183Y-91141414D01*
X131305012Y-90492921D01*
X131232224Y-89821147D01*
X131115183Y-89538586D01*
X130845930Y-89433281D01*
X129939210Y-90340000D01*
X129220790Y-90340000D01*
X128314070Y-89433281D01*
X128044817Y-89538586D01*
X127854988Y-90187079D01*
X127063500Y-90187079D01*
X127063500Y-89065930D01*
X128673281Y-89065930D01*
X128674873Y-89070000D01*
X128673281Y-89074070D01*
X128678509Y-89079298D01*
X128778586Y-89335183D01*
X128998878Y-89399668D01*
X129580000Y-89980790D01*
X130115433Y-89445356D01*
X130381414Y-89335183D01*
X130481491Y-89079298D01*
X130486719Y-89074070D01*
X130485127Y-89070000D01*
X130486719Y-89065930D01*
X130481491Y-89060702D01*
X130381414Y-88804817D01*
X130161122Y-88740332D01*
X129580000Y-88159210D01*
X129044567Y-88694644D01*
X128778586Y-88804817D01*
X128678509Y-89060702D01*
X128673281Y-89065930D01*
X127063500Y-89065930D01*
X127063500Y-87647079D01*
X127854988Y-87647079D01*
X127927776Y-88318853D01*
X128044817Y-88601414D01*
X128314070Y-88706719D01*
X129220790Y-87800000D01*
X129939210Y-87800000D01*
X130845930Y-88706719D01*
X131115183Y-88601414D01*
X131305012Y-87952921D01*
X131232224Y-87281147D01*
X131115183Y-86998586D01*
X130845930Y-86893281D01*
X129939210Y-87800000D01*
X129220790Y-87800000D01*
X128314070Y-86893281D01*
X128044817Y-86998586D01*
X127854988Y-87647079D01*
X127063500Y-87647079D01*
X127063500Y-77900917D01*
X128262272Y-77900917D01*
X128462427Y-78385329D01*
X128832722Y-78756271D01*
X129203257Y-78910130D01*
X128834671Y-79062427D01*
X128463729Y-79432722D01*
X128262730Y-79916783D01*
X128262272Y-80440917D01*
X128462427Y-80925329D01*
X128832722Y-81296271D01*
X129203257Y-81450130D01*
X128834671Y-81602427D01*
X128463729Y-81972722D01*
X128262730Y-82456783D01*
X128262272Y-82980917D01*
X128462427Y-83465329D01*
X128832722Y-83836271D01*
X129203257Y-83990130D01*
X128834671Y-84142427D01*
X128463729Y-84512722D01*
X128262730Y-84996783D01*
X128262272Y-85520917D01*
X128462427Y-86005329D01*
X128762506Y-86305932D01*
X128673281Y-86534070D01*
X129580000Y-87440790D01*
X130486719Y-86534070D01*
X130397382Y-86305646D01*
X130696271Y-86007278D01*
X130897270Y-85523217D01*
X130897728Y-84999083D01*
X130697573Y-84514671D01*
X130327278Y-84143729D01*
X129956743Y-83989870D01*
X130325329Y-83837573D01*
X130696271Y-83467278D01*
X130897270Y-82983217D01*
X130897728Y-82459083D01*
X130697573Y-81974671D01*
X130327278Y-81603729D01*
X129956743Y-81449870D01*
X130325329Y-81297573D01*
X130696271Y-80927278D01*
X130897270Y-80443217D01*
X130897728Y-79919083D01*
X130697573Y-79434671D01*
X130327278Y-79063729D01*
X129956743Y-78909870D01*
X130325329Y-78757573D01*
X130696271Y-78387278D01*
X130897270Y-77903217D01*
X130897728Y-77379083D01*
X130697573Y-76894671D01*
X130327278Y-76523729D01*
X129843217Y-76322730D01*
X129319083Y-76322272D01*
X128834671Y-76522427D01*
X128463729Y-76892722D01*
X128262730Y-77376783D01*
X128262272Y-77900917D01*
X127063500Y-77900917D01*
X127063500Y-74120917D01*
X128262272Y-74120917D01*
X128462427Y-74605329D01*
X128832722Y-74976271D01*
X129316783Y-75177270D01*
X129840917Y-75177728D01*
X130325329Y-74977573D01*
X130696271Y-74607278D01*
X130897270Y-74123217D01*
X130897728Y-73599083D01*
X130697573Y-73114671D01*
X130397494Y-72814068D01*
X130486719Y-72585930D01*
X129580000Y-71679210D01*
X128673281Y-72585930D01*
X128762618Y-72814354D01*
X128463729Y-73112722D01*
X128262730Y-73596783D01*
X128262272Y-74120917D01*
X127063500Y-74120917D01*
X127063500Y-71167079D01*
X127854988Y-71167079D01*
X127927776Y-71838853D01*
X128044817Y-72121414D01*
X128314070Y-72226719D01*
X129220790Y-71320000D01*
X129939210Y-71320000D01*
X130845930Y-72226719D01*
X131115183Y-72121414D01*
X131305012Y-71472921D01*
X131232224Y-70801147D01*
X131115183Y-70518586D01*
X130845930Y-70413281D01*
X129939210Y-71320000D01*
X129220790Y-71320000D01*
X128314070Y-70413281D01*
X128044817Y-70518586D01*
X127854988Y-71167079D01*
X127063500Y-71167079D01*
X127063500Y-69040917D01*
X128262272Y-69040917D01*
X128462427Y-69525329D01*
X128762506Y-69825932D01*
X128673281Y-70054070D01*
X129580000Y-70960790D01*
X130486719Y-70054070D01*
X130397382Y-69825646D01*
X130696271Y-69527278D01*
X130897270Y-69043217D01*
X130897728Y-68519083D01*
X130697573Y-68034671D01*
X130327278Y-67663729D01*
X129843217Y-67462730D01*
X129319083Y-67462272D01*
X128834671Y-67662427D01*
X128463729Y-68032722D01*
X128262730Y-68516783D01*
X128262272Y-69040917D01*
X127063500Y-69040917D01*
X127063500Y-60240917D01*
X128262272Y-60240917D01*
X128462427Y-60725329D01*
X128832722Y-61096271D01*
X129203257Y-61250130D01*
X128834671Y-61402427D01*
X128463729Y-61772722D01*
X128262730Y-62256783D01*
X128262272Y-62780917D01*
X128462427Y-63265329D01*
X128832722Y-63636271D01*
X129203257Y-63790130D01*
X128834671Y-63942427D01*
X128463729Y-64312722D01*
X128262730Y-64796783D01*
X128262272Y-65320917D01*
X128462427Y-65805329D01*
X128832722Y-66176271D01*
X129316783Y-66377270D01*
X129840917Y-66377728D01*
X130325329Y-66177573D01*
X130696271Y-65807278D01*
X130897270Y-65323217D01*
X130897728Y-64799083D01*
X130697573Y-64314671D01*
X130327278Y-63943729D01*
X129956743Y-63789870D01*
X130325329Y-63637573D01*
X130696271Y-63267278D01*
X130897270Y-62783217D01*
X130897728Y-62259083D01*
X130697573Y-61774671D01*
X130327278Y-61403729D01*
X129956743Y-61249870D01*
X130325329Y-61097573D01*
X130696271Y-60727278D01*
X130897270Y-60243217D01*
X130897728Y-59719083D01*
X130697573Y-59234671D01*
X130397494Y-58934068D01*
X130486719Y-58705930D01*
X129580000Y-57799210D01*
X128673281Y-58705930D01*
X128762618Y-58934354D01*
X128463729Y-59232722D01*
X128262730Y-59716783D01*
X128262272Y-60240917D01*
X127063500Y-60240917D01*
X127063500Y-57287079D01*
X127854988Y-57287079D01*
X127927776Y-57958853D01*
X128044817Y-58241414D01*
X128314070Y-58346719D01*
X129220790Y-57440000D01*
X129939210Y-57440000D01*
X130845930Y-58346719D01*
X131115183Y-58241414D01*
X131305012Y-57592921D01*
X131232224Y-56921147D01*
X131115183Y-56638586D01*
X130845930Y-56533281D01*
X129939210Y-57440000D01*
X129220790Y-57440000D01*
X128314070Y-56533281D01*
X128044817Y-56638586D01*
X127854988Y-57287079D01*
X127063500Y-57287079D01*
X127063500Y-55160917D01*
X128262272Y-55160917D01*
X128462427Y-55645329D01*
X128762506Y-55945932D01*
X128673281Y-56174070D01*
X129580000Y-57080790D01*
X130486719Y-56174070D01*
X130397382Y-55945646D01*
X130696271Y-55647278D01*
X130897270Y-55163217D01*
X130897728Y-54639083D01*
X130697573Y-54154671D01*
X130327278Y-53783729D01*
X129843217Y-53582730D01*
X129319083Y-53582272D01*
X128834671Y-53782427D01*
X128463729Y-54152722D01*
X128262730Y-54636783D01*
X128262272Y-55160917D01*
X127063500Y-55160917D01*
X127063500Y-53530500D01*
X134429500Y-53530500D01*
X134429500Y-61441698D01*
G36*
X134429500Y-123507500D02*
X127063500Y-123507500D01*
X127063500Y-122307917D01*
X128222272Y-122307917D01*
X128422427Y-122792329D01*
X128792722Y-123163271D01*
X129276783Y-123364270D01*
X129800917Y-123364728D01*
X130285329Y-123164573D01*
X130656271Y-122794278D01*
X130857270Y-122310217D01*
X130857329Y-122242691D01*
X131793384Y-122242691D01*
X131894791Y-122488114D01*
X132082398Y-122676049D01*
X132327644Y-122777884D01*
X132593191Y-122778116D01*
X132838614Y-122676709D01*
X133026549Y-122489102D01*
X133128384Y-122243856D01*
X133128616Y-121978309D01*
X133027209Y-121732886D01*
X132905500Y-121610964D01*
X132905500Y-117520785D01*
X133029114Y-117469709D01*
X133217049Y-117282102D01*
X133318884Y-117036856D01*
X133319116Y-116771309D01*
X133217709Y-116525886D01*
X133030102Y-116337951D01*
X132784856Y-116236116D01*
X132519309Y-116235884D01*
X132273886Y-116337291D01*
X132085951Y-116524898D01*
X131984116Y-116770144D01*
X131983884Y-117035691D01*
X132016500Y-117114628D01*
X132016500Y-121611060D01*
X131895451Y-121731898D01*
X131793616Y-121977144D01*
X131793384Y-122242691D01*
X130857329Y-122242691D01*
X130857728Y-121786083D01*
X130657573Y-121301671D01*
X130357494Y-121001068D01*
X130446719Y-120772930D01*
X129540000Y-119866210D01*
X128633281Y-120772930D01*
X128722618Y-121001354D01*
X128423729Y-121299722D01*
X128222730Y-121783783D01*
X128222272Y-122307917D01*
X127063500Y-122307917D01*
X127063500Y-119354079D01*
X127814988Y-119354079D01*
X127887776Y-120025853D01*
X128004817Y-120308414D01*
X128274070Y-120413719D01*
X129180790Y-119507000D01*
X129899210Y-119507000D01*
X130805930Y-120413719D01*
X131075183Y-120308414D01*
X131265012Y-119659921D01*
X131192224Y-118988147D01*
X131075183Y-118705586D01*
X130805930Y-118600281D01*
X129899210Y-119507000D01*
X129180790Y-119507000D01*
X128274070Y-118600281D01*
X128004817Y-118705586D01*
X127814988Y-119354079D01*
X127063500Y-119354079D01*
X127063500Y-117227917D01*
X128222272Y-117227917D01*
X128422427Y-117712329D01*
X128722506Y-118012932D01*
X128633281Y-118241070D01*
X129540000Y-119147790D01*
X130446719Y-118241070D01*
X130357382Y-118012646D01*
X130656271Y-117714278D01*
X130857270Y-117230217D01*
X130857728Y-116706083D01*
X130657573Y-116221671D01*
X130287278Y-115850729D01*
X129803217Y-115649730D01*
X129279083Y-115649272D01*
X128794671Y-115849427D01*
X128423729Y-116219722D01*
X128222730Y-116703783D01*
X128222272Y-117227917D01*
X127063500Y-117227917D01*
X127063500Y-115379500D01*
X134429500Y-115379500D01*
X134429500Y-123507500D01*
X134429500Y-123507500D01*
G37*
X134429500Y-123507500D02*
X127063500Y-123507500D01*
X127063500Y-122307917D01*
X128222272Y-122307917D01*
X128422427Y-122792329D01*
X128792722Y-123163271D01*
X129276783Y-123364270D01*
X129800917Y-123364728D01*
X130285329Y-123164573D01*
X130656271Y-122794278D01*
X130857270Y-122310217D01*
X130857329Y-122242691D01*
X131793384Y-122242691D01*
X131894791Y-122488114D01*
X132082398Y-122676049D01*
X132327644Y-122777884D01*
X132593191Y-122778116D01*
X132838614Y-122676709D01*
X133026549Y-122489102D01*
X133128384Y-122243856D01*
X133128616Y-121978309D01*
X133027209Y-121732886D01*
X132905500Y-121610964D01*
X132905500Y-117520785D01*
X133029114Y-117469709D01*
X133217049Y-117282102D01*
X133318884Y-117036856D01*
X133319116Y-116771309D01*
X133217709Y-116525886D01*
X133030102Y-116337951D01*
X132784856Y-116236116D01*
X132519309Y-116235884D01*
X132273886Y-116337291D01*
X132085951Y-116524898D01*
X131984116Y-116770144D01*
X131983884Y-117035691D01*
X132016500Y-117114628D01*
X132016500Y-121611060D01*
X131895451Y-121731898D01*
X131793616Y-121977144D01*
X131793384Y-122242691D01*
X130857329Y-122242691D01*
X130857728Y-121786083D01*
X130657573Y-121301671D01*
X130357494Y-121001068D01*
X130446719Y-120772930D01*
X129540000Y-119866210D01*
X128633281Y-120772930D01*
X128722618Y-121001354D01*
X128423729Y-121299722D01*
X128222730Y-121783783D01*
X128222272Y-122307917D01*
X127063500Y-122307917D01*
X127063500Y-119354079D01*
X127814988Y-119354079D01*
X127887776Y-120025853D01*
X128004817Y-120308414D01*
X128274070Y-120413719D01*
X129180790Y-119507000D01*
X129899210Y-119507000D01*
X130805930Y-120413719D01*
X131075183Y-120308414D01*
X131265012Y-119659921D01*
X131192224Y-118988147D01*
X131075183Y-118705586D01*
X130805930Y-118600281D01*
X129899210Y-119507000D01*
X129180790Y-119507000D01*
X128274070Y-118600281D01*
X128004817Y-118705586D01*
X127814988Y-119354079D01*
X127063500Y-119354079D01*
X127063500Y-117227917D01*
X128222272Y-117227917D01*
X128422427Y-117712329D01*
X128722506Y-118012932D01*
X128633281Y-118241070D01*
X129540000Y-119147790D01*
X130446719Y-118241070D01*
X130357382Y-118012646D01*
X130656271Y-117714278D01*
X130857270Y-117230217D01*
X130857728Y-116706083D01*
X130657573Y-116221671D01*
X130287278Y-115850729D01*
X129803217Y-115649730D01*
X129279083Y-115649272D01*
X128794671Y-115849427D01*
X128423729Y-116219722D01*
X128222730Y-116703783D01*
X128222272Y-117227917D01*
X127063500Y-117227917D01*
X127063500Y-115379500D01*
X134429500Y-115379500D01*
X134429500Y-123507500D01*
G36*
X137037069Y-98280282D02*
X136767817Y-98385586D01*
X136577988Y-99034079D01*
X136650776Y-99705853D01*
X136767817Y-99988414D01*
X137037070Y-100093719D01*
X137943790Y-99187000D01*
X137929647Y-99172858D01*
X138288858Y-98813647D01*
X138303000Y-98827790D01*
X138317142Y-98813647D01*
X138676353Y-99172858D01*
X138662210Y-99187000D01*
X139568930Y-100093719D01*
X139838183Y-99988414D01*
X140028012Y-99339921D01*
X139955224Y-98668147D01*
X139838183Y-98385586D01*
X139568931Y-98280282D01*
X139678213Y-98171000D01*
X147383500Y-98171000D01*
X147383500Y-98908026D01*
X147103574Y-98627611D01*
X146585637Y-98412545D01*
X146024823Y-98412055D01*
X145506512Y-98626217D01*
X145109611Y-99022426D01*
X144894545Y-99540363D01*
X144894055Y-100101177D01*
X145108217Y-100619488D01*
X145504426Y-101016389D01*
X145605500Y-101058359D01*
X145605500Y-101183672D01*
X145252672Y-101536500D01*
X142841684Y-101536500D01*
X142800783Y-101437512D01*
X142404574Y-101040611D01*
X141886637Y-100825545D01*
X141325823Y-100825055D01*
X140807512Y-101039217D01*
X140410611Y-101435426D01*
X140195545Y-101953363D01*
X140195055Y-102514177D01*
X140409217Y-103032488D01*
X140805426Y-103429389D01*
X141323363Y-103644455D01*
X141884177Y-103644945D01*
X142402488Y-103430783D01*
X142799389Y-103034574D01*
X142841359Y-102933500D01*
X145542000Y-102933500D01*
X145809305Y-102880330D01*
X146035914Y-102728914D01*
X146797914Y-101966914D01*
X146949330Y-101740305D01*
X147002500Y-101473000D01*
X147002500Y-101058684D01*
X147101488Y-101017783D01*
X147383500Y-100736263D01*
X147383500Y-104394000D01*
X145542000Y-104394000D01*
X145371897Y-104427836D01*
X145227691Y-104524191D01*
X142373382Y-107378500D01*
X135890000Y-107378500D01*
X135719897Y-107412336D01*
X135575691Y-107508691D01*
X134178691Y-108905691D01*
X134082336Y-109049897D01*
X134048500Y-109220000D01*
X134048500Y-111387560D01*
X133927451Y-111508398D01*
X133825616Y-111753644D01*
X133825384Y-112019191D01*
X133926791Y-112264614D01*
X134114398Y-112452549D01*
X134359644Y-112554384D01*
X134625191Y-112554616D01*
X134870614Y-112453209D01*
X135058549Y-112265602D01*
X135160384Y-112020356D01*
X135160616Y-111754809D01*
X135059209Y-111509386D01*
X134937500Y-111387464D01*
X134937500Y-110769177D01*
X135496055Y-110769177D01*
X135710217Y-111287488D01*
X136106426Y-111684389D01*
X136207500Y-111726359D01*
X136207500Y-130970316D01*
X136108512Y-131011217D01*
X135711611Y-131407426D01*
X135496545Y-131925363D01*
X135496055Y-132486177D01*
X135710217Y-133004488D01*
X136106426Y-133401389D01*
X136624363Y-133616455D01*
X137185177Y-133616945D01*
X137703488Y-133402783D01*
X138100389Y-133006574D01*
X138245749Y-132656509D01*
X138345489Y-132897900D01*
X138645520Y-133198455D01*
X139037729Y-133361315D01*
X139462407Y-133361685D01*
X139854900Y-133199511D01*
X140155455Y-132899480D01*
X140318315Y-132507271D01*
X140318685Y-132082593D01*
X140294557Y-132024198D01*
X145413013Y-132024198D01*
X145467754Y-132252490D01*
X145969656Y-132374740D01*
X146480135Y-132295614D01*
X146584246Y-132252490D01*
X146638987Y-132024198D01*
X146026000Y-131411210D01*
X145413013Y-132024198D01*
X140294557Y-132024198D01*
X140156511Y-131690100D01*
X139856480Y-131389545D01*
X139464271Y-131226685D01*
X139039593Y-131226315D01*
X138647100Y-131388489D01*
X138346545Y-131688520D01*
X138281646Y-131844813D01*
X138101783Y-131409512D01*
X137705574Y-131012611D01*
X137664743Y-130995656D01*
X144703260Y-130995656D01*
X144782386Y-131506135D01*
X144825510Y-131610246D01*
X145053802Y-131664987D01*
X145666790Y-131052000D01*
X146385210Y-131052000D01*
X146998198Y-131664987D01*
X147226490Y-131610246D01*
X147348740Y-131108344D01*
X147269614Y-130597865D01*
X147226490Y-130493754D01*
X146998198Y-130439013D01*
X146385210Y-131052000D01*
X145666790Y-131052000D01*
X145053802Y-130439013D01*
X144825510Y-130493754D01*
X144703260Y-130995656D01*
X137664743Y-130995656D01*
X137604500Y-130970641D01*
X137604500Y-130079802D01*
X145413013Y-130079802D01*
X146026000Y-130692790D01*
X146638987Y-130079802D01*
X146584246Y-129851510D01*
X146082344Y-129729260D01*
X145571865Y-129808386D01*
X145467754Y-129851510D01*
X145413013Y-130079802D01*
X137604500Y-130079802D01*
X137604500Y-125922505D01*
X139769324Y-125922505D01*
X139923903Y-126296614D01*
X140209880Y-126583092D01*
X140583719Y-126738323D01*
X140988505Y-126738676D01*
X141362614Y-126584097D01*
X141649092Y-126298120D01*
X141804323Y-125924281D01*
X141804324Y-125922505D01*
X144769324Y-125922505D01*
X144923903Y-126296614D01*
X145209880Y-126583092D01*
X145583719Y-126738323D01*
X145988505Y-126738676D01*
X146362614Y-126584097D01*
X146649092Y-126298120D01*
X146804323Y-125924281D01*
X146804676Y-125519495D01*
X146650097Y-125145386D01*
X146364120Y-124858908D01*
X145990281Y-124703677D01*
X145585495Y-124703324D01*
X145211386Y-124857903D01*
X144924908Y-125143880D01*
X144769677Y-125517719D01*
X144769324Y-125922505D01*
X141804324Y-125922505D01*
X141804676Y-125519495D01*
X141650097Y-125145386D01*
X141364120Y-124858908D01*
X140990281Y-124703677D01*
X140585495Y-124703324D01*
X140211386Y-124857903D01*
X139924908Y-125143880D01*
X139769677Y-125517719D01*
X139769324Y-125922505D01*
X137604500Y-125922505D01*
X137604500Y-120922505D01*
X139769324Y-120922505D01*
X139923903Y-121296614D01*
X140209880Y-121583092D01*
X140583719Y-121738323D01*
X140988505Y-121738676D01*
X141362614Y-121584097D01*
X141649092Y-121298120D01*
X141804323Y-120924281D01*
X141804324Y-120922505D01*
X144769324Y-120922505D01*
X144923903Y-121296614D01*
X145209880Y-121583092D01*
X145583719Y-121738323D01*
X145988505Y-121738676D01*
X146362614Y-121584097D01*
X146649092Y-121298120D01*
X146804323Y-120924281D01*
X146804676Y-120519495D01*
X146650097Y-120145386D01*
X146364120Y-119858908D01*
X145990281Y-119703677D01*
X145585495Y-119703324D01*
X145211386Y-119857903D01*
X144924908Y-120143880D01*
X144769677Y-120517719D01*
X144769324Y-120922505D01*
X141804324Y-120922505D01*
X141804676Y-120519495D01*
X141650097Y-120145386D01*
X141364120Y-119858908D01*
X140990281Y-119703677D01*
X140585495Y-119703324D01*
X140211386Y-119857903D01*
X139924908Y-120143880D01*
X139769677Y-120517719D01*
X139769324Y-120922505D01*
X137604500Y-120922505D01*
X137604500Y-111726684D01*
X137703488Y-111685783D01*
X137974261Y-111415482D01*
X142049357Y-111415482D01*
X142174767Y-111718998D01*
X142342566Y-111887089D01*
X142175583Y-112053781D01*
X142049643Y-112357077D01*
X142049357Y-112685482D01*
X142174767Y-112988998D01*
X142406781Y-113221417D01*
X142710077Y-113347357D01*
X143038482Y-113347643D01*
X143341998Y-113222233D01*
X143574417Y-112990219D01*
X143700357Y-112686923D01*
X143700643Y-112358518D01*
X143575233Y-112055002D01*
X143407434Y-111886911D01*
X143574417Y-111720219D01*
X143700357Y-111416923D01*
X143700643Y-111088518D01*
X143575233Y-110785002D01*
X143343219Y-110552583D01*
X143039923Y-110426643D01*
X142960364Y-110426574D01*
X142875000Y-110341210D01*
X142789785Y-110426425D01*
X142711518Y-110426357D01*
X142408002Y-110551767D01*
X142175583Y-110783781D01*
X142049643Y-111087077D01*
X142049357Y-111415482D01*
X137974261Y-111415482D01*
X138100389Y-111289574D01*
X138315455Y-110771637D01*
X138315945Y-110210823D01*
X138207350Y-109948001D01*
X141645333Y-109948001D01*
X141725925Y-110421162D01*
X141751947Y-110483984D01*
X141970968Y-110526822D01*
X142515790Y-109982000D01*
X143234210Y-109982000D01*
X143779032Y-110526822D01*
X143998053Y-110483984D01*
X144104667Y-110015999D01*
X144024075Y-109542838D01*
X143998053Y-109480016D01*
X143779032Y-109437178D01*
X143234210Y-109982000D01*
X142515790Y-109982000D01*
X141970968Y-109437178D01*
X141751947Y-109480016D01*
X141645333Y-109948001D01*
X138207350Y-109948001D01*
X138101783Y-109692512D01*
X137705574Y-109295611D01*
X137187637Y-109080545D01*
X136626823Y-109080055D01*
X136108512Y-109294217D01*
X135711611Y-109690426D01*
X135496545Y-110208363D01*
X135496055Y-110769177D01*
X134937500Y-110769177D01*
X134937500Y-109404118D01*
X135263650Y-109077968D01*
X142330178Y-109077968D01*
X142875000Y-109622790D01*
X143419822Y-109077968D01*
X143376984Y-108858947D01*
X142908999Y-108752333D01*
X142435838Y-108832925D01*
X142373016Y-108858947D01*
X142330178Y-109077968D01*
X135263650Y-109077968D01*
X136074118Y-108267500D01*
X142557500Y-108267500D01*
X142727603Y-108233664D01*
X142871809Y-108137309D01*
X145726118Y-105283000D01*
X146503075Y-105283000D01*
X146373451Y-105412398D01*
X146271616Y-105657644D01*
X146271384Y-105923191D01*
X146372791Y-106168614D01*
X146560398Y-106356549D01*
X146805644Y-106458384D01*
X147071191Y-106458616D01*
X147316614Y-106357209D01*
X147383500Y-106290440D01*
X147383500Y-108583907D01*
X147170957Y-108671728D01*
X146912635Y-108929599D01*
X146772660Y-109266697D01*
X146772341Y-109631701D01*
X146911728Y-109969043D01*
X147169599Y-110227365D01*
X147383500Y-110316184D01*
X147383500Y-112187494D01*
X147169957Y-112275728D01*
X146911635Y-112533599D01*
X146771660Y-112870697D01*
X146771341Y-113235701D01*
X146910728Y-113573043D01*
X147168599Y-113831365D01*
X147383500Y-113920599D01*
X147383500Y-115506500D01*
X142739440Y-115506500D01*
X142618602Y-115385451D01*
X142373356Y-115283616D01*
X142107809Y-115283384D01*
X141862386Y-115384791D01*
X141674451Y-115572398D01*
X141572616Y-115817644D01*
X141572384Y-116083191D01*
X141673791Y-116328614D01*
X141861398Y-116516549D01*
X142028763Y-116586045D01*
X141862386Y-116654791D01*
X141674451Y-116842398D01*
X141572616Y-117087644D01*
X141572384Y-117353191D01*
X141673791Y-117598614D01*
X141861398Y-117786549D01*
X142106644Y-117888384D01*
X142372191Y-117888616D01*
X142617614Y-117787209D01*
X142739536Y-117665500D01*
X147383500Y-117665500D01*
X147383500Y-138112500D01*
X146763196Y-138112500D01*
X146803365Y-138072401D01*
X146943340Y-137735303D01*
X146943659Y-137370299D01*
X146804272Y-137032957D01*
X146546401Y-136774635D01*
X146209303Y-136634660D01*
X145844299Y-136634341D01*
X145506957Y-136773728D01*
X145248635Y-137031599D01*
X145108660Y-137368697D01*
X145108341Y-137733701D01*
X145247728Y-138071043D01*
X145289113Y-138112500D01*
X135191500Y-138112500D01*
X135191500Y-136906000D01*
X135186666Y-136881700D01*
X135172901Y-136861099D01*
X135152300Y-136847334D01*
X135128000Y-136842500D01*
X134493000Y-136842500D01*
X134468700Y-136847334D01*
X134448099Y-136861099D01*
X134434334Y-136881700D01*
X134429500Y-136906000D01*
X134429500Y-144716500D01*
X127063500Y-144716500D01*
X127063500Y-139822930D01*
X128633281Y-139822930D01*
X128738586Y-140092183D01*
X129387079Y-140282012D01*
X130058853Y-140209224D01*
X130341414Y-140092183D01*
X130446719Y-139822930D01*
X129540000Y-138916210D01*
X128633281Y-139822930D01*
X127063500Y-139822930D01*
X127063500Y-138404079D01*
X127814988Y-138404079D01*
X127887776Y-139075853D01*
X128004817Y-139358414D01*
X128274070Y-139463719D01*
X129180790Y-138557000D01*
X129899210Y-138557000D01*
X130805930Y-139463719D01*
X131075183Y-139358414D01*
X131265012Y-138709921D01*
X131192224Y-138038147D01*
X131075183Y-137755586D01*
X130805930Y-137650281D01*
X129899210Y-138557000D01*
X129180790Y-138557000D01*
X128274070Y-137650281D01*
X128004817Y-137755586D01*
X127814988Y-138404079D01*
X127063500Y-138404079D01*
X127063500Y-131197917D01*
X128222272Y-131197917D01*
X128422427Y-131682329D01*
X128792722Y-132053271D01*
X129163257Y-132207130D01*
X128794671Y-132359427D01*
X128423729Y-132729722D01*
X128222730Y-133213783D01*
X128222272Y-133737917D01*
X128422427Y-134222329D01*
X128792722Y-134593271D01*
X129163257Y-134747130D01*
X128794671Y-134899427D01*
X128423729Y-135269722D01*
X128222730Y-135753783D01*
X128222272Y-136277917D01*
X128422427Y-136762329D01*
X128722506Y-137062932D01*
X128633281Y-137291070D01*
X129540000Y-138197790D01*
X130446719Y-137291070D01*
X130357382Y-137062646D01*
X130656271Y-136764278D01*
X130857270Y-136280217D01*
X130857728Y-135756083D01*
X130657573Y-135271671D01*
X130287278Y-134900729D01*
X129916743Y-134746870D01*
X130285329Y-134594573D01*
X130656271Y-134224278D01*
X130857270Y-133740217D01*
X130857728Y-133216083D01*
X130657573Y-132731671D01*
X130287278Y-132360729D01*
X129916743Y-132206870D01*
X130285329Y-132054573D01*
X130656271Y-131684278D01*
X130857270Y-131200217D01*
X130857728Y-130676083D01*
X130657573Y-130191671D01*
X130357494Y-129891068D01*
X130446719Y-129662930D01*
X129540000Y-128756210D01*
X128633281Y-129662930D01*
X128722618Y-129891354D01*
X128423729Y-130189722D01*
X128222730Y-130673783D01*
X128222272Y-131197917D01*
X127063500Y-131197917D01*
X127063500Y-128244079D01*
X127814988Y-128244079D01*
X127887776Y-128915853D01*
X128004817Y-129198414D01*
X128274070Y-129303719D01*
X129180790Y-128397000D01*
X129899210Y-128397000D01*
X130805930Y-129303719D01*
X131075183Y-129198414D01*
X131265012Y-128549921D01*
X131192224Y-127878147D01*
X131075183Y-127595586D01*
X130805930Y-127490281D01*
X129899210Y-128397000D01*
X129180790Y-128397000D01*
X128274070Y-127490281D01*
X128004817Y-127595586D01*
X127814988Y-128244079D01*
X127063500Y-128244079D01*
X127063500Y-126117917D01*
X128222272Y-126117917D01*
X128422427Y-126602329D01*
X128722506Y-126902932D01*
X128633281Y-127131070D01*
X129540000Y-128037790D01*
X130446719Y-127131070D01*
X130357382Y-126902646D01*
X130656271Y-126604278D01*
X130857270Y-126120217D01*
X130857728Y-125596083D01*
X130657573Y-125111671D01*
X130287278Y-124740729D01*
X129803217Y-124539730D01*
X129279083Y-124539272D01*
X128794671Y-124739427D01*
X128423729Y-125109722D01*
X128222730Y-125593783D01*
X128222272Y-126117917D01*
X127063500Y-126117917D01*
X127063500Y-124269500D01*
X134429500Y-124269500D01*
X134429500Y-136271000D01*
X134434334Y-136295300D01*
X134448099Y-136315901D01*
X134468700Y-136329666D01*
X134493000Y-136334500D01*
X135128000Y-136334500D01*
X135152300Y-136329666D01*
X135172901Y-136315901D01*
X135186666Y-136295300D01*
X135191500Y-136271000D01*
X135191500Y-135044000D01*
X138277280Y-135044000D01*
X138277280Y-136544000D01*
X138301922Y-136667882D01*
X138372095Y-136772905D01*
X138477118Y-136843078D01*
X138601000Y-136867720D01*
X139901000Y-136867720D01*
X140024882Y-136843078D01*
X140129905Y-136772905D01*
X140200078Y-136667882D01*
X140224720Y-136544000D01*
X140224720Y-135044000D01*
X140200078Y-134920118D01*
X140129905Y-134815095D01*
X140024882Y-134744922D01*
X139901000Y-134720280D01*
X138601000Y-134720280D01*
X138477118Y-134744922D01*
X138372095Y-134815095D01*
X138301922Y-134920118D01*
X138277280Y-135044000D01*
X135191500Y-135044000D01*
X135191500Y-114554000D01*
X135186666Y-114529700D01*
X135172901Y-114509099D01*
X135152300Y-114495334D01*
X135128000Y-114490500D01*
X130370623Y-114490500D01*
X130446719Y-114295930D01*
X129540000Y-113389210D01*
X128633281Y-114295930D01*
X128709377Y-114490500D01*
X127063500Y-114490500D01*
X127063500Y-112877079D01*
X127814988Y-112877079D01*
X127887776Y-113548853D01*
X128004817Y-113831414D01*
X128274070Y-113936719D01*
X129180790Y-113030000D01*
X129899210Y-113030000D01*
X130805930Y-113936719D01*
X131075183Y-113831414D01*
X131265012Y-113182921D01*
X131192224Y-112511147D01*
X131075183Y-112228586D01*
X130805930Y-112123281D01*
X129899210Y-113030000D01*
X129180790Y-113030000D01*
X128274070Y-112123281D01*
X128004817Y-112228586D01*
X127814988Y-112877079D01*
X127063500Y-112877079D01*
X127063500Y-103130917D01*
X128222272Y-103130917D01*
X128422427Y-103615329D01*
X128792722Y-103986271D01*
X129163257Y-104140130D01*
X128794671Y-104292427D01*
X128423729Y-104662722D01*
X128222730Y-105146783D01*
X128222272Y-105670917D01*
X128422427Y-106155329D01*
X128792722Y-106526271D01*
X129163257Y-106680130D01*
X128794671Y-106832427D01*
X128423729Y-107202722D01*
X128222730Y-107686783D01*
X128222272Y-108210917D01*
X128422427Y-108695329D01*
X128792722Y-109066271D01*
X129163257Y-109220130D01*
X128794671Y-109372427D01*
X128423729Y-109742722D01*
X128222730Y-110226783D01*
X128222272Y-110750917D01*
X128422427Y-111235329D01*
X128722506Y-111535932D01*
X128633281Y-111764070D01*
X129540000Y-112670790D01*
X130446719Y-111764070D01*
X130357382Y-111535646D01*
X130656271Y-111237278D01*
X130857270Y-110753217D01*
X130857728Y-110229083D01*
X130657573Y-109744671D01*
X130287278Y-109373729D01*
X129916743Y-109219870D01*
X130285329Y-109067573D01*
X130656271Y-108697278D01*
X130857270Y-108213217D01*
X130857728Y-107689083D01*
X130657573Y-107204671D01*
X130287278Y-106833729D01*
X129916743Y-106679870D01*
X130285329Y-106527573D01*
X130656271Y-106157278D01*
X130857270Y-105673217D01*
X130857728Y-105149083D01*
X130657573Y-104664671D01*
X130287278Y-104293729D01*
X129916743Y-104139870D01*
X130285329Y-103987573D01*
X130656271Y-103617278D01*
X130857270Y-103133217D01*
X130857728Y-102609083D01*
X130657573Y-102124671D01*
X130521058Y-101987917D01*
X136985272Y-101987917D01*
X137185427Y-102472329D01*
X137555722Y-102843271D01*
X137926257Y-102997130D01*
X137557671Y-103149427D01*
X137186729Y-103519722D01*
X136985730Y-104003783D01*
X136985272Y-104527917D01*
X137185427Y-105012329D01*
X137555722Y-105383271D01*
X138039783Y-105584270D01*
X138563917Y-105584728D01*
X139048329Y-105384573D01*
X139419271Y-105014278D01*
X139620270Y-104530217D01*
X139620728Y-104006083D01*
X139420573Y-103521671D01*
X139050278Y-103150729D01*
X138679743Y-102996870D01*
X139048329Y-102844573D01*
X139419271Y-102474278D01*
X139620270Y-101990217D01*
X139620728Y-101466083D01*
X139420573Y-100981671D01*
X139120494Y-100681068D01*
X139209719Y-100452930D01*
X138303000Y-99546210D01*
X137396281Y-100452930D01*
X137485618Y-100681354D01*
X137186729Y-100979722D01*
X136985730Y-101463783D01*
X136985272Y-101987917D01*
X130521058Y-101987917D01*
X130287278Y-101753729D01*
X129803217Y-101552730D01*
X129279083Y-101552272D01*
X128794671Y-101752427D01*
X128423729Y-102122722D01*
X128222730Y-102606783D01*
X128222272Y-103130917D01*
X127063500Y-103130917D01*
X127063500Y-101282500D01*
X134747000Y-101282500D01*
X134771300Y-101277666D01*
X134791901Y-101263901D01*
X134805666Y-101243300D01*
X134810500Y-101219000D01*
X134810500Y-98171000D01*
X136927787Y-98171000D01*
X137037069Y-98280282D01*
X137037069Y-98280282D01*
G37*
X137037069Y-98280282D02*
X136767817Y-98385586D01*
X136577988Y-99034079D01*
X136650776Y-99705853D01*
X136767817Y-99988414D01*
X137037070Y-100093719D01*
X137943790Y-99187000D01*
X137929647Y-99172858D01*
X138288858Y-98813647D01*
X138303000Y-98827790D01*
X138317142Y-98813647D01*
X138676353Y-99172858D01*
X138662210Y-99187000D01*
X139568930Y-100093719D01*
X139838183Y-99988414D01*
X140028012Y-99339921D01*
X139955224Y-98668147D01*
X139838183Y-98385586D01*
X139568931Y-98280282D01*
X139678213Y-98171000D01*
X147383500Y-98171000D01*
X147383500Y-98908026D01*
X147103574Y-98627611D01*
X146585637Y-98412545D01*
X146024823Y-98412055D01*
X145506512Y-98626217D01*
X145109611Y-99022426D01*
X144894545Y-99540363D01*
X144894055Y-100101177D01*
X145108217Y-100619488D01*
X145504426Y-101016389D01*
X145605500Y-101058359D01*
X145605500Y-101183672D01*
X145252672Y-101536500D01*
X142841684Y-101536500D01*
X142800783Y-101437512D01*
X142404574Y-101040611D01*
X141886637Y-100825545D01*
X141325823Y-100825055D01*
X140807512Y-101039217D01*
X140410611Y-101435426D01*
X140195545Y-101953363D01*
X140195055Y-102514177D01*
X140409217Y-103032488D01*
X140805426Y-103429389D01*
X141323363Y-103644455D01*
X141884177Y-103644945D01*
X142402488Y-103430783D01*
X142799389Y-103034574D01*
X142841359Y-102933500D01*
X145542000Y-102933500D01*
X145809305Y-102880330D01*
X146035914Y-102728914D01*
X146797914Y-101966914D01*
X146949330Y-101740305D01*
X147002500Y-101473000D01*
X147002500Y-101058684D01*
X147101488Y-101017783D01*
X147383500Y-100736263D01*
X147383500Y-104394000D01*
X145542000Y-104394000D01*
X145371897Y-104427836D01*
X145227691Y-104524191D01*
X142373382Y-107378500D01*
X135890000Y-107378500D01*
X135719897Y-107412336D01*
X135575691Y-107508691D01*
X134178691Y-108905691D01*
X134082336Y-109049897D01*
X134048500Y-109220000D01*
X134048500Y-111387560D01*
X133927451Y-111508398D01*
X133825616Y-111753644D01*
X133825384Y-112019191D01*
X133926791Y-112264614D01*
X134114398Y-112452549D01*
X134359644Y-112554384D01*
X134625191Y-112554616D01*
X134870614Y-112453209D01*
X135058549Y-112265602D01*
X135160384Y-112020356D01*
X135160616Y-111754809D01*
X135059209Y-111509386D01*
X134937500Y-111387464D01*
X134937500Y-110769177D01*
X135496055Y-110769177D01*
X135710217Y-111287488D01*
X136106426Y-111684389D01*
X136207500Y-111726359D01*
X136207500Y-130970316D01*
X136108512Y-131011217D01*
X135711611Y-131407426D01*
X135496545Y-131925363D01*
X135496055Y-132486177D01*
X135710217Y-133004488D01*
X136106426Y-133401389D01*
X136624363Y-133616455D01*
X137185177Y-133616945D01*
X137703488Y-133402783D01*
X138100389Y-133006574D01*
X138245749Y-132656509D01*
X138345489Y-132897900D01*
X138645520Y-133198455D01*
X139037729Y-133361315D01*
X139462407Y-133361685D01*
X139854900Y-133199511D01*
X140155455Y-132899480D01*
X140318315Y-132507271D01*
X140318685Y-132082593D01*
X140294557Y-132024198D01*
X145413013Y-132024198D01*
X145467754Y-132252490D01*
X145969656Y-132374740D01*
X146480135Y-132295614D01*
X146584246Y-132252490D01*
X146638987Y-132024198D01*
X146026000Y-131411210D01*
X145413013Y-132024198D01*
X140294557Y-132024198D01*
X140156511Y-131690100D01*
X139856480Y-131389545D01*
X139464271Y-131226685D01*
X139039593Y-131226315D01*
X138647100Y-131388489D01*
X138346545Y-131688520D01*
X138281646Y-131844813D01*
X138101783Y-131409512D01*
X137705574Y-131012611D01*
X137664743Y-130995656D01*
X144703260Y-130995656D01*
X144782386Y-131506135D01*
X144825510Y-131610246D01*
X145053802Y-131664987D01*
X145666790Y-131052000D01*
X146385210Y-131052000D01*
X146998198Y-131664987D01*
X147226490Y-131610246D01*
X147348740Y-131108344D01*
X147269614Y-130597865D01*
X147226490Y-130493754D01*
X146998198Y-130439013D01*
X146385210Y-131052000D01*
X145666790Y-131052000D01*
X145053802Y-130439013D01*
X144825510Y-130493754D01*
X144703260Y-130995656D01*
X137664743Y-130995656D01*
X137604500Y-130970641D01*
X137604500Y-130079802D01*
X145413013Y-130079802D01*
X146026000Y-130692790D01*
X146638987Y-130079802D01*
X146584246Y-129851510D01*
X146082344Y-129729260D01*
X145571865Y-129808386D01*
X145467754Y-129851510D01*
X145413013Y-130079802D01*
X137604500Y-130079802D01*
X137604500Y-125922505D01*
X139769324Y-125922505D01*
X139923903Y-126296614D01*
X140209880Y-126583092D01*
X140583719Y-126738323D01*
X140988505Y-126738676D01*
X141362614Y-126584097D01*
X141649092Y-126298120D01*
X141804323Y-125924281D01*
X141804324Y-125922505D01*
X144769324Y-125922505D01*
X144923903Y-126296614D01*
X145209880Y-126583092D01*
X145583719Y-126738323D01*
X145988505Y-126738676D01*
X146362614Y-126584097D01*
X146649092Y-126298120D01*
X146804323Y-125924281D01*
X146804676Y-125519495D01*
X146650097Y-125145386D01*
X146364120Y-124858908D01*
X145990281Y-124703677D01*
X145585495Y-124703324D01*
X145211386Y-124857903D01*
X144924908Y-125143880D01*
X144769677Y-125517719D01*
X144769324Y-125922505D01*
X141804324Y-125922505D01*
X141804676Y-125519495D01*
X141650097Y-125145386D01*
X141364120Y-124858908D01*
X140990281Y-124703677D01*
X140585495Y-124703324D01*
X140211386Y-124857903D01*
X139924908Y-125143880D01*
X139769677Y-125517719D01*
X139769324Y-125922505D01*
X137604500Y-125922505D01*
X137604500Y-120922505D01*
X139769324Y-120922505D01*
X139923903Y-121296614D01*
X140209880Y-121583092D01*
X140583719Y-121738323D01*
X140988505Y-121738676D01*
X141362614Y-121584097D01*
X141649092Y-121298120D01*
X141804323Y-120924281D01*
X141804324Y-120922505D01*
X144769324Y-120922505D01*
X144923903Y-121296614D01*
X145209880Y-121583092D01*
X145583719Y-121738323D01*
X145988505Y-121738676D01*
X146362614Y-121584097D01*
X146649092Y-121298120D01*
X146804323Y-120924281D01*
X146804676Y-120519495D01*
X146650097Y-120145386D01*
X146364120Y-119858908D01*
X145990281Y-119703677D01*
X145585495Y-119703324D01*
X145211386Y-119857903D01*
X144924908Y-120143880D01*
X144769677Y-120517719D01*
X144769324Y-120922505D01*
X141804324Y-120922505D01*
X141804676Y-120519495D01*
X141650097Y-120145386D01*
X141364120Y-119858908D01*
X140990281Y-119703677D01*
X140585495Y-119703324D01*
X140211386Y-119857903D01*
X139924908Y-120143880D01*
X139769677Y-120517719D01*
X139769324Y-120922505D01*
X137604500Y-120922505D01*
X137604500Y-111726684D01*
X137703488Y-111685783D01*
X137974261Y-111415482D01*
X142049357Y-111415482D01*
X142174767Y-111718998D01*
X142342566Y-111887089D01*
X142175583Y-112053781D01*
X142049643Y-112357077D01*
X142049357Y-112685482D01*
X142174767Y-112988998D01*
X142406781Y-113221417D01*
X142710077Y-113347357D01*
X143038482Y-113347643D01*
X143341998Y-113222233D01*
X143574417Y-112990219D01*
X143700357Y-112686923D01*
X143700643Y-112358518D01*
X143575233Y-112055002D01*
X143407434Y-111886911D01*
X143574417Y-111720219D01*
X143700357Y-111416923D01*
X143700643Y-111088518D01*
X143575233Y-110785002D01*
X143343219Y-110552583D01*
X143039923Y-110426643D01*
X142960364Y-110426574D01*
X142875000Y-110341210D01*
X142789785Y-110426425D01*
X142711518Y-110426357D01*
X142408002Y-110551767D01*
X142175583Y-110783781D01*
X142049643Y-111087077D01*
X142049357Y-111415482D01*
X137974261Y-111415482D01*
X138100389Y-111289574D01*
X138315455Y-110771637D01*
X138315945Y-110210823D01*
X138207350Y-109948001D01*
X141645333Y-109948001D01*
X141725925Y-110421162D01*
X141751947Y-110483984D01*
X141970968Y-110526822D01*
X142515790Y-109982000D01*
X143234210Y-109982000D01*
X143779032Y-110526822D01*
X143998053Y-110483984D01*
X144104667Y-110015999D01*
X144024075Y-109542838D01*
X143998053Y-109480016D01*
X143779032Y-109437178D01*
X143234210Y-109982000D01*
X142515790Y-109982000D01*
X141970968Y-109437178D01*
X141751947Y-109480016D01*
X141645333Y-109948001D01*
X138207350Y-109948001D01*
X138101783Y-109692512D01*
X137705574Y-109295611D01*
X137187637Y-109080545D01*
X136626823Y-109080055D01*
X136108512Y-109294217D01*
X135711611Y-109690426D01*
X135496545Y-110208363D01*
X135496055Y-110769177D01*
X134937500Y-110769177D01*
X134937500Y-109404118D01*
X135263650Y-109077968D01*
X142330178Y-109077968D01*
X142875000Y-109622790D01*
X143419822Y-109077968D01*
X143376984Y-108858947D01*
X142908999Y-108752333D01*
X142435838Y-108832925D01*
X142373016Y-108858947D01*
X142330178Y-109077968D01*
X135263650Y-109077968D01*
X136074118Y-108267500D01*
X142557500Y-108267500D01*
X142727603Y-108233664D01*
X142871809Y-108137309D01*
X145726118Y-105283000D01*
X146503075Y-105283000D01*
X146373451Y-105412398D01*
X146271616Y-105657644D01*
X146271384Y-105923191D01*
X146372791Y-106168614D01*
X146560398Y-106356549D01*
X146805644Y-106458384D01*
X147071191Y-106458616D01*
X147316614Y-106357209D01*
X147383500Y-106290440D01*
X147383500Y-108583907D01*
X147170957Y-108671728D01*
X146912635Y-108929599D01*
X146772660Y-109266697D01*
X146772341Y-109631701D01*
X146911728Y-109969043D01*
X147169599Y-110227365D01*
X147383500Y-110316184D01*
X147383500Y-112187494D01*
X147169957Y-112275728D01*
X146911635Y-112533599D01*
X146771660Y-112870697D01*
X146771341Y-113235701D01*
X146910728Y-113573043D01*
X147168599Y-113831365D01*
X147383500Y-113920599D01*
X147383500Y-115506500D01*
X142739440Y-115506500D01*
X142618602Y-115385451D01*
X142373356Y-115283616D01*
X142107809Y-115283384D01*
X141862386Y-115384791D01*
X141674451Y-115572398D01*
X141572616Y-115817644D01*
X141572384Y-116083191D01*
X141673791Y-116328614D01*
X141861398Y-116516549D01*
X142028763Y-116586045D01*
X141862386Y-116654791D01*
X141674451Y-116842398D01*
X141572616Y-117087644D01*
X141572384Y-117353191D01*
X141673791Y-117598614D01*
X141861398Y-117786549D01*
X142106644Y-117888384D01*
X142372191Y-117888616D01*
X142617614Y-117787209D01*
X142739536Y-117665500D01*
X147383500Y-117665500D01*
X147383500Y-138112500D01*
X146763196Y-138112500D01*
X146803365Y-138072401D01*
X146943340Y-137735303D01*
X146943659Y-137370299D01*
X146804272Y-137032957D01*
X146546401Y-136774635D01*
X146209303Y-136634660D01*
X145844299Y-136634341D01*
X145506957Y-136773728D01*
X145248635Y-137031599D01*
X145108660Y-137368697D01*
X145108341Y-137733701D01*
X145247728Y-138071043D01*
X145289113Y-138112500D01*
X135191500Y-138112500D01*
X135191500Y-136906000D01*
X135186666Y-136881700D01*
X135172901Y-136861099D01*
X135152300Y-136847334D01*
X135128000Y-136842500D01*
X134493000Y-136842500D01*
X134468700Y-136847334D01*
X134448099Y-136861099D01*
X134434334Y-136881700D01*
X134429500Y-136906000D01*
X134429500Y-144716500D01*
X127063500Y-144716500D01*
X127063500Y-139822930D01*
X128633281Y-139822930D01*
X128738586Y-140092183D01*
X129387079Y-140282012D01*
X130058853Y-140209224D01*
X130341414Y-140092183D01*
X130446719Y-139822930D01*
X129540000Y-138916210D01*
X128633281Y-139822930D01*
X127063500Y-139822930D01*
X127063500Y-138404079D01*
X127814988Y-138404079D01*
X127887776Y-139075853D01*
X128004817Y-139358414D01*
X128274070Y-139463719D01*
X129180790Y-138557000D01*
X129899210Y-138557000D01*
X130805930Y-139463719D01*
X131075183Y-139358414D01*
X131265012Y-138709921D01*
X131192224Y-138038147D01*
X131075183Y-137755586D01*
X130805930Y-137650281D01*
X129899210Y-138557000D01*
X129180790Y-138557000D01*
X128274070Y-137650281D01*
X128004817Y-137755586D01*
X127814988Y-138404079D01*
X127063500Y-138404079D01*
X127063500Y-131197917D01*
X128222272Y-131197917D01*
X128422427Y-131682329D01*
X128792722Y-132053271D01*
X129163257Y-132207130D01*
X128794671Y-132359427D01*
X128423729Y-132729722D01*
X128222730Y-133213783D01*
X128222272Y-133737917D01*
X128422427Y-134222329D01*
X128792722Y-134593271D01*
X129163257Y-134747130D01*
X128794671Y-134899427D01*
X128423729Y-135269722D01*
X128222730Y-135753783D01*
X128222272Y-136277917D01*
X128422427Y-136762329D01*
X128722506Y-137062932D01*
X128633281Y-137291070D01*
X129540000Y-138197790D01*
X130446719Y-137291070D01*
X130357382Y-137062646D01*
X130656271Y-136764278D01*
X130857270Y-136280217D01*
X130857728Y-135756083D01*
X130657573Y-135271671D01*
X130287278Y-134900729D01*
X129916743Y-134746870D01*
X130285329Y-134594573D01*
X130656271Y-134224278D01*
X130857270Y-133740217D01*
X130857728Y-133216083D01*
X130657573Y-132731671D01*
X130287278Y-132360729D01*
X129916743Y-132206870D01*
X130285329Y-132054573D01*
X130656271Y-131684278D01*
X130857270Y-131200217D01*
X130857728Y-130676083D01*
X130657573Y-130191671D01*
X130357494Y-129891068D01*
X130446719Y-129662930D01*
X129540000Y-128756210D01*
X128633281Y-129662930D01*
X128722618Y-129891354D01*
X128423729Y-130189722D01*
X128222730Y-130673783D01*
X128222272Y-131197917D01*
X127063500Y-131197917D01*
X127063500Y-128244079D01*
X127814988Y-128244079D01*
X127887776Y-128915853D01*
X128004817Y-129198414D01*
X128274070Y-129303719D01*
X129180790Y-128397000D01*
X129899210Y-128397000D01*
X130805930Y-129303719D01*
X131075183Y-129198414D01*
X131265012Y-128549921D01*
X131192224Y-127878147D01*
X131075183Y-127595586D01*
X130805930Y-127490281D01*
X129899210Y-128397000D01*
X129180790Y-128397000D01*
X128274070Y-127490281D01*
X128004817Y-127595586D01*
X127814988Y-128244079D01*
X127063500Y-128244079D01*
X127063500Y-126117917D01*
X128222272Y-126117917D01*
X128422427Y-126602329D01*
X128722506Y-126902932D01*
X128633281Y-127131070D01*
X129540000Y-128037790D01*
X130446719Y-127131070D01*
X130357382Y-126902646D01*
X130656271Y-126604278D01*
X130857270Y-126120217D01*
X130857728Y-125596083D01*
X130657573Y-125111671D01*
X130287278Y-124740729D01*
X129803217Y-124539730D01*
X129279083Y-124539272D01*
X128794671Y-124739427D01*
X128423729Y-125109722D01*
X128222730Y-125593783D01*
X128222272Y-126117917D01*
X127063500Y-126117917D01*
X127063500Y-124269500D01*
X134429500Y-124269500D01*
X134429500Y-136271000D01*
X134434334Y-136295300D01*
X134448099Y-136315901D01*
X134468700Y-136329666D01*
X134493000Y-136334500D01*
X135128000Y-136334500D01*
X135152300Y-136329666D01*
X135172901Y-136315901D01*
X135186666Y-136295300D01*
X135191500Y-136271000D01*
X135191500Y-135044000D01*
X138277280Y-135044000D01*
X138277280Y-136544000D01*
X138301922Y-136667882D01*
X138372095Y-136772905D01*
X138477118Y-136843078D01*
X138601000Y-136867720D01*
X139901000Y-136867720D01*
X140024882Y-136843078D01*
X140129905Y-136772905D01*
X140200078Y-136667882D01*
X140224720Y-136544000D01*
X140224720Y-135044000D01*
X140200078Y-134920118D01*
X140129905Y-134815095D01*
X140024882Y-134744922D01*
X139901000Y-134720280D01*
X138601000Y-134720280D01*
X138477118Y-134744922D01*
X138372095Y-134815095D01*
X138301922Y-134920118D01*
X138277280Y-135044000D01*
X135191500Y-135044000D01*
X135191500Y-114554000D01*
X135186666Y-114529700D01*
X135172901Y-114509099D01*
X135152300Y-114495334D01*
X135128000Y-114490500D01*
X130370623Y-114490500D01*
X130446719Y-114295930D01*
X129540000Y-113389210D01*
X128633281Y-114295930D01*
X128709377Y-114490500D01*
X127063500Y-114490500D01*
X127063500Y-112877079D01*
X127814988Y-112877079D01*
X127887776Y-113548853D01*
X128004817Y-113831414D01*
X128274070Y-113936719D01*
X129180790Y-113030000D01*
X129899210Y-113030000D01*
X130805930Y-113936719D01*
X131075183Y-113831414D01*
X131265012Y-113182921D01*
X131192224Y-112511147D01*
X131075183Y-112228586D01*
X130805930Y-112123281D01*
X129899210Y-113030000D01*
X129180790Y-113030000D01*
X128274070Y-112123281D01*
X128004817Y-112228586D01*
X127814988Y-112877079D01*
X127063500Y-112877079D01*
X127063500Y-103130917D01*
X128222272Y-103130917D01*
X128422427Y-103615329D01*
X128792722Y-103986271D01*
X129163257Y-104140130D01*
X128794671Y-104292427D01*
X128423729Y-104662722D01*
X128222730Y-105146783D01*
X128222272Y-105670917D01*
X128422427Y-106155329D01*
X128792722Y-106526271D01*
X129163257Y-106680130D01*
X128794671Y-106832427D01*
X128423729Y-107202722D01*
X128222730Y-107686783D01*
X128222272Y-108210917D01*
X128422427Y-108695329D01*
X128792722Y-109066271D01*
X129163257Y-109220130D01*
X128794671Y-109372427D01*
X128423729Y-109742722D01*
X128222730Y-110226783D01*
X128222272Y-110750917D01*
X128422427Y-111235329D01*
X128722506Y-111535932D01*
X128633281Y-111764070D01*
X129540000Y-112670790D01*
X130446719Y-111764070D01*
X130357382Y-111535646D01*
X130656271Y-111237278D01*
X130857270Y-110753217D01*
X130857728Y-110229083D01*
X130657573Y-109744671D01*
X130287278Y-109373729D01*
X129916743Y-109219870D01*
X130285329Y-109067573D01*
X130656271Y-108697278D01*
X130857270Y-108213217D01*
X130857728Y-107689083D01*
X130657573Y-107204671D01*
X130287278Y-106833729D01*
X129916743Y-106679870D01*
X130285329Y-106527573D01*
X130656271Y-106157278D01*
X130857270Y-105673217D01*
X130857728Y-105149083D01*
X130657573Y-104664671D01*
X130287278Y-104293729D01*
X129916743Y-104139870D01*
X130285329Y-103987573D01*
X130656271Y-103617278D01*
X130857270Y-103133217D01*
X130857728Y-102609083D01*
X130657573Y-102124671D01*
X130521058Y-101987917D01*
X136985272Y-101987917D01*
X137185427Y-102472329D01*
X137555722Y-102843271D01*
X137926257Y-102997130D01*
X137557671Y-103149427D01*
X137186729Y-103519722D01*
X136985730Y-104003783D01*
X136985272Y-104527917D01*
X137185427Y-105012329D01*
X137555722Y-105383271D01*
X138039783Y-105584270D01*
X138563917Y-105584728D01*
X139048329Y-105384573D01*
X139419271Y-105014278D01*
X139620270Y-104530217D01*
X139620728Y-104006083D01*
X139420573Y-103521671D01*
X139050278Y-103150729D01*
X138679743Y-102996870D01*
X139048329Y-102844573D01*
X139419271Y-102474278D01*
X139620270Y-101990217D01*
X139620728Y-101466083D01*
X139420573Y-100981671D01*
X139120494Y-100681068D01*
X139209719Y-100452930D01*
X138303000Y-99546210D01*
X137396281Y-100452930D01*
X137485618Y-100681354D01*
X137186729Y-100979722D01*
X136985730Y-101463783D01*
X136985272Y-101987917D01*
X130521058Y-101987917D01*
X130287278Y-101753729D01*
X129803217Y-101552730D01*
X129279083Y-101552272D01*
X128794671Y-101752427D01*
X128423729Y-102122722D01*
X128222730Y-102606783D01*
X128222272Y-103130917D01*
X127063500Y-103130917D01*
X127063500Y-101282500D01*
X134747000Y-101282500D01*
X134771300Y-101277666D01*
X134791901Y-101263901D01*
X134805666Y-101243300D01*
X134810500Y-101219000D01*
X134810500Y-98171000D01*
X136927787Y-98171000D01*
X137037069Y-98280282D01*
G36*
X138319671Y-53619427D02*
X137948729Y-53989722D01*
X137747730Y-54473783D01*
X137747272Y-54997917D01*
X137947427Y-55482329D01*
X138317722Y-55853271D01*
X138801783Y-56054270D01*
X139325917Y-56054728D01*
X139810329Y-55854573D01*
X140181271Y-55484278D01*
X140335130Y-55113743D01*
X140487427Y-55482329D01*
X140857722Y-55853271D01*
X141341783Y-56054270D01*
X141865917Y-56054728D01*
X142350329Y-55854573D01*
X142721271Y-55484278D01*
X142875130Y-55113743D01*
X143027427Y-55482329D01*
X143397722Y-55853271D01*
X143881783Y-56054270D01*
X144405917Y-56054728D01*
X144531277Y-56002930D01*
X145778281Y-56002930D01*
X145883586Y-56272183D01*
X146532079Y-56462012D01*
X147203853Y-56389224D01*
X147486414Y-56272183D01*
X147591719Y-56002930D01*
X146685000Y-55096210D01*
X145778281Y-56002930D01*
X144531277Y-56002930D01*
X144890329Y-55854573D01*
X145190932Y-55554494D01*
X145419070Y-55643719D01*
X146325790Y-54737000D01*
X146311647Y-54722858D01*
X146670858Y-54363647D01*
X146685000Y-54377790D01*
X146699142Y-54363647D01*
X147058353Y-54722858D01*
X147044210Y-54737000D01*
X147950930Y-55643719D01*
X148179354Y-55554382D01*
X148477722Y-55853271D01*
X148961783Y-56054270D01*
X149485917Y-56054728D01*
X149970329Y-55854573D01*
X150341271Y-55484278D01*
X150495130Y-55113743D01*
X150647427Y-55482329D01*
X151017722Y-55853271D01*
X151501783Y-56054270D01*
X152025917Y-56054728D01*
X152510329Y-55854573D01*
X152881271Y-55484278D01*
X153035130Y-55113743D01*
X153187427Y-55482329D01*
X153557722Y-55853271D01*
X154041783Y-56054270D01*
X154565917Y-56054728D01*
X155050329Y-55854573D01*
X155421271Y-55484278D01*
X155575130Y-55113743D01*
X155727427Y-55482329D01*
X156097722Y-55853271D01*
X156581783Y-56054270D01*
X157105917Y-56054728D01*
X157590329Y-55854573D01*
X157961271Y-55484278D01*
X158115130Y-55113743D01*
X158267427Y-55482329D01*
X158637722Y-55853271D01*
X159041137Y-56020783D01*
X158587512Y-56208217D01*
X158190611Y-56604426D01*
X157975545Y-57122363D01*
X157975055Y-57683177D01*
X158189217Y-58201488D01*
X158585426Y-58598389D01*
X158686500Y-58640359D01*
X158686500Y-60548816D01*
X158587512Y-60589717D01*
X158190611Y-60985926D01*
X157975545Y-61503863D01*
X157975055Y-62064677D01*
X158189217Y-62582988D01*
X158585426Y-62979889D01*
X159103363Y-63194955D01*
X159664177Y-63195445D01*
X160182488Y-62981283D01*
X160579389Y-62585074D01*
X160794455Y-62067137D01*
X160794945Y-61506323D01*
X160580783Y-60988012D01*
X160184574Y-60591111D01*
X160083500Y-60549141D01*
X160083500Y-58640684D01*
X160182488Y-58599783D01*
X160579389Y-58203574D01*
X160794455Y-57685637D01*
X160794945Y-57124823D01*
X160580783Y-56606512D01*
X160184574Y-56209611D01*
X159728950Y-56020420D01*
X160130329Y-55854573D01*
X160501271Y-55484278D01*
X160655130Y-55113743D01*
X160807427Y-55482329D01*
X161177722Y-55853271D01*
X161661783Y-56054270D01*
X162185917Y-56054728D01*
X162670329Y-55854573D01*
X163041271Y-55484278D01*
X163195130Y-55113743D01*
X163347427Y-55482329D01*
X163717722Y-55853271D01*
X164201783Y-56054270D01*
X164725917Y-56054728D01*
X165210329Y-55854573D01*
X165581271Y-55484278D01*
X165735130Y-55113743D01*
X165887427Y-55482329D01*
X166257722Y-55853271D01*
X166741783Y-56054270D01*
X167265917Y-56054728D01*
X167750329Y-55854573D01*
X168121271Y-55484278D01*
X168275130Y-55113743D01*
X168427427Y-55482329D01*
X168797722Y-55853271D01*
X169281783Y-56054270D01*
X169805917Y-56054728D01*
X170290329Y-55854573D01*
X170661271Y-55484278D01*
X170815130Y-55113743D01*
X170967427Y-55482329D01*
X171337722Y-55853271D01*
X171821783Y-56054270D01*
X172345917Y-56054728D01*
X172830329Y-55854573D01*
X173201271Y-55484278D01*
X173355130Y-55113743D01*
X173507427Y-55482329D01*
X173877722Y-55853271D01*
X174361783Y-56054270D01*
X174885917Y-56054728D01*
X175370329Y-55854573D01*
X175577500Y-55647763D01*
X175577500Y-69066310D01*
X175372278Y-68860729D01*
X174888217Y-68659730D01*
X174364083Y-68659272D01*
X173879671Y-68859427D01*
X173508729Y-69229722D01*
X173354870Y-69600257D01*
X173202573Y-69231671D01*
X172832278Y-68860729D01*
X172348217Y-68659730D01*
X171824083Y-68659272D01*
X171339671Y-68859427D01*
X170968729Y-69229722D01*
X170814870Y-69600257D01*
X170662573Y-69231671D01*
X170292278Y-68860729D01*
X169808217Y-68659730D01*
X169284083Y-68659272D01*
X168799671Y-68859427D01*
X168428729Y-69229722D01*
X168274870Y-69600257D01*
X168122573Y-69231671D01*
X167752278Y-68860729D01*
X167268217Y-68659730D01*
X166744083Y-68659272D01*
X166259671Y-68859427D01*
X165888729Y-69229722D01*
X165734870Y-69600257D01*
X165582573Y-69231671D01*
X165212278Y-68860729D01*
X164728217Y-68659730D01*
X164204083Y-68659272D01*
X163719671Y-68859427D01*
X163348729Y-69229722D01*
X163194870Y-69600257D01*
X163042573Y-69231671D01*
X162672278Y-68860729D01*
X162188217Y-68659730D01*
X161664083Y-68659272D01*
X161179671Y-68859427D01*
X160808729Y-69229722D01*
X160654870Y-69600257D01*
X160502573Y-69231671D01*
X160132278Y-68860729D01*
X159648217Y-68659730D01*
X159124083Y-68659272D01*
X158639671Y-68859427D01*
X158268729Y-69229722D01*
X158114870Y-69600257D01*
X157962573Y-69231671D01*
X157592278Y-68860729D01*
X157108217Y-68659730D01*
X156584083Y-68659272D01*
X156099671Y-68859427D01*
X155728729Y-69229722D01*
X155574870Y-69600257D01*
X155422573Y-69231671D01*
X155052278Y-68860729D01*
X154568217Y-68659730D01*
X154044083Y-68659272D01*
X153559671Y-68859427D01*
X153188729Y-69229722D01*
X153034870Y-69600257D01*
X152882573Y-69231671D01*
X152512278Y-68860729D01*
X152028217Y-68659730D01*
X151504083Y-68659272D01*
X151019671Y-68859427D01*
X150648729Y-69229722D01*
X150494870Y-69600257D01*
X150342573Y-69231671D01*
X149972278Y-68860729D01*
X149488217Y-68659730D01*
X148964083Y-68659272D01*
X148479671Y-68859427D01*
X148108729Y-69229722D01*
X147954870Y-69600257D01*
X147802573Y-69231671D01*
X147432278Y-68860729D01*
X146948217Y-68659730D01*
X146424083Y-68659272D01*
X145939671Y-68859427D01*
X145568729Y-69229722D01*
X145414870Y-69600257D01*
X145262573Y-69231671D01*
X144892278Y-68860729D01*
X144408217Y-68659730D01*
X143884083Y-68659272D01*
X143399671Y-68859427D01*
X143028729Y-69229722D01*
X142874870Y-69600257D01*
X142722573Y-69231671D01*
X142352278Y-68860729D01*
X141868217Y-68659730D01*
X141344083Y-68659272D01*
X140859671Y-68859427D01*
X140488729Y-69229722D01*
X140334870Y-69600257D01*
X140182573Y-69231671D01*
X139812278Y-68860729D01*
X139328217Y-68659730D01*
X138804083Y-68659272D01*
X138319671Y-68859427D01*
X137948729Y-69229722D01*
X137747730Y-69713783D01*
X137747272Y-70237917D01*
X137947427Y-70722329D01*
X138317722Y-71093271D01*
X138801783Y-71294270D01*
X139325917Y-71294728D01*
X139810329Y-71094573D01*
X140181271Y-70724278D01*
X140335130Y-70353743D01*
X140487427Y-70722329D01*
X140857722Y-71093271D01*
X141341783Y-71294270D01*
X141865917Y-71294728D01*
X142350329Y-71094573D01*
X142721271Y-70724278D01*
X142875130Y-70353743D01*
X143027427Y-70722329D01*
X143397722Y-71093271D01*
X143881783Y-71294270D01*
X144405917Y-71294728D01*
X144890329Y-71094573D01*
X145261271Y-70724278D01*
X145415130Y-70353743D01*
X145567427Y-70722329D01*
X145937722Y-71093271D01*
X146421783Y-71294270D01*
X146945917Y-71294728D01*
X147430329Y-71094573D01*
X147801271Y-70724278D01*
X147955130Y-70353743D01*
X148107427Y-70722329D01*
X148477722Y-71093271D01*
X148961783Y-71294270D01*
X149485917Y-71294728D01*
X149970329Y-71094573D01*
X150341271Y-70724278D01*
X150495130Y-70353743D01*
X150647427Y-70722329D01*
X151017722Y-71093271D01*
X151501783Y-71294270D01*
X152025917Y-71294728D01*
X152510329Y-71094573D01*
X152881271Y-70724278D01*
X153035130Y-70353743D01*
X153187427Y-70722329D01*
X153557722Y-71093271D01*
X154041783Y-71294270D01*
X154565917Y-71294728D01*
X155050329Y-71094573D01*
X155421271Y-70724278D01*
X155575130Y-70353743D01*
X155727427Y-70722329D01*
X156097722Y-71093271D01*
X156581783Y-71294270D01*
X157105917Y-71294728D01*
X157590329Y-71094573D01*
X157961271Y-70724278D01*
X158115130Y-70353743D01*
X158267427Y-70722329D01*
X158637722Y-71093271D01*
X159121783Y-71294270D01*
X159645917Y-71294728D01*
X160130329Y-71094573D01*
X160501271Y-70724278D01*
X160655130Y-70353743D01*
X160807427Y-70722329D01*
X161177722Y-71093271D01*
X161661783Y-71294270D01*
X162185917Y-71294728D01*
X162670329Y-71094573D01*
X163041271Y-70724278D01*
X163195130Y-70353743D01*
X163347427Y-70722329D01*
X163717722Y-71093271D01*
X164201783Y-71294270D01*
X164725917Y-71294728D01*
X165210329Y-71094573D01*
X165581271Y-70724278D01*
X165735130Y-70353743D01*
X165887427Y-70722329D01*
X166257722Y-71093271D01*
X166741783Y-71294270D01*
X167265917Y-71294728D01*
X167750329Y-71094573D01*
X168121271Y-70724278D01*
X168275130Y-70353743D01*
X168427427Y-70722329D01*
X168797722Y-71093271D01*
X169281783Y-71294270D01*
X169805917Y-71294728D01*
X170290329Y-71094573D01*
X170661271Y-70724278D01*
X170815130Y-70353743D01*
X170967427Y-70722329D01*
X171337722Y-71093271D01*
X171821783Y-71294270D01*
X172345917Y-71294728D01*
X172830329Y-71094573D01*
X173201271Y-70724278D01*
X173355130Y-70353743D01*
X173507427Y-70722329D01*
X173877722Y-71093271D01*
X174361783Y-71294270D01*
X174885917Y-71294728D01*
X175370329Y-71094573D01*
X175577500Y-70887763D01*
X175577500Y-84772500D01*
X174887656Y-84772500D01*
X174911384Y-84715356D01*
X174911616Y-84449809D01*
X174810209Y-84204386D01*
X174622602Y-84016451D01*
X174377356Y-83914616D01*
X174111809Y-83914384D01*
X173866386Y-84015791D01*
X173744464Y-84137500D01*
X144710118Y-84137500D01*
X144462500Y-83889882D01*
X144462500Y-77856191D01*
X146525384Y-77856191D01*
X146626791Y-78101614D01*
X146748500Y-78223536D01*
X146748500Y-81923560D01*
X146627451Y-82044398D01*
X146525616Y-82289644D01*
X146525384Y-82555191D01*
X146626791Y-82800614D01*
X146814398Y-82988549D01*
X147059644Y-83090384D01*
X147325191Y-83090616D01*
X147570614Y-82989209D01*
X147758549Y-82801602D01*
X147860384Y-82556356D01*
X147860616Y-82290809D01*
X147759209Y-82045386D01*
X147637500Y-81923464D01*
X147637500Y-78223440D01*
X147758549Y-78102602D01*
X147860384Y-77857356D01*
X147860616Y-77591809D01*
X147759209Y-77346386D01*
X147571602Y-77158451D01*
X147326356Y-77056616D01*
X147060809Y-77056384D01*
X146815386Y-77157791D01*
X146627451Y-77345398D01*
X146525616Y-77590644D01*
X146525384Y-77856191D01*
X144462500Y-77856191D01*
X144462500Y-76953440D01*
X144583549Y-76832602D01*
X144685384Y-76587356D01*
X144685616Y-76321809D01*
X144584209Y-76076386D01*
X144396602Y-75888451D01*
X144151356Y-75786616D01*
X143885809Y-75786384D01*
X143640386Y-75887791D01*
X143452451Y-76075398D01*
X143350616Y-76320644D01*
X143350384Y-76586191D01*
X143451791Y-76831614D01*
X143573500Y-76953536D01*
X143573500Y-84074000D01*
X143607336Y-84244103D01*
X143620965Y-84264500D01*
X143703691Y-84388309D01*
X144211691Y-84896309D01*
X144355897Y-84992664D01*
X144526000Y-85026500D01*
X148653500Y-85026500D01*
X148653500Y-87058500D01*
X140652500Y-87058500D01*
X140652500Y-84464551D01*
X140663217Y-84490488D01*
X141059426Y-84887389D01*
X141577363Y-85102455D01*
X142138177Y-85102945D01*
X142656488Y-84888783D01*
X143053389Y-84492574D01*
X143268455Y-83974637D01*
X143268945Y-83413823D01*
X143054783Y-82895512D01*
X142658574Y-82498611D01*
X142430500Y-82403907D01*
X142430500Y-77690684D01*
X142529488Y-77649783D01*
X142926389Y-77253574D01*
X143141455Y-76735637D01*
X143141945Y-76174823D01*
X142927783Y-75656512D01*
X142531574Y-75259611D01*
X142013637Y-75044545D01*
X141452823Y-75044055D01*
X140934512Y-75258217D01*
X140652500Y-75539737D01*
X140652500Y-75184000D01*
X140618664Y-75013897D01*
X140522309Y-74869691D01*
X139760309Y-74107691D01*
X139616103Y-74011336D01*
X139446000Y-73977500D01*
X137534618Y-73977500D01*
X136144000Y-72586882D01*
X136144000Y-72268191D01*
X143477384Y-72268191D01*
X143578791Y-72513614D01*
X143766398Y-72701549D01*
X144011644Y-72803384D01*
X144183917Y-72803535D01*
X148653500Y-77273118D01*
X148653500Y-81923560D01*
X148532451Y-82044398D01*
X148430616Y-82289644D01*
X148430384Y-82555191D01*
X148531791Y-82800614D01*
X148719398Y-82988549D01*
X148964644Y-83090384D01*
X149230191Y-83090616D01*
X149475614Y-82989209D01*
X149663549Y-82801602D01*
X149765384Y-82556356D01*
X149765616Y-82290809D01*
X149742846Y-82235701D01*
X150871341Y-82235701D01*
X151010728Y-82573043D01*
X151268599Y-82831365D01*
X151605697Y-82971340D01*
X151970701Y-82971659D01*
X152308043Y-82832272D01*
X152566365Y-82574401D01*
X152706340Y-82237303D01*
X152706659Y-81872299D01*
X152567272Y-81534957D01*
X152309401Y-81276635D01*
X151972303Y-81136660D01*
X151607299Y-81136341D01*
X151269957Y-81275728D01*
X151011635Y-81533599D01*
X150871660Y-81870697D01*
X150871341Y-82235701D01*
X149742846Y-82235701D01*
X149664209Y-82045386D01*
X149542500Y-81923464D01*
X149542500Y-77089000D01*
X149508664Y-76918897D01*
X149412309Y-76774691D01*
X145286809Y-72649191D01*
X148557384Y-72649191D01*
X148658791Y-72894614D01*
X148780500Y-73016536D01*
X148780500Y-74930000D01*
X148814336Y-75100103D01*
X148870394Y-75184000D01*
X148910691Y-75244309D01*
X152717500Y-79051118D01*
X152717500Y-82677000D01*
X152751336Y-82847103D01*
X152811641Y-82937356D01*
X152847691Y-82991309D01*
X152974691Y-83118309D01*
X153118897Y-83214664D01*
X153289000Y-83248500D01*
X168537560Y-83248500D01*
X168658398Y-83369549D01*
X168903644Y-83471384D01*
X169169191Y-83471616D01*
X169414614Y-83370209D01*
X169602549Y-83182602D01*
X169704384Y-82937356D01*
X169704616Y-82671809D01*
X169603209Y-82426386D01*
X169415602Y-82238451D01*
X169170356Y-82136616D01*
X168904809Y-82136384D01*
X168659386Y-82237791D01*
X168537464Y-82359500D01*
X156320809Y-82359500D01*
X156333614Y-82354209D01*
X156521549Y-82166602D01*
X156623384Y-81921356D01*
X156623616Y-81655809D01*
X156522209Y-81410386D01*
X156400500Y-81288464D01*
X156400500Y-78999191D01*
X157320384Y-78999191D01*
X157421791Y-79244614D01*
X157609398Y-79432549D01*
X157854644Y-79534384D01*
X158120191Y-79534616D01*
X158365614Y-79433209D01*
X158487536Y-79311500D01*
X161290000Y-79311500D01*
X161460103Y-79277664D01*
X161604309Y-79181309D01*
X162239309Y-78546309D01*
X162259785Y-78515664D01*
X162335664Y-78402103D01*
X162369500Y-78232000D01*
X162369500Y-72762440D01*
X162490549Y-72641602D01*
X162592384Y-72396356D01*
X162592616Y-72130809D01*
X162491209Y-71885386D01*
X162303602Y-71697451D01*
X162058356Y-71595616D01*
X161792809Y-71595384D01*
X161547386Y-71696791D01*
X161359451Y-71884398D01*
X161257616Y-72129644D01*
X161257384Y-72395191D01*
X161358791Y-72640614D01*
X161480500Y-72762536D01*
X161480500Y-78047882D01*
X161105882Y-78422500D01*
X158487440Y-78422500D01*
X158366602Y-78301451D01*
X158121356Y-78199616D01*
X157855809Y-78199384D01*
X157610386Y-78300791D01*
X157422451Y-78488398D01*
X157320616Y-78733644D01*
X157320384Y-78999191D01*
X156400500Y-78999191D01*
X156400500Y-78162118D01*
X157159309Y-77403309D01*
X157255664Y-77259103D01*
X157289500Y-77089000D01*
X157289500Y-72762440D01*
X157410549Y-72641602D01*
X157512384Y-72396356D01*
X157512616Y-72130809D01*
X157411209Y-71885386D01*
X157223602Y-71697451D01*
X156978356Y-71595616D01*
X156712809Y-71595384D01*
X156467386Y-71696791D01*
X156279451Y-71884398D01*
X156177616Y-72129644D01*
X156177384Y-72395191D01*
X156278791Y-72640614D01*
X156400500Y-72762536D01*
X156400500Y-76904882D01*
X155641691Y-77663691D01*
X155545336Y-77807897D01*
X155511500Y-77978000D01*
X155511500Y-81288560D01*
X155390451Y-81409398D01*
X155288616Y-81654644D01*
X155288384Y-81920191D01*
X155389791Y-82165614D01*
X155577398Y-82353549D01*
X155591730Y-82359500D01*
X154542809Y-82359500D01*
X154555614Y-82354209D01*
X154743549Y-82166602D01*
X154845384Y-81921356D01*
X154845616Y-81655809D01*
X154744209Y-81410386D01*
X154622500Y-81288464D01*
X154622500Y-76200000D01*
X154610504Y-76139691D01*
X154588665Y-76029898D01*
X154492309Y-75885691D01*
X153857309Y-75250691D01*
X153797501Y-75210729D01*
X153713103Y-75154336D01*
X153543000Y-75120500D01*
X152602618Y-75120500D01*
X152567272Y-75034957D01*
X152309401Y-74776635D01*
X151972303Y-74636660D01*
X151607299Y-74636341D01*
X151269957Y-74775728D01*
X151011635Y-75033599D01*
X150871660Y-75370697D01*
X150871341Y-75735701D01*
X151010728Y-76073043D01*
X151268599Y-76331365D01*
X151605697Y-76471340D01*
X151970701Y-76471659D01*
X152308043Y-76332272D01*
X152566365Y-76074401D01*
X152593314Y-76009500D01*
X153358882Y-76009500D01*
X153733500Y-76384118D01*
X153733500Y-81288560D01*
X153612451Y-81409398D01*
X153606500Y-81423730D01*
X153606500Y-78867000D01*
X153572664Y-78696897D01*
X153476309Y-78552691D01*
X149669500Y-74745882D01*
X149669500Y-73016440D01*
X149790549Y-72895602D01*
X149892384Y-72650356D01*
X149892616Y-72384809D01*
X149791209Y-72139386D01*
X149603602Y-71951451D01*
X149358356Y-71849616D01*
X149092809Y-71849384D01*
X148847386Y-71950791D01*
X148659451Y-72138398D01*
X148557616Y-72383644D01*
X148557384Y-72649191D01*
X145286809Y-72649191D01*
X144812467Y-72174849D01*
X144812616Y-72003809D01*
X144711209Y-71758386D01*
X144523602Y-71570451D01*
X144278356Y-71468616D01*
X144012809Y-71468384D01*
X143767386Y-71569791D01*
X143579451Y-71757398D01*
X143477616Y-72002644D01*
X143477384Y-72268191D01*
X136144000Y-72268191D01*
X136144000Y-67430618D01*
X136645618Y-66929000D01*
X159448500Y-66929000D01*
X159618603Y-66895164D01*
X159762809Y-66798809D01*
X162239309Y-64322309D01*
X162335664Y-64178103D01*
X162369500Y-64008000D01*
X162369500Y-57903440D01*
X162490549Y-57782602D01*
X162592384Y-57537356D01*
X162592616Y-57271809D01*
X162491209Y-57026386D01*
X162303602Y-56838451D01*
X162058356Y-56736616D01*
X161792809Y-56736384D01*
X161547386Y-56837791D01*
X161359451Y-57025398D01*
X161257616Y-57270644D01*
X161257384Y-57536191D01*
X161358791Y-57781614D01*
X161480500Y-57903536D01*
X161480500Y-63823882D01*
X159264382Y-66040000D01*
X142010974Y-66040000D01*
X142291389Y-65760074D01*
X142506455Y-65242137D01*
X142506945Y-64681323D01*
X142292783Y-64163012D01*
X141922500Y-63792082D01*
X141922500Y-62928505D01*
X141922501Y-62928500D01*
X141859663Y-62612595D01*
X141839880Y-62582988D01*
X141680717Y-62344783D01*
X141680714Y-62344781D01*
X138112500Y-58776566D01*
X138112500Y-58317820D01*
X138481389Y-57949574D01*
X138696455Y-57431637D01*
X138696696Y-57155191D01*
X143477384Y-57155191D01*
X143578791Y-57400614D01*
X143700500Y-57522536D01*
X143700500Y-64016560D01*
X143579451Y-64137398D01*
X143477616Y-64382644D01*
X143477384Y-64648191D01*
X143578791Y-64893614D01*
X143766398Y-65081549D01*
X144011644Y-65183384D01*
X144277191Y-65183616D01*
X144522614Y-65082209D01*
X144710549Y-64894602D01*
X144812384Y-64649356D01*
X144812616Y-64383809D01*
X144711209Y-64138386D01*
X144589500Y-64016464D01*
X144589500Y-57522440D01*
X144710549Y-57401602D01*
X144812384Y-57156356D01*
X144812495Y-57028191D01*
X151097384Y-57028191D01*
X151198791Y-57273614D01*
X151320500Y-57395536D01*
X151320500Y-60841560D01*
X151199451Y-60962398D01*
X151097616Y-61207644D01*
X151097384Y-61473191D01*
X151198791Y-61718614D01*
X151386398Y-61906549D01*
X151631644Y-62008384D01*
X151897191Y-62008616D01*
X152142614Y-61907209D01*
X152330549Y-61719602D01*
X152432384Y-61474356D01*
X152432616Y-61208809D01*
X152331209Y-60963386D01*
X152209500Y-60841464D01*
X152209500Y-57395440D01*
X152330549Y-57274602D01*
X152432384Y-57029356D01*
X152432616Y-56763809D01*
X152331209Y-56518386D01*
X152143602Y-56330451D01*
X151898356Y-56228616D01*
X151632809Y-56228384D01*
X151387386Y-56329791D01*
X151199451Y-56517398D01*
X151097616Y-56762644D01*
X151097384Y-57028191D01*
X144812495Y-57028191D01*
X144812616Y-56890809D01*
X144711209Y-56645386D01*
X144523602Y-56457451D01*
X144278356Y-56355616D01*
X144012809Y-56355384D01*
X143767386Y-56456791D01*
X143579451Y-56644398D01*
X143477616Y-56889644D01*
X143477384Y-57155191D01*
X138696696Y-57155191D01*
X138696945Y-56870823D01*
X138482783Y-56352512D01*
X138086574Y-55955611D01*
X137568637Y-55740545D01*
X137007823Y-55740055D01*
X136489512Y-55954217D01*
X136092611Y-56350426D01*
X135877545Y-56868363D01*
X135877055Y-57429177D01*
X136091217Y-57947488D01*
X136461500Y-58318418D01*
X136461500Y-59118500D01*
X136524337Y-59434406D01*
X136703283Y-59702217D01*
X140271500Y-63270433D01*
X140271500Y-63792680D01*
X139902611Y-64160926D01*
X139687545Y-64678863D01*
X139687055Y-65239677D01*
X139901217Y-65757988D01*
X140182737Y-66040000D01*
X136461500Y-66040000D01*
X136291397Y-66073836D01*
X136170092Y-66154889D01*
X136147191Y-66170191D01*
X135385191Y-66932191D01*
X135288836Y-67076397D01*
X135255000Y-67246500D01*
X135255000Y-72771000D01*
X135288836Y-72941103D01*
X135364715Y-73054664D01*
X135385191Y-73085309D01*
X137036191Y-74736309D01*
X137180398Y-74832665D01*
X137350500Y-74866500D01*
X139261882Y-74866500D01*
X139763500Y-75368118D01*
X139763500Y-87058500D01*
X139492260Y-87058500D01*
X139620270Y-86750217D01*
X139620728Y-86226083D01*
X139420573Y-85741671D01*
X139050278Y-85370729D01*
X138679743Y-85216870D01*
X139048329Y-85064573D01*
X139419271Y-84694278D01*
X139620270Y-84210217D01*
X139620728Y-83686083D01*
X139420573Y-83201671D01*
X139050278Y-82830729D01*
X138679743Y-82676870D01*
X139048329Y-82524573D01*
X139419271Y-82154278D01*
X139620270Y-81670217D01*
X139620728Y-81146083D01*
X139420573Y-80661671D01*
X139050278Y-80290729D01*
X138679743Y-80136870D01*
X139048329Y-79984573D01*
X139419271Y-79614278D01*
X139620270Y-79130217D01*
X139620728Y-78606083D01*
X139420573Y-78121671D01*
X139050278Y-77750729D01*
X138679743Y-77596870D01*
X139048329Y-77444573D01*
X139419271Y-77074278D01*
X139620270Y-76590217D01*
X139620728Y-76066083D01*
X139420573Y-75581671D01*
X139050278Y-75210729D01*
X138566217Y-75009730D01*
X138042083Y-75009272D01*
X137557671Y-75209427D01*
X137186729Y-75579722D01*
X136985730Y-76063783D01*
X136985272Y-76587917D01*
X137185427Y-77072329D01*
X137555722Y-77443271D01*
X137926257Y-77597130D01*
X137557671Y-77749427D01*
X137186729Y-78119722D01*
X136985730Y-78603783D01*
X136985272Y-79127917D01*
X137185427Y-79612329D01*
X137555722Y-79983271D01*
X137926257Y-80137130D01*
X137557671Y-80289427D01*
X137186729Y-80659722D01*
X136985730Y-81143783D01*
X136985272Y-81667917D01*
X137185427Y-82152329D01*
X137555722Y-82523271D01*
X137926257Y-82677130D01*
X137557671Y-82829427D01*
X137186729Y-83199722D01*
X136985730Y-83683783D01*
X136985272Y-84207917D01*
X137185427Y-84692329D01*
X137555722Y-85063271D01*
X137926257Y-85217130D01*
X137557671Y-85369427D01*
X137186729Y-85739722D01*
X136985730Y-86223783D01*
X136985272Y-86747917D01*
X137113602Y-87058500D01*
X135191500Y-87058500D01*
X135191500Y-53530500D01*
X138534891Y-53530500D01*
X138319671Y-53619427D01*
X138319671Y-53619427D01*
G37*
X138319671Y-53619427D02*
X137948729Y-53989722D01*
X137747730Y-54473783D01*
X137747272Y-54997917D01*
X137947427Y-55482329D01*
X138317722Y-55853271D01*
X138801783Y-56054270D01*
X139325917Y-56054728D01*
X139810329Y-55854573D01*
X140181271Y-55484278D01*
X140335130Y-55113743D01*
X140487427Y-55482329D01*
X140857722Y-55853271D01*
X141341783Y-56054270D01*
X141865917Y-56054728D01*
X142350329Y-55854573D01*
X142721271Y-55484278D01*
X142875130Y-55113743D01*
X143027427Y-55482329D01*
X143397722Y-55853271D01*
X143881783Y-56054270D01*
X144405917Y-56054728D01*
X144531277Y-56002930D01*
X145778281Y-56002930D01*
X145883586Y-56272183D01*
X146532079Y-56462012D01*
X147203853Y-56389224D01*
X147486414Y-56272183D01*
X147591719Y-56002930D01*
X146685000Y-55096210D01*
X145778281Y-56002930D01*
X144531277Y-56002930D01*
X144890329Y-55854573D01*
X145190932Y-55554494D01*
X145419070Y-55643719D01*
X146325790Y-54737000D01*
X146311647Y-54722858D01*
X146670858Y-54363647D01*
X146685000Y-54377790D01*
X146699142Y-54363647D01*
X147058353Y-54722858D01*
X147044210Y-54737000D01*
X147950930Y-55643719D01*
X148179354Y-55554382D01*
X148477722Y-55853271D01*
X148961783Y-56054270D01*
X149485917Y-56054728D01*
X149970329Y-55854573D01*
X150341271Y-55484278D01*
X150495130Y-55113743D01*
X150647427Y-55482329D01*
X151017722Y-55853271D01*
X151501783Y-56054270D01*
X152025917Y-56054728D01*
X152510329Y-55854573D01*
X152881271Y-55484278D01*
X153035130Y-55113743D01*
X153187427Y-55482329D01*
X153557722Y-55853271D01*
X154041783Y-56054270D01*
X154565917Y-56054728D01*
X155050329Y-55854573D01*
X155421271Y-55484278D01*
X155575130Y-55113743D01*
X155727427Y-55482329D01*
X156097722Y-55853271D01*
X156581783Y-56054270D01*
X157105917Y-56054728D01*
X157590329Y-55854573D01*
X157961271Y-55484278D01*
X158115130Y-55113743D01*
X158267427Y-55482329D01*
X158637722Y-55853271D01*
X159041137Y-56020783D01*
X158587512Y-56208217D01*
X158190611Y-56604426D01*
X157975545Y-57122363D01*
X157975055Y-57683177D01*
X158189217Y-58201488D01*
X158585426Y-58598389D01*
X158686500Y-58640359D01*
X158686500Y-60548816D01*
X158587512Y-60589717D01*
X158190611Y-60985926D01*
X157975545Y-61503863D01*
X157975055Y-62064677D01*
X158189217Y-62582988D01*
X158585426Y-62979889D01*
X159103363Y-63194955D01*
X159664177Y-63195445D01*
X160182488Y-62981283D01*
X160579389Y-62585074D01*
X160794455Y-62067137D01*
X160794945Y-61506323D01*
X160580783Y-60988012D01*
X160184574Y-60591111D01*
X160083500Y-60549141D01*
X160083500Y-58640684D01*
X160182488Y-58599783D01*
X160579389Y-58203574D01*
X160794455Y-57685637D01*
X160794945Y-57124823D01*
X160580783Y-56606512D01*
X160184574Y-56209611D01*
X159728950Y-56020420D01*
X160130329Y-55854573D01*
X160501271Y-55484278D01*
X160655130Y-55113743D01*
X160807427Y-55482329D01*
X161177722Y-55853271D01*
X161661783Y-56054270D01*
X162185917Y-56054728D01*
X162670329Y-55854573D01*
X163041271Y-55484278D01*
X163195130Y-55113743D01*
X163347427Y-55482329D01*
X163717722Y-55853271D01*
X164201783Y-56054270D01*
X164725917Y-56054728D01*
X165210329Y-55854573D01*
X165581271Y-55484278D01*
X165735130Y-55113743D01*
X165887427Y-55482329D01*
X166257722Y-55853271D01*
X166741783Y-56054270D01*
X167265917Y-56054728D01*
X167750329Y-55854573D01*
X168121271Y-55484278D01*
X168275130Y-55113743D01*
X168427427Y-55482329D01*
X168797722Y-55853271D01*
X169281783Y-56054270D01*
X169805917Y-56054728D01*
X170290329Y-55854573D01*
X170661271Y-55484278D01*
X170815130Y-55113743D01*
X170967427Y-55482329D01*
X171337722Y-55853271D01*
X171821783Y-56054270D01*
X172345917Y-56054728D01*
X172830329Y-55854573D01*
X173201271Y-55484278D01*
X173355130Y-55113743D01*
X173507427Y-55482329D01*
X173877722Y-55853271D01*
X174361783Y-56054270D01*
X174885917Y-56054728D01*
X175370329Y-55854573D01*
X175577500Y-55647763D01*
X175577500Y-69066310D01*
X175372278Y-68860729D01*
X174888217Y-68659730D01*
X174364083Y-68659272D01*
X173879671Y-68859427D01*
X173508729Y-69229722D01*
X173354870Y-69600257D01*
X173202573Y-69231671D01*
X172832278Y-68860729D01*
X172348217Y-68659730D01*
X171824083Y-68659272D01*
X171339671Y-68859427D01*
X170968729Y-69229722D01*
X170814870Y-69600257D01*
X170662573Y-69231671D01*
X170292278Y-68860729D01*
X169808217Y-68659730D01*
X169284083Y-68659272D01*
X168799671Y-68859427D01*
X168428729Y-69229722D01*
X168274870Y-69600257D01*
X168122573Y-69231671D01*
X167752278Y-68860729D01*
X167268217Y-68659730D01*
X166744083Y-68659272D01*
X166259671Y-68859427D01*
X165888729Y-69229722D01*
X165734870Y-69600257D01*
X165582573Y-69231671D01*
X165212278Y-68860729D01*
X164728217Y-68659730D01*
X164204083Y-68659272D01*
X163719671Y-68859427D01*
X163348729Y-69229722D01*
X163194870Y-69600257D01*
X163042573Y-69231671D01*
X162672278Y-68860729D01*
X162188217Y-68659730D01*
X161664083Y-68659272D01*
X161179671Y-68859427D01*
X160808729Y-69229722D01*
X160654870Y-69600257D01*
X160502573Y-69231671D01*
X160132278Y-68860729D01*
X159648217Y-68659730D01*
X159124083Y-68659272D01*
X158639671Y-68859427D01*
X158268729Y-69229722D01*
X158114870Y-69600257D01*
X157962573Y-69231671D01*
X157592278Y-68860729D01*
X157108217Y-68659730D01*
X156584083Y-68659272D01*
X156099671Y-68859427D01*
X155728729Y-69229722D01*
X155574870Y-69600257D01*
X155422573Y-69231671D01*
X155052278Y-68860729D01*
X154568217Y-68659730D01*
X154044083Y-68659272D01*
X153559671Y-68859427D01*
X153188729Y-69229722D01*
X153034870Y-69600257D01*
X152882573Y-69231671D01*
X152512278Y-68860729D01*
X152028217Y-68659730D01*
X151504083Y-68659272D01*
X151019671Y-68859427D01*
X150648729Y-69229722D01*
X150494870Y-69600257D01*
X150342573Y-69231671D01*
X149972278Y-68860729D01*
X149488217Y-68659730D01*
X148964083Y-68659272D01*
X148479671Y-68859427D01*
X148108729Y-69229722D01*
X147954870Y-69600257D01*
X147802573Y-69231671D01*
X147432278Y-68860729D01*
X146948217Y-68659730D01*
X146424083Y-68659272D01*
X145939671Y-68859427D01*
X145568729Y-69229722D01*
X145414870Y-69600257D01*
X145262573Y-69231671D01*
X144892278Y-68860729D01*
X144408217Y-68659730D01*
X143884083Y-68659272D01*
X143399671Y-68859427D01*
X143028729Y-69229722D01*
X142874870Y-69600257D01*
X142722573Y-69231671D01*
X142352278Y-68860729D01*
X141868217Y-68659730D01*
X141344083Y-68659272D01*
X140859671Y-68859427D01*
X140488729Y-69229722D01*
X140334870Y-69600257D01*
X140182573Y-69231671D01*
X139812278Y-68860729D01*
X139328217Y-68659730D01*
X138804083Y-68659272D01*
X138319671Y-68859427D01*
X137948729Y-69229722D01*
X137747730Y-69713783D01*
X137747272Y-70237917D01*
X137947427Y-70722329D01*
X138317722Y-71093271D01*
X138801783Y-71294270D01*
X139325917Y-71294728D01*
X139810329Y-71094573D01*
X140181271Y-70724278D01*
X140335130Y-70353743D01*
X140487427Y-70722329D01*
X140857722Y-71093271D01*
X141341783Y-71294270D01*
X141865917Y-71294728D01*
X142350329Y-71094573D01*
X142721271Y-70724278D01*
X142875130Y-70353743D01*
X143027427Y-70722329D01*
X143397722Y-71093271D01*
X143881783Y-71294270D01*
X144405917Y-71294728D01*
X144890329Y-71094573D01*
X145261271Y-70724278D01*
X145415130Y-70353743D01*
X145567427Y-70722329D01*
X145937722Y-71093271D01*
X146421783Y-71294270D01*
X146945917Y-71294728D01*
X147430329Y-71094573D01*
X147801271Y-70724278D01*
X147955130Y-70353743D01*
X148107427Y-70722329D01*
X148477722Y-71093271D01*
X148961783Y-71294270D01*
X149485917Y-71294728D01*
X149970329Y-71094573D01*
X150341271Y-70724278D01*
X150495130Y-70353743D01*
X150647427Y-70722329D01*
X151017722Y-71093271D01*
X151501783Y-71294270D01*
X152025917Y-71294728D01*
X152510329Y-71094573D01*
X152881271Y-70724278D01*
X153035130Y-70353743D01*
X153187427Y-70722329D01*
X153557722Y-71093271D01*
X154041783Y-71294270D01*
X154565917Y-71294728D01*
X155050329Y-71094573D01*
X155421271Y-70724278D01*
X155575130Y-70353743D01*
X155727427Y-70722329D01*
X156097722Y-71093271D01*
X156581783Y-71294270D01*
X157105917Y-71294728D01*
X157590329Y-71094573D01*
X157961271Y-70724278D01*
X158115130Y-70353743D01*
X158267427Y-70722329D01*
X158637722Y-71093271D01*
X159121783Y-71294270D01*
X159645917Y-71294728D01*
X160130329Y-71094573D01*
X160501271Y-70724278D01*
X160655130Y-70353743D01*
X160807427Y-70722329D01*
X161177722Y-71093271D01*
X161661783Y-71294270D01*
X162185917Y-71294728D01*
X162670329Y-71094573D01*
X163041271Y-70724278D01*
X163195130Y-70353743D01*
X163347427Y-70722329D01*
X163717722Y-71093271D01*
X164201783Y-71294270D01*
X164725917Y-71294728D01*
X165210329Y-71094573D01*
X165581271Y-70724278D01*
X165735130Y-70353743D01*
X165887427Y-70722329D01*
X166257722Y-71093271D01*
X166741783Y-71294270D01*
X167265917Y-71294728D01*
X167750329Y-71094573D01*
X168121271Y-70724278D01*
X168275130Y-70353743D01*
X168427427Y-70722329D01*
X168797722Y-71093271D01*
X169281783Y-71294270D01*
X169805917Y-71294728D01*
X170290329Y-71094573D01*
X170661271Y-70724278D01*
X170815130Y-70353743D01*
X170967427Y-70722329D01*
X171337722Y-71093271D01*
X171821783Y-71294270D01*
X172345917Y-71294728D01*
X172830329Y-71094573D01*
X173201271Y-70724278D01*
X173355130Y-70353743D01*
X173507427Y-70722329D01*
X173877722Y-71093271D01*
X174361783Y-71294270D01*
X174885917Y-71294728D01*
X175370329Y-71094573D01*
X175577500Y-70887763D01*
X175577500Y-84772500D01*
X174887656Y-84772500D01*
X174911384Y-84715356D01*
X174911616Y-84449809D01*
X174810209Y-84204386D01*
X174622602Y-84016451D01*
X174377356Y-83914616D01*
X174111809Y-83914384D01*
X173866386Y-84015791D01*
X173744464Y-84137500D01*
X144710118Y-84137500D01*
X144462500Y-83889882D01*
X144462500Y-77856191D01*
X146525384Y-77856191D01*
X146626791Y-78101614D01*
X146748500Y-78223536D01*
X146748500Y-81923560D01*
X146627451Y-82044398D01*
X146525616Y-82289644D01*
X146525384Y-82555191D01*
X146626791Y-82800614D01*
X146814398Y-82988549D01*
X147059644Y-83090384D01*
X147325191Y-83090616D01*
X147570614Y-82989209D01*
X147758549Y-82801602D01*
X147860384Y-82556356D01*
X147860616Y-82290809D01*
X147759209Y-82045386D01*
X147637500Y-81923464D01*
X147637500Y-78223440D01*
X147758549Y-78102602D01*
X147860384Y-77857356D01*
X147860616Y-77591809D01*
X147759209Y-77346386D01*
X147571602Y-77158451D01*
X147326356Y-77056616D01*
X147060809Y-77056384D01*
X146815386Y-77157791D01*
X146627451Y-77345398D01*
X146525616Y-77590644D01*
X146525384Y-77856191D01*
X144462500Y-77856191D01*
X144462500Y-76953440D01*
X144583549Y-76832602D01*
X144685384Y-76587356D01*
X144685616Y-76321809D01*
X144584209Y-76076386D01*
X144396602Y-75888451D01*
X144151356Y-75786616D01*
X143885809Y-75786384D01*
X143640386Y-75887791D01*
X143452451Y-76075398D01*
X143350616Y-76320644D01*
X143350384Y-76586191D01*
X143451791Y-76831614D01*
X143573500Y-76953536D01*
X143573500Y-84074000D01*
X143607336Y-84244103D01*
X143620965Y-84264500D01*
X143703691Y-84388309D01*
X144211691Y-84896309D01*
X144355897Y-84992664D01*
X144526000Y-85026500D01*
X148653500Y-85026500D01*
X148653500Y-87058500D01*
X140652500Y-87058500D01*
X140652500Y-84464551D01*
X140663217Y-84490488D01*
X141059426Y-84887389D01*
X141577363Y-85102455D01*
X142138177Y-85102945D01*
X142656488Y-84888783D01*
X143053389Y-84492574D01*
X143268455Y-83974637D01*
X143268945Y-83413823D01*
X143054783Y-82895512D01*
X142658574Y-82498611D01*
X142430500Y-82403907D01*
X142430500Y-77690684D01*
X142529488Y-77649783D01*
X142926389Y-77253574D01*
X143141455Y-76735637D01*
X143141945Y-76174823D01*
X142927783Y-75656512D01*
X142531574Y-75259611D01*
X142013637Y-75044545D01*
X141452823Y-75044055D01*
X140934512Y-75258217D01*
X140652500Y-75539737D01*
X140652500Y-75184000D01*
X140618664Y-75013897D01*
X140522309Y-74869691D01*
X139760309Y-74107691D01*
X139616103Y-74011336D01*
X139446000Y-73977500D01*
X137534618Y-73977500D01*
X136144000Y-72586882D01*
X136144000Y-72268191D01*
X143477384Y-72268191D01*
X143578791Y-72513614D01*
X143766398Y-72701549D01*
X144011644Y-72803384D01*
X144183917Y-72803535D01*
X148653500Y-77273118D01*
X148653500Y-81923560D01*
X148532451Y-82044398D01*
X148430616Y-82289644D01*
X148430384Y-82555191D01*
X148531791Y-82800614D01*
X148719398Y-82988549D01*
X148964644Y-83090384D01*
X149230191Y-83090616D01*
X149475614Y-82989209D01*
X149663549Y-82801602D01*
X149765384Y-82556356D01*
X149765616Y-82290809D01*
X149742846Y-82235701D01*
X150871341Y-82235701D01*
X151010728Y-82573043D01*
X151268599Y-82831365D01*
X151605697Y-82971340D01*
X151970701Y-82971659D01*
X152308043Y-82832272D01*
X152566365Y-82574401D01*
X152706340Y-82237303D01*
X152706659Y-81872299D01*
X152567272Y-81534957D01*
X152309401Y-81276635D01*
X151972303Y-81136660D01*
X151607299Y-81136341D01*
X151269957Y-81275728D01*
X151011635Y-81533599D01*
X150871660Y-81870697D01*
X150871341Y-82235701D01*
X149742846Y-82235701D01*
X149664209Y-82045386D01*
X149542500Y-81923464D01*
X149542500Y-77089000D01*
X149508664Y-76918897D01*
X149412309Y-76774691D01*
X145286809Y-72649191D01*
X148557384Y-72649191D01*
X148658791Y-72894614D01*
X148780500Y-73016536D01*
X148780500Y-74930000D01*
X148814336Y-75100103D01*
X148870394Y-75184000D01*
X148910691Y-75244309D01*
X152717500Y-79051118D01*
X152717500Y-82677000D01*
X152751336Y-82847103D01*
X152811641Y-82937356D01*
X152847691Y-82991309D01*
X152974691Y-83118309D01*
X153118897Y-83214664D01*
X153289000Y-83248500D01*
X168537560Y-83248500D01*
X168658398Y-83369549D01*
X168903644Y-83471384D01*
X169169191Y-83471616D01*
X169414614Y-83370209D01*
X169602549Y-83182602D01*
X169704384Y-82937356D01*
X169704616Y-82671809D01*
X169603209Y-82426386D01*
X169415602Y-82238451D01*
X169170356Y-82136616D01*
X168904809Y-82136384D01*
X168659386Y-82237791D01*
X168537464Y-82359500D01*
X156320809Y-82359500D01*
X156333614Y-82354209D01*
X156521549Y-82166602D01*
X156623384Y-81921356D01*
X156623616Y-81655809D01*
X156522209Y-81410386D01*
X156400500Y-81288464D01*
X156400500Y-78999191D01*
X157320384Y-78999191D01*
X157421791Y-79244614D01*
X157609398Y-79432549D01*
X157854644Y-79534384D01*
X158120191Y-79534616D01*
X158365614Y-79433209D01*
X158487536Y-79311500D01*
X161290000Y-79311500D01*
X161460103Y-79277664D01*
X161604309Y-79181309D01*
X162239309Y-78546309D01*
X162259785Y-78515664D01*
X162335664Y-78402103D01*
X162369500Y-78232000D01*
X162369500Y-72762440D01*
X162490549Y-72641602D01*
X162592384Y-72396356D01*
X162592616Y-72130809D01*
X162491209Y-71885386D01*
X162303602Y-71697451D01*
X162058356Y-71595616D01*
X161792809Y-71595384D01*
X161547386Y-71696791D01*
X161359451Y-71884398D01*
X161257616Y-72129644D01*
X161257384Y-72395191D01*
X161358791Y-72640614D01*
X161480500Y-72762536D01*
X161480500Y-78047882D01*
X161105882Y-78422500D01*
X158487440Y-78422500D01*
X158366602Y-78301451D01*
X158121356Y-78199616D01*
X157855809Y-78199384D01*
X157610386Y-78300791D01*
X157422451Y-78488398D01*
X157320616Y-78733644D01*
X157320384Y-78999191D01*
X156400500Y-78999191D01*
X156400500Y-78162118D01*
X157159309Y-77403309D01*
X157255664Y-77259103D01*
X157289500Y-77089000D01*
X157289500Y-72762440D01*
X157410549Y-72641602D01*
X157512384Y-72396356D01*
X157512616Y-72130809D01*
X157411209Y-71885386D01*
X157223602Y-71697451D01*
X156978356Y-71595616D01*
X156712809Y-71595384D01*
X156467386Y-71696791D01*
X156279451Y-71884398D01*
X156177616Y-72129644D01*
X156177384Y-72395191D01*
X156278791Y-72640614D01*
X156400500Y-72762536D01*
X156400500Y-76904882D01*
X155641691Y-77663691D01*
X155545336Y-77807897D01*
X155511500Y-77978000D01*
X155511500Y-81288560D01*
X155390451Y-81409398D01*
X155288616Y-81654644D01*
X155288384Y-81920191D01*
X155389791Y-82165614D01*
X155577398Y-82353549D01*
X155591730Y-82359500D01*
X154542809Y-82359500D01*
X154555614Y-82354209D01*
X154743549Y-82166602D01*
X154845384Y-81921356D01*
X154845616Y-81655809D01*
X154744209Y-81410386D01*
X154622500Y-81288464D01*
X154622500Y-76200000D01*
X154610504Y-76139691D01*
X154588665Y-76029898D01*
X154492309Y-75885691D01*
X153857309Y-75250691D01*
X153797501Y-75210729D01*
X153713103Y-75154336D01*
X153543000Y-75120500D01*
X152602618Y-75120500D01*
X152567272Y-75034957D01*
X152309401Y-74776635D01*
X151972303Y-74636660D01*
X151607299Y-74636341D01*
X151269957Y-74775728D01*
X151011635Y-75033599D01*
X150871660Y-75370697D01*
X150871341Y-75735701D01*
X151010728Y-76073043D01*
X151268599Y-76331365D01*
X151605697Y-76471340D01*
X151970701Y-76471659D01*
X152308043Y-76332272D01*
X152566365Y-76074401D01*
X152593314Y-76009500D01*
X153358882Y-76009500D01*
X153733500Y-76384118D01*
X153733500Y-81288560D01*
X153612451Y-81409398D01*
X153606500Y-81423730D01*
X153606500Y-78867000D01*
X153572664Y-78696897D01*
X153476309Y-78552691D01*
X149669500Y-74745882D01*
X149669500Y-73016440D01*
X149790549Y-72895602D01*
X149892384Y-72650356D01*
X149892616Y-72384809D01*
X149791209Y-72139386D01*
X149603602Y-71951451D01*
X149358356Y-71849616D01*
X149092809Y-71849384D01*
X148847386Y-71950791D01*
X148659451Y-72138398D01*
X148557616Y-72383644D01*
X148557384Y-72649191D01*
X145286809Y-72649191D01*
X144812467Y-72174849D01*
X144812616Y-72003809D01*
X144711209Y-71758386D01*
X144523602Y-71570451D01*
X144278356Y-71468616D01*
X144012809Y-71468384D01*
X143767386Y-71569791D01*
X143579451Y-71757398D01*
X143477616Y-72002644D01*
X143477384Y-72268191D01*
X136144000Y-72268191D01*
X136144000Y-67430618D01*
X136645618Y-66929000D01*
X159448500Y-66929000D01*
X159618603Y-66895164D01*
X159762809Y-66798809D01*
X162239309Y-64322309D01*
X162335664Y-64178103D01*
X162369500Y-64008000D01*
X162369500Y-57903440D01*
X162490549Y-57782602D01*
X162592384Y-57537356D01*
X162592616Y-57271809D01*
X162491209Y-57026386D01*
X162303602Y-56838451D01*
X162058356Y-56736616D01*
X161792809Y-56736384D01*
X161547386Y-56837791D01*
X161359451Y-57025398D01*
X161257616Y-57270644D01*
X161257384Y-57536191D01*
X161358791Y-57781614D01*
X161480500Y-57903536D01*
X161480500Y-63823882D01*
X159264382Y-66040000D01*
X142010974Y-66040000D01*
X142291389Y-65760074D01*
X142506455Y-65242137D01*
X142506945Y-64681323D01*
X142292783Y-64163012D01*
X141922500Y-63792082D01*
X141922500Y-62928505D01*
X141922501Y-62928500D01*
X141859663Y-62612595D01*
X141839880Y-62582988D01*
X141680717Y-62344783D01*
X141680714Y-62344781D01*
X138112500Y-58776566D01*
X138112500Y-58317820D01*
X138481389Y-57949574D01*
X138696455Y-57431637D01*
X138696696Y-57155191D01*
X143477384Y-57155191D01*
X143578791Y-57400614D01*
X143700500Y-57522536D01*
X143700500Y-64016560D01*
X143579451Y-64137398D01*
X143477616Y-64382644D01*
X143477384Y-64648191D01*
X143578791Y-64893614D01*
X143766398Y-65081549D01*
X144011644Y-65183384D01*
X144277191Y-65183616D01*
X144522614Y-65082209D01*
X144710549Y-64894602D01*
X144812384Y-64649356D01*
X144812616Y-64383809D01*
X144711209Y-64138386D01*
X144589500Y-64016464D01*
X144589500Y-57522440D01*
X144710549Y-57401602D01*
X144812384Y-57156356D01*
X144812495Y-57028191D01*
X151097384Y-57028191D01*
X151198791Y-57273614D01*
X151320500Y-57395536D01*
X151320500Y-60841560D01*
X151199451Y-60962398D01*
X151097616Y-61207644D01*
X151097384Y-61473191D01*
X151198791Y-61718614D01*
X151386398Y-61906549D01*
X151631644Y-62008384D01*
X151897191Y-62008616D01*
X152142614Y-61907209D01*
X152330549Y-61719602D01*
X152432384Y-61474356D01*
X152432616Y-61208809D01*
X152331209Y-60963386D01*
X152209500Y-60841464D01*
X152209500Y-57395440D01*
X152330549Y-57274602D01*
X152432384Y-57029356D01*
X152432616Y-56763809D01*
X152331209Y-56518386D01*
X152143602Y-56330451D01*
X151898356Y-56228616D01*
X151632809Y-56228384D01*
X151387386Y-56329791D01*
X151199451Y-56517398D01*
X151097616Y-56762644D01*
X151097384Y-57028191D01*
X144812495Y-57028191D01*
X144812616Y-56890809D01*
X144711209Y-56645386D01*
X144523602Y-56457451D01*
X144278356Y-56355616D01*
X144012809Y-56355384D01*
X143767386Y-56456791D01*
X143579451Y-56644398D01*
X143477616Y-56889644D01*
X143477384Y-57155191D01*
X138696696Y-57155191D01*
X138696945Y-56870823D01*
X138482783Y-56352512D01*
X138086574Y-55955611D01*
X137568637Y-55740545D01*
X137007823Y-55740055D01*
X136489512Y-55954217D01*
X136092611Y-56350426D01*
X135877545Y-56868363D01*
X135877055Y-57429177D01*
X136091217Y-57947488D01*
X136461500Y-58318418D01*
X136461500Y-59118500D01*
X136524337Y-59434406D01*
X136703283Y-59702217D01*
X140271500Y-63270433D01*
X140271500Y-63792680D01*
X139902611Y-64160926D01*
X139687545Y-64678863D01*
X139687055Y-65239677D01*
X139901217Y-65757988D01*
X140182737Y-66040000D01*
X136461500Y-66040000D01*
X136291397Y-66073836D01*
X136170092Y-66154889D01*
X136147191Y-66170191D01*
X135385191Y-66932191D01*
X135288836Y-67076397D01*
X135255000Y-67246500D01*
X135255000Y-72771000D01*
X135288836Y-72941103D01*
X135364715Y-73054664D01*
X135385191Y-73085309D01*
X137036191Y-74736309D01*
X137180398Y-74832665D01*
X137350500Y-74866500D01*
X139261882Y-74866500D01*
X139763500Y-75368118D01*
X139763500Y-87058500D01*
X139492260Y-87058500D01*
X139620270Y-86750217D01*
X139620728Y-86226083D01*
X139420573Y-85741671D01*
X139050278Y-85370729D01*
X138679743Y-85216870D01*
X139048329Y-85064573D01*
X139419271Y-84694278D01*
X139620270Y-84210217D01*
X139620728Y-83686083D01*
X139420573Y-83201671D01*
X139050278Y-82830729D01*
X138679743Y-82676870D01*
X139048329Y-82524573D01*
X139419271Y-82154278D01*
X139620270Y-81670217D01*
X139620728Y-81146083D01*
X139420573Y-80661671D01*
X139050278Y-80290729D01*
X138679743Y-80136870D01*
X139048329Y-79984573D01*
X139419271Y-79614278D01*
X139620270Y-79130217D01*
X139620728Y-78606083D01*
X139420573Y-78121671D01*
X139050278Y-77750729D01*
X138679743Y-77596870D01*
X139048329Y-77444573D01*
X139419271Y-77074278D01*
X139620270Y-76590217D01*
X139620728Y-76066083D01*
X139420573Y-75581671D01*
X139050278Y-75210729D01*
X138566217Y-75009730D01*
X138042083Y-75009272D01*
X137557671Y-75209427D01*
X137186729Y-75579722D01*
X136985730Y-76063783D01*
X136985272Y-76587917D01*
X137185427Y-77072329D01*
X137555722Y-77443271D01*
X137926257Y-77597130D01*
X137557671Y-77749427D01*
X137186729Y-78119722D01*
X136985730Y-78603783D01*
X136985272Y-79127917D01*
X137185427Y-79612329D01*
X137555722Y-79983271D01*
X137926257Y-80137130D01*
X137557671Y-80289427D01*
X137186729Y-80659722D01*
X136985730Y-81143783D01*
X136985272Y-81667917D01*
X137185427Y-82152329D01*
X137555722Y-82523271D01*
X137926257Y-82677130D01*
X137557671Y-82829427D01*
X137186729Y-83199722D01*
X136985730Y-83683783D01*
X136985272Y-84207917D01*
X137185427Y-84692329D01*
X137555722Y-85063271D01*
X137926257Y-85217130D01*
X137557671Y-85369427D01*
X137186729Y-85739722D01*
X136985730Y-86223783D01*
X136985272Y-86747917D01*
X137113602Y-87058500D01*
X135191500Y-87058500D01*
X135191500Y-53530500D01*
X138534891Y-53530500D01*
X138319671Y-53619427D01*
M02*
