M48
;DRILL file {KiCad no-vcs-found-895c0bb~58~ubuntu16.04.1} date Tue Jul 11 17:13:06 2017
;FORMAT={-:-/ absolute / inch / decimal}
FMAT,2
INCH,TZ
T1C0.024
T2C0.028
T3C0.031
T4C0.040
T5C0.045
T6C0.049
%
G90
G05
M72
T1
X4.794Y-3.204
X4.794Y-3.236
X5.082Y-3.373
X5.127Y-2.896
X5.177Y-2.226
X5.373Y-3.209
X5.429Y-3.109
X5.457Y-3.009
X5.474Y-2.909
X5.499Y-2.019
T2
X4.5944Y-2.1285
X4.5944Y-2.2285
X4.5944Y-2.3285
X4.5944Y-2.4285
X4.8944Y-2.1285
X4.8944Y-2.2285
X4.8944Y-2.3285
X4.8944Y-2.4285
T3
X4.3926Y-2.0707
X4.3926Y-2.1495
X4.3934Y-2.4075
X4.3934Y-2.4863
X5.0885Y-2.0716
X5.1673Y-2.0716
T4
X4.977Y-2.325
X4.978Y-2.14
X4.981Y-2.229
X5.1673Y-1.9657
T5
X4.331Y-2.543
X4.382Y-2.86
X4.439Y-3.085
X4.482Y-3.024
X4.483Y-2.619
X4.6505Y-3.05
X4.651Y-3.314
X4.772Y-2.431
X4.8005Y-2.731
X5.026Y-3.402
X5.032Y-2.918
X5.094Y-2.538
X5.266Y-2.209
X5.298Y-2.987
X5.313Y-2.539
X5.504Y-2.223
T6
X4.382Y-2.947
X4.482Y-2.947
X4.582Y-2.947
X5.737Y-2.309
X5.737Y-2.409
X5.737Y-2.509
X5.737Y-2.609
X5.737Y-2.709
X5.737Y-2.809
X5.737Y-2.909
X5.737Y-3.009
X5.737Y-3.109
X5.737Y-3.209
X5.737Y-3.309
X5.737Y-3.409
X4.582Y-2.673
X4.582Y-2.773
T0
M30
