G04 #@! TF.GenerationSoftware,KiCad,Pcbnew,no-vcs-found-895c0bb~58~ubuntu16.04.1*
G04 #@! TF.CreationDate,2017-07-19T10:40:22-04:00*
G04 #@! TF.ProjectId,Noeud,4E6F6575642E6B696361645F70636200,rev?*
G04 #@! TF.SameCoordinates,Original
G04 #@! TF.FileFunction,Copper,L2,Bot,Signal*
G04 #@! TF.FilePolarity,Positive*
%FSLAX46Y46*%
G04 Gerber Fmt 4.6, Leading zero omitted, Abs format (unit mm)*
G04 Created by KiCad (PCBNEW no-vcs-found-895c0bb~58~ubuntu16.04.1) date Wed Jul 19 10:40:22 2017*
%MOMM*%
%LPD*%
G01*
G04 APERTURE LIST*
%ADD10C,1.500000*%
%ADD11R,1.300000X1.500000*%
%ADD12C,2.000000*%
%ADD13C,1.400000*%
%ADD14C,1.016000*%
%ADD15C,1.200000*%
%ADD16C,2.184400*%
%ADD17C,0.700000*%
%ADD18C,0.762000*%
%ADD19C,0.254000*%
%ADD20C,0.127000*%
G04 APERTURE END LIST*
D10*
X139251000Y-132294000D03*
D11*
X139251000Y-135794000D03*
D12*
X129540000Y-122047000D03*
X129540000Y-119507000D03*
X129540000Y-116967000D03*
X129540000Y-113030000D03*
X129540000Y-110490000D03*
X129540000Y-107950000D03*
X129540000Y-105410000D03*
X129540000Y-102870000D03*
X129540000Y-125857000D03*
X129540000Y-128397000D03*
X129540000Y-130937000D03*
X129540000Y-133477000D03*
X129540000Y-136017000D03*
X129540000Y-138557000D03*
X138303000Y-76327000D03*
X138303000Y-78867000D03*
X138303000Y-81407000D03*
X138303000Y-83947000D03*
X138303000Y-86487000D03*
X138303000Y-89027000D03*
X138303000Y-91567000D03*
X138303000Y-94107000D03*
X138303000Y-96647000D03*
X138303000Y-99187000D03*
X138303000Y-101727000D03*
X138303000Y-104267000D03*
X168526000Y-120457000D03*
X165986000Y-120457000D03*
X163446000Y-120457000D03*
X160906000Y-120457000D03*
X158366000Y-120457000D03*
X155826000Y-120457000D03*
X168526000Y-143317000D03*
X153286000Y-120457000D03*
X165986000Y-143317000D03*
X163446000Y-143317000D03*
X160906000Y-143317000D03*
X158366000Y-143317000D03*
X155826000Y-143317000D03*
X153286000Y-143317000D03*
X129580000Y-54900000D03*
X129580000Y-57440000D03*
X129580000Y-59980000D03*
X129580000Y-62520000D03*
X129580000Y-65060000D03*
X129580000Y-68780000D03*
X129580000Y-71320000D03*
X129580000Y-73860000D03*
X129580000Y-90340000D03*
X129580000Y-87800000D03*
X129580000Y-85260000D03*
X129580000Y-82720000D03*
X129580000Y-80180000D03*
X129580000Y-77640000D03*
D13*
X145787000Y-120721000D03*
X145787000Y-125721000D03*
X140787000Y-120721000D03*
X140787000Y-125721000D03*
D14*
X142875000Y-109982000D03*
X142875000Y-111252000D03*
X142875000Y-112522000D03*
D15*
X149582000Y-131052000D03*
X149582000Y-137552000D03*
X151789000Y-82054000D03*
X151789000Y-75554000D03*
X146026000Y-137552000D03*
X146026000Y-131052000D03*
X154190000Y-109450000D03*
X147690000Y-109450000D03*
X154189000Y-113054000D03*
X147689000Y-113054000D03*
D12*
X148082000Y-142081000D03*
X145542000Y-142081000D03*
X143002000Y-142081000D03*
X140462000Y-142081000D03*
X129540000Y-99060000D03*
X129540000Y-96520000D03*
X129540000Y-93980000D03*
X139065000Y-69977000D03*
X141605000Y-69977000D03*
X144145000Y-69977000D03*
X146685000Y-69977000D03*
X149225000Y-69977000D03*
X151765000Y-69977000D03*
X154305000Y-69977000D03*
X156845000Y-69977000D03*
X159385000Y-69977000D03*
X161925000Y-69977000D03*
X164465000Y-69977000D03*
X167005000Y-69977000D03*
X169545000Y-69977000D03*
X172085000Y-69977000D03*
X174625000Y-69977000D03*
X174625000Y-54737000D03*
X172085000Y-54737000D03*
X169545000Y-54737000D03*
X167005000Y-54737000D03*
X164465000Y-54737000D03*
X161925000Y-54737000D03*
X159385000Y-54737000D03*
X156845000Y-54737000D03*
X154305000Y-54737000D03*
X151765000Y-54737000D03*
X149225000Y-54737000D03*
X146685000Y-54737000D03*
X144145000Y-54737000D03*
X141605000Y-54737000D03*
X139065000Y-54737000D03*
D16*
X136906000Y-110490000D03*
X136906000Y-132207000D03*
X137287000Y-57150000D03*
X141097000Y-64960500D03*
D17*
X161925000Y-57404000D03*
X132461000Y-122110500D03*
X132651500Y-116903500D03*
X134493000Y-111887000D03*
X150685500Y-102870000D03*
X150622000Y-89598500D03*
D16*
X135890000Y-99187000D03*
X140589000Y-109982000D03*
X143891000Y-131064000D03*
X132080000Y-138557000D03*
X132207000Y-128397000D03*
X132334000Y-113030000D03*
D17*
X147193000Y-77724000D03*
X147193000Y-82423000D03*
X142240000Y-115951000D03*
X155956000Y-115951000D03*
X155956000Y-117221000D03*
X142240000Y-117221000D03*
X151765000Y-61341000D03*
X151765000Y-56896000D03*
X157988000Y-78867000D03*
X161925000Y-72263000D03*
D16*
X141732000Y-76454000D03*
X141859000Y-83693000D03*
X159385000Y-61785500D03*
X159385000Y-57404000D03*
X141605000Y-95377000D03*
X151130000Y-86614000D03*
X156337000Y-113030000D03*
X149606000Y-128778000D03*
X165989000Y-140716000D03*
X137287000Y-141986000D03*
X132207000Y-93980000D03*
X132207000Y-87884000D03*
X132080000Y-71247000D03*
X132080000Y-57404000D03*
X141605000Y-102235000D03*
X146304000Y-99822000D03*
X146304000Y-86106000D03*
X146685000Y-57150000D03*
D17*
X144145000Y-57023000D03*
X144145000Y-64516000D03*
X149098000Y-82423000D03*
X144145000Y-72136000D03*
X144018000Y-76454000D03*
X174244000Y-84582000D03*
X169037000Y-82804000D03*
X149225000Y-72517000D03*
X152781000Y-89027000D03*
X154178000Y-81788000D03*
X146939000Y-105791000D03*
X156845000Y-72263000D03*
X155956000Y-81788000D03*
D18*
X129540000Y-110490000D02*
X136906000Y-110490000D01*
X136993000Y-132294000D02*
X139251000Y-132294000D01*
X136906000Y-132207000D02*
X136993000Y-132294000D01*
X146026000Y-137552000D02*
X146026000Y-137517000D01*
X146026000Y-137517000D02*
X140803000Y-132294000D01*
X140803000Y-132294000D02*
X139251000Y-132294000D01*
D19*
X161925000Y-54737000D02*
X161925000Y-57404000D01*
X132397500Y-122047000D02*
X129540000Y-122047000D01*
X132461000Y-122110500D02*
X132397500Y-122047000D01*
X132651500Y-116776500D02*
X132651500Y-116903500D01*
X134493000Y-114935000D02*
X132651500Y-116776500D01*
X134493000Y-111887000D02*
X134493000Y-114935000D01*
X150685500Y-89662000D02*
X150685500Y-102870000D01*
X150622000Y-89598500D02*
X150685500Y-89662000D01*
D18*
X129540000Y-119507000D02*
X133223000Y-119507000D01*
X141224000Y-114173000D02*
X142875000Y-112522000D01*
X138557000Y-114173000D02*
X141224000Y-114173000D01*
X133223000Y-119507000D02*
X138557000Y-114173000D01*
X138303000Y-99187000D02*
X135890000Y-99187000D01*
X142875000Y-109982000D02*
X140589000Y-109982000D01*
X146026000Y-131052000D02*
X143903000Y-131052000D01*
X143903000Y-131052000D02*
X143891000Y-131064000D01*
X129540000Y-138557000D02*
X132080000Y-138557000D01*
X129540000Y-128397000D02*
X132207000Y-128397000D01*
X129540000Y-113030000D02*
X132334000Y-113030000D01*
D19*
X129540000Y-102870000D02*
X131572000Y-102870000D01*
X154305000Y-77089000D02*
X154305000Y-69977000D01*
X153670000Y-77724000D02*
X154305000Y-77089000D01*
X147193000Y-77724000D02*
X153670000Y-77724000D01*
X147193000Y-83185000D02*
X147193000Y-82423000D01*
X148082000Y-84074000D02*
X147193000Y-83185000D01*
X148082000Y-106680000D02*
X148082000Y-84074000D01*
X147955000Y-106807000D02*
X148082000Y-106680000D01*
X140716000Y-106807000D02*
X147955000Y-106807000D01*
X140208000Y-107315000D02*
X140716000Y-106807000D01*
X136017000Y-107315000D02*
X140208000Y-107315000D01*
X131572000Y-102870000D02*
X136017000Y-107315000D01*
X164465000Y-69977000D02*
X164465000Y-75438000D01*
X161798000Y-115951000D02*
X155956000Y-115951000D01*
X162941000Y-114808000D02*
X161798000Y-115951000D01*
X162941000Y-76962000D02*
X162941000Y-114808000D01*
X164465000Y-75438000D02*
X162941000Y-76962000D01*
X134620000Y-130937000D02*
X129540000Y-130937000D01*
X135636000Y-129921000D02*
X134620000Y-130937000D01*
X135636000Y-118491000D02*
X135636000Y-129921000D01*
X138176000Y-115951000D02*
X135636000Y-118491000D01*
X140716000Y-115951000D02*
X138176000Y-115951000D01*
X142240000Y-115951000D02*
X140716000Y-115951000D01*
X136271000Y-120904000D02*
X136271000Y-119126000D01*
X136271000Y-120904000D02*
X136271000Y-130302000D01*
X136271000Y-130302000D02*
X133096000Y-133477000D01*
X129540000Y-133477000D02*
X133096000Y-133477000D01*
X138176000Y-117221000D02*
X142240000Y-117221000D01*
X136652000Y-118745000D02*
X138176000Y-117221000D01*
X164211000Y-116078000D02*
X163068000Y-117221000D01*
X163068000Y-117221000D02*
X155956000Y-117221000D01*
X167005000Y-74422000D02*
X167005000Y-69977000D01*
X164211000Y-77216000D02*
X167005000Y-74422000D01*
X164211000Y-115189000D02*
X164211000Y-77216000D01*
X164211000Y-115189000D02*
X164211000Y-116078000D01*
X136652000Y-118745000D02*
X136398000Y-118999000D01*
X136271000Y-119126000D02*
X136398000Y-118999000D01*
X151765000Y-54737000D02*
X151765000Y-56896000D01*
X151765000Y-61341000D02*
X151638000Y-61341000D01*
X136398000Y-76327000D02*
X138303000Y-76327000D01*
X138430000Y-61341000D02*
X151638000Y-61341000D01*
X134874000Y-64897000D02*
X138430000Y-61341000D01*
X134874000Y-74803000D02*
X134874000Y-64897000D01*
X136398000Y-76327000D02*
X134874000Y-74803000D01*
X138303000Y-78867000D02*
X157988000Y-78867000D01*
X161925000Y-72263000D02*
X161925000Y-69977000D01*
X138303000Y-81407000D02*
X148209000Y-81407000D01*
X159385000Y-80137000D02*
X159385000Y-69977000D01*
X159004000Y-80518000D02*
X159385000Y-80137000D01*
X149098000Y-80518000D02*
X159004000Y-80518000D01*
X148209000Y-81407000D02*
X149098000Y-80518000D01*
X138303000Y-86487000D02*
X138303000Y-83947000D01*
X138303000Y-83947000D02*
X138303000Y-81407000D01*
X138303000Y-81407000D02*
X138430000Y-81280000D01*
D18*
X159385000Y-61785500D02*
X159385000Y-61849000D01*
X144145000Y-89027000D02*
X144145000Y-85979000D01*
X135763000Y-65659000D02*
X138684000Y-62738000D01*
X135763000Y-72263000D02*
X135763000Y-65659000D01*
X137668000Y-74168000D02*
X135763000Y-72263000D01*
X139446000Y-74168000D02*
X137668000Y-74168000D01*
X141732000Y-76454000D02*
X139446000Y-74168000D01*
X141859000Y-83693000D02*
X144145000Y-85979000D01*
X159385000Y-57404000D02*
X159385000Y-54737000D01*
X138938000Y-62484000D02*
X138684000Y-62738000D01*
X158750000Y-62484000D02*
X138938000Y-62484000D01*
X159385000Y-61849000D02*
X158750000Y-62484000D01*
X138303000Y-89027000D02*
X144145000Y-89027000D01*
X144145000Y-89027000D02*
X144018000Y-89027000D01*
X144018000Y-89027000D02*
X144145000Y-89027000D01*
X141097000Y-104267000D02*
X139954000Y-104267000D01*
X138303000Y-104267000D02*
X139954000Y-104267000D01*
X142621000Y-104267000D02*
X141097000Y-104267000D01*
X144145000Y-102743000D02*
X142621000Y-104267000D01*
X144145000Y-89027000D02*
X144145000Y-102743000D01*
X138303000Y-96647000D02*
X140335000Y-96647000D01*
X140335000Y-96647000D02*
X141605000Y-95377000D01*
X151789000Y-82054000D02*
X151789000Y-85955000D01*
X151789000Y-85955000D02*
X151130000Y-86614000D01*
X154189000Y-113054000D02*
X156313000Y-113054000D01*
X156313000Y-113054000D02*
X156337000Y-113030000D01*
X149582000Y-131052000D02*
X149582000Y-128802000D01*
X149582000Y-128802000D02*
X149606000Y-128778000D01*
X165986000Y-143317000D02*
X165986000Y-140719000D01*
X165986000Y-140719000D02*
X165989000Y-140716000D01*
X140462000Y-142081000D02*
X137382000Y-142081000D01*
X137382000Y-142081000D02*
X137287000Y-141986000D01*
X129540000Y-93980000D02*
X132207000Y-93980000D01*
X129580000Y-87800000D02*
X132123000Y-87800000D01*
X132123000Y-87800000D02*
X132207000Y-87884000D01*
X129580000Y-71320000D02*
X132007000Y-71320000D01*
X132007000Y-71320000D02*
X132080000Y-71247000D01*
X129580000Y-57440000D02*
X132044000Y-57440000D01*
X132044000Y-57440000D02*
X132080000Y-57404000D01*
X129580000Y-87800000D02*
X129580000Y-90340000D01*
X141097000Y-101727000D02*
X141605000Y-102235000D01*
X138303000Y-101727000D02*
X140843000Y-101727000D01*
X140843000Y-101727000D02*
X141097000Y-101727000D01*
X146304000Y-99822000D02*
X146304000Y-86106000D01*
X146685000Y-54737000D02*
X146685000Y-57150000D01*
D19*
X165986000Y-120457000D02*
X165986000Y-78108000D01*
X169545000Y-74549000D02*
X169545000Y-69977000D01*
X165986000Y-78108000D02*
X169545000Y-74549000D01*
X144145000Y-54737000D02*
X144145000Y-57023000D01*
X144145000Y-64516000D02*
X144145000Y-69977000D01*
X149098000Y-88773000D02*
X149098000Y-82423000D01*
X149098000Y-111633000D02*
X149098000Y-88773000D01*
X147689000Y-113042000D02*
X149098000Y-111633000D01*
X144145000Y-72136000D02*
X144145000Y-69977000D01*
X147689000Y-113054000D02*
X147689000Y-113042000D01*
X147701000Y-118819000D02*
X147701000Y-120142000D01*
X147122000Y-120721000D02*
X145787000Y-120721000D01*
X147701000Y-120142000D02*
X147122000Y-120721000D01*
X160906000Y-120457000D02*
X160906000Y-118996000D01*
X160729000Y-118819000D02*
X147701000Y-118819000D01*
X147701000Y-118819000D02*
X147689000Y-118819000D01*
X160906000Y-118996000D02*
X160729000Y-118819000D01*
X140787000Y-120721000D02*
X145787000Y-120721000D01*
X147689000Y-118819000D02*
X147689000Y-113054000D01*
X174625000Y-54737000D02*
X174625000Y-62420500D01*
X139382500Y-63563500D02*
X139446000Y-63563500D01*
X139446000Y-63563500D02*
X139573000Y-63436500D01*
X139573000Y-63436500D02*
X172275500Y-63436500D01*
X163446000Y-133734000D02*
X163446000Y-143317000D01*
X136779000Y-66167000D02*
X138176000Y-64770000D01*
X136779000Y-71882000D02*
X136779000Y-66167000D01*
X138176000Y-73279000D02*
X136779000Y-71882000D01*
X140843000Y-73279000D02*
X138176000Y-73279000D01*
X144018000Y-76454000D02*
X140843000Y-73279000D01*
X174244000Y-122936000D02*
X174244000Y-84582000D01*
X163446000Y-133734000D02*
X174244000Y-122936000D01*
X138176000Y-64770000D02*
X139382500Y-63563500D01*
X173609000Y-63436500D02*
X172275500Y-63436500D01*
X174625000Y-62420500D02*
X173609000Y-63436500D01*
X174625000Y-69977000D02*
X174625000Y-82677000D01*
X160906000Y-135004000D02*
X160906000Y-143317000D01*
X173228000Y-122682000D02*
X160906000Y-135004000D01*
X173228000Y-84074000D02*
X173228000Y-122682000D01*
X174625000Y-82677000D02*
X173228000Y-84074000D01*
X172085000Y-69977000D02*
X172085000Y-122301000D01*
X158366000Y-136020000D02*
X158366000Y-143317000D01*
X172085000Y-122301000D02*
X158366000Y-136020000D01*
X129580000Y-62520000D02*
X133949000Y-62520000D01*
X154305000Y-57785000D02*
X154305000Y-54737000D01*
X153416000Y-58674000D02*
X154305000Y-57785000D01*
X137795000Y-58674000D02*
X153416000Y-58674000D01*
X133949000Y-62520000D02*
X137795000Y-58674000D01*
X129580000Y-65060000D02*
X132171002Y-65060000D01*
X156845000Y-57912000D02*
X156845000Y-54737000D01*
X155575000Y-59182000D02*
X156845000Y-57912000D01*
X140208000Y-59182000D02*
X155575000Y-59182000D01*
X140207998Y-59182002D02*
X140208000Y-59182000D01*
X138049000Y-59182002D02*
X140207998Y-59182002D01*
X132171002Y-65060000D02*
X138049000Y-59182002D01*
X129580000Y-73860000D02*
X131753000Y-73860000D01*
X164465000Y-58293000D02*
X164465000Y-54737000D01*
X163067996Y-59690004D02*
X164465000Y-58293000D01*
X138302996Y-59690004D02*
X163067996Y-59690004D01*
X133731000Y-64262000D02*
X138302996Y-59690004D01*
X133731000Y-71882000D02*
X133731000Y-64262000D01*
X131753000Y-73860000D02*
X133731000Y-71882000D01*
X129580000Y-77640000D02*
X131529000Y-77640000D01*
X167005000Y-58293000D02*
X167005000Y-54737000D01*
X165099994Y-60198006D02*
X167005000Y-58293000D01*
X138556994Y-60198006D02*
X165099994Y-60198006D01*
X134239000Y-64516000D02*
X138556994Y-60198006D01*
X134239000Y-74930000D02*
X134239000Y-64516000D01*
X131529000Y-77640000D02*
X134239000Y-74930000D01*
X142875000Y-111252000D02*
X144780000Y-111252000D01*
X146582000Y-109450000D02*
X147690000Y-109450000D01*
X144780000Y-111252000D02*
X146582000Y-109450000D01*
X149582000Y-137552000D02*
X155183000Y-137552000D01*
X171069000Y-84836000D02*
X169037000Y-82804000D01*
X171069000Y-121666000D02*
X171069000Y-84836000D01*
X155183000Y-137552000D02*
X171069000Y-121666000D01*
X149225000Y-72517000D02*
X149225000Y-69977000D01*
X143002000Y-142081000D02*
X143002000Y-140970000D01*
X149582000Y-139597000D02*
X149582000Y-137552000D01*
X148971000Y-140208000D02*
X149582000Y-139597000D01*
X143764000Y-140208000D02*
X148971000Y-140208000D01*
X143002000Y-140970000D02*
X143764000Y-140208000D01*
X134747000Y-104267000D02*
X136906000Y-106426000D01*
X140081000Y-105791000D02*
X139446000Y-106426000D01*
X152781000Y-89027000D02*
X154178000Y-87630000D01*
X154178000Y-87630000D02*
X154178000Y-81788000D01*
X140208000Y-105791000D02*
X146939000Y-105791000D01*
X140208000Y-105791000D02*
X140081000Y-105791000D01*
X134239000Y-103759000D02*
X134747000Y-104267000D01*
X134239000Y-103759000D02*
X129540000Y-99060000D01*
X136906000Y-106426000D02*
X139446000Y-106426000D01*
X151765000Y-69977000D02*
X151765000Y-75530000D01*
X151765000Y-75530000D02*
X151789000Y-75554000D01*
X154190000Y-109450000D02*
X155345000Y-109450000D01*
X156845000Y-72263000D02*
X156845000Y-69977000D01*
X155956000Y-108839000D02*
X155956000Y-81788000D01*
X155345000Y-109450000D02*
X155956000Y-108839000D01*
D20*
G36*
X134429500Y-55753000D02*
X134434334Y-55777300D01*
X134448099Y-55797901D01*
X134468700Y-55811666D01*
X134493000Y-55816500D01*
X135128000Y-55816500D01*
X135152300Y-55811666D01*
X135172901Y-55797901D01*
X135186666Y-55777300D01*
X135191500Y-55753000D01*
X135191500Y-53530500D01*
X138534891Y-53530500D01*
X138319671Y-53619427D01*
X137948729Y-53989722D01*
X137747730Y-54473783D01*
X137747272Y-54997917D01*
X137947427Y-55482329D01*
X138317722Y-55853271D01*
X138801783Y-56054270D01*
X139325917Y-56054728D01*
X139451277Y-56002930D01*
X140698281Y-56002930D01*
X140803586Y-56272183D01*
X141452079Y-56462012D01*
X142123853Y-56389224D01*
X142406414Y-56272183D01*
X142511719Y-56002930D01*
X141605000Y-55096210D01*
X140698281Y-56002930D01*
X139451277Y-56002930D01*
X139810329Y-55854573D01*
X140110932Y-55554494D01*
X140339070Y-55643719D01*
X141245790Y-54737000D01*
X141231647Y-54722858D01*
X141590858Y-54363647D01*
X141605000Y-54377790D01*
X141619142Y-54363647D01*
X141978353Y-54722858D01*
X141964210Y-54737000D01*
X142870930Y-55643719D01*
X143099354Y-55554382D01*
X143397722Y-55853271D01*
X143700500Y-55978995D01*
X143700500Y-56523560D01*
X143579451Y-56644398D01*
X143477616Y-56889644D01*
X143477384Y-57155191D01*
X143578791Y-57400614D01*
X143766398Y-57588549D01*
X144011644Y-57690384D01*
X144277191Y-57690616D01*
X144522614Y-57589209D01*
X144710549Y-57401602D01*
X144812384Y-57156356D01*
X144812616Y-56890809D01*
X144711209Y-56645386D01*
X144589500Y-56523464D01*
X144589500Y-55978873D01*
X144890329Y-55854573D01*
X145261271Y-55484278D01*
X145415130Y-55113743D01*
X145567427Y-55482329D01*
X145937722Y-55853271D01*
X145986500Y-55873525D01*
X145986500Y-55913316D01*
X145887512Y-55954217D01*
X145490611Y-56350426D01*
X145275545Y-56868363D01*
X145275055Y-57429177D01*
X145489217Y-57947488D01*
X145770737Y-58229500D01*
X137795000Y-58229500D01*
X137624897Y-58263336D01*
X137480691Y-58359691D01*
X135191500Y-60648882D01*
X135191500Y-56388000D01*
X135186666Y-56363700D01*
X135172901Y-56343099D01*
X135152300Y-56329334D01*
X135128000Y-56324500D01*
X134493000Y-56324500D01*
X134468700Y-56329334D01*
X134448099Y-56343099D01*
X134434334Y-56363700D01*
X134429500Y-56388000D01*
X134429500Y-61410882D01*
X133764882Y-62075500D01*
X130821873Y-62075500D01*
X130697573Y-61774671D01*
X130397494Y-61474068D01*
X130486719Y-61245930D01*
X129580000Y-60339210D01*
X128673281Y-61245930D01*
X128762618Y-61474354D01*
X128463729Y-61772722D01*
X128262730Y-62256783D01*
X128262272Y-62780917D01*
X128462427Y-63265329D01*
X128832722Y-63636271D01*
X129203257Y-63790130D01*
X128834671Y-63942427D01*
X128463729Y-64312722D01*
X128262730Y-64796783D01*
X128262272Y-65320917D01*
X128462427Y-65805329D01*
X128832722Y-66176271D01*
X129316783Y-66377270D01*
X129840917Y-66377728D01*
X130325329Y-66177573D01*
X130696271Y-65807278D01*
X130821995Y-65504500D01*
X132171002Y-65504500D01*
X132341105Y-65470664D01*
X132485311Y-65374309D01*
X133286500Y-64573120D01*
X133286500Y-70475449D01*
X133275783Y-70449512D01*
X132879574Y-70052611D01*
X132361637Y-69837545D01*
X131800823Y-69837055D01*
X131282512Y-70051217D01*
X130885611Y-70447426D01*
X130813329Y-70621500D01*
X130716922Y-70621500D01*
X130697573Y-70574671D01*
X130397494Y-70274068D01*
X130486719Y-70045930D01*
X129580000Y-69139210D01*
X128673281Y-70045930D01*
X128762618Y-70274354D01*
X128463729Y-70572722D01*
X128262730Y-71056783D01*
X128262272Y-71580917D01*
X128462427Y-72065329D01*
X128832722Y-72436271D01*
X129203257Y-72590130D01*
X128834671Y-72742427D01*
X128463729Y-73112722D01*
X128262730Y-73596783D01*
X128262272Y-74120917D01*
X128462427Y-74605329D01*
X128832722Y-74976271D01*
X129316783Y-75177270D01*
X129840917Y-75177728D01*
X130325329Y-74977573D01*
X130696271Y-74607278D01*
X130821995Y-74304500D01*
X131753000Y-74304500D01*
X131923103Y-74270664D01*
X132067309Y-74174309D01*
X133794500Y-72447118D01*
X133794500Y-74745882D01*
X131344882Y-77195500D01*
X130821873Y-77195500D01*
X130697573Y-76894671D01*
X130327278Y-76523729D01*
X129843217Y-76322730D01*
X129319083Y-76322272D01*
X128834671Y-76522427D01*
X128463729Y-76892722D01*
X128262730Y-77376783D01*
X128262272Y-77900917D01*
X128462427Y-78385329D01*
X128832722Y-78756271D01*
X129203257Y-78910130D01*
X128834671Y-79062427D01*
X128463729Y-79432722D01*
X128262730Y-79916783D01*
X128262272Y-80440917D01*
X128462427Y-80925329D01*
X128832722Y-81296271D01*
X129203257Y-81450130D01*
X128834671Y-81602427D01*
X128463729Y-81972722D01*
X128262730Y-82456783D01*
X128262272Y-82980917D01*
X128462427Y-83465329D01*
X128762506Y-83765932D01*
X128673281Y-83994070D01*
X129580000Y-84900790D01*
X130486719Y-83994070D01*
X130397382Y-83765646D01*
X130696271Y-83467278D01*
X130897270Y-82983217D01*
X130897728Y-82459083D01*
X130697573Y-81974671D01*
X130327278Y-81603729D01*
X129956743Y-81449870D01*
X130325329Y-81297573D01*
X130696271Y-80927278D01*
X130897270Y-80443217D01*
X130897728Y-79919083D01*
X130697573Y-79434671D01*
X130327278Y-79063729D01*
X129956743Y-78909870D01*
X130325329Y-78757573D01*
X130696271Y-78387278D01*
X130821995Y-78084500D01*
X131529000Y-78084500D01*
X131699103Y-78050664D01*
X131843309Y-77954309D01*
X132454618Y-77343000D01*
X133794500Y-77343000D01*
X133794500Y-91059000D01*
X133799334Y-91083300D01*
X133813099Y-91103901D01*
X133833700Y-91117666D01*
X133858000Y-91122500D01*
X134493000Y-91122500D01*
X134517300Y-91117666D01*
X134537901Y-91103901D01*
X134551666Y-91083300D01*
X134556500Y-91059000D01*
X134556500Y-77343000D01*
X134551666Y-77318700D01*
X134537901Y-77298099D01*
X134517300Y-77284334D01*
X134493000Y-77279500D01*
X133858000Y-77279500D01*
X133833700Y-77284334D01*
X133813099Y-77298099D01*
X133799334Y-77318700D01*
X133794500Y-77343000D01*
X132454618Y-77343000D01*
X133794500Y-76003118D01*
X133794500Y-76708000D01*
X133799334Y-76732300D01*
X133813099Y-76752901D01*
X133833700Y-76766666D01*
X133858000Y-76771500D01*
X134493000Y-76771500D01*
X134517300Y-76766666D01*
X134537901Y-76752901D01*
X134551666Y-76732300D01*
X134556500Y-76708000D01*
X134556500Y-75755500D01*
X135128000Y-75755500D01*
X135152300Y-75750666D01*
X135172901Y-75736901D01*
X135175457Y-75733075D01*
X136083691Y-76641309D01*
X136227897Y-76737664D01*
X136398000Y-76771500D01*
X137061127Y-76771500D01*
X137185427Y-77072329D01*
X137555722Y-77443271D01*
X137926257Y-77597130D01*
X137557671Y-77749427D01*
X137186729Y-78119722D01*
X136985730Y-78603783D01*
X136985272Y-79127917D01*
X137185427Y-79612329D01*
X137555722Y-79983271D01*
X137926257Y-80137130D01*
X137557671Y-80289427D01*
X137186729Y-80659722D01*
X136985730Y-81143783D01*
X136985272Y-81667917D01*
X137185427Y-82152329D01*
X137555722Y-82523271D01*
X137858500Y-82648995D01*
X137858500Y-82705127D01*
X137557671Y-82829427D01*
X137186729Y-83199722D01*
X136985730Y-83683783D01*
X136985272Y-84207917D01*
X137185427Y-84692329D01*
X137555722Y-85063271D01*
X137858500Y-85188995D01*
X137858500Y-85245127D01*
X137557671Y-85369427D01*
X137186729Y-85739722D01*
X136985730Y-86223783D01*
X136985272Y-86747917D01*
X137185427Y-87232329D01*
X137555722Y-87603271D01*
X137926257Y-87757130D01*
X137557671Y-87909427D01*
X137186729Y-88279722D01*
X136985730Y-88763783D01*
X136985272Y-89287917D01*
X137185427Y-89772329D01*
X137485506Y-90072932D01*
X137396281Y-90301070D01*
X138303000Y-91207790D01*
X139209719Y-90301070D01*
X139120382Y-90072646D01*
X139419271Y-89774278D01*
X139439525Y-89725500D01*
X143446500Y-89725500D01*
X143446500Y-102453672D01*
X142331672Y-103568500D01*
X142069188Y-103568500D01*
X142402488Y-103430783D01*
X142799389Y-103034574D01*
X143014455Y-102516637D01*
X143014945Y-101955823D01*
X142800783Y-101437512D01*
X142404574Y-101040611D01*
X141886637Y-100825545D01*
X141325823Y-100825055D01*
X140833449Y-101028500D01*
X139439922Y-101028500D01*
X139420573Y-100981671D01*
X139050278Y-100610729D01*
X138679743Y-100456870D01*
X139048329Y-100304573D01*
X139419271Y-99934278D01*
X139620270Y-99450217D01*
X139620728Y-98926083D01*
X139420573Y-98441671D01*
X139050278Y-98070729D01*
X138679743Y-97916870D01*
X139048329Y-97764573D01*
X139419271Y-97394278D01*
X139439525Y-97345500D01*
X140335000Y-97345500D01*
X140602305Y-97292330D01*
X140828914Y-97140914D01*
X141224447Y-96745381D01*
X141323363Y-96786455D01*
X141884177Y-96786945D01*
X142402488Y-96572783D01*
X142799389Y-96176574D01*
X143014455Y-95658637D01*
X143014945Y-95097823D01*
X142800783Y-94579512D01*
X142404574Y-94182611D01*
X141886637Y-93967545D01*
X141325823Y-93967055D01*
X140807512Y-94181217D01*
X140410611Y-94577426D01*
X140195545Y-95095363D01*
X140195055Y-95656177D01*
X140236848Y-95757324D01*
X140045672Y-95948500D01*
X139439922Y-95948500D01*
X139420573Y-95901671D01*
X139050278Y-95530729D01*
X138679743Y-95376870D01*
X139048329Y-95224573D01*
X139419271Y-94854278D01*
X139620270Y-94370217D01*
X139620728Y-93846083D01*
X139420573Y-93361671D01*
X139120494Y-93061068D01*
X139209719Y-92832930D01*
X138303000Y-91926210D01*
X137396281Y-92832930D01*
X137485618Y-93061354D01*
X137186729Y-93359722D01*
X136985730Y-93843783D01*
X136985272Y-94367917D01*
X137185427Y-94852329D01*
X137555722Y-95223271D01*
X137926257Y-95377130D01*
X137557671Y-95529427D01*
X137186729Y-95899722D01*
X136985730Y-96383783D01*
X136985272Y-96907917D01*
X137185427Y-97392329D01*
X137555722Y-97763271D01*
X137926257Y-97917130D01*
X137557671Y-98069427D01*
X137186729Y-98439722D01*
X137166475Y-98488500D01*
X137126684Y-98488500D01*
X137085783Y-98389512D01*
X136689574Y-97992611D01*
X136171637Y-97777545D01*
X135610823Y-97777055D01*
X135092512Y-97991217D01*
X134695611Y-98387426D01*
X134556500Y-98722443D01*
X134556500Y-98171000D01*
X134551666Y-98146700D01*
X134537901Y-98126099D01*
X134517300Y-98112334D01*
X134493000Y-98107500D01*
X133858000Y-98107500D01*
X133833700Y-98112334D01*
X133813099Y-98126099D01*
X133799334Y-98146700D01*
X133794500Y-98171000D01*
X133794500Y-100520500D01*
X131629118Y-100520500D01*
X130732446Y-99623828D01*
X130857270Y-99323217D01*
X130857728Y-98799083D01*
X130657573Y-98314671D01*
X130357494Y-98014068D01*
X130446719Y-97785930D01*
X129540000Y-96879210D01*
X128633281Y-97785930D01*
X128722618Y-98014354D01*
X128423729Y-98312722D01*
X128222730Y-98796783D01*
X128222272Y-99320917D01*
X128422427Y-99805329D01*
X128792722Y-100176271D01*
X129276783Y-100377270D01*
X129800917Y-100377728D01*
X130103914Y-100252532D01*
X130371882Y-100520500D01*
X128397000Y-100520500D01*
X128372700Y-100525334D01*
X128352099Y-100539099D01*
X128338334Y-100559700D01*
X128333500Y-100584000D01*
X128333500Y-101219000D01*
X128338334Y-101243300D01*
X128352099Y-101263901D01*
X128372700Y-101277666D01*
X128397000Y-101282500D01*
X131133882Y-101282500D01*
X134429500Y-104578118D01*
X134429500Y-105098882D01*
X131886309Y-102555691D01*
X131827860Y-102516637D01*
X131742103Y-102459336D01*
X131572000Y-102425500D01*
X130781873Y-102425500D01*
X130657573Y-102124671D01*
X130287278Y-101753729D01*
X129803217Y-101552730D01*
X129279083Y-101552272D01*
X128794671Y-101752427D01*
X128423729Y-102122722D01*
X128222730Y-102606783D01*
X128222272Y-103130917D01*
X128422427Y-103615329D01*
X128722506Y-103915932D01*
X128633281Y-104144070D01*
X129540000Y-105050790D01*
X130446719Y-104144070D01*
X130357382Y-103915646D01*
X130656271Y-103617278D01*
X130781995Y-103314500D01*
X131387882Y-103314500D01*
X134429500Y-106356118D01*
X134429500Y-108204000D01*
X134434334Y-108228300D01*
X134448099Y-108248901D01*
X134468700Y-108262666D01*
X134493000Y-108267500D01*
X139065000Y-108267500D01*
X139089300Y-108262666D01*
X139109901Y-108248901D01*
X139123666Y-108228300D01*
X139128500Y-108204000D01*
X139128500Y-107759500D01*
X140208000Y-107759500D01*
X140378103Y-107725664D01*
X140522309Y-107629309D01*
X140900118Y-107251500D01*
X147955000Y-107251500D01*
X148125103Y-107217664D01*
X148269309Y-107121309D01*
X148396309Y-106994309D01*
X148429134Y-106945183D01*
X148492664Y-106850103D01*
X148526500Y-106680000D01*
X148526500Y-84074000D01*
X148492664Y-83903897D01*
X148396309Y-83759691D01*
X147637500Y-83000882D01*
X147637500Y-82922440D01*
X147758549Y-82801602D01*
X147860384Y-82556356D01*
X147860616Y-82290809D01*
X147759209Y-82045386D01*
X147571602Y-81857451D01*
X147557270Y-81851500D01*
X148209000Y-81851500D01*
X148379103Y-81817664D01*
X148523309Y-81721309D01*
X149282118Y-80962500D01*
X159004000Y-80962500D01*
X159174103Y-80928664D01*
X159318309Y-80832309D01*
X159699309Y-80451309D01*
X159795664Y-80307103D01*
X159829500Y-80137000D01*
X159829500Y-71218873D01*
X160130329Y-71094573D01*
X160501271Y-70724278D01*
X160655130Y-70353743D01*
X160807427Y-70722329D01*
X161177722Y-71093271D01*
X161480500Y-71218995D01*
X161480500Y-71763560D01*
X161359451Y-71884398D01*
X161257616Y-72129644D01*
X161257384Y-72395191D01*
X161358791Y-72640614D01*
X161546398Y-72828549D01*
X161791644Y-72930384D01*
X162057191Y-72930616D01*
X162302614Y-72829209D01*
X162490549Y-72641602D01*
X162592384Y-72396356D01*
X162592616Y-72130809D01*
X162491209Y-71885386D01*
X162369500Y-71763464D01*
X162369500Y-71218873D01*
X162670329Y-71094573D01*
X163041271Y-70724278D01*
X163195130Y-70353743D01*
X163347427Y-70722329D01*
X163717722Y-71093271D01*
X164020500Y-71218995D01*
X164020500Y-75253882D01*
X162626691Y-76647691D01*
X162530336Y-76791897D01*
X162496500Y-76962000D01*
X162496500Y-114623882D01*
X161613882Y-115506500D01*
X156455440Y-115506500D01*
X156334602Y-115385451D01*
X156089356Y-115283616D01*
X155823809Y-115283384D01*
X155578386Y-115384791D01*
X155390451Y-115572398D01*
X155288616Y-115817644D01*
X155288384Y-116083191D01*
X155389791Y-116328614D01*
X155577398Y-116516549D01*
X155744763Y-116586045D01*
X155578386Y-116654791D01*
X155390451Y-116842398D01*
X155288616Y-117087644D01*
X155288384Y-117353191D01*
X155389791Y-117598614D01*
X155577398Y-117786549D01*
X155822644Y-117888384D01*
X156088191Y-117888616D01*
X156333614Y-117787209D01*
X156455536Y-117665500D01*
X163068000Y-117665500D01*
X163238103Y-117631664D01*
X163382309Y-117535309D01*
X164525309Y-116392309D01*
X164545785Y-116361664D01*
X164621664Y-116248103D01*
X164655500Y-116078000D01*
X164655500Y-77400118D01*
X167319309Y-74736309D01*
X167415665Y-74592102D01*
X167449500Y-74422000D01*
X167449500Y-71218873D01*
X167750329Y-71094573D01*
X168121271Y-70724278D01*
X168275130Y-70353743D01*
X168427427Y-70722329D01*
X168797722Y-71093271D01*
X169100500Y-71218995D01*
X169100500Y-74364882D01*
X165671691Y-77793691D01*
X165575336Y-77937897D01*
X165541500Y-78108000D01*
X165541500Y-119215127D01*
X165240671Y-119339427D01*
X164869729Y-119709722D01*
X164715870Y-120080257D01*
X164563573Y-119711671D01*
X164193278Y-119340729D01*
X163709217Y-119139730D01*
X163185083Y-119139272D01*
X162700671Y-119339427D01*
X162329729Y-119709722D01*
X162175870Y-120080257D01*
X162023573Y-119711671D01*
X161653278Y-119340729D01*
X161350500Y-119215005D01*
X161350500Y-118996000D01*
X161316664Y-118825897D01*
X161220309Y-118681691D01*
X161043309Y-118504691D01*
X161022819Y-118491000D01*
X160899103Y-118408336D01*
X160729000Y-118374500D01*
X148133500Y-118374500D01*
X148133500Y-113863073D01*
X148208043Y-113832272D01*
X148466365Y-113574401D01*
X148606340Y-113237303D01*
X148606341Y-113235701D01*
X153271341Y-113235701D01*
X153410728Y-113573043D01*
X153668599Y-113831365D01*
X154005697Y-113971340D01*
X154370701Y-113971659D01*
X154708043Y-113832272D01*
X154787955Y-113752500D01*
X155110233Y-113752500D01*
X155141217Y-113827488D01*
X155537426Y-114224389D01*
X156055363Y-114439455D01*
X156616177Y-114439945D01*
X157134488Y-114225783D01*
X157531389Y-113829574D01*
X157746455Y-113311637D01*
X157746945Y-112750823D01*
X157532783Y-112232512D01*
X157136574Y-111835611D01*
X156618637Y-111620545D01*
X156057823Y-111620055D01*
X155539512Y-111834217D01*
X155142611Y-112230426D01*
X155090676Y-112355500D01*
X154788128Y-112355500D01*
X154709401Y-112276635D01*
X154372303Y-112136660D01*
X154007299Y-112136341D01*
X153669957Y-112275728D01*
X153411635Y-112533599D01*
X153271660Y-112870697D01*
X153271341Y-113235701D01*
X148606341Y-113235701D01*
X148606659Y-112872299D01*
X148571766Y-112787852D01*
X149412309Y-111947309D01*
X149459508Y-111876670D01*
X149508664Y-111803103D01*
X149542500Y-111633000D01*
X149542500Y-109631701D01*
X153272341Y-109631701D01*
X153411728Y-109969043D01*
X153669599Y-110227365D01*
X154006697Y-110367340D01*
X154371701Y-110367659D01*
X154709043Y-110228272D01*
X154967365Y-109970401D01*
X154998882Y-109894500D01*
X155345000Y-109894500D01*
X155515103Y-109860664D01*
X155659309Y-109764309D01*
X156270309Y-109153309D01*
X156366664Y-109009103D01*
X156400500Y-108839000D01*
X156400500Y-82287440D01*
X156521549Y-82166602D01*
X156623384Y-81921356D01*
X156623616Y-81655809D01*
X156522209Y-81410386D01*
X156334602Y-81222451D01*
X156089356Y-81120616D01*
X155823809Y-81120384D01*
X155578386Y-81221791D01*
X155390451Y-81409398D01*
X155288616Y-81654644D01*
X155288384Y-81920191D01*
X155389791Y-82165614D01*
X155511500Y-82287536D01*
X155511500Y-108654882D01*
X155160882Y-109005500D01*
X154999073Y-109005500D01*
X154968272Y-108930957D01*
X154710401Y-108672635D01*
X154373303Y-108532660D01*
X154008299Y-108532341D01*
X153670957Y-108671728D01*
X153412635Y-108929599D01*
X153272660Y-109266697D01*
X153272341Y-109631701D01*
X149542500Y-109631701D01*
X149542500Y-89730691D01*
X149954384Y-89730691D01*
X150055791Y-89976114D01*
X150241000Y-90161647D01*
X150241000Y-102370560D01*
X150119951Y-102491398D01*
X150018116Y-102736644D01*
X150017884Y-103002191D01*
X150119291Y-103247614D01*
X150306898Y-103435549D01*
X150552144Y-103537384D01*
X150817691Y-103537616D01*
X151063114Y-103436209D01*
X151251049Y-103248602D01*
X151352884Y-103003356D01*
X151353116Y-102737809D01*
X151251709Y-102492386D01*
X151130000Y-102370464D01*
X151130000Y-90034551D01*
X151187549Y-89977102D01*
X151289384Y-89731856D01*
X151289616Y-89466309D01*
X151188209Y-89220886D01*
X151126622Y-89159191D01*
X152113384Y-89159191D01*
X152214791Y-89404614D01*
X152402398Y-89592549D01*
X152647644Y-89694384D01*
X152913191Y-89694616D01*
X153158614Y-89593209D01*
X153346549Y-89405602D01*
X153448384Y-89160356D01*
X153448535Y-88988083D01*
X154492309Y-87944309D01*
X154588664Y-87800103D01*
X154622500Y-87630000D01*
X154622500Y-82287440D01*
X154743549Y-82166602D01*
X154845384Y-81921356D01*
X154845616Y-81655809D01*
X154744209Y-81410386D01*
X154556602Y-81222451D01*
X154311356Y-81120616D01*
X154045809Y-81120384D01*
X153800386Y-81221791D01*
X153612451Y-81409398D01*
X153510616Y-81654644D01*
X153510384Y-81920191D01*
X153611791Y-82165614D01*
X153733500Y-82287536D01*
X153733500Y-87445882D01*
X152819849Y-88359533D01*
X152648809Y-88359384D01*
X152403386Y-88460791D01*
X152215451Y-88648398D01*
X152113616Y-88893644D01*
X152113384Y-89159191D01*
X151126622Y-89159191D01*
X151000602Y-89032951D01*
X150755356Y-88931116D01*
X150489809Y-88930884D01*
X150244386Y-89032291D01*
X150056451Y-89219898D01*
X149954616Y-89465144D01*
X149954384Y-89730691D01*
X149542500Y-89730691D01*
X149542500Y-86893177D01*
X149720055Y-86893177D01*
X149934217Y-87411488D01*
X150330426Y-87808389D01*
X150848363Y-88023455D01*
X151409177Y-88023945D01*
X151927488Y-87809783D01*
X152324389Y-87413574D01*
X152539455Y-86895637D01*
X152539945Y-86334823D01*
X152453543Y-86125714D01*
X152487500Y-85955000D01*
X152487500Y-82653128D01*
X152566365Y-82574401D01*
X152706340Y-82237303D01*
X152706659Y-81872299D01*
X152567272Y-81534957D01*
X152309401Y-81276635D01*
X151972303Y-81136660D01*
X151607299Y-81136341D01*
X151269957Y-81275728D01*
X151011635Y-81533599D01*
X150871660Y-81870697D01*
X150871341Y-82235701D01*
X151010728Y-82573043D01*
X151090500Y-82652955D01*
X151090500Y-85204264D01*
X150850823Y-85204055D01*
X150332512Y-85418217D01*
X149935611Y-85814426D01*
X149720545Y-86332363D01*
X149720055Y-86893177D01*
X149542500Y-86893177D01*
X149542500Y-82922440D01*
X149663549Y-82801602D01*
X149765384Y-82556356D01*
X149765616Y-82290809D01*
X149664209Y-82045386D01*
X149476602Y-81857451D01*
X149231356Y-81755616D01*
X148965809Y-81755384D01*
X148720386Y-81856791D01*
X148532451Y-82044398D01*
X148430616Y-82289644D01*
X148430384Y-82555191D01*
X148531791Y-82800614D01*
X148653500Y-82922536D01*
X148653500Y-111448882D01*
X147938313Y-112164069D01*
X147872303Y-112136660D01*
X147507299Y-112136341D01*
X147169957Y-112275728D01*
X146911635Y-112533599D01*
X146771660Y-112870697D01*
X146771341Y-113235701D01*
X146910728Y-113573043D01*
X147168599Y-113831365D01*
X147244500Y-113862882D01*
X147244500Y-118819000D01*
X147256500Y-118879327D01*
X147256500Y-119957882D01*
X146937882Y-120276500D01*
X146704272Y-120276500D01*
X146650097Y-120145386D01*
X146364120Y-119858908D01*
X145990281Y-119703677D01*
X145585495Y-119703324D01*
X145211386Y-119857903D01*
X144924908Y-120143880D01*
X144869840Y-120276500D01*
X141704272Y-120276500D01*
X141650097Y-120145386D01*
X141364120Y-119858908D01*
X140990281Y-119703677D01*
X140585495Y-119703324D01*
X140211386Y-119857903D01*
X139924908Y-120143880D01*
X139769677Y-120517719D01*
X139769324Y-120922505D01*
X139923903Y-121296614D01*
X140209880Y-121583092D01*
X140583719Y-121738323D01*
X140988505Y-121738676D01*
X141362614Y-121584097D01*
X141649092Y-121298120D01*
X141704160Y-121165500D01*
X144869728Y-121165500D01*
X144923903Y-121296614D01*
X145209880Y-121583092D01*
X145583719Y-121738323D01*
X145988505Y-121738676D01*
X146362614Y-121584097D01*
X146649092Y-121298120D01*
X146704160Y-121165500D01*
X147122000Y-121165500D01*
X147292103Y-121131664D01*
X147436309Y-121035309D01*
X148015309Y-120456309D01*
X148111665Y-120312102D01*
X148145500Y-120142000D01*
X148145500Y-119263500D01*
X152724428Y-119263500D01*
X152540671Y-119339427D01*
X152169729Y-119709722D01*
X151968730Y-120193783D01*
X151968272Y-120717917D01*
X152168427Y-121202329D01*
X152538722Y-121573271D01*
X153022783Y-121774270D01*
X153546917Y-121774728D01*
X154031329Y-121574573D01*
X154402271Y-121204278D01*
X154556130Y-120833743D01*
X154708427Y-121202329D01*
X155078722Y-121573271D01*
X155562783Y-121774270D01*
X156086917Y-121774728D01*
X156571329Y-121574573D01*
X156942271Y-121204278D01*
X157096130Y-120833743D01*
X157248427Y-121202329D01*
X157618722Y-121573271D01*
X158102783Y-121774270D01*
X158626917Y-121774728D01*
X159111329Y-121574573D01*
X159482271Y-121204278D01*
X159636130Y-120833743D01*
X159788427Y-121202329D01*
X160158722Y-121573271D01*
X160642783Y-121774270D01*
X161166917Y-121774728D01*
X161651329Y-121574573D01*
X162022271Y-121204278D01*
X162176130Y-120833743D01*
X162328427Y-121202329D01*
X162698722Y-121573271D01*
X163182783Y-121774270D01*
X163706917Y-121774728D01*
X164191329Y-121574573D01*
X164562271Y-121204278D01*
X164716130Y-120833743D01*
X164868427Y-121202329D01*
X165238722Y-121573271D01*
X165722783Y-121774270D01*
X166246917Y-121774728D01*
X166372277Y-121722930D01*
X167619281Y-121722930D01*
X167724586Y-121992183D01*
X168373079Y-122182012D01*
X169044853Y-122109224D01*
X169327414Y-121992183D01*
X169432719Y-121722930D01*
X168526000Y-120816210D01*
X167619281Y-121722930D01*
X166372277Y-121722930D01*
X166731329Y-121574573D01*
X167031932Y-121274494D01*
X167260070Y-121363719D01*
X168166790Y-120457000D01*
X168885210Y-120457000D01*
X169791930Y-121363719D01*
X170061183Y-121258414D01*
X170251012Y-120609921D01*
X170178224Y-119938147D01*
X170061183Y-119655586D01*
X169791930Y-119550281D01*
X168885210Y-120457000D01*
X168166790Y-120457000D01*
X167260070Y-119550281D01*
X167031646Y-119639618D01*
X166733278Y-119340729D01*
X166430500Y-119215005D01*
X166430500Y-119191070D01*
X167619281Y-119191070D01*
X168526000Y-120097790D01*
X169432719Y-119191070D01*
X169327414Y-118921817D01*
X168678921Y-118731988D01*
X168007147Y-118804776D01*
X167724586Y-118921817D01*
X167619281Y-119191070D01*
X166430500Y-119191070D01*
X166430500Y-78292118D01*
X169859309Y-74863309D01*
X169917222Y-74776635D01*
X169955664Y-74719103D01*
X169989500Y-74549000D01*
X169989500Y-71218873D01*
X170290329Y-71094573D01*
X170661271Y-70724278D01*
X170815130Y-70353743D01*
X170967427Y-70722329D01*
X171337722Y-71093271D01*
X171640500Y-71218995D01*
X171640500Y-122116882D01*
X158051691Y-135705691D01*
X157955336Y-135849897D01*
X157921500Y-136020000D01*
X157921500Y-142075127D01*
X157620671Y-142199427D01*
X157249729Y-142569722D01*
X157095870Y-142940257D01*
X156943573Y-142571671D01*
X156573278Y-142200729D01*
X156089217Y-141999730D01*
X155565083Y-141999272D01*
X155080671Y-142199427D01*
X154709729Y-142569722D01*
X154555870Y-142940257D01*
X154403573Y-142571671D01*
X154033278Y-142200729D01*
X153549217Y-141999730D01*
X153025083Y-141999272D01*
X152540671Y-142199427D01*
X152169729Y-142569722D01*
X151968730Y-143053783D01*
X151968272Y-143577917D01*
X152168427Y-144062329D01*
X152538722Y-144433271D01*
X153022783Y-144634270D01*
X153546917Y-144634728D01*
X154031329Y-144434573D01*
X154402271Y-144064278D01*
X154556130Y-143693743D01*
X154708427Y-144062329D01*
X155078722Y-144433271D01*
X155562783Y-144634270D01*
X156086917Y-144634728D01*
X156571329Y-144434573D01*
X156942271Y-144064278D01*
X157096130Y-143693743D01*
X157248427Y-144062329D01*
X157618722Y-144433271D01*
X158102783Y-144634270D01*
X158626917Y-144634728D01*
X159111329Y-144434573D01*
X159482271Y-144064278D01*
X159636130Y-143693743D01*
X159788427Y-144062329D01*
X160158722Y-144433271D01*
X160642783Y-144634270D01*
X161166917Y-144634728D01*
X161651329Y-144434573D01*
X162022271Y-144064278D01*
X162176130Y-143693743D01*
X162328427Y-144062329D01*
X162698722Y-144433271D01*
X163182783Y-144634270D01*
X163706917Y-144634728D01*
X164191329Y-144434573D01*
X164562271Y-144064278D01*
X164716130Y-143693743D01*
X164868427Y-144062329D01*
X165238722Y-144433271D01*
X165722783Y-144634270D01*
X166246917Y-144634728D01*
X166731329Y-144434573D01*
X167102271Y-144064278D01*
X167256130Y-143693743D01*
X167408427Y-144062329D01*
X167778722Y-144433271D01*
X168262783Y-144634270D01*
X168786917Y-144634728D01*
X169271329Y-144434573D01*
X169642271Y-144064278D01*
X169843270Y-143580217D01*
X169843728Y-143056083D01*
X169643573Y-142571671D01*
X169273278Y-142200729D01*
X168789217Y-141999730D01*
X168265083Y-141999272D01*
X167780671Y-142199427D01*
X167409729Y-142569722D01*
X167255870Y-142940257D01*
X167103573Y-142571671D01*
X166733278Y-142200729D01*
X166684500Y-142180475D01*
X166684500Y-141953924D01*
X166786488Y-141911783D01*
X167183389Y-141515574D01*
X167398455Y-140997637D01*
X167398945Y-140436823D01*
X167184783Y-139918512D01*
X166788574Y-139521611D01*
X166270637Y-139306545D01*
X165709823Y-139306055D01*
X165191512Y-139520217D01*
X164794611Y-139916426D01*
X164579545Y-140434363D01*
X164579055Y-140995177D01*
X164793217Y-141513488D01*
X165189426Y-141910389D01*
X165287500Y-141951113D01*
X165287500Y-142180078D01*
X165240671Y-142199427D01*
X164869729Y-142569722D01*
X164715870Y-142940257D01*
X164563573Y-142571671D01*
X164193278Y-142200729D01*
X163890500Y-142075005D01*
X163890500Y-133918118D01*
X174558309Y-123250309D01*
X174654664Y-123106103D01*
X174688500Y-122936000D01*
X174688500Y-85081440D01*
X174809549Y-84960602D01*
X174911384Y-84715356D01*
X174911616Y-84449809D01*
X174810209Y-84204386D01*
X174622602Y-84016451D01*
X174377356Y-83914616D01*
X174111809Y-83914384D01*
X173948936Y-83981682D01*
X174939309Y-82991309D01*
X175035664Y-82847103D01*
X175069500Y-82677000D01*
X175069500Y-71218873D01*
X175370329Y-71094573D01*
X175577500Y-70887763D01*
X175577500Y-144716500D01*
X151193500Y-144716500D01*
X151193500Y-141986000D01*
X151188666Y-141961700D01*
X151174901Y-141941099D01*
X151154300Y-141927334D01*
X151130000Y-141922500D01*
X150495000Y-141922500D01*
X150470700Y-141927334D01*
X150450099Y-141941099D01*
X150436334Y-141961700D01*
X150431500Y-141986000D01*
X150431500Y-144716500D01*
X135191500Y-144716500D01*
X135191500Y-141986000D01*
X135186666Y-141961700D01*
X135172901Y-141941099D01*
X135152300Y-141927334D01*
X135128000Y-141922500D01*
X134493000Y-141922500D01*
X134468700Y-141927334D01*
X134448099Y-141941099D01*
X134434334Y-141961700D01*
X134429500Y-141986000D01*
X134429500Y-144716500D01*
X127063500Y-144716500D01*
X127063500Y-138817917D01*
X128222272Y-138817917D01*
X128422427Y-139302329D01*
X128792722Y-139673271D01*
X129276783Y-139874270D01*
X129800917Y-139874728D01*
X130285329Y-139674573D01*
X130656271Y-139304278D01*
X130676525Y-139255500D01*
X130843316Y-139255500D01*
X130884217Y-139354488D01*
X131280426Y-139751389D01*
X131798363Y-139966455D01*
X132359177Y-139966945D01*
X132877488Y-139752783D01*
X133274389Y-139356574D01*
X133489455Y-138838637D01*
X133489945Y-138277823D01*
X133275783Y-137759512D01*
X132879574Y-137362611D01*
X132361637Y-137147545D01*
X131800823Y-137147055D01*
X131282512Y-137361217D01*
X130885611Y-137757426D01*
X130843641Y-137858500D01*
X130676922Y-137858500D01*
X130657573Y-137811671D01*
X130357494Y-137511068D01*
X130446719Y-137282930D01*
X129540000Y-136376210D01*
X128633281Y-137282930D01*
X128722618Y-137511354D01*
X128423729Y-137809722D01*
X128222730Y-138293783D01*
X128222272Y-138817917D01*
X127063500Y-138817917D01*
X127063500Y-135864079D01*
X127814988Y-135864079D01*
X127887776Y-136535853D01*
X128004817Y-136818414D01*
X128274070Y-136923719D01*
X129180790Y-136017000D01*
X129899210Y-136017000D01*
X130805930Y-136923719D01*
X130851235Y-136906000D01*
X134429500Y-136906000D01*
X134429500Y-141351000D01*
X134434334Y-141375300D01*
X134448099Y-141395901D01*
X134468700Y-141409666D01*
X134493000Y-141414500D01*
X135128000Y-141414500D01*
X135152300Y-141409666D01*
X135172901Y-141395901D01*
X135186666Y-141375300D01*
X135191500Y-141351000D01*
X135191500Y-138874500D01*
X141732000Y-138874500D01*
X141756300Y-138869666D01*
X141776901Y-138855901D01*
X141790666Y-138835300D01*
X141795500Y-138811000D01*
X141795500Y-138176000D01*
X141790666Y-138151700D01*
X141776901Y-138131099D01*
X141756300Y-138117334D01*
X141732000Y-138112500D01*
X135191500Y-138112500D01*
X135191500Y-136906000D01*
X135186666Y-136881700D01*
X135172901Y-136861099D01*
X135152300Y-136847334D01*
X135128000Y-136842500D01*
X134493000Y-136842500D01*
X134468700Y-136847334D01*
X134448099Y-136861099D01*
X134434334Y-136881700D01*
X134429500Y-136906000D01*
X130851235Y-136906000D01*
X131075183Y-136818414D01*
X131265012Y-136169921D01*
X131192224Y-135498147D01*
X131075183Y-135215586D01*
X130805930Y-135110281D01*
X129899210Y-136017000D01*
X129180790Y-136017000D01*
X128274070Y-135110281D01*
X128004817Y-135215586D01*
X127814988Y-135864079D01*
X127063500Y-135864079D01*
X127063500Y-124269500D01*
X130175000Y-124269500D01*
X130199300Y-124264666D01*
X130219901Y-124250901D01*
X130233666Y-124230300D01*
X130238500Y-124206000D01*
X130238500Y-123571000D01*
X130233666Y-123546700D01*
X130219901Y-123526099D01*
X130199300Y-123512334D01*
X130175000Y-123507500D01*
X127063500Y-123507500D01*
X127063500Y-119767917D01*
X128222272Y-119767917D01*
X128422427Y-120252329D01*
X128792722Y-120623271D01*
X129163257Y-120777130D01*
X128794671Y-120929427D01*
X128423729Y-121299722D01*
X128222730Y-121783783D01*
X128222272Y-122307917D01*
X128422427Y-122792329D01*
X128792722Y-123163271D01*
X129276783Y-123364270D01*
X129800917Y-123364728D01*
X130285329Y-123164573D01*
X130656271Y-122794278D01*
X130781995Y-122491500D01*
X131898171Y-122491500D01*
X132082398Y-122676049D01*
X132327644Y-122777884D01*
X132593191Y-122778116D01*
X132838614Y-122676709D01*
X133026549Y-122489102D01*
X133128384Y-122243856D01*
X133128616Y-121978309D01*
X133027209Y-121732886D01*
X132839602Y-121544951D01*
X132594356Y-121443116D01*
X132328809Y-121442884D01*
X132083386Y-121544291D01*
X132025075Y-121602500D01*
X130781873Y-121602500D01*
X130657573Y-121301671D01*
X130287278Y-120930729D01*
X129916743Y-120776870D01*
X130285329Y-120624573D01*
X130656271Y-120254278D01*
X130676525Y-120205500D01*
X133223000Y-120205500D01*
X133490305Y-120152330D01*
X133716914Y-120000914D01*
X134429500Y-119288328D01*
X134429500Y-123507500D01*
X130810000Y-123507500D01*
X130785700Y-123512334D01*
X130765099Y-123526099D01*
X130751334Y-123546700D01*
X130746500Y-123571000D01*
X130746500Y-124206000D01*
X130751334Y-124230300D01*
X130765099Y-124250901D01*
X130785700Y-124264666D01*
X130810000Y-124269500D01*
X134429500Y-124269500D01*
X134429500Y-130492500D01*
X130781873Y-130492500D01*
X130657573Y-130191671D01*
X130287278Y-129820729D01*
X129916743Y-129666870D01*
X130285329Y-129514573D01*
X130656271Y-129144278D01*
X130676525Y-129095500D01*
X130970316Y-129095500D01*
X131011217Y-129194488D01*
X131407426Y-129591389D01*
X131925363Y-129806455D01*
X132486177Y-129806945D01*
X133004488Y-129592783D01*
X133401389Y-129196574D01*
X133616455Y-128678637D01*
X133616945Y-128117823D01*
X133402783Y-127599512D01*
X133006574Y-127202611D01*
X132488637Y-126987545D01*
X131927823Y-126987055D01*
X131409512Y-127201217D01*
X131012611Y-127597426D01*
X130970641Y-127698500D01*
X130676922Y-127698500D01*
X130657573Y-127651671D01*
X130287278Y-127280729D01*
X129916743Y-127126870D01*
X130285329Y-126974573D01*
X130656271Y-126604278D01*
X130857270Y-126120217D01*
X130857728Y-125596083D01*
X130657573Y-125111671D01*
X130287278Y-124740729D01*
X129803217Y-124539730D01*
X129279083Y-124539272D01*
X128794671Y-124739427D01*
X128423729Y-125109722D01*
X128222730Y-125593783D01*
X128222272Y-126117917D01*
X128422427Y-126602329D01*
X128792722Y-126973271D01*
X129163257Y-127127130D01*
X128794671Y-127279427D01*
X128423729Y-127649722D01*
X128222730Y-128133783D01*
X128222272Y-128657917D01*
X128422427Y-129142329D01*
X128792722Y-129513271D01*
X129163257Y-129667130D01*
X128794671Y-129819427D01*
X128423729Y-130189722D01*
X128222730Y-130673783D01*
X128222272Y-131197917D01*
X128422427Y-131682329D01*
X128792722Y-132053271D01*
X129163257Y-132207130D01*
X128794671Y-132359427D01*
X128423729Y-132729722D01*
X128222730Y-133213783D01*
X128222272Y-133737917D01*
X128422427Y-134222329D01*
X128722506Y-134522932D01*
X128633281Y-134751070D01*
X129540000Y-135657790D01*
X130446719Y-134751070D01*
X130357382Y-134522646D01*
X130656271Y-134224278D01*
X130781995Y-133921500D01*
X133096000Y-133921500D01*
X133266103Y-133887664D01*
X133410309Y-133791309D01*
X134429500Y-132772118D01*
X134429500Y-136271000D01*
X134434334Y-136295300D01*
X134448099Y-136315901D01*
X134468700Y-136329666D01*
X134493000Y-136334500D01*
X135128000Y-136334500D01*
X135152300Y-136329666D01*
X135172901Y-136315901D01*
X135186666Y-136295300D01*
X135191500Y-136271000D01*
X135191500Y-136222625D01*
X137902500Y-136222625D01*
X137902500Y-136682941D01*
X138008840Y-136939669D01*
X138205332Y-137136160D01*
X138462060Y-137242500D01*
X138822375Y-137242500D01*
X138997000Y-137067875D01*
X138997000Y-136048000D01*
X139505000Y-136048000D01*
X139505000Y-137067875D01*
X139679625Y-137242500D01*
X140039940Y-137242500D01*
X140296668Y-137136160D01*
X140493160Y-136939669D01*
X140599500Y-136682941D01*
X140599500Y-136222625D01*
X140424875Y-136048000D01*
X139505000Y-136048000D01*
X138997000Y-136048000D01*
X138077125Y-136048000D01*
X137902500Y-136222625D01*
X135191500Y-136222625D01*
X135191500Y-134905059D01*
X137902500Y-134905059D01*
X137902500Y-135365375D01*
X138077125Y-135540000D01*
X138997000Y-135540000D01*
X138997000Y-134520125D01*
X139505000Y-134520125D01*
X139505000Y-135540000D01*
X140424875Y-135540000D01*
X140599500Y-135365375D01*
X140599500Y-134905059D01*
X140493160Y-134648331D01*
X140296668Y-134451840D01*
X140039940Y-134345500D01*
X139679625Y-134345500D01*
X139505000Y-134520125D01*
X138997000Y-134520125D01*
X138822375Y-134345500D01*
X138462060Y-134345500D01*
X138205332Y-134451840D01*
X138008840Y-134648331D01*
X137902500Y-134905059D01*
X135191500Y-134905059D01*
X135191500Y-132010118D01*
X135652971Y-131548647D01*
X135496545Y-131925363D01*
X135496055Y-132486177D01*
X135710217Y-133004488D01*
X136106426Y-133401389D01*
X136624363Y-133616455D01*
X137185177Y-133616945D01*
X137703488Y-133402783D01*
X138100389Y-133006574D01*
X138106233Y-132992500D01*
X138439924Y-132992500D01*
X138645520Y-133198455D01*
X139037729Y-133361315D01*
X139462407Y-133361685D01*
X139854900Y-133199511D01*
X140062273Y-132992500D01*
X140513672Y-132992500D01*
X145108469Y-137587297D01*
X145108341Y-137733701D01*
X145247728Y-138071043D01*
X145289113Y-138112500D01*
X142367000Y-138112500D01*
X142342700Y-138117334D01*
X142322099Y-138131099D01*
X142308334Y-138151700D01*
X142303500Y-138176000D01*
X142303500Y-138811000D01*
X142308334Y-138835300D01*
X142322099Y-138855901D01*
X142342700Y-138869666D01*
X142367000Y-138874500D01*
X149137500Y-138874500D01*
X149137500Y-139412882D01*
X148786882Y-139763500D01*
X143764000Y-139763500D01*
X143593897Y-139797336D01*
X143478757Y-139874270D01*
X143449691Y-139893691D01*
X142687691Y-140655691D01*
X142591336Y-140799897D01*
X142585864Y-140827407D01*
X142256671Y-140963427D01*
X141885729Y-141333722D01*
X141731870Y-141704257D01*
X141579573Y-141335671D01*
X141209278Y-140964729D01*
X140725217Y-140763730D01*
X140201083Y-140763272D01*
X139716671Y-140963427D01*
X139345729Y-141333722D01*
X139325475Y-141382500D01*
X138562937Y-141382500D01*
X138482783Y-141188512D01*
X138086574Y-140791611D01*
X137568637Y-140576545D01*
X137007823Y-140576055D01*
X136489512Y-140790217D01*
X136092611Y-141186426D01*
X135877545Y-141704363D01*
X135877055Y-142265177D01*
X136091217Y-142783488D01*
X136487426Y-143180389D01*
X137005363Y-143395455D01*
X137566177Y-143395945D01*
X138084488Y-143181783D01*
X138481389Y-142785574D01*
X138483911Y-142779500D01*
X139325078Y-142779500D01*
X139344427Y-142826329D01*
X139714722Y-143197271D01*
X140198783Y-143398270D01*
X140722917Y-143398728D01*
X141207329Y-143198573D01*
X141578271Y-142828278D01*
X141732130Y-142457743D01*
X141884427Y-142826329D01*
X142254722Y-143197271D01*
X142738783Y-143398270D01*
X143262917Y-143398728D01*
X143747329Y-143198573D01*
X144118271Y-142828278D01*
X144272130Y-142457743D01*
X144424427Y-142826329D01*
X144794722Y-143197271D01*
X145278783Y-143398270D01*
X145802917Y-143398728D01*
X145928277Y-143346930D01*
X147175281Y-143346930D01*
X147280586Y-143616183D01*
X147929079Y-143806012D01*
X148600853Y-143733224D01*
X148883414Y-143616183D01*
X148988719Y-143346930D01*
X148082000Y-142440210D01*
X147175281Y-143346930D01*
X145928277Y-143346930D01*
X146287329Y-143198573D01*
X146587932Y-142898494D01*
X146816070Y-142987719D01*
X147722790Y-142081000D01*
X148441210Y-142081000D01*
X149347930Y-142987719D01*
X149617183Y-142882414D01*
X149807012Y-142233921D01*
X149734224Y-141562147D01*
X149617183Y-141279586D01*
X149347930Y-141174281D01*
X148441210Y-142081000D01*
X147722790Y-142081000D01*
X146816070Y-141174281D01*
X146587646Y-141263618D01*
X146289278Y-140964729D01*
X145805217Y-140763730D01*
X145281083Y-140763272D01*
X144796671Y-140963427D01*
X144425729Y-141333722D01*
X144271870Y-141704257D01*
X144119573Y-141335671D01*
X143749278Y-140964729D01*
X143669158Y-140931460D01*
X143948118Y-140652500D01*
X147238862Y-140652500D01*
X147175281Y-140815070D01*
X148082000Y-141721790D01*
X148988719Y-140815070D01*
X148925138Y-140652500D01*
X148971000Y-140652500D01*
X149141103Y-140618664D01*
X149285309Y-140522309D01*
X149896309Y-139911309D01*
X149992664Y-139767103D01*
X150026500Y-139597000D01*
X150026500Y-138874500D01*
X150431500Y-138874500D01*
X150431500Y-141351000D01*
X150436334Y-141375300D01*
X150450099Y-141395901D01*
X150470700Y-141409666D01*
X150495000Y-141414500D01*
X151130000Y-141414500D01*
X151154300Y-141409666D01*
X151174901Y-141395901D01*
X151188666Y-141375300D01*
X151193500Y-141351000D01*
X151193500Y-138176000D01*
X151188666Y-138151700D01*
X151174901Y-138131099D01*
X151154300Y-138117334D01*
X151130000Y-138112500D01*
X150319196Y-138112500D01*
X150359365Y-138072401D01*
X150390882Y-137996500D01*
X155183000Y-137996500D01*
X155353103Y-137962664D01*
X155497309Y-137866309D01*
X171383309Y-121980309D01*
X171479665Y-121836102D01*
X171513500Y-121666000D01*
X171513500Y-84836000D01*
X171479664Y-84665897D01*
X171383309Y-84521691D01*
X169704467Y-82842849D01*
X169704616Y-82671809D01*
X169603209Y-82426386D01*
X169415602Y-82238451D01*
X169170356Y-82136616D01*
X168904809Y-82136384D01*
X168659386Y-82237791D01*
X168471451Y-82425398D01*
X168369616Y-82670644D01*
X168369384Y-82936191D01*
X168470791Y-83181614D01*
X168658398Y-83369549D01*
X168903644Y-83471384D01*
X169075917Y-83471535D01*
X170624500Y-85020118D01*
X170624500Y-121481882D01*
X154998882Y-137107500D01*
X150391073Y-137107500D01*
X150360272Y-137032957D01*
X150102401Y-136774635D01*
X149765303Y-136634660D01*
X149400299Y-136634341D01*
X149062957Y-136773728D01*
X148804635Y-137031599D01*
X148664660Y-137368697D01*
X148664341Y-137733701D01*
X148803728Y-138071043D01*
X148845113Y-138112500D01*
X148145500Y-138112500D01*
X148145500Y-129057177D01*
X148196055Y-129057177D01*
X148410217Y-129575488D01*
X148806426Y-129972389D01*
X148883500Y-130004393D01*
X148883500Y-130452872D01*
X148804635Y-130531599D01*
X148664660Y-130868697D01*
X148664341Y-131233701D01*
X148803728Y-131571043D01*
X149061599Y-131829365D01*
X149398697Y-131969340D01*
X149763701Y-131969659D01*
X150101043Y-131830272D01*
X150359365Y-131572401D01*
X150499340Y-131235303D01*
X150499659Y-130870299D01*
X150360272Y-130532957D01*
X150280500Y-130453045D01*
X150280500Y-130024601D01*
X150403488Y-129973783D01*
X150800389Y-129577574D01*
X151015455Y-129059637D01*
X151015945Y-128498823D01*
X150801783Y-127980512D01*
X150405574Y-127583611D01*
X149887637Y-127368545D01*
X149326823Y-127368055D01*
X148808512Y-127582217D01*
X148411611Y-127978426D01*
X148196545Y-128496363D01*
X148196055Y-129057177D01*
X148145500Y-129057177D01*
X148145500Y-128905000D01*
X148140666Y-128880700D01*
X148126901Y-128860099D01*
X148106300Y-128846334D01*
X148082000Y-128841500D01*
X145288000Y-128841500D01*
X145263700Y-128846334D01*
X145243099Y-128860099D01*
X145229334Y-128880700D01*
X145224500Y-128905000D01*
X145224500Y-129540000D01*
X145229334Y-129564300D01*
X145243099Y-129584901D01*
X145263700Y-129598666D01*
X145288000Y-129603500D01*
X147383500Y-129603500D01*
X147383500Y-138112500D01*
X146763196Y-138112500D01*
X146803365Y-138072401D01*
X146943340Y-137735303D01*
X146943659Y-137370299D01*
X146804272Y-137032957D01*
X146546401Y-136774635D01*
X146209303Y-136634660D01*
X146131420Y-136634592D01*
X141296914Y-131800086D01*
X141070305Y-131648670D01*
X140803000Y-131595500D01*
X140062076Y-131595500D01*
X139856480Y-131389545D01*
X139744814Y-131343177D01*
X142481055Y-131343177D01*
X142695217Y-131861488D01*
X143091426Y-132258389D01*
X143609363Y-132473455D01*
X144170177Y-132473945D01*
X144688488Y-132259783D01*
X145085389Y-131863574D01*
X145132341Y-131750500D01*
X145426872Y-131750500D01*
X145505599Y-131829365D01*
X145842697Y-131969340D01*
X146207701Y-131969659D01*
X146545043Y-131830272D01*
X146803365Y-131572401D01*
X146943340Y-131235303D01*
X146943659Y-130870299D01*
X146804272Y-130532957D01*
X146546401Y-130274635D01*
X146209303Y-130134660D01*
X145844299Y-130134341D01*
X145506957Y-130273728D01*
X145427045Y-130353500D01*
X145122726Y-130353500D01*
X145086783Y-130266512D01*
X144690574Y-129869611D01*
X144172637Y-129654545D01*
X143611823Y-129654055D01*
X143093512Y-129868217D01*
X142696611Y-130264426D01*
X142481545Y-130782363D01*
X142481055Y-131343177D01*
X139744814Y-131343177D01*
X139464271Y-131226685D01*
X139039593Y-131226315D01*
X138647100Y-131388489D01*
X138439727Y-131595500D01*
X138178632Y-131595500D01*
X138101783Y-131409512D01*
X137705574Y-131012611D01*
X137187637Y-130797545D01*
X136626823Y-130797055D01*
X136248062Y-130953556D01*
X136585309Y-130616309D01*
X136624212Y-130558086D01*
X136681664Y-130472103D01*
X136715500Y-130302000D01*
X136715500Y-122936000D01*
X138366500Y-122936000D01*
X138366500Y-129540000D01*
X138371334Y-129564300D01*
X138385099Y-129584901D01*
X138405700Y-129598666D01*
X138430000Y-129603500D01*
X144653000Y-129603500D01*
X144677300Y-129598666D01*
X144697901Y-129584901D01*
X144711666Y-129564300D01*
X144716500Y-129540000D01*
X144716500Y-128905000D01*
X144711666Y-128880700D01*
X144697901Y-128860099D01*
X144677300Y-128846334D01*
X144653000Y-128841500D01*
X139128500Y-128841500D01*
X139128500Y-126766968D01*
X140100242Y-126766968D01*
X140167773Y-127005423D01*
X140706436Y-127144621D01*
X141257365Y-127067085D01*
X141406227Y-127005423D01*
X141473758Y-126766968D01*
X145100242Y-126766968D01*
X145167773Y-127005423D01*
X145706436Y-127144621D01*
X146257365Y-127067085D01*
X146406227Y-127005423D01*
X146473758Y-126766968D01*
X145787000Y-126080210D01*
X145100242Y-126766968D01*
X141473758Y-126766968D01*
X140787000Y-126080210D01*
X140100242Y-126766968D01*
X139128500Y-126766968D01*
X139128500Y-125640436D01*
X139363379Y-125640436D01*
X139440915Y-126191365D01*
X139502577Y-126340227D01*
X139741032Y-126407758D01*
X140427790Y-125721000D01*
X141146210Y-125721000D01*
X141832968Y-126407758D01*
X142071423Y-126340227D01*
X142210621Y-125801564D01*
X142187945Y-125640436D01*
X144363379Y-125640436D01*
X144440915Y-126191365D01*
X144502577Y-126340227D01*
X144741032Y-126407758D01*
X145427790Y-125721000D01*
X146146210Y-125721000D01*
X146832968Y-126407758D01*
X147071423Y-126340227D01*
X147210621Y-125801564D01*
X147133085Y-125250635D01*
X147071423Y-125101773D01*
X146832968Y-125034242D01*
X146146210Y-125721000D01*
X145427790Y-125721000D01*
X144741032Y-125034242D01*
X144502577Y-125101773D01*
X144363379Y-125640436D01*
X142187945Y-125640436D01*
X142133085Y-125250635D01*
X142071423Y-125101773D01*
X141832968Y-125034242D01*
X141146210Y-125721000D01*
X140427790Y-125721000D01*
X139741032Y-125034242D01*
X139502577Y-125101773D01*
X139363379Y-125640436D01*
X139128500Y-125640436D01*
X139128500Y-124675032D01*
X140100242Y-124675032D01*
X140787000Y-125361790D01*
X141473758Y-124675032D01*
X145100242Y-124675032D01*
X145787000Y-125361790D01*
X146473758Y-124675032D01*
X146406227Y-124436577D01*
X145867564Y-124297379D01*
X145316635Y-124374915D01*
X145167773Y-124436577D01*
X145100242Y-124675032D01*
X141473758Y-124675032D01*
X141406227Y-124436577D01*
X140867564Y-124297379D01*
X140316635Y-124374915D01*
X140167773Y-124436577D01*
X140100242Y-124675032D01*
X139128500Y-124675032D01*
X139128500Y-122936000D01*
X139123666Y-122911700D01*
X139109901Y-122891099D01*
X139089300Y-122877334D01*
X139065000Y-122872500D01*
X138430000Y-122872500D01*
X138405700Y-122877334D01*
X138385099Y-122891099D01*
X138371334Y-122911700D01*
X138366500Y-122936000D01*
X136715500Y-122936000D01*
X136715500Y-119310118D01*
X138360118Y-117665500D01*
X138366500Y-117665500D01*
X138366500Y-122301000D01*
X138371334Y-122325300D01*
X138385099Y-122345901D01*
X138405700Y-122359666D01*
X138430000Y-122364500D01*
X139065000Y-122364500D01*
X139089300Y-122359666D01*
X139109901Y-122345901D01*
X139123666Y-122325300D01*
X139128500Y-122301000D01*
X139128500Y-117665500D01*
X141740560Y-117665500D01*
X141861398Y-117786549D01*
X142106644Y-117888384D01*
X142372191Y-117888616D01*
X142617614Y-117787209D01*
X142805549Y-117599602D01*
X142907384Y-117354356D01*
X142907616Y-117088809D01*
X142806209Y-116843386D01*
X142618602Y-116655451D01*
X142451237Y-116585955D01*
X142617614Y-116517209D01*
X142805549Y-116329602D01*
X142907384Y-116084356D01*
X142907616Y-115818809D01*
X142806209Y-115573386D01*
X142618602Y-115385451D01*
X142373356Y-115283616D01*
X142107809Y-115283384D01*
X141862386Y-115384791D01*
X141740464Y-115506500D01*
X139128500Y-115506500D01*
X139128500Y-114871500D01*
X141224000Y-114871500D01*
X141491305Y-114818330D01*
X141717914Y-114666914D01*
X143037186Y-113347642D01*
X143038482Y-113347643D01*
X143341998Y-113222233D01*
X143574417Y-112990219D01*
X143700357Y-112686923D01*
X143700643Y-112358518D01*
X143575233Y-112055002D01*
X143407434Y-111886911D01*
X143574417Y-111720219D01*
X143584266Y-111696500D01*
X144780000Y-111696500D01*
X144950103Y-111662664D01*
X145094309Y-111566309D01*
X146766118Y-109894500D01*
X146880927Y-109894500D01*
X146911728Y-109969043D01*
X147169599Y-110227365D01*
X147506697Y-110367340D01*
X147871701Y-110367659D01*
X148209043Y-110228272D01*
X148467365Y-109970401D01*
X148607340Y-109633303D01*
X148607659Y-109268299D01*
X148468272Y-108930957D01*
X148210401Y-108672635D01*
X147873303Y-108532660D01*
X147508299Y-108532341D01*
X147170957Y-108671728D01*
X146912635Y-108929599D01*
X146881118Y-109005500D01*
X146582000Y-109005500D01*
X146411897Y-109039336D01*
X146267691Y-109135691D01*
X144595882Y-110807500D01*
X143584529Y-110807500D01*
X143575233Y-110785002D01*
X143407434Y-110616911D01*
X143574417Y-110450219D01*
X143700357Y-110146923D01*
X143700643Y-109818518D01*
X143575233Y-109515002D01*
X143343219Y-109282583D01*
X143039923Y-109156643D01*
X142711518Y-109156357D01*
X142408002Y-109281767D01*
X142406266Y-109283500D01*
X141825684Y-109283500D01*
X141784783Y-109184512D01*
X141388574Y-108787611D01*
X140870637Y-108572545D01*
X140309823Y-108572055D01*
X139791512Y-108786217D01*
X139394611Y-109182426D01*
X139179545Y-109700363D01*
X139179055Y-110261177D01*
X139393217Y-110779488D01*
X139789426Y-111176389D01*
X140307363Y-111391455D01*
X140868177Y-111391945D01*
X141386488Y-111177783D01*
X141783389Y-110781574D01*
X141825359Y-110680500D01*
X142279044Y-110680500D01*
X142175583Y-110783781D01*
X142049643Y-111087077D01*
X142049357Y-111415482D01*
X142174767Y-111718998D01*
X142342566Y-111887089D01*
X142175583Y-112053781D01*
X142049643Y-112357077D01*
X142049641Y-112359531D01*
X140934672Y-113474500D01*
X139128500Y-113474500D01*
X139128500Y-108839000D01*
X139123666Y-108814700D01*
X139109901Y-108794099D01*
X139089300Y-108780334D01*
X139065000Y-108775500D01*
X138430000Y-108775500D01*
X138405700Y-108780334D01*
X138385099Y-108794099D01*
X138371334Y-108814700D01*
X138366500Y-108839000D01*
X138366500Y-113512393D01*
X138289695Y-113527670D01*
X138063086Y-113679086D01*
X135191500Y-116550672D01*
X135191500Y-115951000D01*
X135186666Y-115926700D01*
X135172901Y-115906099D01*
X135152300Y-115892334D01*
X135128000Y-115887500D01*
X134493000Y-115887500D01*
X134468700Y-115892334D01*
X134448099Y-115906099D01*
X134434334Y-115926700D01*
X134429500Y-115951000D01*
X134429500Y-117312672D01*
X132933672Y-118808500D01*
X130676922Y-118808500D01*
X130657573Y-118761671D01*
X130357494Y-118461068D01*
X130446719Y-118232930D01*
X129540000Y-117326210D01*
X128633281Y-118232930D01*
X128722618Y-118461354D01*
X128423729Y-118759722D01*
X128222730Y-119243783D01*
X128222272Y-119767917D01*
X127063500Y-119767917D01*
X127063500Y-116814079D01*
X127814988Y-116814079D01*
X127887776Y-117485853D01*
X128004817Y-117768414D01*
X128274070Y-117873719D01*
X129180790Y-116967000D01*
X129899210Y-116967000D01*
X130805930Y-117873719D01*
X131075183Y-117768414D01*
X131265012Y-117119921D01*
X131192224Y-116448147D01*
X131075183Y-116165586D01*
X130805930Y-116060281D01*
X129899210Y-116967000D01*
X129180790Y-116967000D01*
X128274070Y-116060281D01*
X128004817Y-116165586D01*
X127814988Y-116814079D01*
X127063500Y-116814079D01*
X127063500Y-115379500D01*
X127381000Y-115379500D01*
X127405300Y-115374666D01*
X127425901Y-115360901D01*
X127439666Y-115340300D01*
X127444500Y-115316000D01*
X127444500Y-114554000D01*
X127952500Y-114554000D01*
X127952500Y-115316000D01*
X127957334Y-115340300D01*
X127971099Y-115360901D01*
X127991700Y-115374666D01*
X128016000Y-115379500D01*
X128864890Y-115379500D01*
X128738586Y-115431817D01*
X128633281Y-115701070D01*
X129540000Y-116607790D01*
X130446719Y-115701070D01*
X130341414Y-115431817D01*
X130162689Y-115379500D01*
X133419882Y-115379500D01*
X132563459Y-116235923D01*
X132519309Y-116235884D01*
X132273886Y-116337291D01*
X132085951Y-116524898D01*
X131984116Y-116770144D01*
X131983884Y-117035691D01*
X132085291Y-117281114D01*
X132272898Y-117469049D01*
X132518144Y-117570884D01*
X132783691Y-117571116D01*
X133029114Y-117469709D01*
X133217049Y-117282102D01*
X133318884Y-117036856D01*
X133319116Y-116771309D01*
X133309231Y-116747387D01*
X134677118Y-115379500D01*
X135128000Y-115379500D01*
X135152300Y-115374666D01*
X135172901Y-115360901D01*
X135186666Y-115340300D01*
X135191500Y-115316000D01*
X135191500Y-114554000D01*
X135186666Y-114529700D01*
X135172901Y-114509099D01*
X135152300Y-114495334D01*
X135128000Y-114490500D01*
X134937500Y-114490500D01*
X134937500Y-112386440D01*
X135058549Y-112265602D01*
X135160384Y-112020356D01*
X135160616Y-111754809D01*
X135059209Y-111509386D01*
X134871602Y-111321451D01*
X134626356Y-111219616D01*
X134360809Y-111219384D01*
X134115386Y-111320791D01*
X133927451Y-111508398D01*
X133825616Y-111753644D01*
X133825384Y-112019191D01*
X133926791Y-112264614D01*
X134048500Y-112386536D01*
X134048500Y-114490500D01*
X128016000Y-114490500D01*
X127991700Y-114495334D01*
X127971099Y-114509099D01*
X127957334Y-114529700D01*
X127952500Y-114554000D01*
X127444500Y-114554000D01*
X127439666Y-114529700D01*
X127425901Y-114509099D01*
X127405300Y-114495334D01*
X127381000Y-114490500D01*
X127063500Y-114490500D01*
X127063500Y-110750917D01*
X128222272Y-110750917D01*
X128422427Y-111235329D01*
X128792722Y-111606271D01*
X129163257Y-111760130D01*
X128794671Y-111912427D01*
X128423729Y-112282722D01*
X128222730Y-112766783D01*
X128222272Y-113290917D01*
X128422427Y-113775329D01*
X128792722Y-114146271D01*
X129276783Y-114347270D01*
X129800917Y-114347728D01*
X130285329Y-114147573D01*
X130656271Y-113777278D01*
X130676525Y-113728500D01*
X131097316Y-113728500D01*
X131138217Y-113827488D01*
X131534426Y-114224389D01*
X132052363Y-114439455D01*
X132613177Y-114439945D01*
X133131488Y-114225783D01*
X133528389Y-113829574D01*
X133743455Y-113311637D01*
X133743945Y-112750823D01*
X133529783Y-112232512D01*
X133133574Y-111835611D01*
X132615637Y-111620545D01*
X132054823Y-111620055D01*
X131536512Y-111834217D01*
X131139611Y-112230426D01*
X131097641Y-112331500D01*
X130676922Y-112331500D01*
X130657573Y-112284671D01*
X130287278Y-111913729D01*
X129916743Y-111759870D01*
X130285329Y-111607573D01*
X130656271Y-111237278D01*
X130676525Y-111188500D01*
X135669316Y-111188500D01*
X135710217Y-111287488D01*
X136106426Y-111684389D01*
X136624363Y-111899455D01*
X137185177Y-111899945D01*
X137703488Y-111685783D01*
X138100389Y-111289574D01*
X138315455Y-110771637D01*
X138315945Y-110210823D01*
X138101783Y-109692512D01*
X137705574Y-109295611D01*
X137187637Y-109080545D01*
X136626823Y-109080055D01*
X136108512Y-109294217D01*
X135711611Y-109690426D01*
X135669641Y-109791500D01*
X130676922Y-109791500D01*
X130657573Y-109744671D01*
X130357494Y-109444068D01*
X130446719Y-109215930D01*
X129540000Y-108309210D01*
X128633281Y-109215930D01*
X128722618Y-109444354D01*
X128423729Y-109742722D01*
X128222730Y-110226783D01*
X128222272Y-110750917D01*
X127063500Y-110750917D01*
X127063500Y-107797079D01*
X127814988Y-107797079D01*
X127887776Y-108468853D01*
X128004817Y-108751414D01*
X128274070Y-108856719D01*
X129180790Y-107950000D01*
X129899210Y-107950000D01*
X130805930Y-108856719D01*
X131075183Y-108751414D01*
X131265012Y-108102921D01*
X131192224Y-107431147D01*
X131075183Y-107148586D01*
X130805930Y-107043281D01*
X129899210Y-107950000D01*
X129180790Y-107950000D01*
X128274070Y-107043281D01*
X128004817Y-107148586D01*
X127814988Y-107797079D01*
X127063500Y-107797079D01*
X127063500Y-106675930D01*
X128633281Y-106675930D01*
X128634873Y-106680000D01*
X128633281Y-106684070D01*
X128638509Y-106689298D01*
X128738586Y-106945183D01*
X128958878Y-107009668D01*
X129540000Y-107590790D01*
X130075433Y-107055356D01*
X130341414Y-106945183D01*
X130441491Y-106689298D01*
X130446719Y-106684070D01*
X130445127Y-106680000D01*
X130446719Y-106675930D01*
X130441491Y-106670702D01*
X130341414Y-106414817D01*
X130121122Y-106350332D01*
X129540000Y-105769210D01*
X129004567Y-106304644D01*
X128738586Y-106414817D01*
X128638509Y-106670702D01*
X128633281Y-106675930D01*
X127063500Y-106675930D01*
X127063500Y-105257079D01*
X127814988Y-105257079D01*
X127887776Y-105928853D01*
X128004817Y-106211414D01*
X128274070Y-106316719D01*
X129180790Y-105410000D01*
X129899210Y-105410000D01*
X130805930Y-106316719D01*
X131075183Y-106211414D01*
X131265012Y-105562921D01*
X131192224Y-104891147D01*
X131075183Y-104608586D01*
X130805930Y-104503281D01*
X129899210Y-105410000D01*
X129180790Y-105410000D01*
X128274070Y-104503281D01*
X128004817Y-104608586D01*
X127814988Y-105257079D01*
X127063500Y-105257079D01*
X127063500Y-101282500D01*
X127762000Y-101282500D01*
X127786300Y-101277666D01*
X127806901Y-101263901D01*
X127820666Y-101243300D01*
X127825500Y-101219000D01*
X127825500Y-100584000D01*
X127820666Y-100559700D01*
X127806901Y-100539099D01*
X127786300Y-100525334D01*
X127762000Y-100520500D01*
X127063500Y-100520500D01*
X127063500Y-96367079D01*
X127814988Y-96367079D01*
X127887776Y-97038853D01*
X128004817Y-97321414D01*
X128274070Y-97426719D01*
X129180790Y-96520000D01*
X129899210Y-96520000D01*
X130805930Y-97426719D01*
X131075183Y-97321414D01*
X131265012Y-96672921D01*
X131192224Y-96001147D01*
X131075183Y-95718586D01*
X130805930Y-95613281D01*
X129899210Y-96520000D01*
X129180790Y-96520000D01*
X128274070Y-95613281D01*
X128004817Y-95718586D01*
X127814988Y-96367079D01*
X127063500Y-96367079D01*
X127063500Y-94240917D01*
X128222272Y-94240917D01*
X128422427Y-94725329D01*
X128722506Y-95025932D01*
X128633281Y-95254070D01*
X129540000Y-96160790D01*
X130446719Y-95254070D01*
X130357382Y-95025646D01*
X130656271Y-94727278D01*
X130676525Y-94678500D01*
X130970316Y-94678500D01*
X131011217Y-94777488D01*
X131407426Y-95174389D01*
X131925363Y-95389455D01*
X132486177Y-95389945D01*
X133004488Y-95175783D01*
X133401389Y-94779574D01*
X133616455Y-94261637D01*
X133616945Y-93700823D01*
X133402783Y-93182512D01*
X133006574Y-92785611D01*
X132488637Y-92570545D01*
X131927823Y-92570055D01*
X131409512Y-92784217D01*
X131012611Y-93180426D01*
X130970641Y-93281500D01*
X130676922Y-93281500D01*
X130657573Y-93234671D01*
X130287278Y-92863729D01*
X129803217Y-92662730D01*
X129279083Y-92662272D01*
X128794671Y-92862427D01*
X128423729Y-93232722D01*
X128222730Y-93716783D01*
X128222272Y-94240917D01*
X127063500Y-94240917D01*
X127063500Y-91694000D01*
X133794500Y-91694000D01*
X133794500Y-97536000D01*
X133799334Y-97560300D01*
X133813099Y-97580901D01*
X133833700Y-97594666D01*
X133858000Y-97599500D01*
X134493000Y-97599500D01*
X134517300Y-97594666D01*
X134537901Y-97580901D01*
X134551666Y-97560300D01*
X134556500Y-97536000D01*
X134556500Y-91694000D01*
X134551666Y-91669700D01*
X134537901Y-91649099D01*
X134517300Y-91635334D01*
X134493000Y-91630500D01*
X133858000Y-91630500D01*
X133833700Y-91635334D01*
X133813099Y-91649099D01*
X133799334Y-91669700D01*
X133794500Y-91694000D01*
X127063500Y-91694000D01*
X127063500Y-88060917D01*
X128262272Y-88060917D01*
X128462427Y-88545329D01*
X128832722Y-88916271D01*
X128881500Y-88936525D01*
X128881500Y-89203078D01*
X128834671Y-89222427D01*
X128463729Y-89592722D01*
X128262730Y-90076783D01*
X128262272Y-90600917D01*
X128462427Y-91085329D01*
X128832722Y-91456271D01*
X129316783Y-91657270D01*
X129840917Y-91657728D01*
X130325329Y-91457573D01*
X130368898Y-91414079D01*
X136577988Y-91414079D01*
X136650776Y-92085853D01*
X136767817Y-92368414D01*
X137037070Y-92473719D01*
X137943790Y-91567000D01*
X138662210Y-91567000D01*
X139568930Y-92473719D01*
X139838183Y-92368414D01*
X140028012Y-91719921D01*
X139955224Y-91048147D01*
X139838183Y-90765586D01*
X139568930Y-90660281D01*
X138662210Y-91567000D01*
X137943790Y-91567000D01*
X137037070Y-90660281D01*
X136767817Y-90765586D01*
X136577988Y-91414079D01*
X130368898Y-91414079D01*
X130696271Y-91087278D01*
X130897270Y-90603217D01*
X130897728Y-90079083D01*
X130697573Y-89594671D01*
X130327278Y-89223729D01*
X130278500Y-89203475D01*
X130278500Y-88936922D01*
X130325329Y-88917573D01*
X130696271Y-88547278D01*
X130716525Y-88498500D01*
X130935608Y-88498500D01*
X131011217Y-88681488D01*
X131407426Y-89078389D01*
X131925363Y-89293455D01*
X132486177Y-89293945D01*
X133004488Y-89079783D01*
X133401389Y-88683574D01*
X133616455Y-88165637D01*
X133616945Y-87604823D01*
X133402783Y-87086512D01*
X133006574Y-86689611D01*
X132488637Y-86474545D01*
X131927823Y-86474055D01*
X131409512Y-86688217D01*
X131012611Y-87084426D01*
X131005521Y-87101500D01*
X130716922Y-87101500D01*
X130697573Y-87054671D01*
X130397494Y-86754068D01*
X130486719Y-86525930D01*
X129580000Y-85619210D01*
X128673281Y-86525930D01*
X128762618Y-86754354D01*
X128463729Y-87052722D01*
X128262730Y-87536783D01*
X128262272Y-88060917D01*
X127063500Y-88060917D01*
X127063500Y-85107079D01*
X127854988Y-85107079D01*
X127927776Y-85778853D01*
X128044817Y-86061414D01*
X128314070Y-86166719D01*
X129220790Y-85260000D01*
X129939210Y-85260000D01*
X130845930Y-86166719D01*
X131115183Y-86061414D01*
X131305012Y-85412921D01*
X131232224Y-84741147D01*
X131115183Y-84458586D01*
X130845930Y-84353281D01*
X129939210Y-85260000D01*
X129220790Y-85260000D01*
X128314070Y-84353281D01*
X128044817Y-84458586D01*
X127854988Y-85107079D01*
X127063500Y-85107079D01*
X127063500Y-68627079D01*
X127854988Y-68627079D01*
X127927776Y-69298853D01*
X128044817Y-69581414D01*
X128314070Y-69686719D01*
X129220790Y-68780000D01*
X129939210Y-68780000D01*
X130845930Y-69686719D01*
X131115183Y-69581414D01*
X131305012Y-68932921D01*
X131232224Y-68261147D01*
X131115183Y-67978586D01*
X130845930Y-67873281D01*
X129939210Y-68780000D01*
X129220790Y-68780000D01*
X128314070Y-67873281D01*
X128044817Y-67978586D01*
X127854988Y-68627079D01*
X127063500Y-68627079D01*
X127063500Y-67514070D01*
X128673281Y-67514070D01*
X129580000Y-68420790D01*
X130486719Y-67514070D01*
X130381414Y-67244817D01*
X129732921Y-67054988D01*
X129061147Y-67127776D01*
X128778586Y-67244817D01*
X128673281Y-67514070D01*
X127063500Y-67514070D01*
X127063500Y-59827079D01*
X127854988Y-59827079D01*
X127927776Y-60498853D01*
X128044817Y-60781414D01*
X128314070Y-60886719D01*
X129220790Y-59980000D01*
X129939210Y-59980000D01*
X130845930Y-60886719D01*
X131115183Y-60781414D01*
X131305012Y-60132921D01*
X131232224Y-59461147D01*
X131115183Y-59178586D01*
X130845930Y-59073281D01*
X129939210Y-59980000D01*
X129220790Y-59980000D01*
X128314070Y-59073281D01*
X128044817Y-59178586D01*
X127854988Y-59827079D01*
X127063500Y-59827079D01*
X127063500Y-55160917D01*
X128262272Y-55160917D01*
X128462427Y-55645329D01*
X128832722Y-56016271D01*
X129203257Y-56170130D01*
X128834671Y-56322427D01*
X128463729Y-56692722D01*
X128262730Y-57176783D01*
X128262272Y-57700917D01*
X128462427Y-58185329D01*
X128762506Y-58485932D01*
X128673281Y-58714070D01*
X129580000Y-59620790D01*
X130486719Y-58714070D01*
X130397382Y-58485646D01*
X130696271Y-58187278D01*
X130716525Y-58138500D01*
X130858191Y-58138500D01*
X130884217Y-58201488D01*
X131280426Y-58598389D01*
X131798363Y-58813455D01*
X132359177Y-58813945D01*
X132877488Y-58599783D01*
X133274389Y-58203574D01*
X133489455Y-57685637D01*
X133489945Y-57124823D01*
X133275783Y-56606512D01*
X132879574Y-56209611D01*
X132361637Y-55994545D01*
X131800823Y-55994055D01*
X131282512Y-56208217D01*
X130885611Y-56604426D01*
X130828693Y-56741500D01*
X130716922Y-56741500D01*
X130697573Y-56694671D01*
X130327278Y-56323729D01*
X129956743Y-56169870D01*
X130325329Y-56017573D01*
X130696271Y-55647278D01*
X130897270Y-55163217D01*
X130897728Y-54639083D01*
X130697573Y-54154671D01*
X130327278Y-53783729D01*
X129843217Y-53582730D01*
X129319083Y-53582272D01*
X128834671Y-53782427D01*
X128463729Y-54152722D01*
X128262730Y-54636783D01*
X128262272Y-55160917D01*
X127063500Y-55160917D01*
X127063500Y-53530500D01*
X134429500Y-53530500D01*
X134429500Y-55753000D01*
X134429500Y-55753000D01*
G37*
X134429500Y-55753000D02*
X134434334Y-55777300D01*
X134448099Y-55797901D01*
X134468700Y-55811666D01*
X134493000Y-55816500D01*
X135128000Y-55816500D01*
X135152300Y-55811666D01*
X135172901Y-55797901D01*
X135186666Y-55777300D01*
X135191500Y-55753000D01*
X135191500Y-53530500D01*
X138534891Y-53530500D01*
X138319671Y-53619427D01*
X137948729Y-53989722D01*
X137747730Y-54473783D01*
X137747272Y-54997917D01*
X137947427Y-55482329D01*
X138317722Y-55853271D01*
X138801783Y-56054270D01*
X139325917Y-56054728D01*
X139451277Y-56002930D01*
X140698281Y-56002930D01*
X140803586Y-56272183D01*
X141452079Y-56462012D01*
X142123853Y-56389224D01*
X142406414Y-56272183D01*
X142511719Y-56002930D01*
X141605000Y-55096210D01*
X140698281Y-56002930D01*
X139451277Y-56002930D01*
X139810329Y-55854573D01*
X140110932Y-55554494D01*
X140339070Y-55643719D01*
X141245790Y-54737000D01*
X141231647Y-54722858D01*
X141590858Y-54363647D01*
X141605000Y-54377790D01*
X141619142Y-54363647D01*
X141978353Y-54722858D01*
X141964210Y-54737000D01*
X142870930Y-55643719D01*
X143099354Y-55554382D01*
X143397722Y-55853271D01*
X143700500Y-55978995D01*
X143700500Y-56523560D01*
X143579451Y-56644398D01*
X143477616Y-56889644D01*
X143477384Y-57155191D01*
X143578791Y-57400614D01*
X143766398Y-57588549D01*
X144011644Y-57690384D01*
X144277191Y-57690616D01*
X144522614Y-57589209D01*
X144710549Y-57401602D01*
X144812384Y-57156356D01*
X144812616Y-56890809D01*
X144711209Y-56645386D01*
X144589500Y-56523464D01*
X144589500Y-55978873D01*
X144890329Y-55854573D01*
X145261271Y-55484278D01*
X145415130Y-55113743D01*
X145567427Y-55482329D01*
X145937722Y-55853271D01*
X145986500Y-55873525D01*
X145986500Y-55913316D01*
X145887512Y-55954217D01*
X145490611Y-56350426D01*
X145275545Y-56868363D01*
X145275055Y-57429177D01*
X145489217Y-57947488D01*
X145770737Y-58229500D01*
X137795000Y-58229500D01*
X137624897Y-58263336D01*
X137480691Y-58359691D01*
X135191500Y-60648882D01*
X135191500Y-56388000D01*
X135186666Y-56363700D01*
X135172901Y-56343099D01*
X135152300Y-56329334D01*
X135128000Y-56324500D01*
X134493000Y-56324500D01*
X134468700Y-56329334D01*
X134448099Y-56343099D01*
X134434334Y-56363700D01*
X134429500Y-56388000D01*
X134429500Y-61410882D01*
X133764882Y-62075500D01*
X130821873Y-62075500D01*
X130697573Y-61774671D01*
X130397494Y-61474068D01*
X130486719Y-61245930D01*
X129580000Y-60339210D01*
X128673281Y-61245930D01*
X128762618Y-61474354D01*
X128463729Y-61772722D01*
X128262730Y-62256783D01*
X128262272Y-62780917D01*
X128462427Y-63265329D01*
X128832722Y-63636271D01*
X129203257Y-63790130D01*
X128834671Y-63942427D01*
X128463729Y-64312722D01*
X128262730Y-64796783D01*
X128262272Y-65320917D01*
X128462427Y-65805329D01*
X128832722Y-66176271D01*
X129316783Y-66377270D01*
X129840917Y-66377728D01*
X130325329Y-66177573D01*
X130696271Y-65807278D01*
X130821995Y-65504500D01*
X132171002Y-65504500D01*
X132341105Y-65470664D01*
X132485311Y-65374309D01*
X133286500Y-64573120D01*
X133286500Y-70475449D01*
X133275783Y-70449512D01*
X132879574Y-70052611D01*
X132361637Y-69837545D01*
X131800823Y-69837055D01*
X131282512Y-70051217D01*
X130885611Y-70447426D01*
X130813329Y-70621500D01*
X130716922Y-70621500D01*
X130697573Y-70574671D01*
X130397494Y-70274068D01*
X130486719Y-70045930D01*
X129580000Y-69139210D01*
X128673281Y-70045930D01*
X128762618Y-70274354D01*
X128463729Y-70572722D01*
X128262730Y-71056783D01*
X128262272Y-71580917D01*
X128462427Y-72065329D01*
X128832722Y-72436271D01*
X129203257Y-72590130D01*
X128834671Y-72742427D01*
X128463729Y-73112722D01*
X128262730Y-73596783D01*
X128262272Y-74120917D01*
X128462427Y-74605329D01*
X128832722Y-74976271D01*
X129316783Y-75177270D01*
X129840917Y-75177728D01*
X130325329Y-74977573D01*
X130696271Y-74607278D01*
X130821995Y-74304500D01*
X131753000Y-74304500D01*
X131923103Y-74270664D01*
X132067309Y-74174309D01*
X133794500Y-72447118D01*
X133794500Y-74745882D01*
X131344882Y-77195500D01*
X130821873Y-77195500D01*
X130697573Y-76894671D01*
X130327278Y-76523729D01*
X129843217Y-76322730D01*
X129319083Y-76322272D01*
X128834671Y-76522427D01*
X128463729Y-76892722D01*
X128262730Y-77376783D01*
X128262272Y-77900917D01*
X128462427Y-78385329D01*
X128832722Y-78756271D01*
X129203257Y-78910130D01*
X128834671Y-79062427D01*
X128463729Y-79432722D01*
X128262730Y-79916783D01*
X128262272Y-80440917D01*
X128462427Y-80925329D01*
X128832722Y-81296271D01*
X129203257Y-81450130D01*
X128834671Y-81602427D01*
X128463729Y-81972722D01*
X128262730Y-82456783D01*
X128262272Y-82980917D01*
X128462427Y-83465329D01*
X128762506Y-83765932D01*
X128673281Y-83994070D01*
X129580000Y-84900790D01*
X130486719Y-83994070D01*
X130397382Y-83765646D01*
X130696271Y-83467278D01*
X130897270Y-82983217D01*
X130897728Y-82459083D01*
X130697573Y-81974671D01*
X130327278Y-81603729D01*
X129956743Y-81449870D01*
X130325329Y-81297573D01*
X130696271Y-80927278D01*
X130897270Y-80443217D01*
X130897728Y-79919083D01*
X130697573Y-79434671D01*
X130327278Y-79063729D01*
X129956743Y-78909870D01*
X130325329Y-78757573D01*
X130696271Y-78387278D01*
X130821995Y-78084500D01*
X131529000Y-78084500D01*
X131699103Y-78050664D01*
X131843309Y-77954309D01*
X132454618Y-77343000D01*
X133794500Y-77343000D01*
X133794500Y-91059000D01*
X133799334Y-91083300D01*
X133813099Y-91103901D01*
X133833700Y-91117666D01*
X133858000Y-91122500D01*
X134493000Y-91122500D01*
X134517300Y-91117666D01*
X134537901Y-91103901D01*
X134551666Y-91083300D01*
X134556500Y-91059000D01*
X134556500Y-77343000D01*
X134551666Y-77318700D01*
X134537901Y-77298099D01*
X134517300Y-77284334D01*
X134493000Y-77279500D01*
X133858000Y-77279500D01*
X133833700Y-77284334D01*
X133813099Y-77298099D01*
X133799334Y-77318700D01*
X133794500Y-77343000D01*
X132454618Y-77343000D01*
X133794500Y-76003118D01*
X133794500Y-76708000D01*
X133799334Y-76732300D01*
X133813099Y-76752901D01*
X133833700Y-76766666D01*
X133858000Y-76771500D01*
X134493000Y-76771500D01*
X134517300Y-76766666D01*
X134537901Y-76752901D01*
X134551666Y-76732300D01*
X134556500Y-76708000D01*
X134556500Y-75755500D01*
X135128000Y-75755500D01*
X135152300Y-75750666D01*
X135172901Y-75736901D01*
X135175457Y-75733075D01*
X136083691Y-76641309D01*
X136227897Y-76737664D01*
X136398000Y-76771500D01*
X137061127Y-76771500D01*
X137185427Y-77072329D01*
X137555722Y-77443271D01*
X137926257Y-77597130D01*
X137557671Y-77749427D01*
X137186729Y-78119722D01*
X136985730Y-78603783D01*
X136985272Y-79127917D01*
X137185427Y-79612329D01*
X137555722Y-79983271D01*
X137926257Y-80137130D01*
X137557671Y-80289427D01*
X137186729Y-80659722D01*
X136985730Y-81143783D01*
X136985272Y-81667917D01*
X137185427Y-82152329D01*
X137555722Y-82523271D01*
X137858500Y-82648995D01*
X137858500Y-82705127D01*
X137557671Y-82829427D01*
X137186729Y-83199722D01*
X136985730Y-83683783D01*
X136985272Y-84207917D01*
X137185427Y-84692329D01*
X137555722Y-85063271D01*
X137858500Y-85188995D01*
X137858500Y-85245127D01*
X137557671Y-85369427D01*
X137186729Y-85739722D01*
X136985730Y-86223783D01*
X136985272Y-86747917D01*
X137185427Y-87232329D01*
X137555722Y-87603271D01*
X137926257Y-87757130D01*
X137557671Y-87909427D01*
X137186729Y-88279722D01*
X136985730Y-88763783D01*
X136985272Y-89287917D01*
X137185427Y-89772329D01*
X137485506Y-90072932D01*
X137396281Y-90301070D01*
X138303000Y-91207790D01*
X139209719Y-90301070D01*
X139120382Y-90072646D01*
X139419271Y-89774278D01*
X139439525Y-89725500D01*
X143446500Y-89725500D01*
X143446500Y-102453672D01*
X142331672Y-103568500D01*
X142069188Y-103568500D01*
X142402488Y-103430783D01*
X142799389Y-103034574D01*
X143014455Y-102516637D01*
X143014945Y-101955823D01*
X142800783Y-101437512D01*
X142404574Y-101040611D01*
X141886637Y-100825545D01*
X141325823Y-100825055D01*
X140833449Y-101028500D01*
X139439922Y-101028500D01*
X139420573Y-100981671D01*
X139050278Y-100610729D01*
X138679743Y-100456870D01*
X139048329Y-100304573D01*
X139419271Y-99934278D01*
X139620270Y-99450217D01*
X139620728Y-98926083D01*
X139420573Y-98441671D01*
X139050278Y-98070729D01*
X138679743Y-97916870D01*
X139048329Y-97764573D01*
X139419271Y-97394278D01*
X139439525Y-97345500D01*
X140335000Y-97345500D01*
X140602305Y-97292330D01*
X140828914Y-97140914D01*
X141224447Y-96745381D01*
X141323363Y-96786455D01*
X141884177Y-96786945D01*
X142402488Y-96572783D01*
X142799389Y-96176574D01*
X143014455Y-95658637D01*
X143014945Y-95097823D01*
X142800783Y-94579512D01*
X142404574Y-94182611D01*
X141886637Y-93967545D01*
X141325823Y-93967055D01*
X140807512Y-94181217D01*
X140410611Y-94577426D01*
X140195545Y-95095363D01*
X140195055Y-95656177D01*
X140236848Y-95757324D01*
X140045672Y-95948500D01*
X139439922Y-95948500D01*
X139420573Y-95901671D01*
X139050278Y-95530729D01*
X138679743Y-95376870D01*
X139048329Y-95224573D01*
X139419271Y-94854278D01*
X139620270Y-94370217D01*
X139620728Y-93846083D01*
X139420573Y-93361671D01*
X139120494Y-93061068D01*
X139209719Y-92832930D01*
X138303000Y-91926210D01*
X137396281Y-92832930D01*
X137485618Y-93061354D01*
X137186729Y-93359722D01*
X136985730Y-93843783D01*
X136985272Y-94367917D01*
X137185427Y-94852329D01*
X137555722Y-95223271D01*
X137926257Y-95377130D01*
X137557671Y-95529427D01*
X137186729Y-95899722D01*
X136985730Y-96383783D01*
X136985272Y-96907917D01*
X137185427Y-97392329D01*
X137555722Y-97763271D01*
X137926257Y-97917130D01*
X137557671Y-98069427D01*
X137186729Y-98439722D01*
X137166475Y-98488500D01*
X137126684Y-98488500D01*
X137085783Y-98389512D01*
X136689574Y-97992611D01*
X136171637Y-97777545D01*
X135610823Y-97777055D01*
X135092512Y-97991217D01*
X134695611Y-98387426D01*
X134556500Y-98722443D01*
X134556500Y-98171000D01*
X134551666Y-98146700D01*
X134537901Y-98126099D01*
X134517300Y-98112334D01*
X134493000Y-98107500D01*
X133858000Y-98107500D01*
X133833700Y-98112334D01*
X133813099Y-98126099D01*
X133799334Y-98146700D01*
X133794500Y-98171000D01*
X133794500Y-100520500D01*
X131629118Y-100520500D01*
X130732446Y-99623828D01*
X130857270Y-99323217D01*
X130857728Y-98799083D01*
X130657573Y-98314671D01*
X130357494Y-98014068D01*
X130446719Y-97785930D01*
X129540000Y-96879210D01*
X128633281Y-97785930D01*
X128722618Y-98014354D01*
X128423729Y-98312722D01*
X128222730Y-98796783D01*
X128222272Y-99320917D01*
X128422427Y-99805329D01*
X128792722Y-100176271D01*
X129276783Y-100377270D01*
X129800917Y-100377728D01*
X130103914Y-100252532D01*
X130371882Y-100520500D01*
X128397000Y-100520500D01*
X128372700Y-100525334D01*
X128352099Y-100539099D01*
X128338334Y-100559700D01*
X128333500Y-100584000D01*
X128333500Y-101219000D01*
X128338334Y-101243300D01*
X128352099Y-101263901D01*
X128372700Y-101277666D01*
X128397000Y-101282500D01*
X131133882Y-101282500D01*
X134429500Y-104578118D01*
X134429500Y-105098882D01*
X131886309Y-102555691D01*
X131827860Y-102516637D01*
X131742103Y-102459336D01*
X131572000Y-102425500D01*
X130781873Y-102425500D01*
X130657573Y-102124671D01*
X130287278Y-101753729D01*
X129803217Y-101552730D01*
X129279083Y-101552272D01*
X128794671Y-101752427D01*
X128423729Y-102122722D01*
X128222730Y-102606783D01*
X128222272Y-103130917D01*
X128422427Y-103615329D01*
X128722506Y-103915932D01*
X128633281Y-104144070D01*
X129540000Y-105050790D01*
X130446719Y-104144070D01*
X130357382Y-103915646D01*
X130656271Y-103617278D01*
X130781995Y-103314500D01*
X131387882Y-103314500D01*
X134429500Y-106356118D01*
X134429500Y-108204000D01*
X134434334Y-108228300D01*
X134448099Y-108248901D01*
X134468700Y-108262666D01*
X134493000Y-108267500D01*
X139065000Y-108267500D01*
X139089300Y-108262666D01*
X139109901Y-108248901D01*
X139123666Y-108228300D01*
X139128500Y-108204000D01*
X139128500Y-107759500D01*
X140208000Y-107759500D01*
X140378103Y-107725664D01*
X140522309Y-107629309D01*
X140900118Y-107251500D01*
X147955000Y-107251500D01*
X148125103Y-107217664D01*
X148269309Y-107121309D01*
X148396309Y-106994309D01*
X148429134Y-106945183D01*
X148492664Y-106850103D01*
X148526500Y-106680000D01*
X148526500Y-84074000D01*
X148492664Y-83903897D01*
X148396309Y-83759691D01*
X147637500Y-83000882D01*
X147637500Y-82922440D01*
X147758549Y-82801602D01*
X147860384Y-82556356D01*
X147860616Y-82290809D01*
X147759209Y-82045386D01*
X147571602Y-81857451D01*
X147557270Y-81851500D01*
X148209000Y-81851500D01*
X148379103Y-81817664D01*
X148523309Y-81721309D01*
X149282118Y-80962500D01*
X159004000Y-80962500D01*
X159174103Y-80928664D01*
X159318309Y-80832309D01*
X159699309Y-80451309D01*
X159795664Y-80307103D01*
X159829500Y-80137000D01*
X159829500Y-71218873D01*
X160130329Y-71094573D01*
X160501271Y-70724278D01*
X160655130Y-70353743D01*
X160807427Y-70722329D01*
X161177722Y-71093271D01*
X161480500Y-71218995D01*
X161480500Y-71763560D01*
X161359451Y-71884398D01*
X161257616Y-72129644D01*
X161257384Y-72395191D01*
X161358791Y-72640614D01*
X161546398Y-72828549D01*
X161791644Y-72930384D01*
X162057191Y-72930616D01*
X162302614Y-72829209D01*
X162490549Y-72641602D01*
X162592384Y-72396356D01*
X162592616Y-72130809D01*
X162491209Y-71885386D01*
X162369500Y-71763464D01*
X162369500Y-71218873D01*
X162670329Y-71094573D01*
X163041271Y-70724278D01*
X163195130Y-70353743D01*
X163347427Y-70722329D01*
X163717722Y-71093271D01*
X164020500Y-71218995D01*
X164020500Y-75253882D01*
X162626691Y-76647691D01*
X162530336Y-76791897D01*
X162496500Y-76962000D01*
X162496500Y-114623882D01*
X161613882Y-115506500D01*
X156455440Y-115506500D01*
X156334602Y-115385451D01*
X156089356Y-115283616D01*
X155823809Y-115283384D01*
X155578386Y-115384791D01*
X155390451Y-115572398D01*
X155288616Y-115817644D01*
X155288384Y-116083191D01*
X155389791Y-116328614D01*
X155577398Y-116516549D01*
X155744763Y-116586045D01*
X155578386Y-116654791D01*
X155390451Y-116842398D01*
X155288616Y-117087644D01*
X155288384Y-117353191D01*
X155389791Y-117598614D01*
X155577398Y-117786549D01*
X155822644Y-117888384D01*
X156088191Y-117888616D01*
X156333614Y-117787209D01*
X156455536Y-117665500D01*
X163068000Y-117665500D01*
X163238103Y-117631664D01*
X163382309Y-117535309D01*
X164525309Y-116392309D01*
X164545785Y-116361664D01*
X164621664Y-116248103D01*
X164655500Y-116078000D01*
X164655500Y-77400118D01*
X167319309Y-74736309D01*
X167415665Y-74592102D01*
X167449500Y-74422000D01*
X167449500Y-71218873D01*
X167750329Y-71094573D01*
X168121271Y-70724278D01*
X168275130Y-70353743D01*
X168427427Y-70722329D01*
X168797722Y-71093271D01*
X169100500Y-71218995D01*
X169100500Y-74364882D01*
X165671691Y-77793691D01*
X165575336Y-77937897D01*
X165541500Y-78108000D01*
X165541500Y-119215127D01*
X165240671Y-119339427D01*
X164869729Y-119709722D01*
X164715870Y-120080257D01*
X164563573Y-119711671D01*
X164193278Y-119340729D01*
X163709217Y-119139730D01*
X163185083Y-119139272D01*
X162700671Y-119339427D01*
X162329729Y-119709722D01*
X162175870Y-120080257D01*
X162023573Y-119711671D01*
X161653278Y-119340729D01*
X161350500Y-119215005D01*
X161350500Y-118996000D01*
X161316664Y-118825897D01*
X161220309Y-118681691D01*
X161043309Y-118504691D01*
X161022819Y-118491000D01*
X160899103Y-118408336D01*
X160729000Y-118374500D01*
X148133500Y-118374500D01*
X148133500Y-113863073D01*
X148208043Y-113832272D01*
X148466365Y-113574401D01*
X148606340Y-113237303D01*
X148606341Y-113235701D01*
X153271341Y-113235701D01*
X153410728Y-113573043D01*
X153668599Y-113831365D01*
X154005697Y-113971340D01*
X154370701Y-113971659D01*
X154708043Y-113832272D01*
X154787955Y-113752500D01*
X155110233Y-113752500D01*
X155141217Y-113827488D01*
X155537426Y-114224389D01*
X156055363Y-114439455D01*
X156616177Y-114439945D01*
X157134488Y-114225783D01*
X157531389Y-113829574D01*
X157746455Y-113311637D01*
X157746945Y-112750823D01*
X157532783Y-112232512D01*
X157136574Y-111835611D01*
X156618637Y-111620545D01*
X156057823Y-111620055D01*
X155539512Y-111834217D01*
X155142611Y-112230426D01*
X155090676Y-112355500D01*
X154788128Y-112355500D01*
X154709401Y-112276635D01*
X154372303Y-112136660D01*
X154007299Y-112136341D01*
X153669957Y-112275728D01*
X153411635Y-112533599D01*
X153271660Y-112870697D01*
X153271341Y-113235701D01*
X148606341Y-113235701D01*
X148606659Y-112872299D01*
X148571766Y-112787852D01*
X149412309Y-111947309D01*
X149459508Y-111876670D01*
X149508664Y-111803103D01*
X149542500Y-111633000D01*
X149542500Y-109631701D01*
X153272341Y-109631701D01*
X153411728Y-109969043D01*
X153669599Y-110227365D01*
X154006697Y-110367340D01*
X154371701Y-110367659D01*
X154709043Y-110228272D01*
X154967365Y-109970401D01*
X154998882Y-109894500D01*
X155345000Y-109894500D01*
X155515103Y-109860664D01*
X155659309Y-109764309D01*
X156270309Y-109153309D01*
X156366664Y-109009103D01*
X156400500Y-108839000D01*
X156400500Y-82287440D01*
X156521549Y-82166602D01*
X156623384Y-81921356D01*
X156623616Y-81655809D01*
X156522209Y-81410386D01*
X156334602Y-81222451D01*
X156089356Y-81120616D01*
X155823809Y-81120384D01*
X155578386Y-81221791D01*
X155390451Y-81409398D01*
X155288616Y-81654644D01*
X155288384Y-81920191D01*
X155389791Y-82165614D01*
X155511500Y-82287536D01*
X155511500Y-108654882D01*
X155160882Y-109005500D01*
X154999073Y-109005500D01*
X154968272Y-108930957D01*
X154710401Y-108672635D01*
X154373303Y-108532660D01*
X154008299Y-108532341D01*
X153670957Y-108671728D01*
X153412635Y-108929599D01*
X153272660Y-109266697D01*
X153272341Y-109631701D01*
X149542500Y-109631701D01*
X149542500Y-89730691D01*
X149954384Y-89730691D01*
X150055791Y-89976114D01*
X150241000Y-90161647D01*
X150241000Y-102370560D01*
X150119951Y-102491398D01*
X150018116Y-102736644D01*
X150017884Y-103002191D01*
X150119291Y-103247614D01*
X150306898Y-103435549D01*
X150552144Y-103537384D01*
X150817691Y-103537616D01*
X151063114Y-103436209D01*
X151251049Y-103248602D01*
X151352884Y-103003356D01*
X151353116Y-102737809D01*
X151251709Y-102492386D01*
X151130000Y-102370464D01*
X151130000Y-90034551D01*
X151187549Y-89977102D01*
X151289384Y-89731856D01*
X151289616Y-89466309D01*
X151188209Y-89220886D01*
X151126622Y-89159191D01*
X152113384Y-89159191D01*
X152214791Y-89404614D01*
X152402398Y-89592549D01*
X152647644Y-89694384D01*
X152913191Y-89694616D01*
X153158614Y-89593209D01*
X153346549Y-89405602D01*
X153448384Y-89160356D01*
X153448535Y-88988083D01*
X154492309Y-87944309D01*
X154588664Y-87800103D01*
X154622500Y-87630000D01*
X154622500Y-82287440D01*
X154743549Y-82166602D01*
X154845384Y-81921356D01*
X154845616Y-81655809D01*
X154744209Y-81410386D01*
X154556602Y-81222451D01*
X154311356Y-81120616D01*
X154045809Y-81120384D01*
X153800386Y-81221791D01*
X153612451Y-81409398D01*
X153510616Y-81654644D01*
X153510384Y-81920191D01*
X153611791Y-82165614D01*
X153733500Y-82287536D01*
X153733500Y-87445882D01*
X152819849Y-88359533D01*
X152648809Y-88359384D01*
X152403386Y-88460791D01*
X152215451Y-88648398D01*
X152113616Y-88893644D01*
X152113384Y-89159191D01*
X151126622Y-89159191D01*
X151000602Y-89032951D01*
X150755356Y-88931116D01*
X150489809Y-88930884D01*
X150244386Y-89032291D01*
X150056451Y-89219898D01*
X149954616Y-89465144D01*
X149954384Y-89730691D01*
X149542500Y-89730691D01*
X149542500Y-86893177D01*
X149720055Y-86893177D01*
X149934217Y-87411488D01*
X150330426Y-87808389D01*
X150848363Y-88023455D01*
X151409177Y-88023945D01*
X151927488Y-87809783D01*
X152324389Y-87413574D01*
X152539455Y-86895637D01*
X152539945Y-86334823D01*
X152453543Y-86125714D01*
X152487500Y-85955000D01*
X152487500Y-82653128D01*
X152566365Y-82574401D01*
X152706340Y-82237303D01*
X152706659Y-81872299D01*
X152567272Y-81534957D01*
X152309401Y-81276635D01*
X151972303Y-81136660D01*
X151607299Y-81136341D01*
X151269957Y-81275728D01*
X151011635Y-81533599D01*
X150871660Y-81870697D01*
X150871341Y-82235701D01*
X151010728Y-82573043D01*
X151090500Y-82652955D01*
X151090500Y-85204264D01*
X150850823Y-85204055D01*
X150332512Y-85418217D01*
X149935611Y-85814426D01*
X149720545Y-86332363D01*
X149720055Y-86893177D01*
X149542500Y-86893177D01*
X149542500Y-82922440D01*
X149663549Y-82801602D01*
X149765384Y-82556356D01*
X149765616Y-82290809D01*
X149664209Y-82045386D01*
X149476602Y-81857451D01*
X149231356Y-81755616D01*
X148965809Y-81755384D01*
X148720386Y-81856791D01*
X148532451Y-82044398D01*
X148430616Y-82289644D01*
X148430384Y-82555191D01*
X148531791Y-82800614D01*
X148653500Y-82922536D01*
X148653500Y-111448882D01*
X147938313Y-112164069D01*
X147872303Y-112136660D01*
X147507299Y-112136341D01*
X147169957Y-112275728D01*
X146911635Y-112533599D01*
X146771660Y-112870697D01*
X146771341Y-113235701D01*
X146910728Y-113573043D01*
X147168599Y-113831365D01*
X147244500Y-113862882D01*
X147244500Y-118819000D01*
X147256500Y-118879327D01*
X147256500Y-119957882D01*
X146937882Y-120276500D01*
X146704272Y-120276500D01*
X146650097Y-120145386D01*
X146364120Y-119858908D01*
X145990281Y-119703677D01*
X145585495Y-119703324D01*
X145211386Y-119857903D01*
X144924908Y-120143880D01*
X144869840Y-120276500D01*
X141704272Y-120276500D01*
X141650097Y-120145386D01*
X141364120Y-119858908D01*
X140990281Y-119703677D01*
X140585495Y-119703324D01*
X140211386Y-119857903D01*
X139924908Y-120143880D01*
X139769677Y-120517719D01*
X139769324Y-120922505D01*
X139923903Y-121296614D01*
X140209880Y-121583092D01*
X140583719Y-121738323D01*
X140988505Y-121738676D01*
X141362614Y-121584097D01*
X141649092Y-121298120D01*
X141704160Y-121165500D01*
X144869728Y-121165500D01*
X144923903Y-121296614D01*
X145209880Y-121583092D01*
X145583719Y-121738323D01*
X145988505Y-121738676D01*
X146362614Y-121584097D01*
X146649092Y-121298120D01*
X146704160Y-121165500D01*
X147122000Y-121165500D01*
X147292103Y-121131664D01*
X147436309Y-121035309D01*
X148015309Y-120456309D01*
X148111665Y-120312102D01*
X148145500Y-120142000D01*
X148145500Y-119263500D01*
X152724428Y-119263500D01*
X152540671Y-119339427D01*
X152169729Y-119709722D01*
X151968730Y-120193783D01*
X151968272Y-120717917D01*
X152168427Y-121202329D01*
X152538722Y-121573271D01*
X153022783Y-121774270D01*
X153546917Y-121774728D01*
X154031329Y-121574573D01*
X154402271Y-121204278D01*
X154556130Y-120833743D01*
X154708427Y-121202329D01*
X155078722Y-121573271D01*
X155562783Y-121774270D01*
X156086917Y-121774728D01*
X156571329Y-121574573D01*
X156942271Y-121204278D01*
X157096130Y-120833743D01*
X157248427Y-121202329D01*
X157618722Y-121573271D01*
X158102783Y-121774270D01*
X158626917Y-121774728D01*
X159111329Y-121574573D01*
X159482271Y-121204278D01*
X159636130Y-120833743D01*
X159788427Y-121202329D01*
X160158722Y-121573271D01*
X160642783Y-121774270D01*
X161166917Y-121774728D01*
X161651329Y-121574573D01*
X162022271Y-121204278D01*
X162176130Y-120833743D01*
X162328427Y-121202329D01*
X162698722Y-121573271D01*
X163182783Y-121774270D01*
X163706917Y-121774728D01*
X164191329Y-121574573D01*
X164562271Y-121204278D01*
X164716130Y-120833743D01*
X164868427Y-121202329D01*
X165238722Y-121573271D01*
X165722783Y-121774270D01*
X166246917Y-121774728D01*
X166372277Y-121722930D01*
X167619281Y-121722930D01*
X167724586Y-121992183D01*
X168373079Y-122182012D01*
X169044853Y-122109224D01*
X169327414Y-121992183D01*
X169432719Y-121722930D01*
X168526000Y-120816210D01*
X167619281Y-121722930D01*
X166372277Y-121722930D01*
X166731329Y-121574573D01*
X167031932Y-121274494D01*
X167260070Y-121363719D01*
X168166790Y-120457000D01*
X168885210Y-120457000D01*
X169791930Y-121363719D01*
X170061183Y-121258414D01*
X170251012Y-120609921D01*
X170178224Y-119938147D01*
X170061183Y-119655586D01*
X169791930Y-119550281D01*
X168885210Y-120457000D01*
X168166790Y-120457000D01*
X167260070Y-119550281D01*
X167031646Y-119639618D01*
X166733278Y-119340729D01*
X166430500Y-119215005D01*
X166430500Y-119191070D01*
X167619281Y-119191070D01*
X168526000Y-120097790D01*
X169432719Y-119191070D01*
X169327414Y-118921817D01*
X168678921Y-118731988D01*
X168007147Y-118804776D01*
X167724586Y-118921817D01*
X167619281Y-119191070D01*
X166430500Y-119191070D01*
X166430500Y-78292118D01*
X169859309Y-74863309D01*
X169917222Y-74776635D01*
X169955664Y-74719103D01*
X169989500Y-74549000D01*
X169989500Y-71218873D01*
X170290329Y-71094573D01*
X170661271Y-70724278D01*
X170815130Y-70353743D01*
X170967427Y-70722329D01*
X171337722Y-71093271D01*
X171640500Y-71218995D01*
X171640500Y-122116882D01*
X158051691Y-135705691D01*
X157955336Y-135849897D01*
X157921500Y-136020000D01*
X157921500Y-142075127D01*
X157620671Y-142199427D01*
X157249729Y-142569722D01*
X157095870Y-142940257D01*
X156943573Y-142571671D01*
X156573278Y-142200729D01*
X156089217Y-141999730D01*
X155565083Y-141999272D01*
X155080671Y-142199427D01*
X154709729Y-142569722D01*
X154555870Y-142940257D01*
X154403573Y-142571671D01*
X154033278Y-142200729D01*
X153549217Y-141999730D01*
X153025083Y-141999272D01*
X152540671Y-142199427D01*
X152169729Y-142569722D01*
X151968730Y-143053783D01*
X151968272Y-143577917D01*
X152168427Y-144062329D01*
X152538722Y-144433271D01*
X153022783Y-144634270D01*
X153546917Y-144634728D01*
X154031329Y-144434573D01*
X154402271Y-144064278D01*
X154556130Y-143693743D01*
X154708427Y-144062329D01*
X155078722Y-144433271D01*
X155562783Y-144634270D01*
X156086917Y-144634728D01*
X156571329Y-144434573D01*
X156942271Y-144064278D01*
X157096130Y-143693743D01*
X157248427Y-144062329D01*
X157618722Y-144433271D01*
X158102783Y-144634270D01*
X158626917Y-144634728D01*
X159111329Y-144434573D01*
X159482271Y-144064278D01*
X159636130Y-143693743D01*
X159788427Y-144062329D01*
X160158722Y-144433271D01*
X160642783Y-144634270D01*
X161166917Y-144634728D01*
X161651329Y-144434573D01*
X162022271Y-144064278D01*
X162176130Y-143693743D01*
X162328427Y-144062329D01*
X162698722Y-144433271D01*
X163182783Y-144634270D01*
X163706917Y-144634728D01*
X164191329Y-144434573D01*
X164562271Y-144064278D01*
X164716130Y-143693743D01*
X164868427Y-144062329D01*
X165238722Y-144433271D01*
X165722783Y-144634270D01*
X166246917Y-144634728D01*
X166731329Y-144434573D01*
X167102271Y-144064278D01*
X167256130Y-143693743D01*
X167408427Y-144062329D01*
X167778722Y-144433271D01*
X168262783Y-144634270D01*
X168786917Y-144634728D01*
X169271329Y-144434573D01*
X169642271Y-144064278D01*
X169843270Y-143580217D01*
X169843728Y-143056083D01*
X169643573Y-142571671D01*
X169273278Y-142200729D01*
X168789217Y-141999730D01*
X168265083Y-141999272D01*
X167780671Y-142199427D01*
X167409729Y-142569722D01*
X167255870Y-142940257D01*
X167103573Y-142571671D01*
X166733278Y-142200729D01*
X166684500Y-142180475D01*
X166684500Y-141953924D01*
X166786488Y-141911783D01*
X167183389Y-141515574D01*
X167398455Y-140997637D01*
X167398945Y-140436823D01*
X167184783Y-139918512D01*
X166788574Y-139521611D01*
X166270637Y-139306545D01*
X165709823Y-139306055D01*
X165191512Y-139520217D01*
X164794611Y-139916426D01*
X164579545Y-140434363D01*
X164579055Y-140995177D01*
X164793217Y-141513488D01*
X165189426Y-141910389D01*
X165287500Y-141951113D01*
X165287500Y-142180078D01*
X165240671Y-142199427D01*
X164869729Y-142569722D01*
X164715870Y-142940257D01*
X164563573Y-142571671D01*
X164193278Y-142200729D01*
X163890500Y-142075005D01*
X163890500Y-133918118D01*
X174558309Y-123250309D01*
X174654664Y-123106103D01*
X174688500Y-122936000D01*
X174688500Y-85081440D01*
X174809549Y-84960602D01*
X174911384Y-84715356D01*
X174911616Y-84449809D01*
X174810209Y-84204386D01*
X174622602Y-84016451D01*
X174377356Y-83914616D01*
X174111809Y-83914384D01*
X173948936Y-83981682D01*
X174939309Y-82991309D01*
X175035664Y-82847103D01*
X175069500Y-82677000D01*
X175069500Y-71218873D01*
X175370329Y-71094573D01*
X175577500Y-70887763D01*
X175577500Y-144716500D01*
X151193500Y-144716500D01*
X151193500Y-141986000D01*
X151188666Y-141961700D01*
X151174901Y-141941099D01*
X151154300Y-141927334D01*
X151130000Y-141922500D01*
X150495000Y-141922500D01*
X150470700Y-141927334D01*
X150450099Y-141941099D01*
X150436334Y-141961700D01*
X150431500Y-141986000D01*
X150431500Y-144716500D01*
X135191500Y-144716500D01*
X135191500Y-141986000D01*
X135186666Y-141961700D01*
X135172901Y-141941099D01*
X135152300Y-141927334D01*
X135128000Y-141922500D01*
X134493000Y-141922500D01*
X134468700Y-141927334D01*
X134448099Y-141941099D01*
X134434334Y-141961700D01*
X134429500Y-141986000D01*
X134429500Y-144716500D01*
X127063500Y-144716500D01*
X127063500Y-138817917D01*
X128222272Y-138817917D01*
X128422427Y-139302329D01*
X128792722Y-139673271D01*
X129276783Y-139874270D01*
X129800917Y-139874728D01*
X130285329Y-139674573D01*
X130656271Y-139304278D01*
X130676525Y-139255500D01*
X130843316Y-139255500D01*
X130884217Y-139354488D01*
X131280426Y-139751389D01*
X131798363Y-139966455D01*
X132359177Y-139966945D01*
X132877488Y-139752783D01*
X133274389Y-139356574D01*
X133489455Y-138838637D01*
X133489945Y-138277823D01*
X133275783Y-137759512D01*
X132879574Y-137362611D01*
X132361637Y-137147545D01*
X131800823Y-137147055D01*
X131282512Y-137361217D01*
X130885611Y-137757426D01*
X130843641Y-137858500D01*
X130676922Y-137858500D01*
X130657573Y-137811671D01*
X130357494Y-137511068D01*
X130446719Y-137282930D01*
X129540000Y-136376210D01*
X128633281Y-137282930D01*
X128722618Y-137511354D01*
X128423729Y-137809722D01*
X128222730Y-138293783D01*
X128222272Y-138817917D01*
X127063500Y-138817917D01*
X127063500Y-135864079D01*
X127814988Y-135864079D01*
X127887776Y-136535853D01*
X128004817Y-136818414D01*
X128274070Y-136923719D01*
X129180790Y-136017000D01*
X129899210Y-136017000D01*
X130805930Y-136923719D01*
X130851235Y-136906000D01*
X134429500Y-136906000D01*
X134429500Y-141351000D01*
X134434334Y-141375300D01*
X134448099Y-141395901D01*
X134468700Y-141409666D01*
X134493000Y-141414500D01*
X135128000Y-141414500D01*
X135152300Y-141409666D01*
X135172901Y-141395901D01*
X135186666Y-141375300D01*
X135191500Y-141351000D01*
X135191500Y-138874500D01*
X141732000Y-138874500D01*
X141756300Y-138869666D01*
X141776901Y-138855901D01*
X141790666Y-138835300D01*
X141795500Y-138811000D01*
X141795500Y-138176000D01*
X141790666Y-138151700D01*
X141776901Y-138131099D01*
X141756300Y-138117334D01*
X141732000Y-138112500D01*
X135191500Y-138112500D01*
X135191500Y-136906000D01*
X135186666Y-136881700D01*
X135172901Y-136861099D01*
X135152300Y-136847334D01*
X135128000Y-136842500D01*
X134493000Y-136842500D01*
X134468700Y-136847334D01*
X134448099Y-136861099D01*
X134434334Y-136881700D01*
X134429500Y-136906000D01*
X130851235Y-136906000D01*
X131075183Y-136818414D01*
X131265012Y-136169921D01*
X131192224Y-135498147D01*
X131075183Y-135215586D01*
X130805930Y-135110281D01*
X129899210Y-136017000D01*
X129180790Y-136017000D01*
X128274070Y-135110281D01*
X128004817Y-135215586D01*
X127814988Y-135864079D01*
X127063500Y-135864079D01*
X127063500Y-124269500D01*
X130175000Y-124269500D01*
X130199300Y-124264666D01*
X130219901Y-124250901D01*
X130233666Y-124230300D01*
X130238500Y-124206000D01*
X130238500Y-123571000D01*
X130233666Y-123546700D01*
X130219901Y-123526099D01*
X130199300Y-123512334D01*
X130175000Y-123507500D01*
X127063500Y-123507500D01*
X127063500Y-119767917D01*
X128222272Y-119767917D01*
X128422427Y-120252329D01*
X128792722Y-120623271D01*
X129163257Y-120777130D01*
X128794671Y-120929427D01*
X128423729Y-121299722D01*
X128222730Y-121783783D01*
X128222272Y-122307917D01*
X128422427Y-122792329D01*
X128792722Y-123163271D01*
X129276783Y-123364270D01*
X129800917Y-123364728D01*
X130285329Y-123164573D01*
X130656271Y-122794278D01*
X130781995Y-122491500D01*
X131898171Y-122491500D01*
X132082398Y-122676049D01*
X132327644Y-122777884D01*
X132593191Y-122778116D01*
X132838614Y-122676709D01*
X133026549Y-122489102D01*
X133128384Y-122243856D01*
X133128616Y-121978309D01*
X133027209Y-121732886D01*
X132839602Y-121544951D01*
X132594356Y-121443116D01*
X132328809Y-121442884D01*
X132083386Y-121544291D01*
X132025075Y-121602500D01*
X130781873Y-121602500D01*
X130657573Y-121301671D01*
X130287278Y-120930729D01*
X129916743Y-120776870D01*
X130285329Y-120624573D01*
X130656271Y-120254278D01*
X130676525Y-120205500D01*
X133223000Y-120205500D01*
X133490305Y-120152330D01*
X133716914Y-120000914D01*
X134429500Y-119288328D01*
X134429500Y-123507500D01*
X130810000Y-123507500D01*
X130785700Y-123512334D01*
X130765099Y-123526099D01*
X130751334Y-123546700D01*
X130746500Y-123571000D01*
X130746500Y-124206000D01*
X130751334Y-124230300D01*
X130765099Y-124250901D01*
X130785700Y-124264666D01*
X130810000Y-124269500D01*
X134429500Y-124269500D01*
X134429500Y-130492500D01*
X130781873Y-130492500D01*
X130657573Y-130191671D01*
X130287278Y-129820729D01*
X129916743Y-129666870D01*
X130285329Y-129514573D01*
X130656271Y-129144278D01*
X130676525Y-129095500D01*
X130970316Y-129095500D01*
X131011217Y-129194488D01*
X131407426Y-129591389D01*
X131925363Y-129806455D01*
X132486177Y-129806945D01*
X133004488Y-129592783D01*
X133401389Y-129196574D01*
X133616455Y-128678637D01*
X133616945Y-128117823D01*
X133402783Y-127599512D01*
X133006574Y-127202611D01*
X132488637Y-126987545D01*
X131927823Y-126987055D01*
X131409512Y-127201217D01*
X131012611Y-127597426D01*
X130970641Y-127698500D01*
X130676922Y-127698500D01*
X130657573Y-127651671D01*
X130287278Y-127280729D01*
X129916743Y-127126870D01*
X130285329Y-126974573D01*
X130656271Y-126604278D01*
X130857270Y-126120217D01*
X130857728Y-125596083D01*
X130657573Y-125111671D01*
X130287278Y-124740729D01*
X129803217Y-124539730D01*
X129279083Y-124539272D01*
X128794671Y-124739427D01*
X128423729Y-125109722D01*
X128222730Y-125593783D01*
X128222272Y-126117917D01*
X128422427Y-126602329D01*
X128792722Y-126973271D01*
X129163257Y-127127130D01*
X128794671Y-127279427D01*
X128423729Y-127649722D01*
X128222730Y-128133783D01*
X128222272Y-128657917D01*
X128422427Y-129142329D01*
X128792722Y-129513271D01*
X129163257Y-129667130D01*
X128794671Y-129819427D01*
X128423729Y-130189722D01*
X128222730Y-130673783D01*
X128222272Y-131197917D01*
X128422427Y-131682329D01*
X128792722Y-132053271D01*
X129163257Y-132207130D01*
X128794671Y-132359427D01*
X128423729Y-132729722D01*
X128222730Y-133213783D01*
X128222272Y-133737917D01*
X128422427Y-134222329D01*
X128722506Y-134522932D01*
X128633281Y-134751070D01*
X129540000Y-135657790D01*
X130446719Y-134751070D01*
X130357382Y-134522646D01*
X130656271Y-134224278D01*
X130781995Y-133921500D01*
X133096000Y-133921500D01*
X133266103Y-133887664D01*
X133410309Y-133791309D01*
X134429500Y-132772118D01*
X134429500Y-136271000D01*
X134434334Y-136295300D01*
X134448099Y-136315901D01*
X134468700Y-136329666D01*
X134493000Y-136334500D01*
X135128000Y-136334500D01*
X135152300Y-136329666D01*
X135172901Y-136315901D01*
X135186666Y-136295300D01*
X135191500Y-136271000D01*
X135191500Y-136222625D01*
X137902500Y-136222625D01*
X137902500Y-136682941D01*
X138008840Y-136939669D01*
X138205332Y-137136160D01*
X138462060Y-137242500D01*
X138822375Y-137242500D01*
X138997000Y-137067875D01*
X138997000Y-136048000D01*
X139505000Y-136048000D01*
X139505000Y-137067875D01*
X139679625Y-137242500D01*
X140039940Y-137242500D01*
X140296668Y-137136160D01*
X140493160Y-136939669D01*
X140599500Y-136682941D01*
X140599500Y-136222625D01*
X140424875Y-136048000D01*
X139505000Y-136048000D01*
X138997000Y-136048000D01*
X138077125Y-136048000D01*
X137902500Y-136222625D01*
X135191500Y-136222625D01*
X135191500Y-134905059D01*
X137902500Y-134905059D01*
X137902500Y-135365375D01*
X138077125Y-135540000D01*
X138997000Y-135540000D01*
X138997000Y-134520125D01*
X139505000Y-134520125D01*
X139505000Y-135540000D01*
X140424875Y-135540000D01*
X140599500Y-135365375D01*
X140599500Y-134905059D01*
X140493160Y-134648331D01*
X140296668Y-134451840D01*
X140039940Y-134345500D01*
X139679625Y-134345500D01*
X139505000Y-134520125D01*
X138997000Y-134520125D01*
X138822375Y-134345500D01*
X138462060Y-134345500D01*
X138205332Y-134451840D01*
X138008840Y-134648331D01*
X137902500Y-134905059D01*
X135191500Y-134905059D01*
X135191500Y-132010118D01*
X135652971Y-131548647D01*
X135496545Y-131925363D01*
X135496055Y-132486177D01*
X135710217Y-133004488D01*
X136106426Y-133401389D01*
X136624363Y-133616455D01*
X137185177Y-133616945D01*
X137703488Y-133402783D01*
X138100389Y-133006574D01*
X138106233Y-132992500D01*
X138439924Y-132992500D01*
X138645520Y-133198455D01*
X139037729Y-133361315D01*
X139462407Y-133361685D01*
X139854900Y-133199511D01*
X140062273Y-132992500D01*
X140513672Y-132992500D01*
X145108469Y-137587297D01*
X145108341Y-137733701D01*
X145247728Y-138071043D01*
X145289113Y-138112500D01*
X142367000Y-138112500D01*
X142342700Y-138117334D01*
X142322099Y-138131099D01*
X142308334Y-138151700D01*
X142303500Y-138176000D01*
X142303500Y-138811000D01*
X142308334Y-138835300D01*
X142322099Y-138855901D01*
X142342700Y-138869666D01*
X142367000Y-138874500D01*
X149137500Y-138874500D01*
X149137500Y-139412882D01*
X148786882Y-139763500D01*
X143764000Y-139763500D01*
X143593897Y-139797336D01*
X143478757Y-139874270D01*
X143449691Y-139893691D01*
X142687691Y-140655691D01*
X142591336Y-140799897D01*
X142585864Y-140827407D01*
X142256671Y-140963427D01*
X141885729Y-141333722D01*
X141731870Y-141704257D01*
X141579573Y-141335671D01*
X141209278Y-140964729D01*
X140725217Y-140763730D01*
X140201083Y-140763272D01*
X139716671Y-140963427D01*
X139345729Y-141333722D01*
X139325475Y-141382500D01*
X138562937Y-141382500D01*
X138482783Y-141188512D01*
X138086574Y-140791611D01*
X137568637Y-140576545D01*
X137007823Y-140576055D01*
X136489512Y-140790217D01*
X136092611Y-141186426D01*
X135877545Y-141704363D01*
X135877055Y-142265177D01*
X136091217Y-142783488D01*
X136487426Y-143180389D01*
X137005363Y-143395455D01*
X137566177Y-143395945D01*
X138084488Y-143181783D01*
X138481389Y-142785574D01*
X138483911Y-142779500D01*
X139325078Y-142779500D01*
X139344427Y-142826329D01*
X139714722Y-143197271D01*
X140198783Y-143398270D01*
X140722917Y-143398728D01*
X141207329Y-143198573D01*
X141578271Y-142828278D01*
X141732130Y-142457743D01*
X141884427Y-142826329D01*
X142254722Y-143197271D01*
X142738783Y-143398270D01*
X143262917Y-143398728D01*
X143747329Y-143198573D01*
X144118271Y-142828278D01*
X144272130Y-142457743D01*
X144424427Y-142826329D01*
X144794722Y-143197271D01*
X145278783Y-143398270D01*
X145802917Y-143398728D01*
X145928277Y-143346930D01*
X147175281Y-143346930D01*
X147280586Y-143616183D01*
X147929079Y-143806012D01*
X148600853Y-143733224D01*
X148883414Y-143616183D01*
X148988719Y-143346930D01*
X148082000Y-142440210D01*
X147175281Y-143346930D01*
X145928277Y-143346930D01*
X146287329Y-143198573D01*
X146587932Y-142898494D01*
X146816070Y-142987719D01*
X147722790Y-142081000D01*
X148441210Y-142081000D01*
X149347930Y-142987719D01*
X149617183Y-142882414D01*
X149807012Y-142233921D01*
X149734224Y-141562147D01*
X149617183Y-141279586D01*
X149347930Y-141174281D01*
X148441210Y-142081000D01*
X147722790Y-142081000D01*
X146816070Y-141174281D01*
X146587646Y-141263618D01*
X146289278Y-140964729D01*
X145805217Y-140763730D01*
X145281083Y-140763272D01*
X144796671Y-140963427D01*
X144425729Y-141333722D01*
X144271870Y-141704257D01*
X144119573Y-141335671D01*
X143749278Y-140964729D01*
X143669158Y-140931460D01*
X143948118Y-140652500D01*
X147238862Y-140652500D01*
X147175281Y-140815070D01*
X148082000Y-141721790D01*
X148988719Y-140815070D01*
X148925138Y-140652500D01*
X148971000Y-140652500D01*
X149141103Y-140618664D01*
X149285309Y-140522309D01*
X149896309Y-139911309D01*
X149992664Y-139767103D01*
X150026500Y-139597000D01*
X150026500Y-138874500D01*
X150431500Y-138874500D01*
X150431500Y-141351000D01*
X150436334Y-141375300D01*
X150450099Y-141395901D01*
X150470700Y-141409666D01*
X150495000Y-141414500D01*
X151130000Y-141414500D01*
X151154300Y-141409666D01*
X151174901Y-141395901D01*
X151188666Y-141375300D01*
X151193500Y-141351000D01*
X151193500Y-138176000D01*
X151188666Y-138151700D01*
X151174901Y-138131099D01*
X151154300Y-138117334D01*
X151130000Y-138112500D01*
X150319196Y-138112500D01*
X150359365Y-138072401D01*
X150390882Y-137996500D01*
X155183000Y-137996500D01*
X155353103Y-137962664D01*
X155497309Y-137866309D01*
X171383309Y-121980309D01*
X171479665Y-121836102D01*
X171513500Y-121666000D01*
X171513500Y-84836000D01*
X171479664Y-84665897D01*
X171383309Y-84521691D01*
X169704467Y-82842849D01*
X169704616Y-82671809D01*
X169603209Y-82426386D01*
X169415602Y-82238451D01*
X169170356Y-82136616D01*
X168904809Y-82136384D01*
X168659386Y-82237791D01*
X168471451Y-82425398D01*
X168369616Y-82670644D01*
X168369384Y-82936191D01*
X168470791Y-83181614D01*
X168658398Y-83369549D01*
X168903644Y-83471384D01*
X169075917Y-83471535D01*
X170624500Y-85020118D01*
X170624500Y-121481882D01*
X154998882Y-137107500D01*
X150391073Y-137107500D01*
X150360272Y-137032957D01*
X150102401Y-136774635D01*
X149765303Y-136634660D01*
X149400299Y-136634341D01*
X149062957Y-136773728D01*
X148804635Y-137031599D01*
X148664660Y-137368697D01*
X148664341Y-137733701D01*
X148803728Y-138071043D01*
X148845113Y-138112500D01*
X148145500Y-138112500D01*
X148145500Y-129057177D01*
X148196055Y-129057177D01*
X148410217Y-129575488D01*
X148806426Y-129972389D01*
X148883500Y-130004393D01*
X148883500Y-130452872D01*
X148804635Y-130531599D01*
X148664660Y-130868697D01*
X148664341Y-131233701D01*
X148803728Y-131571043D01*
X149061599Y-131829365D01*
X149398697Y-131969340D01*
X149763701Y-131969659D01*
X150101043Y-131830272D01*
X150359365Y-131572401D01*
X150499340Y-131235303D01*
X150499659Y-130870299D01*
X150360272Y-130532957D01*
X150280500Y-130453045D01*
X150280500Y-130024601D01*
X150403488Y-129973783D01*
X150800389Y-129577574D01*
X151015455Y-129059637D01*
X151015945Y-128498823D01*
X150801783Y-127980512D01*
X150405574Y-127583611D01*
X149887637Y-127368545D01*
X149326823Y-127368055D01*
X148808512Y-127582217D01*
X148411611Y-127978426D01*
X148196545Y-128496363D01*
X148196055Y-129057177D01*
X148145500Y-129057177D01*
X148145500Y-128905000D01*
X148140666Y-128880700D01*
X148126901Y-128860099D01*
X148106300Y-128846334D01*
X148082000Y-128841500D01*
X145288000Y-128841500D01*
X145263700Y-128846334D01*
X145243099Y-128860099D01*
X145229334Y-128880700D01*
X145224500Y-128905000D01*
X145224500Y-129540000D01*
X145229334Y-129564300D01*
X145243099Y-129584901D01*
X145263700Y-129598666D01*
X145288000Y-129603500D01*
X147383500Y-129603500D01*
X147383500Y-138112500D01*
X146763196Y-138112500D01*
X146803365Y-138072401D01*
X146943340Y-137735303D01*
X146943659Y-137370299D01*
X146804272Y-137032957D01*
X146546401Y-136774635D01*
X146209303Y-136634660D01*
X146131420Y-136634592D01*
X141296914Y-131800086D01*
X141070305Y-131648670D01*
X140803000Y-131595500D01*
X140062076Y-131595500D01*
X139856480Y-131389545D01*
X139744814Y-131343177D01*
X142481055Y-131343177D01*
X142695217Y-131861488D01*
X143091426Y-132258389D01*
X143609363Y-132473455D01*
X144170177Y-132473945D01*
X144688488Y-132259783D01*
X145085389Y-131863574D01*
X145132341Y-131750500D01*
X145426872Y-131750500D01*
X145505599Y-131829365D01*
X145842697Y-131969340D01*
X146207701Y-131969659D01*
X146545043Y-131830272D01*
X146803365Y-131572401D01*
X146943340Y-131235303D01*
X146943659Y-130870299D01*
X146804272Y-130532957D01*
X146546401Y-130274635D01*
X146209303Y-130134660D01*
X145844299Y-130134341D01*
X145506957Y-130273728D01*
X145427045Y-130353500D01*
X145122726Y-130353500D01*
X145086783Y-130266512D01*
X144690574Y-129869611D01*
X144172637Y-129654545D01*
X143611823Y-129654055D01*
X143093512Y-129868217D01*
X142696611Y-130264426D01*
X142481545Y-130782363D01*
X142481055Y-131343177D01*
X139744814Y-131343177D01*
X139464271Y-131226685D01*
X139039593Y-131226315D01*
X138647100Y-131388489D01*
X138439727Y-131595500D01*
X138178632Y-131595500D01*
X138101783Y-131409512D01*
X137705574Y-131012611D01*
X137187637Y-130797545D01*
X136626823Y-130797055D01*
X136248062Y-130953556D01*
X136585309Y-130616309D01*
X136624212Y-130558086D01*
X136681664Y-130472103D01*
X136715500Y-130302000D01*
X136715500Y-122936000D01*
X138366500Y-122936000D01*
X138366500Y-129540000D01*
X138371334Y-129564300D01*
X138385099Y-129584901D01*
X138405700Y-129598666D01*
X138430000Y-129603500D01*
X144653000Y-129603500D01*
X144677300Y-129598666D01*
X144697901Y-129584901D01*
X144711666Y-129564300D01*
X144716500Y-129540000D01*
X144716500Y-128905000D01*
X144711666Y-128880700D01*
X144697901Y-128860099D01*
X144677300Y-128846334D01*
X144653000Y-128841500D01*
X139128500Y-128841500D01*
X139128500Y-126766968D01*
X140100242Y-126766968D01*
X140167773Y-127005423D01*
X140706436Y-127144621D01*
X141257365Y-127067085D01*
X141406227Y-127005423D01*
X141473758Y-126766968D01*
X145100242Y-126766968D01*
X145167773Y-127005423D01*
X145706436Y-127144621D01*
X146257365Y-127067085D01*
X146406227Y-127005423D01*
X146473758Y-126766968D01*
X145787000Y-126080210D01*
X145100242Y-126766968D01*
X141473758Y-126766968D01*
X140787000Y-126080210D01*
X140100242Y-126766968D01*
X139128500Y-126766968D01*
X139128500Y-125640436D01*
X139363379Y-125640436D01*
X139440915Y-126191365D01*
X139502577Y-126340227D01*
X139741032Y-126407758D01*
X140427790Y-125721000D01*
X141146210Y-125721000D01*
X141832968Y-126407758D01*
X142071423Y-126340227D01*
X142210621Y-125801564D01*
X142187945Y-125640436D01*
X144363379Y-125640436D01*
X144440915Y-126191365D01*
X144502577Y-126340227D01*
X144741032Y-126407758D01*
X145427790Y-125721000D01*
X146146210Y-125721000D01*
X146832968Y-126407758D01*
X147071423Y-126340227D01*
X147210621Y-125801564D01*
X147133085Y-125250635D01*
X147071423Y-125101773D01*
X146832968Y-125034242D01*
X146146210Y-125721000D01*
X145427790Y-125721000D01*
X144741032Y-125034242D01*
X144502577Y-125101773D01*
X144363379Y-125640436D01*
X142187945Y-125640436D01*
X142133085Y-125250635D01*
X142071423Y-125101773D01*
X141832968Y-125034242D01*
X141146210Y-125721000D01*
X140427790Y-125721000D01*
X139741032Y-125034242D01*
X139502577Y-125101773D01*
X139363379Y-125640436D01*
X139128500Y-125640436D01*
X139128500Y-124675032D01*
X140100242Y-124675032D01*
X140787000Y-125361790D01*
X141473758Y-124675032D01*
X145100242Y-124675032D01*
X145787000Y-125361790D01*
X146473758Y-124675032D01*
X146406227Y-124436577D01*
X145867564Y-124297379D01*
X145316635Y-124374915D01*
X145167773Y-124436577D01*
X145100242Y-124675032D01*
X141473758Y-124675032D01*
X141406227Y-124436577D01*
X140867564Y-124297379D01*
X140316635Y-124374915D01*
X140167773Y-124436577D01*
X140100242Y-124675032D01*
X139128500Y-124675032D01*
X139128500Y-122936000D01*
X139123666Y-122911700D01*
X139109901Y-122891099D01*
X139089300Y-122877334D01*
X139065000Y-122872500D01*
X138430000Y-122872500D01*
X138405700Y-122877334D01*
X138385099Y-122891099D01*
X138371334Y-122911700D01*
X138366500Y-122936000D01*
X136715500Y-122936000D01*
X136715500Y-119310118D01*
X138360118Y-117665500D01*
X138366500Y-117665500D01*
X138366500Y-122301000D01*
X138371334Y-122325300D01*
X138385099Y-122345901D01*
X138405700Y-122359666D01*
X138430000Y-122364500D01*
X139065000Y-122364500D01*
X139089300Y-122359666D01*
X139109901Y-122345901D01*
X139123666Y-122325300D01*
X139128500Y-122301000D01*
X139128500Y-117665500D01*
X141740560Y-117665500D01*
X141861398Y-117786549D01*
X142106644Y-117888384D01*
X142372191Y-117888616D01*
X142617614Y-117787209D01*
X142805549Y-117599602D01*
X142907384Y-117354356D01*
X142907616Y-117088809D01*
X142806209Y-116843386D01*
X142618602Y-116655451D01*
X142451237Y-116585955D01*
X142617614Y-116517209D01*
X142805549Y-116329602D01*
X142907384Y-116084356D01*
X142907616Y-115818809D01*
X142806209Y-115573386D01*
X142618602Y-115385451D01*
X142373356Y-115283616D01*
X142107809Y-115283384D01*
X141862386Y-115384791D01*
X141740464Y-115506500D01*
X139128500Y-115506500D01*
X139128500Y-114871500D01*
X141224000Y-114871500D01*
X141491305Y-114818330D01*
X141717914Y-114666914D01*
X143037186Y-113347642D01*
X143038482Y-113347643D01*
X143341998Y-113222233D01*
X143574417Y-112990219D01*
X143700357Y-112686923D01*
X143700643Y-112358518D01*
X143575233Y-112055002D01*
X143407434Y-111886911D01*
X143574417Y-111720219D01*
X143584266Y-111696500D01*
X144780000Y-111696500D01*
X144950103Y-111662664D01*
X145094309Y-111566309D01*
X146766118Y-109894500D01*
X146880927Y-109894500D01*
X146911728Y-109969043D01*
X147169599Y-110227365D01*
X147506697Y-110367340D01*
X147871701Y-110367659D01*
X148209043Y-110228272D01*
X148467365Y-109970401D01*
X148607340Y-109633303D01*
X148607659Y-109268299D01*
X148468272Y-108930957D01*
X148210401Y-108672635D01*
X147873303Y-108532660D01*
X147508299Y-108532341D01*
X147170957Y-108671728D01*
X146912635Y-108929599D01*
X146881118Y-109005500D01*
X146582000Y-109005500D01*
X146411897Y-109039336D01*
X146267691Y-109135691D01*
X144595882Y-110807500D01*
X143584529Y-110807500D01*
X143575233Y-110785002D01*
X143407434Y-110616911D01*
X143574417Y-110450219D01*
X143700357Y-110146923D01*
X143700643Y-109818518D01*
X143575233Y-109515002D01*
X143343219Y-109282583D01*
X143039923Y-109156643D01*
X142711518Y-109156357D01*
X142408002Y-109281767D01*
X142406266Y-109283500D01*
X141825684Y-109283500D01*
X141784783Y-109184512D01*
X141388574Y-108787611D01*
X140870637Y-108572545D01*
X140309823Y-108572055D01*
X139791512Y-108786217D01*
X139394611Y-109182426D01*
X139179545Y-109700363D01*
X139179055Y-110261177D01*
X139393217Y-110779488D01*
X139789426Y-111176389D01*
X140307363Y-111391455D01*
X140868177Y-111391945D01*
X141386488Y-111177783D01*
X141783389Y-110781574D01*
X141825359Y-110680500D01*
X142279044Y-110680500D01*
X142175583Y-110783781D01*
X142049643Y-111087077D01*
X142049357Y-111415482D01*
X142174767Y-111718998D01*
X142342566Y-111887089D01*
X142175583Y-112053781D01*
X142049643Y-112357077D01*
X142049641Y-112359531D01*
X140934672Y-113474500D01*
X139128500Y-113474500D01*
X139128500Y-108839000D01*
X139123666Y-108814700D01*
X139109901Y-108794099D01*
X139089300Y-108780334D01*
X139065000Y-108775500D01*
X138430000Y-108775500D01*
X138405700Y-108780334D01*
X138385099Y-108794099D01*
X138371334Y-108814700D01*
X138366500Y-108839000D01*
X138366500Y-113512393D01*
X138289695Y-113527670D01*
X138063086Y-113679086D01*
X135191500Y-116550672D01*
X135191500Y-115951000D01*
X135186666Y-115926700D01*
X135172901Y-115906099D01*
X135152300Y-115892334D01*
X135128000Y-115887500D01*
X134493000Y-115887500D01*
X134468700Y-115892334D01*
X134448099Y-115906099D01*
X134434334Y-115926700D01*
X134429500Y-115951000D01*
X134429500Y-117312672D01*
X132933672Y-118808500D01*
X130676922Y-118808500D01*
X130657573Y-118761671D01*
X130357494Y-118461068D01*
X130446719Y-118232930D01*
X129540000Y-117326210D01*
X128633281Y-118232930D01*
X128722618Y-118461354D01*
X128423729Y-118759722D01*
X128222730Y-119243783D01*
X128222272Y-119767917D01*
X127063500Y-119767917D01*
X127063500Y-116814079D01*
X127814988Y-116814079D01*
X127887776Y-117485853D01*
X128004817Y-117768414D01*
X128274070Y-117873719D01*
X129180790Y-116967000D01*
X129899210Y-116967000D01*
X130805930Y-117873719D01*
X131075183Y-117768414D01*
X131265012Y-117119921D01*
X131192224Y-116448147D01*
X131075183Y-116165586D01*
X130805930Y-116060281D01*
X129899210Y-116967000D01*
X129180790Y-116967000D01*
X128274070Y-116060281D01*
X128004817Y-116165586D01*
X127814988Y-116814079D01*
X127063500Y-116814079D01*
X127063500Y-115379500D01*
X127381000Y-115379500D01*
X127405300Y-115374666D01*
X127425901Y-115360901D01*
X127439666Y-115340300D01*
X127444500Y-115316000D01*
X127444500Y-114554000D01*
X127952500Y-114554000D01*
X127952500Y-115316000D01*
X127957334Y-115340300D01*
X127971099Y-115360901D01*
X127991700Y-115374666D01*
X128016000Y-115379500D01*
X128864890Y-115379500D01*
X128738586Y-115431817D01*
X128633281Y-115701070D01*
X129540000Y-116607790D01*
X130446719Y-115701070D01*
X130341414Y-115431817D01*
X130162689Y-115379500D01*
X133419882Y-115379500D01*
X132563459Y-116235923D01*
X132519309Y-116235884D01*
X132273886Y-116337291D01*
X132085951Y-116524898D01*
X131984116Y-116770144D01*
X131983884Y-117035691D01*
X132085291Y-117281114D01*
X132272898Y-117469049D01*
X132518144Y-117570884D01*
X132783691Y-117571116D01*
X133029114Y-117469709D01*
X133217049Y-117282102D01*
X133318884Y-117036856D01*
X133319116Y-116771309D01*
X133309231Y-116747387D01*
X134677118Y-115379500D01*
X135128000Y-115379500D01*
X135152300Y-115374666D01*
X135172901Y-115360901D01*
X135186666Y-115340300D01*
X135191500Y-115316000D01*
X135191500Y-114554000D01*
X135186666Y-114529700D01*
X135172901Y-114509099D01*
X135152300Y-114495334D01*
X135128000Y-114490500D01*
X134937500Y-114490500D01*
X134937500Y-112386440D01*
X135058549Y-112265602D01*
X135160384Y-112020356D01*
X135160616Y-111754809D01*
X135059209Y-111509386D01*
X134871602Y-111321451D01*
X134626356Y-111219616D01*
X134360809Y-111219384D01*
X134115386Y-111320791D01*
X133927451Y-111508398D01*
X133825616Y-111753644D01*
X133825384Y-112019191D01*
X133926791Y-112264614D01*
X134048500Y-112386536D01*
X134048500Y-114490500D01*
X128016000Y-114490500D01*
X127991700Y-114495334D01*
X127971099Y-114509099D01*
X127957334Y-114529700D01*
X127952500Y-114554000D01*
X127444500Y-114554000D01*
X127439666Y-114529700D01*
X127425901Y-114509099D01*
X127405300Y-114495334D01*
X127381000Y-114490500D01*
X127063500Y-114490500D01*
X127063500Y-110750917D01*
X128222272Y-110750917D01*
X128422427Y-111235329D01*
X128792722Y-111606271D01*
X129163257Y-111760130D01*
X128794671Y-111912427D01*
X128423729Y-112282722D01*
X128222730Y-112766783D01*
X128222272Y-113290917D01*
X128422427Y-113775329D01*
X128792722Y-114146271D01*
X129276783Y-114347270D01*
X129800917Y-114347728D01*
X130285329Y-114147573D01*
X130656271Y-113777278D01*
X130676525Y-113728500D01*
X131097316Y-113728500D01*
X131138217Y-113827488D01*
X131534426Y-114224389D01*
X132052363Y-114439455D01*
X132613177Y-114439945D01*
X133131488Y-114225783D01*
X133528389Y-113829574D01*
X133743455Y-113311637D01*
X133743945Y-112750823D01*
X133529783Y-112232512D01*
X133133574Y-111835611D01*
X132615637Y-111620545D01*
X132054823Y-111620055D01*
X131536512Y-111834217D01*
X131139611Y-112230426D01*
X131097641Y-112331500D01*
X130676922Y-112331500D01*
X130657573Y-112284671D01*
X130287278Y-111913729D01*
X129916743Y-111759870D01*
X130285329Y-111607573D01*
X130656271Y-111237278D01*
X130676525Y-111188500D01*
X135669316Y-111188500D01*
X135710217Y-111287488D01*
X136106426Y-111684389D01*
X136624363Y-111899455D01*
X137185177Y-111899945D01*
X137703488Y-111685783D01*
X138100389Y-111289574D01*
X138315455Y-110771637D01*
X138315945Y-110210823D01*
X138101783Y-109692512D01*
X137705574Y-109295611D01*
X137187637Y-109080545D01*
X136626823Y-109080055D01*
X136108512Y-109294217D01*
X135711611Y-109690426D01*
X135669641Y-109791500D01*
X130676922Y-109791500D01*
X130657573Y-109744671D01*
X130357494Y-109444068D01*
X130446719Y-109215930D01*
X129540000Y-108309210D01*
X128633281Y-109215930D01*
X128722618Y-109444354D01*
X128423729Y-109742722D01*
X128222730Y-110226783D01*
X128222272Y-110750917D01*
X127063500Y-110750917D01*
X127063500Y-107797079D01*
X127814988Y-107797079D01*
X127887776Y-108468853D01*
X128004817Y-108751414D01*
X128274070Y-108856719D01*
X129180790Y-107950000D01*
X129899210Y-107950000D01*
X130805930Y-108856719D01*
X131075183Y-108751414D01*
X131265012Y-108102921D01*
X131192224Y-107431147D01*
X131075183Y-107148586D01*
X130805930Y-107043281D01*
X129899210Y-107950000D01*
X129180790Y-107950000D01*
X128274070Y-107043281D01*
X128004817Y-107148586D01*
X127814988Y-107797079D01*
X127063500Y-107797079D01*
X127063500Y-106675930D01*
X128633281Y-106675930D01*
X128634873Y-106680000D01*
X128633281Y-106684070D01*
X128638509Y-106689298D01*
X128738586Y-106945183D01*
X128958878Y-107009668D01*
X129540000Y-107590790D01*
X130075433Y-107055356D01*
X130341414Y-106945183D01*
X130441491Y-106689298D01*
X130446719Y-106684070D01*
X130445127Y-106680000D01*
X130446719Y-106675930D01*
X130441491Y-106670702D01*
X130341414Y-106414817D01*
X130121122Y-106350332D01*
X129540000Y-105769210D01*
X129004567Y-106304644D01*
X128738586Y-106414817D01*
X128638509Y-106670702D01*
X128633281Y-106675930D01*
X127063500Y-106675930D01*
X127063500Y-105257079D01*
X127814988Y-105257079D01*
X127887776Y-105928853D01*
X128004817Y-106211414D01*
X128274070Y-106316719D01*
X129180790Y-105410000D01*
X129899210Y-105410000D01*
X130805930Y-106316719D01*
X131075183Y-106211414D01*
X131265012Y-105562921D01*
X131192224Y-104891147D01*
X131075183Y-104608586D01*
X130805930Y-104503281D01*
X129899210Y-105410000D01*
X129180790Y-105410000D01*
X128274070Y-104503281D01*
X128004817Y-104608586D01*
X127814988Y-105257079D01*
X127063500Y-105257079D01*
X127063500Y-101282500D01*
X127762000Y-101282500D01*
X127786300Y-101277666D01*
X127806901Y-101263901D01*
X127820666Y-101243300D01*
X127825500Y-101219000D01*
X127825500Y-100584000D01*
X127820666Y-100559700D01*
X127806901Y-100539099D01*
X127786300Y-100525334D01*
X127762000Y-100520500D01*
X127063500Y-100520500D01*
X127063500Y-96367079D01*
X127814988Y-96367079D01*
X127887776Y-97038853D01*
X128004817Y-97321414D01*
X128274070Y-97426719D01*
X129180790Y-96520000D01*
X129899210Y-96520000D01*
X130805930Y-97426719D01*
X131075183Y-97321414D01*
X131265012Y-96672921D01*
X131192224Y-96001147D01*
X131075183Y-95718586D01*
X130805930Y-95613281D01*
X129899210Y-96520000D01*
X129180790Y-96520000D01*
X128274070Y-95613281D01*
X128004817Y-95718586D01*
X127814988Y-96367079D01*
X127063500Y-96367079D01*
X127063500Y-94240917D01*
X128222272Y-94240917D01*
X128422427Y-94725329D01*
X128722506Y-95025932D01*
X128633281Y-95254070D01*
X129540000Y-96160790D01*
X130446719Y-95254070D01*
X130357382Y-95025646D01*
X130656271Y-94727278D01*
X130676525Y-94678500D01*
X130970316Y-94678500D01*
X131011217Y-94777488D01*
X131407426Y-95174389D01*
X131925363Y-95389455D01*
X132486177Y-95389945D01*
X133004488Y-95175783D01*
X133401389Y-94779574D01*
X133616455Y-94261637D01*
X133616945Y-93700823D01*
X133402783Y-93182512D01*
X133006574Y-92785611D01*
X132488637Y-92570545D01*
X131927823Y-92570055D01*
X131409512Y-92784217D01*
X131012611Y-93180426D01*
X130970641Y-93281500D01*
X130676922Y-93281500D01*
X130657573Y-93234671D01*
X130287278Y-92863729D01*
X129803217Y-92662730D01*
X129279083Y-92662272D01*
X128794671Y-92862427D01*
X128423729Y-93232722D01*
X128222730Y-93716783D01*
X128222272Y-94240917D01*
X127063500Y-94240917D01*
X127063500Y-91694000D01*
X133794500Y-91694000D01*
X133794500Y-97536000D01*
X133799334Y-97560300D01*
X133813099Y-97580901D01*
X133833700Y-97594666D01*
X133858000Y-97599500D01*
X134493000Y-97599500D01*
X134517300Y-97594666D01*
X134537901Y-97580901D01*
X134551666Y-97560300D01*
X134556500Y-97536000D01*
X134556500Y-91694000D01*
X134551666Y-91669700D01*
X134537901Y-91649099D01*
X134517300Y-91635334D01*
X134493000Y-91630500D01*
X133858000Y-91630500D01*
X133833700Y-91635334D01*
X133813099Y-91649099D01*
X133799334Y-91669700D01*
X133794500Y-91694000D01*
X127063500Y-91694000D01*
X127063500Y-88060917D01*
X128262272Y-88060917D01*
X128462427Y-88545329D01*
X128832722Y-88916271D01*
X128881500Y-88936525D01*
X128881500Y-89203078D01*
X128834671Y-89222427D01*
X128463729Y-89592722D01*
X128262730Y-90076783D01*
X128262272Y-90600917D01*
X128462427Y-91085329D01*
X128832722Y-91456271D01*
X129316783Y-91657270D01*
X129840917Y-91657728D01*
X130325329Y-91457573D01*
X130368898Y-91414079D01*
X136577988Y-91414079D01*
X136650776Y-92085853D01*
X136767817Y-92368414D01*
X137037070Y-92473719D01*
X137943790Y-91567000D01*
X138662210Y-91567000D01*
X139568930Y-92473719D01*
X139838183Y-92368414D01*
X140028012Y-91719921D01*
X139955224Y-91048147D01*
X139838183Y-90765586D01*
X139568930Y-90660281D01*
X138662210Y-91567000D01*
X137943790Y-91567000D01*
X137037070Y-90660281D01*
X136767817Y-90765586D01*
X136577988Y-91414079D01*
X130368898Y-91414079D01*
X130696271Y-91087278D01*
X130897270Y-90603217D01*
X130897728Y-90079083D01*
X130697573Y-89594671D01*
X130327278Y-89223729D01*
X130278500Y-89203475D01*
X130278500Y-88936922D01*
X130325329Y-88917573D01*
X130696271Y-88547278D01*
X130716525Y-88498500D01*
X130935608Y-88498500D01*
X131011217Y-88681488D01*
X131407426Y-89078389D01*
X131925363Y-89293455D01*
X132486177Y-89293945D01*
X133004488Y-89079783D01*
X133401389Y-88683574D01*
X133616455Y-88165637D01*
X133616945Y-87604823D01*
X133402783Y-87086512D01*
X133006574Y-86689611D01*
X132488637Y-86474545D01*
X131927823Y-86474055D01*
X131409512Y-86688217D01*
X131012611Y-87084426D01*
X131005521Y-87101500D01*
X130716922Y-87101500D01*
X130697573Y-87054671D01*
X130397494Y-86754068D01*
X130486719Y-86525930D01*
X129580000Y-85619210D01*
X128673281Y-86525930D01*
X128762618Y-86754354D01*
X128463729Y-87052722D01*
X128262730Y-87536783D01*
X128262272Y-88060917D01*
X127063500Y-88060917D01*
X127063500Y-85107079D01*
X127854988Y-85107079D01*
X127927776Y-85778853D01*
X128044817Y-86061414D01*
X128314070Y-86166719D01*
X129220790Y-85260000D01*
X129939210Y-85260000D01*
X130845930Y-86166719D01*
X131115183Y-86061414D01*
X131305012Y-85412921D01*
X131232224Y-84741147D01*
X131115183Y-84458586D01*
X130845930Y-84353281D01*
X129939210Y-85260000D01*
X129220790Y-85260000D01*
X128314070Y-84353281D01*
X128044817Y-84458586D01*
X127854988Y-85107079D01*
X127063500Y-85107079D01*
X127063500Y-68627079D01*
X127854988Y-68627079D01*
X127927776Y-69298853D01*
X128044817Y-69581414D01*
X128314070Y-69686719D01*
X129220790Y-68780000D01*
X129939210Y-68780000D01*
X130845930Y-69686719D01*
X131115183Y-69581414D01*
X131305012Y-68932921D01*
X131232224Y-68261147D01*
X131115183Y-67978586D01*
X130845930Y-67873281D01*
X129939210Y-68780000D01*
X129220790Y-68780000D01*
X128314070Y-67873281D01*
X128044817Y-67978586D01*
X127854988Y-68627079D01*
X127063500Y-68627079D01*
X127063500Y-67514070D01*
X128673281Y-67514070D01*
X129580000Y-68420790D01*
X130486719Y-67514070D01*
X130381414Y-67244817D01*
X129732921Y-67054988D01*
X129061147Y-67127776D01*
X128778586Y-67244817D01*
X128673281Y-67514070D01*
X127063500Y-67514070D01*
X127063500Y-59827079D01*
X127854988Y-59827079D01*
X127927776Y-60498853D01*
X128044817Y-60781414D01*
X128314070Y-60886719D01*
X129220790Y-59980000D01*
X129939210Y-59980000D01*
X130845930Y-60886719D01*
X131115183Y-60781414D01*
X131305012Y-60132921D01*
X131232224Y-59461147D01*
X131115183Y-59178586D01*
X130845930Y-59073281D01*
X129939210Y-59980000D01*
X129220790Y-59980000D01*
X128314070Y-59073281D01*
X128044817Y-59178586D01*
X127854988Y-59827079D01*
X127063500Y-59827079D01*
X127063500Y-55160917D01*
X128262272Y-55160917D01*
X128462427Y-55645329D01*
X128832722Y-56016271D01*
X129203257Y-56170130D01*
X128834671Y-56322427D01*
X128463729Y-56692722D01*
X128262730Y-57176783D01*
X128262272Y-57700917D01*
X128462427Y-58185329D01*
X128762506Y-58485932D01*
X128673281Y-58714070D01*
X129580000Y-59620790D01*
X130486719Y-58714070D01*
X130397382Y-58485646D01*
X130696271Y-58187278D01*
X130716525Y-58138500D01*
X130858191Y-58138500D01*
X130884217Y-58201488D01*
X131280426Y-58598389D01*
X131798363Y-58813455D01*
X132359177Y-58813945D01*
X132877488Y-58599783D01*
X133274389Y-58203574D01*
X133489455Y-57685637D01*
X133489945Y-57124823D01*
X133275783Y-56606512D01*
X132879574Y-56209611D01*
X132361637Y-55994545D01*
X131800823Y-55994055D01*
X131282512Y-56208217D01*
X130885611Y-56604426D01*
X130828693Y-56741500D01*
X130716922Y-56741500D01*
X130697573Y-56694671D01*
X130327278Y-56323729D01*
X129956743Y-56169870D01*
X130325329Y-56017573D01*
X130696271Y-55647278D01*
X130897270Y-55163217D01*
X130897728Y-54639083D01*
X130697573Y-54154671D01*
X130327278Y-53783729D01*
X129843217Y-53582730D01*
X129319083Y-53582272D01*
X128834671Y-53782427D01*
X128463729Y-54152722D01*
X128262730Y-54636783D01*
X128262272Y-55160917D01*
X127063500Y-55160917D01*
X127063500Y-53530500D01*
X134429500Y-53530500D01*
X134429500Y-55753000D01*
G36*
X175577500Y-69066310D02*
X175372278Y-68860729D01*
X174888217Y-68659730D01*
X174364083Y-68659272D01*
X173879671Y-68859427D01*
X173508729Y-69229722D01*
X173354870Y-69600257D01*
X173202573Y-69231671D01*
X172832278Y-68860729D01*
X172348217Y-68659730D01*
X171824083Y-68659272D01*
X171339671Y-68859427D01*
X170968729Y-69229722D01*
X170814870Y-69600257D01*
X170662573Y-69231671D01*
X170292278Y-68860729D01*
X169808217Y-68659730D01*
X169284083Y-68659272D01*
X168799671Y-68859427D01*
X168428729Y-69229722D01*
X168274870Y-69600257D01*
X168122573Y-69231671D01*
X167752278Y-68860729D01*
X167268217Y-68659730D01*
X166744083Y-68659272D01*
X166259671Y-68859427D01*
X165888729Y-69229722D01*
X165734870Y-69600257D01*
X165582573Y-69231671D01*
X165212278Y-68860729D01*
X164728217Y-68659730D01*
X164204083Y-68659272D01*
X163719671Y-68859427D01*
X163348729Y-69229722D01*
X163194870Y-69600257D01*
X163042573Y-69231671D01*
X162672278Y-68860729D01*
X162188217Y-68659730D01*
X161664083Y-68659272D01*
X161179671Y-68859427D01*
X160808729Y-69229722D01*
X160654870Y-69600257D01*
X160502573Y-69231671D01*
X160132278Y-68860729D01*
X159648217Y-68659730D01*
X159124083Y-68659272D01*
X158639671Y-68859427D01*
X158268729Y-69229722D01*
X158114870Y-69600257D01*
X157962573Y-69231671D01*
X157592278Y-68860729D01*
X157108217Y-68659730D01*
X156584083Y-68659272D01*
X156099671Y-68859427D01*
X155728729Y-69229722D01*
X155574870Y-69600257D01*
X155422573Y-69231671D01*
X155052278Y-68860729D01*
X154568217Y-68659730D01*
X154044083Y-68659272D01*
X153559671Y-68859427D01*
X153188729Y-69229722D01*
X153034870Y-69600257D01*
X152882573Y-69231671D01*
X152512278Y-68860729D01*
X152028217Y-68659730D01*
X151504083Y-68659272D01*
X151019671Y-68859427D01*
X150648729Y-69229722D01*
X150494870Y-69600257D01*
X150342573Y-69231671D01*
X149972278Y-68860729D01*
X149488217Y-68659730D01*
X148964083Y-68659272D01*
X148479671Y-68859427D01*
X148179068Y-69159506D01*
X147950930Y-69070281D01*
X147044210Y-69977000D01*
X147950930Y-70883719D01*
X148179354Y-70794382D01*
X148477722Y-71093271D01*
X148780500Y-71218995D01*
X148780500Y-72017560D01*
X148659451Y-72138398D01*
X148557616Y-72383644D01*
X148557384Y-72649191D01*
X148658791Y-72894614D01*
X148846398Y-73082549D01*
X149091644Y-73184384D01*
X149357191Y-73184616D01*
X149602614Y-73083209D01*
X149790549Y-72895602D01*
X149892384Y-72650356D01*
X149892616Y-72384809D01*
X149791209Y-72139386D01*
X149669500Y-72017464D01*
X149669500Y-71218873D01*
X149970329Y-71094573D01*
X150341271Y-70724278D01*
X150495130Y-70353743D01*
X150647427Y-70722329D01*
X151017722Y-71093271D01*
X151320500Y-71218995D01*
X151320500Y-74754844D01*
X151269957Y-74775728D01*
X151011635Y-75033599D01*
X150871660Y-75370697D01*
X150871341Y-75735701D01*
X151010728Y-76073043D01*
X151268599Y-76331365D01*
X151605697Y-76471340D01*
X151970701Y-76471659D01*
X152308043Y-76332272D01*
X152566365Y-76074401D01*
X152706340Y-75737303D01*
X152706659Y-75372299D01*
X152567272Y-75034957D01*
X152309401Y-74776635D01*
X152209500Y-74735153D01*
X152209500Y-71218873D01*
X152510329Y-71094573D01*
X152881271Y-70724278D01*
X153035130Y-70353743D01*
X153187427Y-70722329D01*
X153557722Y-71093271D01*
X153860500Y-71218995D01*
X153860500Y-76904882D01*
X153485882Y-77279500D01*
X147692440Y-77279500D01*
X147571602Y-77158451D01*
X147326356Y-77056616D01*
X147060809Y-77056384D01*
X146815386Y-77157791D01*
X146627451Y-77345398D01*
X146525616Y-77590644D01*
X146525384Y-77856191D01*
X146626791Y-78101614D01*
X146814398Y-78289549D01*
X147059644Y-78391384D01*
X147325191Y-78391616D01*
X147570614Y-78290209D01*
X147692536Y-78168500D01*
X153670000Y-78168500D01*
X153840103Y-78134664D01*
X153984309Y-78038309D01*
X154619309Y-77403309D01*
X154715665Y-77259102D01*
X154749500Y-77089000D01*
X154749500Y-71218873D01*
X155050329Y-71094573D01*
X155421271Y-70724278D01*
X155575130Y-70353743D01*
X155727427Y-70722329D01*
X156097722Y-71093271D01*
X156400500Y-71218995D01*
X156400500Y-71763560D01*
X156279451Y-71884398D01*
X156177616Y-72129644D01*
X156177384Y-72395191D01*
X156278791Y-72640614D01*
X156466398Y-72828549D01*
X156711644Y-72930384D01*
X156977191Y-72930616D01*
X157222614Y-72829209D01*
X157410549Y-72641602D01*
X157512384Y-72396356D01*
X157512616Y-72130809D01*
X157411209Y-71885386D01*
X157289500Y-71763464D01*
X157289500Y-71218873D01*
X157590329Y-71094573D01*
X157961271Y-70724278D01*
X158115130Y-70353743D01*
X158267427Y-70722329D01*
X158637722Y-71093271D01*
X158940500Y-71218995D01*
X158940500Y-79952882D01*
X158819882Y-80073500D01*
X149098000Y-80073500D01*
X148927897Y-80107336D01*
X148883502Y-80137000D01*
X148783691Y-80203691D01*
X148024882Y-80962500D01*
X139544873Y-80962500D01*
X139420573Y-80661671D01*
X139050278Y-80290729D01*
X138679743Y-80136870D01*
X139048329Y-79984573D01*
X139419271Y-79614278D01*
X139544995Y-79311500D01*
X157488560Y-79311500D01*
X157609398Y-79432549D01*
X157854644Y-79534384D01*
X158120191Y-79534616D01*
X158365614Y-79433209D01*
X158553549Y-79245602D01*
X158655384Y-79000356D01*
X158655616Y-78734809D01*
X158554209Y-78489386D01*
X158366602Y-78301451D01*
X158121356Y-78199616D01*
X157855809Y-78199384D01*
X157610386Y-78300791D01*
X157488464Y-78422500D01*
X139544873Y-78422500D01*
X139420573Y-78121671D01*
X139050278Y-77750729D01*
X138679743Y-77596870D01*
X139048329Y-77444573D01*
X139419271Y-77074278D01*
X139620270Y-76590217D01*
X139620728Y-76066083D01*
X139420573Y-75581671D01*
X139050278Y-75210729D01*
X138566217Y-75009730D01*
X138042083Y-75009272D01*
X137557671Y-75209427D01*
X137186729Y-75579722D01*
X137061005Y-75882500D01*
X136582118Y-75882500D01*
X135318500Y-74618882D01*
X135318500Y-72806328D01*
X137174086Y-74661914D01*
X137400695Y-74813330D01*
X137668000Y-74866500D01*
X139156672Y-74866500D01*
X140363619Y-76073447D01*
X140322545Y-76172363D01*
X140322055Y-76733177D01*
X140536217Y-77251488D01*
X140932426Y-77648389D01*
X141450363Y-77863455D01*
X142011177Y-77863945D01*
X142529488Y-77649783D01*
X142926389Y-77253574D01*
X143141455Y-76735637D01*
X143141917Y-76206535D01*
X143350533Y-76415151D01*
X143350384Y-76586191D01*
X143451791Y-76831614D01*
X143639398Y-77019549D01*
X143884644Y-77121384D01*
X144150191Y-77121616D01*
X144395614Y-77020209D01*
X144583549Y-76832602D01*
X144685384Y-76587356D01*
X144685616Y-76321809D01*
X144584209Y-76076386D01*
X144396602Y-75888451D01*
X144151356Y-75786616D01*
X143979083Y-75786465D01*
X141157309Y-72964691D01*
X141106312Y-72930616D01*
X141013103Y-72868336D01*
X140843000Y-72834500D01*
X138360118Y-72834500D01*
X137223500Y-71697882D01*
X137223500Y-66351118D01*
X139596568Y-63978050D01*
X139616103Y-63974164D01*
X139755533Y-63881000D01*
X143933872Y-63881000D01*
X143767386Y-63949791D01*
X143579451Y-64137398D01*
X143477616Y-64382644D01*
X143477384Y-64648191D01*
X143578791Y-64893614D01*
X143700500Y-65015536D01*
X143700500Y-68735127D01*
X143399671Y-68859427D01*
X143028729Y-69229722D01*
X142874870Y-69600257D01*
X142722573Y-69231671D01*
X142352278Y-68860729D01*
X141868217Y-68659730D01*
X141344083Y-68659272D01*
X140859671Y-68859427D01*
X140488729Y-69229722D01*
X140334870Y-69600257D01*
X140182573Y-69231671D01*
X139812278Y-68860729D01*
X139328217Y-68659730D01*
X138804083Y-68659272D01*
X138319671Y-68859427D01*
X137948729Y-69229722D01*
X137747730Y-69713783D01*
X137747272Y-70237917D01*
X137947427Y-70722329D01*
X138317722Y-71093271D01*
X138801783Y-71294270D01*
X139325917Y-71294728D01*
X139810329Y-71094573D01*
X140181271Y-70724278D01*
X140335130Y-70353743D01*
X140487427Y-70722329D01*
X140857722Y-71093271D01*
X141341783Y-71294270D01*
X141865917Y-71294728D01*
X142350329Y-71094573D01*
X142721271Y-70724278D01*
X142875130Y-70353743D01*
X143027427Y-70722329D01*
X143397722Y-71093271D01*
X143700500Y-71218995D01*
X143700500Y-71636560D01*
X143579451Y-71757398D01*
X143477616Y-72002644D01*
X143477384Y-72268191D01*
X143578791Y-72513614D01*
X143766398Y-72701549D01*
X144011644Y-72803384D01*
X144277191Y-72803616D01*
X144522614Y-72702209D01*
X144710549Y-72514602D01*
X144812384Y-72269356D01*
X144812616Y-72003809D01*
X144711209Y-71758386D01*
X144589500Y-71636464D01*
X144589500Y-71242930D01*
X145778281Y-71242930D01*
X145883586Y-71512183D01*
X146532079Y-71702012D01*
X147203853Y-71629224D01*
X147486414Y-71512183D01*
X147591719Y-71242930D01*
X146685000Y-70336210D01*
X145778281Y-71242930D01*
X144589500Y-71242930D01*
X144589500Y-71218873D01*
X144890329Y-71094573D01*
X145190932Y-70794494D01*
X145419070Y-70883719D01*
X146325790Y-69977000D01*
X145419070Y-69070281D01*
X145190646Y-69159618D01*
X144892278Y-68860729D01*
X144589500Y-68735005D01*
X144589500Y-68711070D01*
X145778281Y-68711070D01*
X146685000Y-69617790D01*
X147591719Y-68711070D01*
X147486414Y-68441817D01*
X146837921Y-68251988D01*
X146166147Y-68324776D01*
X145883586Y-68441817D01*
X145778281Y-68711070D01*
X144589500Y-68711070D01*
X144589500Y-65015440D01*
X144710549Y-64894602D01*
X144812384Y-64649356D01*
X144812616Y-64383809D01*
X144711209Y-64138386D01*
X144523602Y-63950451D01*
X144356345Y-63881000D01*
X173609000Y-63881000D01*
X173779103Y-63847164D01*
X173923309Y-63750809D01*
X174939309Y-62734809D01*
X174969181Y-62690102D01*
X175035664Y-62590603D01*
X175069500Y-62420500D01*
X175069500Y-55978873D01*
X175370329Y-55854573D01*
X175577500Y-55647763D01*
X175577500Y-69066310D01*
X175577500Y-69066310D01*
G37*
X175577500Y-69066310D02*
X175372278Y-68860729D01*
X174888217Y-68659730D01*
X174364083Y-68659272D01*
X173879671Y-68859427D01*
X173508729Y-69229722D01*
X173354870Y-69600257D01*
X173202573Y-69231671D01*
X172832278Y-68860729D01*
X172348217Y-68659730D01*
X171824083Y-68659272D01*
X171339671Y-68859427D01*
X170968729Y-69229722D01*
X170814870Y-69600257D01*
X170662573Y-69231671D01*
X170292278Y-68860729D01*
X169808217Y-68659730D01*
X169284083Y-68659272D01*
X168799671Y-68859427D01*
X168428729Y-69229722D01*
X168274870Y-69600257D01*
X168122573Y-69231671D01*
X167752278Y-68860729D01*
X167268217Y-68659730D01*
X166744083Y-68659272D01*
X166259671Y-68859427D01*
X165888729Y-69229722D01*
X165734870Y-69600257D01*
X165582573Y-69231671D01*
X165212278Y-68860729D01*
X164728217Y-68659730D01*
X164204083Y-68659272D01*
X163719671Y-68859427D01*
X163348729Y-69229722D01*
X163194870Y-69600257D01*
X163042573Y-69231671D01*
X162672278Y-68860729D01*
X162188217Y-68659730D01*
X161664083Y-68659272D01*
X161179671Y-68859427D01*
X160808729Y-69229722D01*
X160654870Y-69600257D01*
X160502573Y-69231671D01*
X160132278Y-68860729D01*
X159648217Y-68659730D01*
X159124083Y-68659272D01*
X158639671Y-68859427D01*
X158268729Y-69229722D01*
X158114870Y-69600257D01*
X157962573Y-69231671D01*
X157592278Y-68860729D01*
X157108217Y-68659730D01*
X156584083Y-68659272D01*
X156099671Y-68859427D01*
X155728729Y-69229722D01*
X155574870Y-69600257D01*
X155422573Y-69231671D01*
X155052278Y-68860729D01*
X154568217Y-68659730D01*
X154044083Y-68659272D01*
X153559671Y-68859427D01*
X153188729Y-69229722D01*
X153034870Y-69600257D01*
X152882573Y-69231671D01*
X152512278Y-68860729D01*
X152028217Y-68659730D01*
X151504083Y-68659272D01*
X151019671Y-68859427D01*
X150648729Y-69229722D01*
X150494870Y-69600257D01*
X150342573Y-69231671D01*
X149972278Y-68860729D01*
X149488217Y-68659730D01*
X148964083Y-68659272D01*
X148479671Y-68859427D01*
X148179068Y-69159506D01*
X147950930Y-69070281D01*
X147044210Y-69977000D01*
X147950930Y-70883719D01*
X148179354Y-70794382D01*
X148477722Y-71093271D01*
X148780500Y-71218995D01*
X148780500Y-72017560D01*
X148659451Y-72138398D01*
X148557616Y-72383644D01*
X148557384Y-72649191D01*
X148658791Y-72894614D01*
X148846398Y-73082549D01*
X149091644Y-73184384D01*
X149357191Y-73184616D01*
X149602614Y-73083209D01*
X149790549Y-72895602D01*
X149892384Y-72650356D01*
X149892616Y-72384809D01*
X149791209Y-72139386D01*
X149669500Y-72017464D01*
X149669500Y-71218873D01*
X149970329Y-71094573D01*
X150341271Y-70724278D01*
X150495130Y-70353743D01*
X150647427Y-70722329D01*
X151017722Y-71093271D01*
X151320500Y-71218995D01*
X151320500Y-74754844D01*
X151269957Y-74775728D01*
X151011635Y-75033599D01*
X150871660Y-75370697D01*
X150871341Y-75735701D01*
X151010728Y-76073043D01*
X151268599Y-76331365D01*
X151605697Y-76471340D01*
X151970701Y-76471659D01*
X152308043Y-76332272D01*
X152566365Y-76074401D01*
X152706340Y-75737303D01*
X152706659Y-75372299D01*
X152567272Y-75034957D01*
X152309401Y-74776635D01*
X152209500Y-74735153D01*
X152209500Y-71218873D01*
X152510329Y-71094573D01*
X152881271Y-70724278D01*
X153035130Y-70353743D01*
X153187427Y-70722329D01*
X153557722Y-71093271D01*
X153860500Y-71218995D01*
X153860500Y-76904882D01*
X153485882Y-77279500D01*
X147692440Y-77279500D01*
X147571602Y-77158451D01*
X147326356Y-77056616D01*
X147060809Y-77056384D01*
X146815386Y-77157791D01*
X146627451Y-77345398D01*
X146525616Y-77590644D01*
X146525384Y-77856191D01*
X146626791Y-78101614D01*
X146814398Y-78289549D01*
X147059644Y-78391384D01*
X147325191Y-78391616D01*
X147570614Y-78290209D01*
X147692536Y-78168500D01*
X153670000Y-78168500D01*
X153840103Y-78134664D01*
X153984309Y-78038309D01*
X154619309Y-77403309D01*
X154715665Y-77259102D01*
X154749500Y-77089000D01*
X154749500Y-71218873D01*
X155050329Y-71094573D01*
X155421271Y-70724278D01*
X155575130Y-70353743D01*
X155727427Y-70722329D01*
X156097722Y-71093271D01*
X156400500Y-71218995D01*
X156400500Y-71763560D01*
X156279451Y-71884398D01*
X156177616Y-72129644D01*
X156177384Y-72395191D01*
X156278791Y-72640614D01*
X156466398Y-72828549D01*
X156711644Y-72930384D01*
X156977191Y-72930616D01*
X157222614Y-72829209D01*
X157410549Y-72641602D01*
X157512384Y-72396356D01*
X157512616Y-72130809D01*
X157411209Y-71885386D01*
X157289500Y-71763464D01*
X157289500Y-71218873D01*
X157590329Y-71094573D01*
X157961271Y-70724278D01*
X158115130Y-70353743D01*
X158267427Y-70722329D01*
X158637722Y-71093271D01*
X158940500Y-71218995D01*
X158940500Y-79952882D01*
X158819882Y-80073500D01*
X149098000Y-80073500D01*
X148927897Y-80107336D01*
X148883502Y-80137000D01*
X148783691Y-80203691D01*
X148024882Y-80962500D01*
X139544873Y-80962500D01*
X139420573Y-80661671D01*
X139050278Y-80290729D01*
X138679743Y-80136870D01*
X139048329Y-79984573D01*
X139419271Y-79614278D01*
X139544995Y-79311500D01*
X157488560Y-79311500D01*
X157609398Y-79432549D01*
X157854644Y-79534384D01*
X158120191Y-79534616D01*
X158365614Y-79433209D01*
X158553549Y-79245602D01*
X158655384Y-79000356D01*
X158655616Y-78734809D01*
X158554209Y-78489386D01*
X158366602Y-78301451D01*
X158121356Y-78199616D01*
X157855809Y-78199384D01*
X157610386Y-78300791D01*
X157488464Y-78422500D01*
X139544873Y-78422500D01*
X139420573Y-78121671D01*
X139050278Y-77750729D01*
X138679743Y-77596870D01*
X139048329Y-77444573D01*
X139419271Y-77074278D01*
X139620270Y-76590217D01*
X139620728Y-76066083D01*
X139420573Y-75581671D01*
X139050278Y-75210729D01*
X138566217Y-75009730D01*
X138042083Y-75009272D01*
X137557671Y-75209427D01*
X137186729Y-75579722D01*
X137061005Y-75882500D01*
X136582118Y-75882500D01*
X135318500Y-74618882D01*
X135318500Y-72806328D01*
X137174086Y-74661914D01*
X137400695Y-74813330D01*
X137668000Y-74866500D01*
X139156672Y-74866500D01*
X140363619Y-76073447D01*
X140322545Y-76172363D01*
X140322055Y-76733177D01*
X140536217Y-77251488D01*
X140932426Y-77648389D01*
X141450363Y-77863455D01*
X142011177Y-77863945D01*
X142529488Y-77649783D01*
X142926389Y-77253574D01*
X143141455Y-76735637D01*
X143141917Y-76206535D01*
X143350533Y-76415151D01*
X143350384Y-76586191D01*
X143451791Y-76831614D01*
X143639398Y-77019549D01*
X143884644Y-77121384D01*
X144150191Y-77121616D01*
X144395614Y-77020209D01*
X144583549Y-76832602D01*
X144685384Y-76587356D01*
X144685616Y-76321809D01*
X144584209Y-76076386D01*
X144396602Y-75888451D01*
X144151356Y-75786616D01*
X143979083Y-75786465D01*
X141157309Y-72964691D01*
X141106312Y-72930616D01*
X141013103Y-72868336D01*
X140843000Y-72834500D01*
X138360118Y-72834500D01*
X137223500Y-71697882D01*
X137223500Y-66351118D01*
X139596568Y-63978050D01*
X139616103Y-63974164D01*
X139755533Y-63881000D01*
X143933872Y-63881000D01*
X143767386Y-63949791D01*
X143579451Y-64137398D01*
X143477616Y-64382644D01*
X143477384Y-64648191D01*
X143578791Y-64893614D01*
X143700500Y-65015536D01*
X143700500Y-68735127D01*
X143399671Y-68859427D01*
X143028729Y-69229722D01*
X142874870Y-69600257D01*
X142722573Y-69231671D01*
X142352278Y-68860729D01*
X141868217Y-68659730D01*
X141344083Y-68659272D01*
X140859671Y-68859427D01*
X140488729Y-69229722D01*
X140334870Y-69600257D01*
X140182573Y-69231671D01*
X139812278Y-68860729D01*
X139328217Y-68659730D01*
X138804083Y-68659272D01*
X138319671Y-68859427D01*
X137948729Y-69229722D01*
X137747730Y-69713783D01*
X137747272Y-70237917D01*
X137947427Y-70722329D01*
X138317722Y-71093271D01*
X138801783Y-71294270D01*
X139325917Y-71294728D01*
X139810329Y-71094573D01*
X140181271Y-70724278D01*
X140335130Y-70353743D01*
X140487427Y-70722329D01*
X140857722Y-71093271D01*
X141341783Y-71294270D01*
X141865917Y-71294728D01*
X142350329Y-71094573D01*
X142721271Y-70724278D01*
X142875130Y-70353743D01*
X143027427Y-70722329D01*
X143397722Y-71093271D01*
X143700500Y-71218995D01*
X143700500Y-71636560D01*
X143579451Y-71757398D01*
X143477616Y-72002644D01*
X143477384Y-72268191D01*
X143578791Y-72513614D01*
X143766398Y-72701549D01*
X144011644Y-72803384D01*
X144277191Y-72803616D01*
X144522614Y-72702209D01*
X144710549Y-72514602D01*
X144812384Y-72269356D01*
X144812616Y-72003809D01*
X144711209Y-71758386D01*
X144589500Y-71636464D01*
X144589500Y-71242930D01*
X145778281Y-71242930D01*
X145883586Y-71512183D01*
X146532079Y-71702012D01*
X147203853Y-71629224D01*
X147486414Y-71512183D01*
X147591719Y-71242930D01*
X146685000Y-70336210D01*
X145778281Y-71242930D01*
X144589500Y-71242930D01*
X144589500Y-71218873D01*
X144890329Y-71094573D01*
X145190932Y-70794494D01*
X145419070Y-70883719D01*
X146325790Y-69977000D01*
X145419070Y-69070281D01*
X145190646Y-69159618D01*
X144892278Y-68860729D01*
X144589500Y-68735005D01*
X144589500Y-68711070D01*
X145778281Y-68711070D01*
X146685000Y-69617790D01*
X147591719Y-68711070D01*
X147486414Y-68441817D01*
X146837921Y-68251988D01*
X146166147Y-68324776D01*
X145883586Y-68441817D01*
X145778281Y-68711070D01*
X144589500Y-68711070D01*
X144589500Y-65015440D01*
X144710549Y-64894602D01*
X144812384Y-64649356D01*
X144812616Y-64383809D01*
X144711209Y-64138386D01*
X144523602Y-63950451D01*
X144356345Y-63881000D01*
X173609000Y-63881000D01*
X173779103Y-63847164D01*
X173923309Y-63750809D01*
X174939309Y-62734809D01*
X174969181Y-62690102D01*
X175035664Y-62590603D01*
X175069500Y-62420500D01*
X175069500Y-55978873D01*
X175370329Y-55854573D01*
X175577500Y-55647763D01*
X175577500Y-69066310D01*
M02*
