G04 #@! TF.GenerationSoftware,KiCad,Pcbnew,no-vcs-found-895c0bb~58~ubuntu16.04.1*
G04 #@! TF.CreationDate,2017-07-19T10:40:22-04:00*
G04 #@! TF.ProjectId,Noeud,4E6F6575642E6B696361645F70636200,rev?*
G04 #@! TF.SameCoordinates,Original
G04 #@! TF.FileFunction,Other,Comment*
%FSLAX46Y46*%
G04 Gerber Fmt 4.6, Leading zero omitted, Abs format (unit mm)*
G04 Created by KiCad (PCBNEW no-vcs-found-895c0bb~58~ubuntu16.04.1) date Wed Jul 19 10:40:22 2017*
%MOMM*%
%LPD*%
G01*
G04 APERTURE LIST*
%ADD10C,0.300000*%
G04 APERTURE END LIST*
D10*
X198060857Y-82908000D02*
X197918000Y-82836571D01*
X197703714Y-82836571D01*
X197489428Y-82908000D01*
X197346571Y-83050857D01*
X197275142Y-83193714D01*
X197203714Y-83479428D01*
X197203714Y-83693714D01*
X197275142Y-83979428D01*
X197346571Y-84122285D01*
X197489428Y-84265142D01*
X197703714Y-84336571D01*
X197846571Y-84336571D01*
X198060857Y-84265142D01*
X198132285Y-84193714D01*
X198132285Y-83693714D01*
X197846571Y-83693714D01*
X199346571Y-84265142D02*
X199203714Y-84336571D01*
X198918000Y-84336571D01*
X198775142Y-84265142D01*
X198703714Y-84122285D01*
X198703714Y-83550857D01*
X198775142Y-83408000D01*
X198918000Y-83336571D01*
X199203714Y-83336571D01*
X199346571Y-83408000D01*
X199418000Y-83550857D01*
X199418000Y-83693714D01*
X198703714Y-83836571D01*
X200060857Y-83336571D02*
X200060857Y-84336571D01*
X200060857Y-83479428D02*
X200132285Y-83408000D01*
X200275142Y-83336571D01*
X200489428Y-83336571D01*
X200632285Y-83408000D01*
X200703714Y-83550857D01*
X200703714Y-84336571D01*
X201989428Y-84265142D02*
X201846571Y-84336571D01*
X201560857Y-84336571D01*
X201418000Y-84265142D01*
X201346571Y-84122285D01*
X201346571Y-83550857D01*
X201418000Y-83408000D01*
X201560857Y-83336571D01*
X201846571Y-83336571D01*
X201989428Y-83408000D01*
X202060857Y-83550857D01*
X202060857Y-83693714D01*
X201346571Y-83836571D01*
X202703714Y-84336571D02*
X202703714Y-83336571D01*
X202703714Y-83622285D02*
X202775142Y-83479428D01*
X202846571Y-83408000D01*
X202989428Y-83336571D01*
X203132285Y-83336571D01*
X204275142Y-84336571D02*
X204275142Y-83550857D01*
X204203714Y-83408000D01*
X204060857Y-83336571D01*
X203775142Y-83336571D01*
X203632285Y-83408000D01*
X204275142Y-84265142D02*
X204132285Y-84336571D01*
X203775142Y-84336571D01*
X203632285Y-84265142D01*
X203560857Y-84122285D01*
X203560857Y-83979428D01*
X203632285Y-83836571D01*
X203775142Y-83765142D01*
X204132285Y-83765142D01*
X204275142Y-83693714D01*
X205203714Y-84336571D02*
X205060857Y-84265142D01*
X204989428Y-84122285D01*
X204989428Y-82836571D01*
X206846571Y-84265142D02*
X206989428Y-84336571D01*
X207275142Y-84336571D01*
X207418000Y-84265142D01*
X207489428Y-84122285D01*
X207489428Y-84050857D01*
X207418000Y-83908000D01*
X207275142Y-83836571D01*
X207060857Y-83836571D01*
X206918000Y-83765142D01*
X206846571Y-83622285D01*
X206846571Y-83550857D01*
X206918000Y-83408000D01*
X207060857Y-83336571D01*
X207275142Y-83336571D01*
X207418000Y-83408000D01*
X208132285Y-83336571D02*
X208132285Y-84836571D01*
X208132285Y-83408000D02*
X208275142Y-83336571D01*
X208560857Y-83336571D01*
X208703714Y-83408000D01*
X208775142Y-83479428D01*
X208846571Y-83622285D01*
X208846571Y-84050857D01*
X208775142Y-84193714D01*
X208703714Y-84265142D01*
X208560857Y-84336571D01*
X208275142Y-84336571D01*
X208132285Y-84265142D01*
X210060857Y-84265142D02*
X209918000Y-84336571D01*
X209632285Y-84336571D01*
X209489428Y-84265142D01*
X209418000Y-84122285D01*
X209418000Y-83550857D01*
X209489428Y-83408000D01*
X209632285Y-83336571D01*
X209918000Y-83336571D01*
X210060857Y-83408000D01*
X210132285Y-83550857D01*
X210132285Y-83693714D01*
X209418000Y-83836571D01*
X211418000Y-84265142D02*
X211275142Y-84336571D01*
X210989428Y-84336571D01*
X210846571Y-84265142D01*
X210775142Y-84193714D01*
X210703714Y-84050857D01*
X210703714Y-83622285D01*
X210775142Y-83479428D01*
X210846571Y-83408000D01*
X210989428Y-83336571D01*
X211275142Y-83336571D01*
X211418000Y-83408000D01*
X212060857Y-84336571D02*
X212060857Y-83336571D01*
X212060857Y-82836571D02*
X211989428Y-82908000D01*
X212060857Y-82979428D01*
X212132285Y-82908000D01*
X212060857Y-82836571D01*
X212060857Y-82979428D01*
X212560857Y-83336571D02*
X213132285Y-83336571D01*
X212775142Y-84336571D02*
X212775142Y-83050857D01*
X212846571Y-82908000D01*
X212989428Y-82836571D01*
X213132285Y-82836571D01*
X213632285Y-84336571D02*
X213632285Y-83336571D01*
X213632285Y-82836571D02*
X213560857Y-82908000D01*
X213632285Y-82979428D01*
X213703714Y-82908000D01*
X213632285Y-82836571D01*
X213632285Y-82979428D01*
X214989428Y-84265142D02*
X214846571Y-84336571D01*
X214560857Y-84336571D01*
X214418000Y-84265142D01*
X214346571Y-84193714D01*
X214275142Y-84050857D01*
X214275142Y-83622285D01*
X214346571Y-83479428D01*
X214418000Y-83408000D01*
X214560857Y-83336571D01*
X214846571Y-83336571D01*
X214989428Y-83408000D01*
X216275142Y-84336571D02*
X216275142Y-83550857D01*
X216203714Y-83408000D01*
X216060857Y-83336571D01*
X215775142Y-83336571D01*
X215632285Y-83408000D01*
X216275142Y-84265142D02*
X216132285Y-84336571D01*
X215775142Y-84336571D01*
X215632285Y-84265142D01*
X215560857Y-84122285D01*
X215560857Y-83979428D01*
X215632285Y-83836571D01*
X215775142Y-83765142D01*
X216132285Y-83765142D01*
X216275142Y-83693714D01*
X216775142Y-83336571D02*
X217346571Y-83336571D01*
X216989428Y-82836571D02*
X216989428Y-84122285D01*
X217060857Y-84265142D01*
X217203714Y-84336571D01*
X217346571Y-84336571D01*
X217846571Y-84336571D02*
X217846571Y-83336571D01*
X217846571Y-82836571D02*
X217775142Y-82908000D01*
X217846571Y-82979428D01*
X217918000Y-82908000D01*
X217846571Y-82836571D01*
X217846571Y-82979428D01*
X218775142Y-84336571D02*
X218632285Y-84265142D01*
X218560857Y-84193714D01*
X218489428Y-84050857D01*
X218489428Y-83622285D01*
X218560857Y-83479428D01*
X218632285Y-83408000D01*
X218775142Y-83336571D01*
X218989428Y-83336571D01*
X219132285Y-83408000D01*
X219203714Y-83479428D01*
X219275142Y-83622285D01*
X219275142Y-84050857D01*
X219203714Y-84193714D01*
X219132285Y-84265142D01*
X218989428Y-84336571D01*
X218775142Y-84336571D01*
X219918000Y-83336571D02*
X219918000Y-84336571D01*
X219918000Y-83479428D02*
X219989428Y-83408000D01*
X220132285Y-83336571D01*
X220346571Y-83336571D01*
X220489428Y-83408000D01*
X220560857Y-83550857D01*
X220560857Y-84336571D01*
X221203714Y-84265142D02*
X221346571Y-84336571D01*
X221632285Y-84336571D01*
X221775142Y-84265142D01*
X221846571Y-84122285D01*
X221846571Y-84050857D01*
X221775142Y-83908000D01*
X221632285Y-83836571D01*
X221418000Y-83836571D01*
X221275142Y-83765142D01*
X221203714Y-83622285D01*
X221203714Y-83550857D01*
X221275142Y-83408000D01*
X221418000Y-83336571D01*
X221632285Y-83336571D01*
X221775142Y-83408000D01*
X222489428Y-84193714D02*
X222560857Y-84265142D01*
X222489428Y-84336571D01*
X222418000Y-84265142D01*
X222489428Y-84193714D01*
X222489428Y-84336571D01*
X222489428Y-83408000D02*
X222560857Y-83479428D01*
X222489428Y-83550857D01*
X222418000Y-83479428D01*
X222489428Y-83408000D01*
X222489428Y-83550857D01*
X197275142Y-86315142D02*
X198418000Y-86315142D01*
X199060857Y-85529428D02*
X199132285Y-85458000D01*
X199275142Y-85386571D01*
X199632285Y-85386571D01*
X199775142Y-85458000D01*
X199846571Y-85529428D01*
X199918000Y-85672285D01*
X199918000Y-85815142D01*
X199846571Y-86029428D01*
X198989428Y-86886571D01*
X199918000Y-86886571D01*
X201918000Y-86886571D02*
X201775142Y-86815142D01*
X201703714Y-86672285D01*
X201703714Y-85386571D01*
X203132285Y-86886571D02*
X203132285Y-86100857D01*
X203060857Y-85958000D01*
X202918000Y-85886571D01*
X202632285Y-85886571D01*
X202489428Y-85958000D01*
X203132285Y-86815142D02*
X202989428Y-86886571D01*
X202632285Y-86886571D01*
X202489428Y-86815142D01*
X202418000Y-86672285D01*
X202418000Y-86529428D01*
X202489428Y-86386571D01*
X202632285Y-86315142D01*
X202989428Y-86315142D01*
X203132285Y-86243714D01*
X203703714Y-85886571D02*
X204060857Y-86886571D01*
X204418000Y-85886571D02*
X204060857Y-86886571D01*
X203918000Y-87243714D01*
X203846571Y-87315142D01*
X203703714Y-87386571D01*
X205560857Y-86815142D02*
X205418000Y-86886571D01*
X205132285Y-86886571D01*
X204989428Y-86815142D01*
X204918000Y-86672285D01*
X204918000Y-86100857D01*
X204989428Y-85958000D01*
X205132285Y-85886571D01*
X205418000Y-85886571D01*
X205560857Y-85958000D01*
X205632285Y-86100857D01*
X205632285Y-86243714D01*
X204918000Y-86386571D01*
X206275142Y-86886571D02*
X206275142Y-85886571D01*
X206275142Y-86172285D02*
X206346571Y-86029428D01*
X206418000Y-85958000D01*
X206560857Y-85886571D01*
X206703714Y-85886571D01*
X207132285Y-86815142D02*
X207275142Y-86886571D01*
X207560857Y-86886571D01*
X207703714Y-86815142D01*
X207775142Y-86672285D01*
X207775142Y-86600857D01*
X207703714Y-86458000D01*
X207560857Y-86386571D01*
X207346571Y-86386571D01*
X207203714Y-86315142D01*
X207132285Y-86172285D01*
X207132285Y-86100857D01*
X207203714Y-85958000D01*
X207346571Y-85886571D01*
X207560857Y-85886571D01*
X207703714Y-85958000D01*
X210132285Y-86815142D02*
X209989428Y-86886571D01*
X209703714Y-86886571D01*
X209560857Y-86815142D01*
X209489428Y-86672285D01*
X209489428Y-86100857D01*
X209560857Y-85958000D01*
X209703714Y-85886571D01*
X209989428Y-85886571D01*
X210132285Y-85958000D01*
X210203714Y-86100857D01*
X210203714Y-86243714D01*
X209489428Y-86386571D01*
X210703714Y-86886571D02*
X211489428Y-85886571D01*
X210703714Y-85886571D02*
X211489428Y-86886571D01*
X211846571Y-85886571D02*
X212418000Y-85886571D01*
X212060857Y-85386571D02*
X212060857Y-86672285D01*
X212132285Y-86815142D01*
X212275142Y-86886571D01*
X212418000Y-86886571D01*
X213489428Y-86815142D02*
X213346571Y-86886571D01*
X213060857Y-86886571D01*
X212918000Y-86815142D01*
X212846571Y-86672285D01*
X212846571Y-86100857D01*
X212918000Y-85958000D01*
X213060857Y-85886571D01*
X213346571Y-85886571D01*
X213489428Y-85958000D01*
X213560857Y-86100857D01*
X213560857Y-86243714D01*
X212846571Y-86386571D01*
X214203714Y-86886571D02*
X214203714Y-85886571D01*
X214203714Y-86172285D02*
X214275142Y-86029428D01*
X214346571Y-85958000D01*
X214489428Y-85886571D01*
X214632285Y-85886571D01*
X215132285Y-85886571D02*
X215132285Y-86886571D01*
X215132285Y-86029428D02*
X215203714Y-85958000D01*
X215346571Y-85886571D01*
X215560857Y-85886571D01*
X215703714Y-85958000D01*
X215775142Y-86100857D01*
X215775142Y-86886571D01*
X217132285Y-86886571D02*
X217132285Y-86100857D01*
X217060857Y-85958000D01*
X216918000Y-85886571D01*
X216632285Y-85886571D01*
X216489428Y-85958000D01*
X217132285Y-86815142D02*
X216989428Y-86886571D01*
X216632285Y-86886571D01*
X216489428Y-86815142D01*
X216418000Y-86672285D01*
X216418000Y-86529428D01*
X216489428Y-86386571D01*
X216632285Y-86315142D01*
X216989428Y-86315142D01*
X217132285Y-86243714D01*
X218060857Y-86886571D02*
X217918000Y-86815142D01*
X217846571Y-86672285D01*
X217846571Y-85386571D01*
X220203714Y-87458000D02*
X220132285Y-87386571D01*
X219989428Y-87172285D01*
X219918000Y-87029428D01*
X219846571Y-86815142D01*
X219775142Y-86458000D01*
X219775142Y-86172285D01*
X219846571Y-85815142D01*
X219918000Y-85600857D01*
X219989428Y-85458000D01*
X220132285Y-85243714D01*
X220203714Y-85172285D01*
X220560857Y-85386571D02*
X221418000Y-85386571D01*
X220989428Y-86886571D02*
X220989428Y-85386571D01*
X222132285Y-86886571D02*
X221989428Y-86815142D01*
X221918000Y-86743714D01*
X221846571Y-86600857D01*
X221846571Y-86172285D01*
X221918000Y-86029428D01*
X221989428Y-85958000D01*
X222132285Y-85886571D01*
X222346571Y-85886571D01*
X222489428Y-85958000D01*
X222560857Y-86029428D01*
X222632285Y-86172285D01*
X222632285Y-86600857D01*
X222560857Y-86743714D01*
X222489428Y-86815142D01*
X222346571Y-86886571D01*
X222132285Y-86886571D01*
X223275142Y-85886571D02*
X223275142Y-87386571D01*
X223275142Y-85958000D02*
X223418000Y-85886571D01*
X223703714Y-85886571D01*
X223846571Y-85958000D01*
X223918000Y-86029428D01*
X223989428Y-86172285D01*
X223989428Y-86600857D01*
X223918000Y-86743714D01*
X223846571Y-86815142D01*
X223703714Y-86886571D01*
X223418000Y-86886571D01*
X223275142Y-86815142D01*
X226418000Y-86886571D02*
X226418000Y-86100857D01*
X226346571Y-85958000D01*
X226203714Y-85886571D01*
X225918000Y-85886571D01*
X225775142Y-85958000D01*
X226418000Y-86815142D02*
X226275142Y-86886571D01*
X225918000Y-86886571D01*
X225775142Y-86815142D01*
X225703714Y-86672285D01*
X225703714Y-86529428D01*
X225775142Y-86386571D01*
X225918000Y-86315142D01*
X226275142Y-86315142D01*
X226418000Y-86243714D01*
X227132285Y-85886571D02*
X227132285Y-86886571D01*
X227132285Y-86029428D02*
X227203714Y-85958000D01*
X227346571Y-85886571D01*
X227560857Y-85886571D01*
X227703714Y-85958000D01*
X227775142Y-86100857D01*
X227775142Y-86886571D01*
X229132285Y-86886571D02*
X229132285Y-85386571D01*
X229132285Y-86815142D02*
X228989428Y-86886571D01*
X228703714Y-86886571D01*
X228560857Y-86815142D01*
X228489428Y-86743714D01*
X228418000Y-86600857D01*
X228418000Y-86172285D01*
X228489428Y-86029428D01*
X228560857Y-85958000D01*
X228703714Y-85886571D01*
X228989428Y-85886571D01*
X229132285Y-85958000D01*
X230989428Y-86886571D02*
X230989428Y-85386571D01*
X230989428Y-85958000D02*
X231132285Y-85886571D01*
X231418000Y-85886571D01*
X231560857Y-85958000D01*
X231632285Y-86029428D01*
X231703714Y-86172285D01*
X231703714Y-86600857D01*
X231632285Y-86743714D01*
X231560857Y-86815142D01*
X231418000Y-86886571D01*
X231132285Y-86886571D01*
X230989428Y-86815142D01*
X232560857Y-86886571D02*
X232418000Y-86815142D01*
X232346571Y-86743714D01*
X232275142Y-86600857D01*
X232275142Y-86172285D01*
X232346571Y-86029428D01*
X232418000Y-85958000D01*
X232560857Y-85886571D01*
X232775142Y-85886571D01*
X232918000Y-85958000D01*
X232989428Y-86029428D01*
X233060857Y-86172285D01*
X233060857Y-86600857D01*
X232989428Y-86743714D01*
X232918000Y-86815142D01*
X232775142Y-86886571D01*
X232560857Y-86886571D01*
X233489428Y-85886571D02*
X234060857Y-85886571D01*
X233703714Y-85386571D02*
X233703714Y-86672285D01*
X233775142Y-86815142D01*
X233918000Y-86886571D01*
X234060857Y-86886571D01*
X234346571Y-85886571D02*
X234918000Y-85886571D01*
X234560857Y-85386571D02*
X234560857Y-86672285D01*
X234632285Y-86815142D01*
X234775142Y-86886571D01*
X234918000Y-86886571D01*
X235632285Y-86886571D02*
X235489428Y-86815142D01*
X235418000Y-86743714D01*
X235346571Y-86600857D01*
X235346571Y-86172285D01*
X235418000Y-86029428D01*
X235489428Y-85958000D01*
X235632285Y-85886571D01*
X235846571Y-85886571D01*
X235989428Y-85958000D01*
X236060857Y-86029428D01*
X236132285Y-86172285D01*
X236132285Y-86600857D01*
X236060857Y-86743714D01*
X235989428Y-86815142D01*
X235846571Y-86886571D01*
X235632285Y-86886571D01*
X236775142Y-86886571D02*
X236775142Y-85886571D01*
X236775142Y-86029428D02*
X236846571Y-85958000D01*
X236989428Y-85886571D01*
X237203714Y-85886571D01*
X237346571Y-85958000D01*
X237418000Y-86100857D01*
X237418000Y-86886571D01*
X237418000Y-86100857D02*
X237489428Y-85958000D01*
X237632285Y-85886571D01*
X237846571Y-85886571D01*
X237989428Y-85958000D01*
X238060857Y-86100857D01*
X238060857Y-86886571D01*
X238632285Y-87458000D02*
X238703714Y-87386571D01*
X238846571Y-87172285D01*
X238918000Y-87029428D01*
X238989428Y-86815142D01*
X239060857Y-86458000D01*
X239060857Y-86172285D01*
X238989428Y-85815142D01*
X238918000Y-85600857D01*
X238846571Y-85458000D01*
X238703714Y-85243714D01*
X238632285Y-85172285D01*
X197275142Y-88865142D02*
X198418000Y-88865142D01*
X199132285Y-89436571D02*
X199132285Y-87936571D01*
X199632285Y-89008000D01*
X200132285Y-87936571D01*
X200132285Y-89436571D01*
X201489428Y-89436571D02*
X201489428Y-88650857D01*
X201418000Y-88508000D01*
X201275142Y-88436571D01*
X200989428Y-88436571D01*
X200846571Y-88508000D01*
X201489428Y-89365142D02*
X201346571Y-89436571D01*
X200989428Y-89436571D01*
X200846571Y-89365142D01*
X200775142Y-89222285D01*
X200775142Y-89079428D01*
X200846571Y-88936571D01*
X200989428Y-88865142D01*
X201346571Y-88865142D01*
X201489428Y-88793714D01*
X201989428Y-88436571D02*
X202560857Y-88436571D01*
X202203714Y-87936571D02*
X202203714Y-89222285D01*
X202275142Y-89365142D01*
X202418000Y-89436571D01*
X202560857Y-89436571D01*
X203632285Y-89365142D02*
X203489428Y-89436571D01*
X203203714Y-89436571D01*
X203060857Y-89365142D01*
X202989428Y-89222285D01*
X202989428Y-88650857D01*
X203060857Y-88508000D01*
X203203714Y-88436571D01*
X203489428Y-88436571D01*
X203632285Y-88508000D01*
X203703714Y-88650857D01*
X203703714Y-88793714D01*
X202989428Y-88936571D01*
X204346571Y-89436571D02*
X204346571Y-88436571D01*
X204346571Y-88722285D02*
X204418000Y-88579428D01*
X204489428Y-88508000D01*
X204632285Y-88436571D01*
X204775142Y-88436571D01*
X205275142Y-89436571D02*
X205275142Y-88436571D01*
X205275142Y-87936571D02*
X205203714Y-88008000D01*
X205275142Y-88079428D01*
X205346571Y-88008000D01*
X205275142Y-87936571D01*
X205275142Y-88079428D01*
X206632285Y-89436571D02*
X206632285Y-88650857D01*
X206560857Y-88508000D01*
X206418000Y-88436571D01*
X206132285Y-88436571D01*
X205989428Y-88508000D01*
X206632285Y-89365142D02*
X206489428Y-89436571D01*
X206132285Y-89436571D01*
X205989428Y-89365142D01*
X205918000Y-89222285D01*
X205918000Y-89079428D01*
X205989428Y-88936571D01*
X206132285Y-88865142D01*
X206489428Y-88865142D01*
X206632285Y-88793714D01*
X207560857Y-89436571D02*
X207418000Y-89365142D01*
X207346571Y-89222285D01*
X207346571Y-87936571D01*
X208132285Y-89293714D02*
X208203714Y-89365142D01*
X208132285Y-89436571D01*
X208060857Y-89365142D01*
X208132285Y-89293714D01*
X208132285Y-89436571D01*
X208132285Y-88508000D02*
X208203714Y-88579428D01*
X208132285Y-88650857D01*
X208060857Y-88579428D01*
X208132285Y-88508000D01*
X208132285Y-88650857D01*
X210489428Y-88650857D02*
X209989428Y-88650857D01*
X209989428Y-89436571D02*
X209989428Y-87936571D01*
X210703714Y-87936571D01*
X212132285Y-89436571D02*
X211632285Y-88722285D01*
X211275142Y-89436571D02*
X211275142Y-87936571D01*
X211846571Y-87936571D01*
X211989428Y-88008000D01*
X212060857Y-88079428D01*
X212132285Y-88222285D01*
X212132285Y-88436571D01*
X212060857Y-88579428D01*
X211989428Y-88650857D01*
X211846571Y-88722285D01*
X211275142Y-88722285D01*
X213418000Y-88436571D02*
X213418000Y-89436571D01*
X213060857Y-87865142D02*
X212703714Y-88936571D01*
X213632285Y-88936571D01*
X197275142Y-91415142D02*
X198418000Y-91415142D01*
X199989428Y-91843714D02*
X199918000Y-91915142D01*
X199703714Y-91986571D01*
X199560857Y-91986571D01*
X199346571Y-91915142D01*
X199203714Y-91772285D01*
X199132285Y-91629428D01*
X199060857Y-91343714D01*
X199060857Y-91129428D01*
X199132285Y-90843714D01*
X199203714Y-90700857D01*
X199346571Y-90558000D01*
X199560857Y-90486571D01*
X199703714Y-90486571D01*
X199918000Y-90558000D01*
X199989428Y-90629428D01*
X200846571Y-91986571D02*
X200703714Y-91915142D01*
X200632285Y-91843714D01*
X200560857Y-91700857D01*
X200560857Y-91272285D01*
X200632285Y-91129428D01*
X200703714Y-91058000D01*
X200846571Y-90986571D01*
X201060857Y-90986571D01*
X201203714Y-91058000D01*
X201275142Y-91129428D01*
X201346571Y-91272285D01*
X201346571Y-91700857D01*
X201275142Y-91843714D01*
X201203714Y-91915142D01*
X201060857Y-91986571D01*
X200846571Y-91986571D01*
X201989428Y-90986571D02*
X201989428Y-92486571D01*
X201989428Y-91058000D02*
X202132285Y-90986571D01*
X202418000Y-90986571D01*
X202560857Y-91058000D01*
X202632285Y-91129428D01*
X202703714Y-91272285D01*
X202703714Y-91700857D01*
X202632285Y-91843714D01*
X202560857Y-91915142D01*
X202418000Y-91986571D01*
X202132285Y-91986571D01*
X201989428Y-91915142D01*
X203346571Y-90986571D02*
X203346571Y-92486571D01*
X203346571Y-91058000D02*
X203489428Y-90986571D01*
X203775142Y-90986571D01*
X203918000Y-91058000D01*
X203989428Y-91129428D01*
X204060857Y-91272285D01*
X204060857Y-91700857D01*
X203989428Y-91843714D01*
X203918000Y-91915142D01*
X203775142Y-91986571D01*
X203489428Y-91986571D01*
X203346571Y-91915142D01*
X205275142Y-91915142D02*
X205132285Y-91986571D01*
X204846571Y-91986571D01*
X204703714Y-91915142D01*
X204632285Y-91772285D01*
X204632285Y-91200857D01*
X204703714Y-91058000D01*
X204846571Y-90986571D01*
X205132285Y-90986571D01*
X205275142Y-91058000D01*
X205346571Y-91200857D01*
X205346571Y-91343714D01*
X204632285Y-91486571D01*
X205989428Y-91986571D02*
X205989428Y-90986571D01*
X205989428Y-91272285D02*
X206060857Y-91129428D01*
X206132285Y-91058000D01*
X206275142Y-90986571D01*
X206418000Y-90986571D01*
X207918000Y-90986571D02*
X208203714Y-91986571D01*
X208489428Y-91272285D01*
X208775142Y-91986571D01*
X209060857Y-90986571D01*
X210203714Y-91915142D02*
X210060857Y-91986571D01*
X209775142Y-91986571D01*
X209632285Y-91915142D01*
X209560857Y-91772285D01*
X209560857Y-91200857D01*
X209632285Y-91058000D01*
X209775142Y-90986571D01*
X210060857Y-90986571D01*
X210203714Y-91058000D01*
X210275142Y-91200857D01*
X210275142Y-91343714D01*
X209560857Y-91486571D01*
X210918000Y-91986571D02*
X210918000Y-90986571D01*
X210918000Y-90486571D02*
X210846571Y-90558000D01*
X210918000Y-90629428D01*
X210989428Y-90558000D01*
X210918000Y-90486571D01*
X210918000Y-90629428D01*
X212275142Y-90986571D02*
X212275142Y-92200857D01*
X212203714Y-92343714D01*
X212132285Y-92415142D01*
X211989428Y-92486571D01*
X211775142Y-92486571D01*
X211632285Y-92415142D01*
X212275142Y-91915142D02*
X212132285Y-91986571D01*
X211846571Y-91986571D01*
X211703714Y-91915142D01*
X211632285Y-91843714D01*
X211560857Y-91700857D01*
X211560857Y-91272285D01*
X211632285Y-91129428D01*
X211703714Y-91058000D01*
X211846571Y-90986571D01*
X212132285Y-90986571D01*
X212275142Y-91058000D01*
X212989428Y-91986571D02*
X212989428Y-90486571D01*
X213632285Y-91986571D02*
X213632285Y-91200857D01*
X213560857Y-91058000D01*
X213418000Y-90986571D01*
X213203714Y-90986571D01*
X213060857Y-91058000D01*
X212989428Y-91129428D01*
X214132285Y-90986571D02*
X214703714Y-90986571D01*
X214346571Y-90486571D02*
X214346571Y-91772285D01*
X214418000Y-91915142D01*
X214560857Y-91986571D01*
X214703714Y-91986571D01*
X216918000Y-91915142D02*
X216775142Y-91986571D01*
X216489428Y-91986571D01*
X216346571Y-91915142D01*
X216275142Y-91772285D01*
X216275142Y-91200857D01*
X216346571Y-91058000D01*
X216489428Y-90986571D01*
X216775142Y-90986571D01*
X216918000Y-91058000D01*
X216989428Y-91200857D01*
X216989428Y-91343714D01*
X216275142Y-91486571D01*
X217489428Y-91986571D02*
X218275142Y-90986571D01*
X217489428Y-90986571D02*
X218275142Y-91986571D01*
X218632285Y-90986571D02*
X219203714Y-90986571D01*
X218846571Y-90486571D02*
X218846571Y-91772285D01*
X218918000Y-91915142D01*
X219060857Y-91986571D01*
X219203714Y-91986571D01*
X220275142Y-91915142D02*
X220132285Y-91986571D01*
X219846571Y-91986571D01*
X219703714Y-91915142D01*
X219632285Y-91772285D01*
X219632285Y-91200857D01*
X219703714Y-91058000D01*
X219846571Y-90986571D01*
X220132285Y-90986571D01*
X220275142Y-91058000D01*
X220346571Y-91200857D01*
X220346571Y-91343714D01*
X219632285Y-91486571D01*
X220989428Y-91986571D02*
X220989428Y-90986571D01*
X220989428Y-91272285D02*
X221060857Y-91129428D01*
X221132285Y-91058000D01*
X221275142Y-90986571D01*
X221418000Y-90986571D01*
X221918000Y-90986571D02*
X221918000Y-91986571D01*
X221918000Y-91129428D02*
X221989428Y-91058000D01*
X222132285Y-90986571D01*
X222346571Y-90986571D01*
X222489428Y-91058000D01*
X222560857Y-91200857D01*
X222560857Y-91986571D01*
X223918000Y-91986571D02*
X223918000Y-91200857D01*
X223846571Y-91058000D01*
X223703714Y-90986571D01*
X223418000Y-90986571D01*
X223275142Y-91058000D01*
X223918000Y-91915142D02*
X223775142Y-91986571D01*
X223418000Y-91986571D01*
X223275142Y-91915142D01*
X223203714Y-91772285D01*
X223203714Y-91629428D01*
X223275142Y-91486571D01*
X223418000Y-91415142D01*
X223775142Y-91415142D01*
X223918000Y-91343714D01*
X224846571Y-91986571D02*
X224703714Y-91915142D01*
X224632285Y-91772285D01*
X224632285Y-90486571D01*
X225418000Y-91843714D02*
X225489428Y-91915142D01*
X225418000Y-91986571D01*
X225346571Y-91915142D01*
X225418000Y-91843714D01*
X225418000Y-91986571D01*
X225418000Y-91058000D02*
X225489428Y-91129428D01*
X225418000Y-91200857D01*
X225346571Y-91129428D01*
X225418000Y-91058000D01*
X225418000Y-91200857D01*
X228060857Y-91986571D02*
X227203714Y-91986571D01*
X227632285Y-91986571D02*
X227632285Y-90486571D01*
X227489428Y-90700857D01*
X227346571Y-90843714D01*
X227203714Y-90915142D01*
X230132285Y-90486571D02*
X230418000Y-90486571D01*
X230560857Y-90558000D01*
X230703714Y-90700857D01*
X230775142Y-90986571D01*
X230775142Y-91486571D01*
X230703714Y-91772285D01*
X230560857Y-91915142D01*
X230418000Y-91986571D01*
X230132285Y-91986571D01*
X229989428Y-91915142D01*
X229846571Y-91772285D01*
X229775142Y-91486571D01*
X229775142Y-90986571D01*
X229846571Y-90700857D01*
X229989428Y-90558000D01*
X230132285Y-90486571D01*
X231275142Y-90986571D02*
X232060857Y-90986571D01*
X231275142Y-91986571D01*
X232060857Y-91986571D01*
X233703714Y-90415142D02*
X232418000Y-92343714D01*
X233989428Y-90986571D02*
X234560857Y-90986571D01*
X234203714Y-91986571D02*
X234203714Y-90700857D01*
X234275142Y-90558000D01*
X234418000Y-90486571D01*
X234560857Y-90486571D01*
X235632285Y-91915142D02*
X235489428Y-91986571D01*
X235203714Y-91986571D01*
X235060857Y-91915142D01*
X234989428Y-91772285D01*
X234989428Y-91200857D01*
X235060857Y-91058000D01*
X235203714Y-90986571D01*
X235489428Y-90986571D01*
X235632285Y-91058000D01*
X235703714Y-91200857D01*
X235703714Y-91343714D01*
X234989428Y-91486571D01*
X236918000Y-91915142D02*
X236775142Y-91986571D01*
X236489428Y-91986571D01*
X236346571Y-91915142D01*
X236275142Y-91772285D01*
X236275142Y-91200857D01*
X236346571Y-91058000D01*
X236489428Y-90986571D01*
X236775142Y-90986571D01*
X236918000Y-91058000D01*
X236989428Y-91200857D01*
X236989428Y-91343714D01*
X236275142Y-91486571D01*
X237418000Y-90986571D02*
X237989428Y-90986571D01*
X237632285Y-90486571D02*
X237632285Y-91772285D01*
X237703714Y-91915142D01*
X237846571Y-91986571D01*
X237989428Y-91986571D01*
X238275142Y-90629428D02*
X238560857Y-90415142D01*
X238846571Y-90629428D01*
X239275142Y-90629428D02*
X239346571Y-90558000D01*
X239489428Y-90486571D01*
X239846571Y-90486571D01*
X239989428Y-90558000D01*
X240060857Y-90629428D01*
X240132285Y-90772285D01*
X240132285Y-90915142D01*
X240060857Y-91129428D01*
X239203714Y-91986571D01*
X240132285Y-91986571D01*
X197275142Y-93965142D02*
X198418000Y-93965142D01*
X199060857Y-94465142D02*
X199275142Y-94536571D01*
X199632285Y-94536571D01*
X199775142Y-94465142D01*
X199846571Y-94393714D01*
X199918000Y-94250857D01*
X199918000Y-94108000D01*
X199846571Y-93965142D01*
X199775142Y-93893714D01*
X199632285Y-93822285D01*
X199346571Y-93750857D01*
X199203714Y-93679428D01*
X199132285Y-93608000D01*
X199060857Y-93465142D01*
X199060857Y-93322285D01*
X199132285Y-93179428D01*
X199203714Y-93108000D01*
X199346571Y-93036571D01*
X199703714Y-93036571D01*
X199918000Y-93108000D01*
X200560857Y-94536571D02*
X200560857Y-93536571D01*
X200560857Y-93036571D02*
X200489428Y-93108000D01*
X200560857Y-93179428D01*
X200632285Y-93108000D01*
X200560857Y-93036571D01*
X200560857Y-93179428D01*
X201489428Y-94536571D02*
X201346571Y-94465142D01*
X201275142Y-94322285D01*
X201275142Y-93036571D01*
X202060857Y-94536571D02*
X202060857Y-93036571D01*
X202203714Y-93965142D02*
X202632285Y-94536571D01*
X202632285Y-93536571D02*
X202060857Y-94108000D01*
X203203714Y-94465142D02*
X203346571Y-94536571D01*
X203632285Y-94536571D01*
X203775142Y-94465142D01*
X203846571Y-94322285D01*
X203846571Y-94250857D01*
X203775142Y-94108000D01*
X203632285Y-94036571D01*
X203418000Y-94036571D01*
X203275142Y-93965142D01*
X203203714Y-93822285D01*
X203203714Y-93750857D01*
X203275142Y-93608000D01*
X203418000Y-93536571D01*
X203632285Y-93536571D01*
X203775142Y-93608000D01*
X205132285Y-94465142D02*
X204989428Y-94536571D01*
X204703714Y-94536571D01*
X204560857Y-94465142D01*
X204489428Y-94393714D01*
X204418000Y-94250857D01*
X204418000Y-93822285D01*
X204489428Y-93679428D01*
X204560857Y-93608000D01*
X204703714Y-93536571D01*
X204989428Y-93536571D01*
X205132285Y-93608000D01*
X205775142Y-94536571D02*
X205775142Y-93536571D01*
X205775142Y-93822285D02*
X205846571Y-93679428D01*
X205918000Y-93608000D01*
X206060857Y-93536571D01*
X206203714Y-93536571D01*
X207275142Y-94465142D02*
X207132285Y-94536571D01*
X206846571Y-94536571D01*
X206703714Y-94465142D01*
X206632285Y-94322285D01*
X206632285Y-93750857D01*
X206703714Y-93608000D01*
X206846571Y-93536571D01*
X207132285Y-93536571D01*
X207275142Y-93608000D01*
X207346571Y-93750857D01*
X207346571Y-93893714D01*
X206632285Y-94036571D01*
X208560857Y-94465142D02*
X208418000Y-94536571D01*
X208132285Y-94536571D01*
X207989428Y-94465142D01*
X207918000Y-94322285D01*
X207918000Y-93750857D01*
X207989428Y-93608000D01*
X208132285Y-93536571D01*
X208418000Y-93536571D01*
X208560857Y-93608000D01*
X208632285Y-93750857D01*
X208632285Y-93893714D01*
X207918000Y-94036571D01*
X209275142Y-93536571D02*
X209275142Y-94536571D01*
X209275142Y-93679428D02*
X209346571Y-93608000D01*
X209489428Y-93536571D01*
X209703714Y-93536571D01*
X209846571Y-93608000D01*
X209918000Y-93750857D01*
X209918000Y-94536571D01*
X212418000Y-94465142D02*
X212275142Y-94536571D01*
X211989428Y-94536571D01*
X211846571Y-94465142D01*
X211775142Y-94393714D01*
X211703714Y-94250857D01*
X211703714Y-93822285D01*
X211775142Y-93679428D01*
X211846571Y-93608000D01*
X211989428Y-93536571D01*
X212275142Y-93536571D01*
X212418000Y-93608000D01*
X213275142Y-94536571D02*
X213132285Y-94465142D01*
X213060857Y-94393714D01*
X212989428Y-94250857D01*
X212989428Y-93822285D01*
X213060857Y-93679428D01*
X213132285Y-93608000D01*
X213275142Y-93536571D01*
X213489428Y-93536571D01*
X213632285Y-93608000D01*
X213703714Y-93679428D01*
X213775142Y-93822285D01*
X213775142Y-94250857D01*
X213703714Y-94393714D01*
X213632285Y-94465142D01*
X213489428Y-94536571D01*
X213275142Y-94536571D01*
X214632285Y-94536571D02*
X214489428Y-94465142D01*
X214418000Y-94322285D01*
X214418000Y-93036571D01*
X215418000Y-94536571D02*
X215275142Y-94465142D01*
X215203714Y-94393714D01*
X215132285Y-94250857D01*
X215132285Y-93822285D01*
X215203714Y-93679428D01*
X215275142Y-93608000D01*
X215418000Y-93536571D01*
X215632285Y-93536571D01*
X215775142Y-93608000D01*
X215846571Y-93679428D01*
X215918000Y-93822285D01*
X215918000Y-94250857D01*
X215846571Y-94393714D01*
X215775142Y-94465142D01*
X215632285Y-94536571D01*
X215418000Y-94536571D01*
X216560857Y-94536571D02*
X216560857Y-93536571D01*
X216560857Y-93822285D02*
X216632285Y-93679428D01*
X216703714Y-93608000D01*
X216846571Y-93536571D01*
X216989428Y-93536571D01*
X217489428Y-94393714D02*
X217560857Y-94465142D01*
X217489428Y-94536571D01*
X217418000Y-94465142D01*
X217489428Y-94393714D01*
X217489428Y-94536571D01*
X217489428Y-93608000D02*
X217560857Y-93679428D01*
X217489428Y-93750857D01*
X217418000Y-93679428D01*
X217489428Y-93608000D01*
X217489428Y-93750857D01*
X219203714Y-93536571D02*
X219489428Y-94536571D01*
X219775142Y-93822285D01*
X220060857Y-94536571D01*
X220346571Y-93536571D01*
X220918000Y-94536571D02*
X220918000Y-93036571D01*
X221560857Y-94536571D02*
X221560857Y-93750857D01*
X221489428Y-93608000D01*
X221346571Y-93536571D01*
X221132285Y-93536571D01*
X220989428Y-93608000D01*
X220918000Y-93679428D01*
X222275142Y-94536571D02*
X222275142Y-93536571D01*
X222275142Y-93036571D02*
X222203714Y-93108000D01*
X222275142Y-93179428D01*
X222346571Y-93108000D01*
X222275142Y-93036571D01*
X222275142Y-93179428D01*
X222775142Y-93536571D02*
X223346571Y-93536571D01*
X222989428Y-93036571D02*
X222989428Y-94322285D01*
X223060857Y-94465142D01*
X223203714Y-94536571D01*
X223346571Y-94536571D01*
X224418000Y-94465142D02*
X224275142Y-94536571D01*
X223989428Y-94536571D01*
X223846571Y-94465142D01*
X223775142Y-94322285D01*
X223775142Y-93750857D01*
X223846571Y-93608000D01*
X223989428Y-93536571D01*
X224275142Y-93536571D01*
X224418000Y-93608000D01*
X224489428Y-93750857D01*
X224489428Y-93893714D01*
X223775142Y-94036571D01*
X197275142Y-96515142D02*
X198418000Y-96515142D01*
X199060857Y-97015142D02*
X199275142Y-97086571D01*
X199632285Y-97086571D01*
X199775142Y-97015142D01*
X199846571Y-96943714D01*
X199918000Y-96800857D01*
X199918000Y-96658000D01*
X199846571Y-96515142D01*
X199775142Y-96443714D01*
X199632285Y-96372285D01*
X199346571Y-96300857D01*
X199203714Y-96229428D01*
X199132285Y-96158000D01*
X199060857Y-96015142D01*
X199060857Y-95872285D01*
X199132285Y-95729428D01*
X199203714Y-95658000D01*
X199346571Y-95586571D01*
X199703714Y-95586571D01*
X199918000Y-95658000D01*
X200775142Y-97086571D02*
X200632285Y-97015142D01*
X200560857Y-96943714D01*
X200489428Y-96800857D01*
X200489428Y-96372285D01*
X200560857Y-96229428D01*
X200632285Y-96158000D01*
X200775142Y-96086571D01*
X200989428Y-96086571D01*
X201132285Y-96158000D01*
X201203714Y-96229428D01*
X201275142Y-96372285D01*
X201275142Y-96800857D01*
X201203714Y-96943714D01*
X201132285Y-97015142D01*
X200989428Y-97086571D01*
X200775142Y-97086571D01*
X202132285Y-97086571D02*
X201989428Y-97015142D01*
X201918000Y-96872285D01*
X201918000Y-95586571D01*
X203346571Y-97086571D02*
X203346571Y-95586571D01*
X203346571Y-97015142D02*
X203203714Y-97086571D01*
X202918000Y-97086571D01*
X202775142Y-97015142D01*
X202703714Y-96943714D01*
X202632285Y-96800857D01*
X202632285Y-96372285D01*
X202703714Y-96229428D01*
X202775142Y-96158000D01*
X202918000Y-96086571D01*
X203203714Y-96086571D01*
X203346571Y-96158000D01*
X204632285Y-97015142D02*
X204489428Y-97086571D01*
X204203714Y-97086571D01*
X204060857Y-97015142D01*
X203989428Y-96872285D01*
X203989428Y-96300857D01*
X204060857Y-96158000D01*
X204203714Y-96086571D01*
X204489428Y-96086571D01*
X204632285Y-96158000D01*
X204703714Y-96300857D01*
X204703714Y-96443714D01*
X203989428Y-96586571D01*
X205346571Y-97086571D02*
X205346571Y-96086571D01*
X205346571Y-96372285D02*
X205418000Y-96229428D01*
X205489428Y-96158000D01*
X205632285Y-96086571D01*
X205775142Y-96086571D01*
X207418000Y-97086571D02*
X207418000Y-96086571D01*
X207418000Y-96229428D02*
X207489428Y-96158000D01*
X207632285Y-96086571D01*
X207846571Y-96086571D01*
X207989428Y-96158000D01*
X208060857Y-96300857D01*
X208060857Y-97086571D01*
X208060857Y-96300857D02*
X208132285Y-96158000D01*
X208275142Y-96086571D01*
X208489428Y-96086571D01*
X208632285Y-96158000D01*
X208703714Y-96300857D01*
X208703714Y-97086571D01*
X210060857Y-97086571D02*
X210060857Y-96300857D01*
X209989428Y-96158000D01*
X209846571Y-96086571D01*
X209560857Y-96086571D01*
X209418000Y-96158000D01*
X210060857Y-97015142D02*
X209918000Y-97086571D01*
X209560857Y-97086571D01*
X209418000Y-97015142D01*
X209346571Y-96872285D01*
X209346571Y-96729428D01*
X209418000Y-96586571D01*
X209560857Y-96515142D01*
X209918000Y-96515142D01*
X210060857Y-96443714D01*
X210703714Y-97015142D02*
X210846571Y-97086571D01*
X211132285Y-97086571D01*
X211275142Y-97015142D01*
X211346571Y-96872285D01*
X211346571Y-96800857D01*
X211275142Y-96658000D01*
X211132285Y-96586571D01*
X210918000Y-96586571D01*
X210775142Y-96515142D01*
X210703714Y-96372285D01*
X210703714Y-96300857D01*
X210775142Y-96158000D01*
X210918000Y-96086571D01*
X211132285Y-96086571D01*
X211275142Y-96158000D01*
X211989428Y-97086571D02*
X211989428Y-95586571D01*
X212132285Y-96515142D02*
X212560857Y-97086571D01*
X212560857Y-96086571D02*
X211989428Y-96658000D01*
X214989428Y-97015142D02*
X214846571Y-97086571D01*
X214560857Y-97086571D01*
X214418000Y-97015142D01*
X214346571Y-96943714D01*
X214275142Y-96800857D01*
X214275142Y-96372285D01*
X214346571Y-96229428D01*
X214418000Y-96158000D01*
X214560857Y-96086571D01*
X214846571Y-96086571D01*
X214989428Y-96158000D01*
X215846571Y-97086571D02*
X215703714Y-97015142D01*
X215632285Y-96943714D01*
X215560857Y-96800857D01*
X215560857Y-96372285D01*
X215632285Y-96229428D01*
X215703714Y-96158000D01*
X215846571Y-96086571D01*
X216060857Y-96086571D01*
X216203714Y-96158000D01*
X216275142Y-96229428D01*
X216346571Y-96372285D01*
X216346571Y-96800857D01*
X216275142Y-96943714D01*
X216203714Y-97015142D01*
X216060857Y-97086571D01*
X215846571Y-97086571D01*
X217203714Y-97086571D02*
X217060857Y-97015142D01*
X216989428Y-96872285D01*
X216989428Y-95586571D01*
X217989428Y-97086571D02*
X217846571Y-97015142D01*
X217775142Y-96943714D01*
X217703714Y-96800857D01*
X217703714Y-96372285D01*
X217775142Y-96229428D01*
X217846571Y-96158000D01*
X217989428Y-96086571D01*
X218203714Y-96086571D01*
X218346571Y-96158000D01*
X218418000Y-96229428D01*
X218489428Y-96372285D01*
X218489428Y-96800857D01*
X218418000Y-96943714D01*
X218346571Y-97015142D01*
X218203714Y-97086571D01*
X217989428Y-97086571D01*
X219132285Y-97086571D02*
X219132285Y-96086571D01*
X219132285Y-96372285D02*
X219203714Y-96229428D01*
X219275142Y-96158000D01*
X219418000Y-96086571D01*
X219560857Y-96086571D01*
X220060857Y-96943714D02*
X220132285Y-97015142D01*
X220060857Y-97086571D01*
X219989428Y-97015142D01*
X220060857Y-96943714D01*
X220060857Y-97086571D01*
X220060857Y-96158000D02*
X220132285Y-96229428D01*
X220060857Y-96300857D01*
X219989428Y-96229428D01*
X220060857Y-96158000D01*
X220060857Y-96300857D01*
X222560857Y-96086571D02*
X222560857Y-97300857D01*
X222489428Y-97443714D01*
X222418000Y-97515142D01*
X222275142Y-97586571D01*
X222060857Y-97586571D01*
X221918000Y-97515142D01*
X222560857Y-97015142D02*
X222418000Y-97086571D01*
X222132285Y-97086571D01*
X221989428Y-97015142D01*
X221918000Y-96943714D01*
X221846571Y-96800857D01*
X221846571Y-96372285D01*
X221918000Y-96229428D01*
X221989428Y-96158000D01*
X222132285Y-96086571D01*
X222418000Y-96086571D01*
X222560857Y-96158000D01*
X223275142Y-97086571D02*
X223275142Y-96086571D01*
X223275142Y-96372285D02*
X223346571Y-96229428D01*
X223418000Y-96158000D01*
X223560857Y-96086571D01*
X223703714Y-96086571D01*
X224775142Y-97015142D02*
X224632285Y-97086571D01*
X224346571Y-97086571D01*
X224203714Y-97015142D01*
X224132285Y-96872285D01*
X224132285Y-96300857D01*
X224203714Y-96158000D01*
X224346571Y-96086571D01*
X224632285Y-96086571D01*
X224775142Y-96158000D01*
X224846571Y-96300857D01*
X224846571Y-96443714D01*
X224132285Y-96586571D01*
X226060857Y-97015142D02*
X225918000Y-97086571D01*
X225632285Y-97086571D01*
X225489428Y-97015142D01*
X225418000Y-96872285D01*
X225418000Y-96300857D01*
X225489428Y-96158000D01*
X225632285Y-96086571D01*
X225918000Y-96086571D01*
X226060857Y-96158000D01*
X226132285Y-96300857D01*
X226132285Y-96443714D01*
X225418000Y-96586571D01*
X226775142Y-96086571D02*
X226775142Y-97086571D01*
X226775142Y-96229428D02*
X226846571Y-96158000D01*
X226989428Y-96086571D01*
X227203714Y-96086571D01*
X227346571Y-96158000D01*
X227418000Y-96300857D01*
X227418000Y-97086571D01*
X197275142Y-99065142D02*
X198418000Y-99065142D01*
X199632285Y-98850857D02*
X199132285Y-98850857D01*
X199132285Y-99636571D02*
X199132285Y-98136571D01*
X199846571Y-98136571D01*
X200418000Y-99636571D02*
X200418000Y-98636571D01*
X200418000Y-98136571D02*
X200346571Y-98208000D01*
X200418000Y-98279428D01*
X200489428Y-98208000D01*
X200418000Y-98136571D01*
X200418000Y-98279428D01*
X201132285Y-98636571D02*
X201132285Y-99636571D01*
X201132285Y-98779428D02*
X201203714Y-98708000D01*
X201346571Y-98636571D01*
X201560857Y-98636571D01*
X201703714Y-98708000D01*
X201775142Y-98850857D01*
X201775142Y-99636571D01*
X202489428Y-99636571D02*
X202489428Y-98636571D01*
X202489428Y-98136571D02*
X202418000Y-98208000D01*
X202489428Y-98279428D01*
X202560857Y-98208000D01*
X202489428Y-98136571D01*
X202489428Y-98279428D01*
X203132285Y-99565142D02*
X203275142Y-99636571D01*
X203560857Y-99636571D01*
X203703714Y-99565142D01*
X203775142Y-99422285D01*
X203775142Y-99350857D01*
X203703714Y-99208000D01*
X203560857Y-99136571D01*
X203346571Y-99136571D01*
X203203714Y-99065142D01*
X203132285Y-98922285D01*
X203132285Y-98850857D01*
X203203714Y-98708000D01*
X203346571Y-98636571D01*
X203560857Y-98636571D01*
X203703714Y-98708000D01*
X204418000Y-99636571D02*
X204418000Y-98136571D01*
X205060857Y-99636571D02*
X205060857Y-98850857D01*
X204989428Y-98708000D01*
X204846571Y-98636571D01*
X204632285Y-98636571D01*
X204489428Y-98708000D01*
X204418000Y-98779428D01*
X205775142Y-99493714D02*
X205846571Y-99565142D01*
X205775142Y-99636571D01*
X205703714Y-99565142D01*
X205775142Y-99493714D01*
X205775142Y-99636571D01*
X205775142Y-98708000D02*
X205846571Y-98779428D01*
X205775142Y-98850857D01*
X205703714Y-98779428D01*
X205775142Y-98708000D01*
X205775142Y-98850857D01*
X207846571Y-99636571D02*
X207703714Y-99565142D01*
X207632285Y-99422285D01*
X207632285Y-98136571D01*
X208989428Y-99565142D02*
X208846571Y-99636571D01*
X208560857Y-99636571D01*
X208418000Y-99565142D01*
X208346571Y-99422285D01*
X208346571Y-98850857D01*
X208418000Y-98708000D01*
X208560857Y-98636571D01*
X208846571Y-98636571D01*
X208989428Y-98708000D01*
X209060857Y-98850857D01*
X209060857Y-98993714D01*
X208346571Y-99136571D01*
X210346571Y-99636571D02*
X210346571Y-98850857D01*
X210275142Y-98708000D01*
X210132285Y-98636571D01*
X209846571Y-98636571D01*
X209703714Y-98708000D01*
X210346571Y-99565142D02*
X210203714Y-99636571D01*
X209846571Y-99636571D01*
X209703714Y-99565142D01*
X209632285Y-99422285D01*
X209632285Y-99279428D01*
X209703714Y-99136571D01*
X209846571Y-99065142D01*
X210203714Y-99065142D01*
X210346571Y-98993714D01*
X211703714Y-99636571D02*
X211703714Y-98136571D01*
X211703714Y-99565142D02*
X211560857Y-99636571D01*
X211275142Y-99636571D01*
X211132285Y-99565142D01*
X211060857Y-99493714D01*
X210989428Y-99350857D01*
X210989428Y-98922285D01*
X211060857Y-98779428D01*
X211132285Y-98708000D01*
X211275142Y-98636571D01*
X211560857Y-98636571D01*
X211703714Y-98708000D01*
X212418000Y-99065142D02*
X213560857Y-99065142D01*
X214060857Y-98636571D02*
X214632285Y-98636571D01*
X214275142Y-99636571D02*
X214275142Y-98350857D01*
X214346571Y-98208000D01*
X214489428Y-98136571D01*
X214632285Y-98136571D01*
X215132285Y-99636571D02*
X215132285Y-98636571D01*
X215132285Y-98922285D02*
X215203714Y-98779428D01*
X215275142Y-98708000D01*
X215418000Y-98636571D01*
X215560857Y-98636571D01*
X216632285Y-99565142D02*
X216489428Y-99636571D01*
X216203714Y-99636571D01*
X216060857Y-99565142D01*
X215989428Y-99422285D01*
X215989428Y-98850857D01*
X216060857Y-98708000D01*
X216203714Y-98636571D01*
X216489428Y-98636571D01*
X216632285Y-98708000D01*
X216703714Y-98850857D01*
X216703714Y-98993714D01*
X215989428Y-99136571D01*
X217918000Y-99565142D02*
X217775142Y-99636571D01*
X217489428Y-99636571D01*
X217346571Y-99565142D01*
X217275142Y-99422285D01*
X217275142Y-98850857D01*
X217346571Y-98708000D01*
X217489428Y-98636571D01*
X217775142Y-98636571D01*
X217918000Y-98708000D01*
X217989428Y-98850857D01*
X217989428Y-98993714D01*
X217275142Y-99136571D01*
X219775142Y-99636571D02*
X219775142Y-98136571D01*
X219775142Y-98850857D02*
X220632285Y-98850857D01*
X220632285Y-99636571D02*
X220632285Y-98136571D01*
X221275142Y-99208000D02*
X221989428Y-99208000D01*
X221132285Y-99636571D02*
X221632285Y-98136571D01*
X222132285Y-99636571D01*
X222560857Y-99565142D02*
X222775142Y-99636571D01*
X223132285Y-99636571D01*
X223275142Y-99565142D01*
X223346571Y-99493714D01*
X223418000Y-99350857D01*
X223418000Y-99208000D01*
X223346571Y-99065142D01*
X223275142Y-98993714D01*
X223132285Y-98922285D01*
X222846571Y-98850857D01*
X222703714Y-98779428D01*
X222632285Y-98708000D01*
X222560857Y-98565142D01*
X222560857Y-98422285D01*
X222632285Y-98279428D01*
X222703714Y-98208000D01*
X222846571Y-98136571D01*
X223203714Y-98136571D01*
X223418000Y-98208000D01*
X224775142Y-99636571D02*
X224060857Y-99636571D01*
X224060857Y-98136571D01*
X197275142Y-101615142D02*
X198418000Y-101615142D01*
X199989428Y-102043714D02*
X199918000Y-102115142D01*
X199703714Y-102186571D01*
X199560857Y-102186571D01*
X199346571Y-102115142D01*
X199203714Y-101972285D01*
X199132285Y-101829428D01*
X199060857Y-101543714D01*
X199060857Y-101329428D01*
X199132285Y-101043714D01*
X199203714Y-100900857D01*
X199346571Y-100758000D01*
X199560857Y-100686571D01*
X199703714Y-100686571D01*
X199918000Y-100758000D01*
X199989428Y-100829428D01*
X200846571Y-102186571D02*
X200703714Y-102115142D01*
X200632285Y-102043714D01*
X200560857Y-101900857D01*
X200560857Y-101472285D01*
X200632285Y-101329428D01*
X200703714Y-101258000D01*
X200846571Y-101186571D01*
X201060857Y-101186571D01*
X201203714Y-101258000D01*
X201275142Y-101329428D01*
X201346571Y-101472285D01*
X201346571Y-101900857D01*
X201275142Y-102043714D01*
X201203714Y-102115142D01*
X201060857Y-102186571D01*
X200846571Y-102186571D01*
X201989428Y-102186571D02*
X201989428Y-101186571D01*
X201989428Y-101472285D02*
X202060857Y-101329428D01*
X202132285Y-101258000D01*
X202275142Y-101186571D01*
X202418000Y-101186571D01*
X203489428Y-102115142D02*
X203346571Y-102186571D01*
X203060857Y-102186571D01*
X202918000Y-102115142D01*
X202846571Y-101972285D01*
X202846571Y-101400857D01*
X202918000Y-101258000D01*
X203060857Y-101186571D01*
X203346571Y-101186571D01*
X203489428Y-101258000D01*
X203560857Y-101400857D01*
X203560857Y-101543714D01*
X202846571Y-101686571D01*
X205132285Y-101186571D02*
X205703714Y-101186571D01*
X205346571Y-100686571D02*
X205346571Y-101972285D01*
X205418000Y-102115142D01*
X205560857Y-102186571D01*
X205703714Y-102186571D01*
X206203714Y-102186571D02*
X206203714Y-100686571D01*
X206846571Y-102186571D02*
X206846571Y-101400857D01*
X206775142Y-101258000D01*
X206632285Y-101186571D01*
X206418000Y-101186571D01*
X206275142Y-101258000D01*
X206203714Y-101329428D01*
X207560857Y-102186571D02*
X207560857Y-101186571D01*
X207560857Y-100686571D02*
X207489428Y-100758000D01*
X207560857Y-100829428D01*
X207632285Y-100758000D01*
X207560857Y-100686571D01*
X207560857Y-100829428D01*
X208918000Y-102115142D02*
X208775142Y-102186571D01*
X208489428Y-102186571D01*
X208346571Y-102115142D01*
X208275142Y-102043714D01*
X208203714Y-101900857D01*
X208203714Y-101472285D01*
X208275142Y-101329428D01*
X208346571Y-101258000D01*
X208489428Y-101186571D01*
X208775142Y-101186571D01*
X208918000Y-101258000D01*
X209560857Y-102186571D02*
X209560857Y-100686571D01*
X209703714Y-101615142D02*
X210132285Y-102186571D01*
X210132285Y-101186571D02*
X209560857Y-101758000D01*
X210775142Y-101186571D02*
X210775142Y-102186571D01*
X210775142Y-101329428D02*
X210846571Y-101258000D01*
X210989428Y-101186571D01*
X211203714Y-101186571D01*
X211346571Y-101258000D01*
X211418000Y-101400857D01*
X211418000Y-102186571D01*
X212703714Y-102115142D02*
X212560857Y-102186571D01*
X212275142Y-102186571D01*
X212132285Y-102115142D01*
X212060857Y-101972285D01*
X212060857Y-101400857D01*
X212132285Y-101258000D01*
X212275142Y-101186571D01*
X212560857Y-101186571D01*
X212703714Y-101258000D01*
X212775142Y-101400857D01*
X212775142Y-101543714D01*
X212060857Y-101686571D01*
X213346571Y-102115142D02*
X213489428Y-102186571D01*
X213775142Y-102186571D01*
X213918000Y-102115142D01*
X213989428Y-101972285D01*
X213989428Y-101900857D01*
X213918000Y-101758000D01*
X213775142Y-101686571D01*
X213560857Y-101686571D01*
X213418000Y-101615142D01*
X213346571Y-101472285D01*
X213346571Y-101400857D01*
X213418000Y-101258000D01*
X213560857Y-101186571D01*
X213775142Y-101186571D01*
X213918000Y-101258000D01*
X214560857Y-102115142D02*
X214703714Y-102186571D01*
X214989428Y-102186571D01*
X215132285Y-102115142D01*
X215203714Y-101972285D01*
X215203714Y-101900857D01*
X215132285Y-101758000D01*
X214989428Y-101686571D01*
X214775142Y-101686571D01*
X214632285Y-101615142D01*
X214560857Y-101472285D01*
X214560857Y-101400857D01*
X214632285Y-101258000D01*
X214775142Y-101186571D01*
X214989428Y-101186571D01*
X215132285Y-101258000D01*
X215846571Y-102043714D02*
X215918000Y-102115142D01*
X215846571Y-102186571D01*
X215775142Y-102115142D01*
X215846571Y-102043714D01*
X215846571Y-102186571D01*
X215846571Y-101258000D02*
X215918000Y-101329428D01*
X215846571Y-101400857D01*
X215775142Y-101329428D01*
X215846571Y-101258000D01*
X215846571Y-101400857D01*
X217989428Y-100686571D02*
X218132285Y-100686571D01*
X218275142Y-100758000D01*
X218346571Y-100829428D01*
X218418000Y-100972285D01*
X218489428Y-101258000D01*
X218489428Y-101615142D01*
X218418000Y-101900857D01*
X218346571Y-102043714D01*
X218275142Y-102115142D01*
X218132285Y-102186571D01*
X217989428Y-102186571D01*
X217846571Y-102115142D01*
X217775142Y-102043714D01*
X217703714Y-101900857D01*
X217632285Y-101615142D01*
X217632285Y-101258000D01*
X217703714Y-100972285D01*
X217775142Y-100829428D01*
X217846571Y-100758000D01*
X217989428Y-100686571D01*
X219132285Y-102043714D02*
X219203714Y-102115142D01*
X219132285Y-102186571D01*
X219060857Y-102115142D01*
X219132285Y-102043714D01*
X219132285Y-102186571D01*
X220132285Y-100686571D02*
X220275142Y-100686571D01*
X220418000Y-100758000D01*
X220489428Y-100829428D01*
X220560857Y-100972285D01*
X220632285Y-101258000D01*
X220632285Y-101615142D01*
X220560857Y-101900857D01*
X220489428Y-102043714D01*
X220418000Y-102115142D01*
X220275142Y-102186571D01*
X220132285Y-102186571D01*
X219989428Y-102115142D01*
X219918000Y-102043714D01*
X219846571Y-101900857D01*
X219775142Y-101615142D01*
X219775142Y-101258000D01*
X219846571Y-100972285D01*
X219918000Y-100829428D01*
X219989428Y-100758000D01*
X220132285Y-100686571D01*
X221918000Y-100686571D02*
X221632285Y-100686571D01*
X221489428Y-100758000D01*
X221418000Y-100829428D01*
X221275142Y-101043714D01*
X221203714Y-101329428D01*
X221203714Y-101900857D01*
X221275142Y-102043714D01*
X221346571Y-102115142D01*
X221489428Y-102186571D01*
X221775142Y-102186571D01*
X221918000Y-102115142D01*
X221989428Y-102043714D01*
X222060857Y-101900857D01*
X222060857Y-101543714D01*
X221989428Y-101400857D01*
X221918000Y-101329428D01*
X221775142Y-101258000D01*
X221489428Y-101258000D01*
X221346571Y-101329428D01*
X221275142Y-101400857D01*
X221203714Y-101543714D01*
X222560857Y-100686571D02*
X223489428Y-100686571D01*
X222989428Y-101258000D01*
X223203714Y-101258000D01*
X223346571Y-101329428D01*
X223418000Y-101400857D01*
X223489428Y-101543714D01*
X223489428Y-101900857D01*
X223418000Y-102043714D01*
X223346571Y-102115142D01*
X223203714Y-102186571D01*
X222775142Y-102186571D01*
X222632285Y-102115142D01*
X222560857Y-102043714D01*
X224060857Y-100686571D02*
X224060857Y-100972285D01*
X224632285Y-100686571D02*
X224632285Y-100972285D01*
M02*
