G04 #@! TF.GenerationSoftware,KiCad,Pcbnew,no-vcs-found-895c0bb~58~ubuntu16.04.1*
G04 #@! TF.CreationDate,2017-07-11T17:07:46-04:00*
G04 #@! TF.ProjectId,alim,616C696D2E6B696361645F7063620000,rev?*
G04 #@! TF.SameCoordinates,Original
G04 #@! TF.FileFunction,Copper,L2,Bot,Plane*
G04 #@! TF.FilePolarity,Positive*
%FSLAX46Y46*%
G04 Gerber Fmt 4.6, Leading zero omitted, Abs format (unit mm)*
G04 Created by KiCad (PCBNEW no-vcs-found-895c0bb~58~ubuntu16.04.1) date Tue Jul 11 17:07:46 2017*
%MOMM*%
%LPD*%
G01*
G04 APERTURE LIST*
%ADD10C,1.300000*%
%ADD11C,2.000000*%
%ADD12C,1.100000*%
%ADD13C,1.270000*%
%ADD14C,0.635000*%
%ADD15C,1.143000*%
%ADD16C,0.254000*%
%ADD17C,1.016000*%
%ADD18C,0.127000*%
G04 APERTURE END LIST*
D10*
X111592800Y-63151000D03*
X111592800Y-61151000D03*
D11*
X116382800Y-74853800D03*
X113842800Y-74853800D03*
X111302800Y-74853800D03*
D10*
X111571600Y-52596800D03*
X111571600Y-54596800D03*
D11*
X116382800Y-67894200D03*
X116382800Y-70434200D03*
X145719800Y-58648600D03*
X145719800Y-61188600D03*
X145719800Y-63728600D03*
X145719800Y-66268600D03*
X145719800Y-68808600D03*
X145719800Y-71348600D03*
X145719800Y-73888600D03*
X145719800Y-76428600D03*
X145719800Y-78968600D03*
X145719800Y-81508600D03*
X145719800Y-84048600D03*
X145719800Y-86588600D03*
D12*
X124319000Y-54064400D03*
X124319000Y-56604400D03*
X124319000Y-59144400D03*
X124319000Y-61684400D03*
X116699000Y-54064400D03*
X116699000Y-56604400D03*
X116699000Y-59144400D03*
X116699000Y-61684400D03*
D10*
X131248400Y-52618200D03*
X129248400Y-52618200D03*
D13*
X126441200Y-54356000D03*
D14*
X121767600Y-82194400D03*
X121767600Y-81381600D03*
D13*
X139801600Y-56464200D03*
X133756400Y-56108600D03*
X127660400Y-86410800D03*
X134569200Y-75869800D03*
X121932700Y-69367400D03*
X118135400Y-84175600D03*
X129387600Y-64465200D03*
X134950200Y-64490600D03*
X127812800Y-74117200D03*
X126517400Y-56616600D03*
X112750600Y-78359000D03*
X126415800Y-59055000D03*
X121208800Y-61747400D03*
X118122800Y-77470000D03*
X131248400Y-49929800D03*
X113842800Y-76809600D03*
X110007400Y-64592200D03*
X111302800Y-72644000D03*
X113868200Y-66522600D03*
D14*
X139674600Y-51282600D03*
X139039600Y-73888600D03*
X131495800Y-56540400D03*
X138607800Y-76428600D03*
X137896600Y-78968600D03*
X130225800Y-73558400D03*
X129082800Y-85674200D03*
X136474200Y-81508600D03*
D15*
X126149600Y-54064400D02*
X124319000Y-54064400D01*
X126441200Y-54356000D02*
X126149600Y-54064400D01*
D16*
X122059700Y-81864200D02*
X121716800Y-82181700D01*
X121735850Y-82162650D02*
X121716800Y-82181700D01*
X121767600Y-82194400D02*
X121735850Y-82162650D01*
D17*
X129400300Y-64213740D02*
X129400300Y-64216280D01*
X129400300Y-64216280D02*
X129400400Y-64216380D01*
D15*
X126505200Y-56604400D02*
X124319000Y-56604400D01*
X126517400Y-56616600D02*
X126505200Y-56604400D01*
X116382800Y-76454000D02*
X116382800Y-74853800D01*
X114477800Y-78359000D02*
X116382800Y-76454000D01*
X112750600Y-78359000D02*
X114477800Y-78359000D01*
X116382800Y-74853800D02*
X116382800Y-70434200D01*
X126326400Y-59144400D02*
X124319000Y-59144400D01*
X126415800Y-59055000D02*
X126326400Y-59144400D01*
X121271800Y-61684400D02*
X124319000Y-61684400D01*
X121208800Y-61747400D02*
X121271800Y-61684400D01*
X118135400Y-77444600D02*
X118135400Y-77457400D01*
X118135400Y-77457400D02*
X118122800Y-77470000D01*
X131248400Y-52618200D02*
X131248400Y-49929800D01*
X111571600Y-52596800D02*
X113125000Y-52596800D01*
X113194600Y-52527200D02*
X114503200Y-52527200D01*
X113125000Y-52596800D02*
X113194600Y-52527200D01*
X114503200Y-50063400D02*
X114503200Y-52527200D01*
X114503200Y-52527200D02*
X114503200Y-53594000D01*
X114579400Y-49987200D02*
X114503200Y-50063400D01*
X131191000Y-49987200D02*
X114579400Y-49987200D01*
X131248400Y-49929800D02*
X131191000Y-49987200D01*
X118135400Y-77444600D02*
X119761000Y-75819000D01*
X119761000Y-75819000D02*
X119761000Y-65938400D01*
X119761000Y-65938400D02*
X118821200Y-64998600D01*
X118821200Y-64998600D02*
X116001800Y-64998600D01*
X116001800Y-64998600D02*
X114503200Y-63500000D01*
X114503200Y-63500000D02*
X114503200Y-53594000D01*
X111448600Y-63151000D02*
X110007400Y-64592200D01*
X113842800Y-76809600D02*
X113842800Y-74853800D01*
X111448600Y-63151000D02*
X111592800Y-63151000D01*
X111302800Y-74853800D02*
X111302800Y-72644000D01*
X113919000Y-66548000D02*
X113893600Y-66548000D01*
X113893600Y-66548000D02*
X113868200Y-66522600D01*
X115036600Y-66548000D02*
X116382800Y-67894200D01*
X113919000Y-66548000D02*
X115036600Y-66548000D01*
X113893600Y-66522600D02*
X113919000Y-66548000D01*
D16*
X138353800Y-73202800D02*
X139039600Y-73888600D01*
X138353800Y-53365400D02*
X138353800Y-73202800D01*
X139674600Y-52044600D02*
X138353800Y-53365400D01*
X139674600Y-51282600D02*
X139674600Y-52044600D01*
X138607800Y-76428600D02*
X138620500Y-76428600D01*
X137769600Y-75590400D02*
X138607800Y-76428600D01*
X137769600Y-66497200D02*
X137769600Y-75590400D01*
X136245600Y-64973200D02*
X137769600Y-66497200D01*
X136245600Y-58140600D02*
X136245600Y-64973200D01*
X136017000Y-57912000D02*
X136245600Y-58140600D01*
X132867400Y-57912000D02*
X136017000Y-57912000D01*
X131495800Y-56540400D02*
X132867400Y-57912000D01*
X130225800Y-76835000D02*
X130225800Y-76860400D01*
X130225800Y-73558400D02*
X130225800Y-75946000D01*
X130225800Y-75946000D02*
X130225800Y-76530200D01*
X130225800Y-76530200D02*
X130225800Y-76835000D01*
X136042400Y-77114400D02*
X130479800Y-77114400D01*
X137896600Y-78968600D02*
X136042400Y-77114400D01*
X130225800Y-76860400D02*
X130479800Y-77114400D01*
X136474200Y-84785200D02*
X136474200Y-81508600D01*
X135940800Y-85318600D02*
X136474200Y-84785200D01*
X130200400Y-85318600D02*
X135940800Y-85318600D01*
X129540000Y-85674200D02*
X130200400Y-85318600D01*
X129540000Y-85674200D02*
X129082800Y-85674200D01*
D15*
X116699000Y-54064400D02*
X116699000Y-56604400D01*
X116699000Y-56604400D02*
X116699000Y-59144400D01*
X116699000Y-59144400D02*
X116699000Y-61684400D01*
X129248400Y-52618200D02*
X127294200Y-52618200D01*
X116699000Y-52693600D02*
X116699000Y-54064400D01*
X117500400Y-51892200D02*
X116699000Y-52693600D01*
X126568200Y-51892200D02*
X117500400Y-51892200D01*
X127294200Y-52618200D02*
X126568200Y-51892200D01*
D18*
G36*
X147256500Y-89344500D02*
X108419900Y-89344500D01*
X108419900Y-85799955D01*
X128447690Y-85799955D01*
X128544160Y-86033428D01*
X128722632Y-86212213D01*
X128955937Y-86309089D01*
X129208555Y-86309310D01*
X129442028Y-86212840D01*
X129536333Y-86118700D01*
X129540000Y-86118700D01*
X129562295Y-86114265D01*
X129584925Y-86116424D01*
X129646715Y-86097473D01*
X129710103Y-86084864D01*
X129729005Y-86072234D01*
X129750737Y-86065569D01*
X130312465Y-85763100D01*
X135940800Y-85763100D01*
X136110903Y-85729264D01*
X136255109Y-85632909D01*
X136788509Y-85099509D01*
X136884865Y-84955302D01*
X136918700Y-84785200D01*
X136918700Y-81962117D01*
X137012213Y-81868768D01*
X137109089Y-81635463D01*
X137109310Y-81382845D01*
X137012840Y-81149372D01*
X136834368Y-80970587D01*
X136601063Y-80873711D01*
X136348445Y-80873490D01*
X136114972Y-80969960D01*
X135936187Y-81148432D01*
X135839311Y-81381737D01*
X135839090Y-81634355D01*
X135935560Y-81867828D01*
X136029700Y-81962133D01*
X136029700Y-84601082D01*
X135756682Y-84874100D01*
X130200400Y-84874100D01*
X130178105Y-84878535D01*
X130155475Y-84876376D01*
X130093685Y-84895327D01*
X130030297Y-84907936D01*
X130011395Y-84920566D01*
X129989663Y-84927231D01*
X129498427Y-85191743D01*
X129442968Y-85136187D01*
X129209663Y-85039311D01*
X128957045Y-85039090D01*
X128723572Y-85135560D01*
X128544787Y-85314032D01*
X128447911Y-85547337D01*
X128447690Y-85799955D01*
X108419900Y-85799955D01*
X108419900Y-75114717D01*
X109985072Y-75114717D01*
X110185227Y-75599129D01*
X110555522Y-75970071D01*
X111039583Y-76171070D01*
X111563717Y-76171528D01*
X112048129Y-75971373D01*
X112419071Y-75601078D01*
X112572930Y-75230543D01*
X112725227Y-75599129D01*
X112953800Y-75828101D01*
X112953800Y-76466777D01*
X112890465Y-76619305D01*
X112890135Y-76998233D01*
X113034839Y-77348443D01*
X113156183Y-77470000D01*
X113093423Y-77470000D01*
X112940895Y-77406665D01*
X112561967Y-77406335D01*
X112211757Y-77551039D01*
X111943580Y-77818747D01*
X111798265Y-78168705D01*
X111797935Y-78547633D01*
X111942639Y-78897843D01*
X112210347Y-79166020D01*
X112560305Y-79311335D01*
X112939233Y-79311665D01*
X113093314Y-79248000D01*
X114477800Y-79248000D01*
X114818006Y-79180329D01*
X115106418Y-78987618D01*
X117011418Y-77082618D01*
X117067802Y-76998233D01*
X117204129Y-76794206D01*
X117271800Y-76454000D01*
X117271800Y-75827953D01*
X117499071Y-75601078D01*
X117700070Y-75117017D01*
X117700528Y-74592883D01*
X117500373Y-74108471D01*
X117271800Y-73879499D01*
X117271800Y-71408353D01*
X117499071Y-71181478D01*
X117700070Y-70697417D01*
X117700528Y-70173283D01*
X117500373Y-69688871D01*
X117130078Y-69317929D01*
X116759543Y-69164070D01*
X117128129Y-69011773D01*
X117499071Y-68641478D01*
X117700070Y-68157417D01*
X117700528Y-67633283D01*
X117500373Y-67148871D01*
X117130078Y-66777929D01*
X116646017Y-66576930D01*
X116322483Y-66576647D01*
X115665218Y-65919382D01*
X115516376Y-65819929D01*
X115376806Y-65726671D01*
X115036600Y-65659000D01*
X114272193Y-65659000D01*
X114058495Y-65570265D01*
X113679567Y-65569935D01*
X113329357Y-65714639D01*
X113061180Y-65982347D01*
X112915865Y-66332305D01*
X112915535Y-66711233D01*
X113060239Y-67061443D01*
X113327947Y-67329620D01*
X113677905Y-67474935D01*
X114056833Y-67475265D01*
X114149441Y-67437000D01*
X114668364Y-67437000D01*
X115065353Y-67833989D01*
X115065072Y-68155117D01*
X115265227Y-68639529D01*
X115635522Y-69010471D01*
X116006057Y-69164330D01*
X115637471Y-69316627D01*
X115266529Y-69686922D01*
X115065530Y-70170983D01*
X115065072Y-70695117D01*
X115265227Y-71179529D01*
X115493800Y-71408501D01*
X115493800Y-73879647D01*
X115266529Y-74106522D01*
X115112670Y-74477057D01*
X114960373Y-74108471D01*
X114590078Y-73737529D01*
X114106017Y-73536530D01*
X113581883Y-73536072D01*
X113097471Y-73736227D01*
X112726529Y-74106522D01*
X112572670Y-74477057D01*
X112420373Y-74108471D01*
X112191800Y-73879499D01*
X112191800Y-72986823D01*
X112255135Y-72834295D01*
X112255465Y-72455367D01*
X112110761Y-72105157D01*
X111843053Y-71836980D01*
X111493095Y-71691665D01*
X111114167Y-71691335D01*
X110763957Y-71836039D01*
X110495780Y-72103747D01*
X110350465Y-72453705D01*
X110350135Y-72832633D01*
X110413800Y-72986714D01*
X110413800Y-73879647D01*
X110186529Y-74106522D01*
X109985530Y-74590583D01*
X109985072Y-75114717D01*
X108419900Y-75114717D01*
X108419900Y-64780833D01*
X109054735Y-64780833D01*
X109199439Y-65131043D01*
X109467147Y-65399220D01*
X109817105Y-65544535D01*
X110196033Y-65544865D01*
X110546243Y-65400161D01*
X110814420Y-65132453D01*
X110878354Y-64978482D01*
X111738209Y-64118627D01*
X111784403Y-64118667D01*
X112140129Y-63971684D01*
X112412528Y-63699760D01*
X112560131Y-63344292D01*
X112560467Y-62959397D01*
X112413484Y-62603671D01*
X112141560Y-62331272D01*
X111786092Y-62183669D01*
X111401197Y-62183333D01*
X111045471Y-62330316D01*
X110920049Y-62455519D01*
X110819982Y-62522382D01*
X109621193Y-63721171D01*
X109468557Y-63784239D01*
X109200380Y-64051947D01*
X109055065Y-64401905D01*
X109054735Y-64780833D01*
X108419900Y-64780833D01*
X108419900Y-52788403D01*
X110603933Y-52788403D01*
X110750916Y-53144129D01*
X111022840Y-53416528D01*
X111378308Y-53564131D01*
X111763203Y-53564467D01*
X111953592Y-53485800D01*
X113125000Y-53485800D01*
X113465206Y-53418129D01*
X113468093Y-53416200D01*
X113614200Y-53416200D01*
X113614200Y-63500000D01*
X113681871Y-63840206D01*
X113815369Y-64040000D01*
X113874582Y-64128618D01*
X115373182Y-65627218D01*
X115661594Y-65819929D01*
X116001800Y-65887600D01*
X118452964Y-65887600D01*
X118872000Y-66306636D01*
X118872000Y-75450764D01*
X117714780Y-76607984D01*
X117583957Y-76662039D01*
X117315780Y-76929747D01*
X117170465Y-77279705D01*
X117170135Y-77658633D01*
X117314839Y-78008843D01*
X117582547Y-78277020D01*
X117932505Y-78422335D01*
X118311433Y-78422665D01*
X118661643Y-78277961D01*
X118929820Y-78010253D01*
X119002844Y-77834392D01*
X120389618Y-76447618D01*
X120582330Y-76159205D01*
X120650000Y-75819000D01*
X120650000Y-73684155D01*
X129590690Y-73684155D01*
X129687160Y-73917628D01*
X129781300Y-74011933D01*
X129781300Y-76860400D01*
X129815136Y-77030503D01*
X129910970Y-77173929D01*
X129911491Y-77174709D01*
X130165491Y-77428709D01*
X130309697Y-77525064D01*
X130479800Y-77558900D01*
X135858282Y-77558900D01*
X137261606Y-78962224D01*
X137261490Y-79094355D01*
X137357960Y-79327828D01*
X137536432Y-79506613D01*
X137769737Y-79603489D01*
X138022355Y-79603710D01*
X138255828Y-79507240D01*
X138434613Y-79328768D01*
X138531489Y-79095463D01*
X138531710Y-78842845D01*
X138435240Y-78609372D01*
X138256768Y-78430587D01*
X138023463Y-78333711D01*
X137890212Y-78333594D01*
X136356709Y-76800091D01*
X136338356Y-76787828D01*
X136212503Y-76703736D01*
X136042400Y-76669900D01*
X130670300Y-76669900D01*
X130670300Y-74011917D01*
X130763813Y-73918568D01*
X130860689Y-73685263D01*
X130860910Y-73432645D01*
X130764440Y-73199172D01*
X130585968Y-73020387D01*
X130352663Y-72923511D01*
X130100045Y-72923290D01*
X129866572Y-73019760D01*
X129687787Y-73198232D01*
X129590911Y-73431537D01*
X129590690Y-73684155D01*
X120650000Y-73684155D01*
X120650000Y-65938400D01*
X120582329Y-65598194D01*
X120389618Y-65309782D01*
X119449818Y-64369982D01*
X119161406Y-64177271D01*
X118821200Y-64109600D01*
X116370036Y-64109600D01*
X115392200Y-63131764D01*
X115392200Y-52693600D01*
X115810000Y-52693600D01*
X115810000Y-61684400D01*
X115831406Y-61792015D01*
X115831350Y-61856199D01*
X115856076Y-61916040D01*
X115877671Y-62024606D01*
X115938632Y-62115840D01*
X115963141Y-62175157D01*
X116008884Y-62220981D01*
X116070382Y-62313018D01*
X116161613Y-62373977D01*
X116206959Y-62419402D01*
X116266759Y-62444233D01*
X116358794Y-62505729D01*
X116466410Y-62527135D01*
X116525687Y-62551749D01*
X116590437Y-62551805D01*
X116699000Y-62573400D01*
X116806615Y-62551994D01*
X116870799Y-62552050D01*
X116930640Y-62527324D01*
X117039206Y-62505729D01*
X117130440Y-62444768D01*
X117189757Y-62420259D01*
X117235581Y-62374516D01*
X117327618Y-62313018D01*
X117388577Y-62221787D01*
X117434002Y-62176441D01*
X117458833Y-62116641D01*
X117520329Y-62024606D01*
X117537947Y-61936033D01*
X120256135Y-61936033D01*
X120400839Y-62286243D01*
X120668547Y-62554420D01*
X121018505Y-62699735D01*
X121397433Y-62700065D01*
X121703985Y-62573400D01*
X124319000Y-62573400D01*
X124426615Y-62551994D01*
X124490799Y-62552050D01*
X124550640Y-62527324D01*
X124659206Y-62505729D01*
X124750440Y-62444768D01*
X124809757Y-62420259D01*
X124855581Y-62374516D01*
X124947618Y-62313018D01*
X125008577Y-62221787D01*
X125054002Y-62176441D01*
X125078833Y-62116641D01*
X125140329Y-62024606D01*
X125161735Y-61916990D01*
X125186349Y-61857713D01*
X125186405Y-61792963D01*
X125208000Y-61684400D01*
X125186594Y-61576785D01*
X125186650Y-61512601D01*
X125161924Y-61452760D01*
X125140329Y-61344194D01*
X125079368Y-61252960D01*
X125054859Y-61193643D01*
X125009116Y-61147819D01*
X124947618Y-61055782D01*
X124856387Y-60994823D01*
X124811041Y-60949398D01*
X124751241Y-60924567D01*
X124659206Y-60863071D01*
X124551590Y-60841665D01*
X124492313Y-60817051D01*
X124427563Y-60816995D01*
X124319000Y-60795400D01*
X121399902Y-60795400D01*
X121399095Y-60795065D01*
X121020167Y-60794735D01*
X120669957Y-60939439D01*
X120401780Y-61207147D01*
X120256465Y-61557105D01*
X120256135Y-61936033D01*
X117537947Y-61936033D01*
X117541735Y-61916990D01*
X117566349Y-61857713D01*
X117566405Y-61792963D01*
X117588000Y-61684400D01*
X117588000Y-59144400D01*
X123430000Y-59144400D01*
X123451406Y-59252015D01*
X123451350Y-59316199D01*
X123476076Y-59376040D01*
X123497671Y-59484606D01*
X123558632Y-59575840D01*
X123583141Y-59635157D01*
X123628884Y-59680981D01*
X123690382Y-59773018D01*
X123781613Y-59833977D01*
X123826959Y-59879402D01*
X123886759Y-59904233D01*
X123978794Y-59965729D01*
X124086410Y-59987135D01*
X124145687Y-60011749D01*
X124210437Y-60011805D01*
X124319000Y-60033400D01*
X126326400Y-60033400D01*
X126456427Y-60007536D01*
X126604433Y-60007665D01*
X126954643Y-59862961D01*
X127222820Y-59595253D01*
X127368135Y-59245295D01*
X127368465Y-58866367D01*
X127223761Y-58516157D01*
X126956053Y-58247980D01*
X126606095Y-58102665D01*
X126227167Y-58102335D01*
X125876957Y-58247039D01*
X125868581Y-58255400D01*
X124319000Y-58255400D01*
X124211385Y-58276806D01*
X124147201Y-58276750D01*
X124087360Y-58301476D01*
X123978794Y-58323071D01*
X123887560Y-58384032D01*
X123828243Y-58408541D01*
X123782419Y-58454284D01*
X123690382Y-58515782D01*
X123629423Y-58607013D01*
X123583998Y-58652359D01*
X123559167Y-58712159D01*
X123497671Y-58804194D01*
X123476265Y-58911810D01*
X123451651Y-58971087D01*
X123451595Y-59035837D01*
X123430000Y-59144400D01*
X117588000Y-59144400D01*
X117588000Y-56604400D01*
X123430000Y-56604400D01*
X123451406Y-56712015D01*
X123451350Y-56776199D01*
X123476076Y-56836040D01*
X123497671Y-56944606D01*
X123558632Y-57035840D01*
X123583141Y-57095157D01*
X123628884Y-57140981D01*
X123690382Y-57233018D01*
X123781613Y-57293977D01*
X123826959Y-57339402D01*
X123886759Y-57364233D01*
X123978794Y-57425729D01*
X124086410Y-57447135D01*
X124145687Y-57471749D01*
X124210437Y-57471805D01*
X124319000Y-57493400D01*
X126145196Y-57493400D01*
X126327105Y-57568935D01*
X126706033Y-57569265D01*
X127056243Y-57424561D01*
X127324420Y-57156853D01*
X127469735Y-56806895D01*
X127469857Y-56666155D01*
X130860690Y-56666155D01*
X130957160Y-56899628D01*
X131135632Y-57078413D01*
X131368937Y-57175289D01*
X131502188Y-57175406D01*
X132553091Y-58226309D01*
X132697297Y-58322664D01*
X132867400Y-58356500D01*
X135801100Y-58356500D01*
X135801100Y-64973200D01*
X135834936Y-65143303D01*
X135886730Y-65220818D01*
X135931291Y-65287509D01*
X137325100Y-66681318D01*
X137325100Y-75590400D01*
X137358936Y-75760503D01*
X137402287Y-75825382D01*
X137455291Y-75904709D01*
X137972806Y-76422224D01*
X137972690Y-76554355D01*
X138069160Y-76787828D01*
X138247632Y-76966613D01*
X138480937Y-77063489D01*
X138733555Y-77063710D01*
X138967028Y-76967240D01*
X139145813Y-76788768D01*
X139242689Y-76555463D01*
X139242910Y-76302845D01*
X139146440Y-76069372D01*
X138967968Y-75890587D01*
X138734663Y-75793711D01*
X138601412Y-75793594D01*
X138214100Y-75406282D01*
X138214100Y-73691718D01*
X138404606Y-73882224D01*
X138404490Y-74014355D01*
X138500960Y-74247828D01*
X138679432Y-74426613D01*
X138912737Y-74523489D01*
X139165355Y-74523710D01*
X139398828Y-74427240D01*
X139577613Y-74248768D01*
X139618825Y-74149517D01*
X144402072Y-74149517D01*
X144602227Y-74633929D01*
X144972522Y-75004871D01*
X145343057Y-75158730D01*
X144974471Y-75311027D01*
X144603529Y-75681322D01*
X144402530Y-76165383D01*
X144402072Y-76689517D01*
X144602227Y-77173929D01*
X144972522Y-77544871D01*
X145343057Y-77698730D01*
X144974471Y-77851027D01*
X144603529Y-78221322D01*
X144402530Y-78705383D01*
X144402072Y-79229517D01*
X144602227Y-79713929D01*
X144972522Y-80084871D01*
X145343057Y-80238730D01*
X144974471Y-80391027D01*
X144603529Y-80761322D01*
X144402530Y-81245383D01*
X144402072Y-81769517D01*
X144602227Y-82253929D01*
X144972522Y-82624871D01*
X145343057Y-82778730D01*
X144974471Y-82931027D01*
X144603529Y-83301322D01*
X144402530Y-83785383D01*
X144402072Y-84309517D01*
X144602227Y-84793929D01*
X144972522Y-85164871D01*
X145343057Y-85318730D01*
X144974471Y-85471027D01*
X144603529Y-85841322D01*
X144402530Y-86325383D01*
X144402072Y-86849517D01*
X144602227Y-87333929D01*
X144972522Y-87704871D01*
X145456583Y-87905870D01*
X145980717Y-87906328D01*
X146465129Y-87706173D01*
X146836071Y-87335878D01*
X147037070Y-86851817D01*
X147037528Y-86327683D01*
X146837373Y-85843271D01*
X146467078Y-85472329D01*
X146096543Y-85318470D01*
X146465129Y-85166173D01*
X146836071Y-84795878D01*
X147037070Y-84311817D01*
X147037528Y-83787683D01*
X146837373Y-83303271D01*
X146467078Y-82932329D01*
X146096543Y-82778470D01*
X146465129Y-82626173D01*
X146836071Y-82255878D01*
X147037070Y-81771817D01*
X147037528Y-81247683D01*
X146837373Y-80763271D01*
X146467078Y-80392329D01*
X146096543Y-80238470D01*
X146465129Y-80086173D01*
X146836071Y-79715878D01*
X147037070Y-79231817D01*
X147037528Y-78707683D01*
X146837373Y-78223271D01*
X146467078Y-77852329D01*
X146096543Y-77698470D01*
X146465129Y-77546173D01*
X146836071Y-77175878D01*
X147037070Y-76691817D01*
X147037528Y-76167683D01*
X146837373Y-75683271D01*
X146467078Y-75312329D01*
X146096543Y-75158470D01*
X146465129Y-75006173D01*
X146836071Y-74635878D01*
X147037070Y-74151817D01*
X147037528Y-73627683D01*
X146837373Y-73143271D01*
X146467078Y-72772329D01*
X145983017Y-72571330D01*
X145458883Y-72570872D01*
X144974471Y-72771027D01*
X144603529Y-73141322D01*
X144402530Y-73625383D01*
X144402072Y-74149517D01*
X139618825Y-74149517D01*
X139674489Y-74015463D01*
X139674710Y-73762845D01*
X139578240Y-73529372D01*
X139399768Y-73350587D01*
X139166463Y-73253711D01*
X139033212Y-73253594D01*
X138798300Y-73018682D01*
X138798300Y-58909517D01*
X144402072Y-58909517D01*
X144602227Y-59393929D01*
X144972522Y-59764871D01*
X145343057Y-59918730D01*
X144974471Y-60071027D01*
X144603529Y-60441322D01*
X144402530Y-60925383D01*
X144402072Y-61449517D01*
X144602227Y-61933929D01*
X144972522Y-62304871D01*
X145343057Y-62458730D01*
X144974471Y-62611027D01*
X144603529Y-62981322D01*
X144402530Y-63465383D01*
X144402072Y-63989517D01*
X144602227Y-64473929D01*
X144972522Y-64844871D01*
X145343057Y-64998730D01*
X144974471Y-65151027D01*
X144603529Y-65521322D01*
X144402530Y-66005383D01*
X144402072Y-66529517D01*
X144602227Y-67013929D01*
X144972522Y-67384871D01*
X145343057Y-67538730D01*
X144974471Y-67691027D01*
X144603529Y-68061322D01*
X144402530Y-68545383D01*
X144402072Y-69069517D01*
X144602227Y-69553929D01*
X144972522Y-69924871D01*
X145456583Y-70125870D01*
X145980717Y-70126328D01*
X146465129Y-69926173D01*
X146836071Y-69555878D01*
X147037070Y-69071817D01*
X147037528Y-68547683D01*
X146837373Y-68063271D01*
X146467078Y-67692329D01*
X146096543Y-67538470D01*
X146465129Y-67386173D01*
X146836071Y-67015878D01*
X147037070Y-66531817D01*
X147037528Y-66007683D01*
X146837373Y-65523271D01*
X146467078Y-65152329D01*
X146096543Y-64998470D01*
X146465129Y-64846173D01*
X146836071Y-64475878D01*
X147037070Y-63991817D01*
X147037528Y-63467683D01*
X146837373Y-62983271D01*
X146467078Y-62612329D01*
X146096543Y-62458470D01*
X146465129Y-62306173D01*
X146836071Y-61935878D01*
X147037070Y-61451817D01*
X147037528Y-60927683D01*
X146837373Y-60443271D01*
X146467078Y-60072329D01*
X146096543Y-59918470D01*
X146465129Y-59766173D01*
X146836071Y-59395878D01*
X147037070Y-58911817D01*
X147037528Y-58387683D01*
X146837373Y-57903271D01*
X146467078Y-57532329D01*
X145983017Y-57331330D01*
X145458883Y-57330872D01*
X144974471Y-57531027D01*
X144603529Y-57901322D01*
X144402530Y-58385383D01*
X144402072Y-58909517D01*
X138798300Y-58909517D01*
X138798300Y-53549518D01*
X139988909Y-52358909D01*
X140085264Y-52214703D01*
X140119100Y-52044600D01*
X140119100Y-51736117D01*
X140212613Y-51642768D01*
X140309489Y-51409463D01*
X140309710Y-51156845D01*
X140213240Y-50923372D01*
X140034768Y-50744587D01*
X139801463Y-50647711D01*
X139548845Y-50647490D01*
X139315372Y-50743960D01*
X139136587Y-50922432D01*
X139039711Y-51155737D01*
X139039490Y-51408355D01*
X139135960Y-51641828D01*
X139230100Y-51736133D01*
X139230100Y-51860482D01*
X138039491Y-53051091D01*
X137943136Y-53195297D01*
X137909300Y-53365400D01*
X137909300Y-66008282D01*
X136690100Y-64789082D01*
X136690100Y-58140600D01*
X136656264Y-57970497D01*
X136559909Y-57826291D01*
X136331309Y-57597691D01*
X136233487Y-57532329D01*
X136187103Y-57501336D01*
X136017000Y-57467500D01*
X133051518Y-57467500D01*
X132130794Y-56546776D01*
X132130910Y-56414645D01*
X132034440Y-56181172D01*
X131855968Y-56002387D01*
X131622663Y-55905511D01*
X131370045Y-55905290D01*
X131136572Y-56001760D01*
X130957787Y-56180232D01*
X130860911Y-56413537D01*
X130860690Y-56666155D01*
X127469857Y-56666155D01*
X127470065Y-56427967D01*
X127325361Y-56077757D01*
X127057653Y-55809580D01*
X126707695Y-55664265D01*
X126328767Y-55663935D01*
X126204212Y-55715400D01*
X124319000Y-55715400D01*
X124211385Y-55736806D01*
X124147201Y-55736750D01*
X124087360Y-55761476D01*
X123978794Y-55783071D01*
X123887560Y-55844032D01*
X123828243Y-55868541D01*
X123782419Y-55914284D01*
X123690382Y-55975782D01*
X123629423Y-56067013D01*
X123583998Y-56112359D01*
X123559167Y-56172159D01*
X123497671Y-56264194D01*
X123476265Y-56371810D01*
X123451651Y-56431087D01*
X123451595Y-56495837D01*
X123430000Y-56604400D01*
X117588000Y-56604400D01*
X117588000Y-54064400D01*
X123430000Y-54064400D01*
X123451406Y-54172015D01*
X123451350Y-54236199D01*
X123476076Y-54296040D01*
X123497671Y-54404606D01*
X123558632Y-54495840D01*
X123583141Y-54555157D01*
X123628884Y-54600981D01*
X123690382Y-54693018D01*
X123781613Y-54753977D01*
X123826959Y-54799402D01*
X123886759Y-54824233D01*
X123978794Y-54885729D01*
X124086410Y-54907135D01*
X124145687Y-54931749D01*
X124210437Y-54931805D01*
X124319000Y-54953400D01*
X125691694Y-54953400D01*
X125900947Y-55163020D01*
X126250905Y-55308335D01*
X126629833Y-55308665D01*
X126980043Y-55163961D01*
X127248220Y-54896253D01*
X127393535Y-54546295D01*
X127393865Y-54167367D01*
X127249161Y-53817157D01*
X126981453Y-53548980D01*
X126827482Y-53485046D01*
X126778218Y-53435782D01*
X126749402Y-53416528D01*
X126489806Y-53243071D01*
X126149600Y-53175400D01*
X124319000Y-53175400D01*
X124211385Y-53196806D01*
X124147201Y-53196750D01*
X124087360Y-53221476D01*
X123978794Y-53243071D01*
X123887560Y-53304032D01*
X123828243Y-53328541D01*
X123782419Y-53374284D01*
X123690382Y-53435782D01*
X123629423Y-53527013D01*
X123583998Y-53572359D01*
X123559167Y-53632159D01*
X123497671Y-53724194D01*
X123476265Y-53831810D01*
X123451651Y-53891087D01*
X123451595Y-53955837D01*
X123430000Y-54064400D01*
X117588000Y-54064400D01*
X117588000Y-53061836D01*
X117868636Y-52781200D01*
X126199964Y-52781200D01*
X126665582Y-53246818D01*
X126953994Y-53439529D01*
X127294200Y-53507200D01*
X128866466Y-53507200D01*
X129055108Y-53585531D01*
X129440003Y-53585867D01*
X129795729Y-53438884D01*
X130068128Y-53166960D01*
X130215731Y-52811492D01*
X130216067Y-52426597D01*
X130069084Y-52070871D01*
X129797160Y-51798472D01*
X129441692Y-51650869D01*
X129056797Y-51650533D01*
X128866408Y-51729200D01*
X127662436Y-51729200D01*
X127196818Y-51263582D01*
X126908406Y-51070871D01*
X126568200Y-51003200D01*
X117500400Y-51003200D01*
X117160194Y-51070871D01*
X116871782Y-51263582D01*
X116070382Y-52064982D01*
X115877671Y-52353394D01*
X115810000Y-52693600D01*
X115392200Y-52693600D01*
X115392200Y-50876200D01*
X130359400Y-50876200D01*
X130359400Y-52236266D01*
X130281069Y-52424908D01*
X130280733Y-52809803D01*
X130427716Y-53165529D01*
X130699640Y-53437928D01*
X131055108Y-53585531D01*
X131440003Y-53585867D01*
X131795729Y-53438884D01*
X132068128Y-53166960D01*
X132215731Y-52811492D01*
X132216067Y-52426597D01*
X132137400Y-52236208D01*
X132137400Y-50272623D01*
X132200735Y-50120095D01*
X132201065Y-49741167D01*
X132056361Y-49390957D01*
X131788653Y-49122780D01*
X131438695Y-48977465D01*
X131059767Y-48977135D01*
X130766768Y-49098200D01*
X114579400Y-49098200D01*
X114239194Y-49165871D01*
X114125153Y-49242071D01*
X113950782Y-49358582D01*
X113874582Y-49434782D01*
X113681871Y-49723194D01*
X113614200Y-50063400D01*
X113614200Y-51638200D01*
X113194600Y-51638200D01*
X112854394Y-51705871D01*
X112851507Y-51707800D01*
X111953534Y-51707800D01*
X111764892Y-51629469D01*
X111379997Y-51629133D01*
X111024271Y-51776116D01*
X110751872Y-52048040D01*
X110604269Y-52403508D01*
X110603933Y-52788403D01*
X108419900Y-52788403D01*
X108419900Y-48831500D01*
X147256500Y-48831500D01*
X147256500Y-89344500D01*
X147256500Y-89344500D01*
G37*
X147256500Y-89344500D02*
X108419900Y-89344500D01*
X108419900Y-85799955D01*
X128447690Y-85799955D01*
X128544160Y-86033428D01*
X128722632Y-86212213D01*
X128955937Y-86309089D01*
X129208555Y-86309310D01*
X129442028Y-86212840D01*
X129536333Y-86118700D01*
X129540000Y-86118700D01*
X129562295Y-86114265D01*
X129584925Y-86116424D01*
X129646715Y-86097473D01*
X129710103Y-86084864D01*
X129729005Y-86072234D01*
X129750737Y-86065569D01*
X130312465Y-85763100D01*
X135940800Y-85763100D01*
X136110903Y-85729264D01*
X136255109Y-85632909D01*
X136788509Y-85099509D01*
X136884865Y-84955302D01*
X136918700Y-84785200D01*
X136918700Y-81962117D01*
X137012213Y-81868768D01*
X137109089Y-81635463D01*
X137109310Y-81382845D01*
X137012840Y-81149372D01*
X136834368Y-80970587D01*
X136601063Y-80873711D01*
X136348445Y-80873490D01*
X136114972Y-80969960D01*
X135936187Y-81148432D01*
X135839311Y-81381737D01*
X135839090Y-81634355D01*
X135935560Y-81867828D01*
X136029700Y-81962133D01*
X136029700Y-84601082D01*
X135756682Y-84874100D01*
X130200400Y-84874100D01*
X130178105Y-84878535D01*
X130155475Y-84876376D01*
X130093685Y-84895327D01*
X130030297Y-84907936D01*
X130011395Y-84920566D01*
X129989663Y-84927231D01*
X129498427Y-85191743D01*
X129442968Y-85136187D01*
X129209663Y-85039311D01*
X128957045Y-85039090D01*
X128723572Y-85135560D01*
X128544787Y-85314032D01*
X128447911Y-85547337D01*
X128447690Y-85799955D01*
X108419900Y-85799955D01*
X108419900Y-75114717D01*
X109985072Y-75114717D01*
X110185227Y-75599129D01*
X110555522Y-75970071D01*
X111039583Y-76171070D01*
X111563717Y-76171528D01*
X112048129Y-75971373D01*
X112419071Y-75601078D01*
X112572930Y-75230543D01*
X112725227Y-75599129D01*
X112953800Y-75828101D01*
X112953800Y-76466777D01*
X112890465Y-76619305D01*
X112890135Y-76998233D01*
X113034839Y-77348443D01*
X113156183Y-77470000D01*
X113093423Y-77470000D01*
X112940895Y-77406665D01*
X112561967Y-77406335D01*
X112211757Y-77551039D01*
X111943580Y-77818747D01*
X111798265Y-78168705D01*
X111797935Y-78547633D01*
X111942639Y-78897843D01*
X112210347Y-79166020D01*
X112560305Y-79311335D01*
X112939233Y-79311665D01*
X113093314Y-79248000D01*
X114477800Y-79248000D01*
X114818006Y-79180329D01*
X115106418Y-78987618D01*
X117011418Y-77082618D01*
X117067802Y-76998233D01*
X117204129Y-76794206D01*
X117271800Y-76454000D01*
X117271800Y-75827953D01*
X117499071Y-75601078D01*
X117700070Y-75117017D01*
X117700528Y-74592883D01*
X117500373Y-74108471D01*
X117271800Y-73879499D01*
X117271800Y-71408353D01*
X117499071Y-71181478D01*
X117700070Y-70697417D01*
X117700528Y-70173283D01*
X117500373Y-69688871D01*
X117130078Y-69317929D01*
X116759543Y-69164070D01*
X117128129Y-69011773D01*
X117499071Y-68641478D01*
X117700070Y-68157417D01*
X117700528Y-67633283D01*
X117500373Y-67148871D01*
X117130078Y-66777929D01*
X116646017Y-66576930D01*
X116322483Y-66576647D01*
X115665218Y-65919382D01*
X115516376Y-65819929D01*
X115376806Y-65726671D01*
X115036600Y-65659000D01*
X114272193Y-65659000D01*
X114058495Y-65570265D01*
X113679567Y-65569935D01*
X113329357Y-65714639D01*
X113061180Y-65982347D01*
X112915865Y-66332305D01*
X112915535Y-66711233D01*
X113060239Y-67061443D01*
X113327947Y-67329620D01*
X113677905Y-67474935D01*
X114056833Y-67475265D01*
X114149441Y-67437000D01*
X114668364Y-67437000D01*
X115065353Y-67833989D01*
X115065072Y-68155117D01*
X115265227Y-68639529D01*
X115635522Y-69010471D01*
X116006057Y-69164330D01*
X115637471Y-69316627D01*
X115266529Y-69686922D01*
X115065530Y-70170983D01*
X115065072Y-70695117D01*
X115265227Y-71179529D01*
X115493800Y-71408501D01*
X115493800Y-73879647D01*
X115266529Y-74106522D01*
X115112670Y-74477057D01*
X114960373Y-74108471D01*
X114590078Y-73737529D01*
X114106017Y-73536530D01*
X113581883Y-73536072D01*
X113097471Y-73736227D01*
X112726529Y-74106522D01*
X112572670Y-74477057D01*
X112420373Y-74108471D01*
X112191800Y-73879499D01*
X112191800Y-72986823D01*
X112255135Y-72834295D01*
X112255465Y-72455367D01*
X112110761Y-72105157D01*
X111843053Y-71836980D01*
X111493095Y-71691665D01*
X111114167Y-71691335D01*
X110763957Y-71836039D01*
X110495780Y-72103747D01*
X110350465Y-72453705D01*
X110350135Y-72832633D01*
X110413800Y-72986714D01*
X110413800Y-73879647D01*
X110186529Y-74106522D01*
X109985530Y-74590583D01*
X109985072Y-75114717D01*
X108419900Y-75114717D01*
X108419900Y-64780833D01*
X109054735Y-64780833D01*
X109199439Y-65131043D01*
X109467147Y-65399220D01*
X109817105Y-65544535D01*
X110196033Y-65544865D01*
X110546243Y-65400161D01*
X110814420Y-65132453D01*
X110878354Y-64978482D01*
X111738209Y-64118627D01*
X111784403Y-64118667D01*
X112140129Y-63971684D01*
X112412528Y-63699760D01*
X112560131Y-63344292D01*
X112560467Y-62959397D01*
X112413484Y-62603671D01*
X112141560Y-62331272D01*
X111786092Y-62183669D01*
X111401197Y-62183333D01*
X111045471Y-62330316D01*
X110920049Y-62455519D01*
X110819982Y-62522382D01*
X109621193Y-63721171D01*
X109468557Y-63784239D01*
X109200380Y-64051947D01*
X109055065Y-64401905D01*
X109054735Y-64780833D01*
X108419900Y-64780833D01*
X108419900Y-52788403D01*
X110603933Y-52788403D01*
X110750916Y-53144129D01*
X111022840Y-53416528D01*
X111378308Y-53564131D01*
X111763203Y-53564467D01*
X111953592Y-53485800D01*
X113125000Y-53485800D01*
X113465206Y-53418129D01*
X113468093Y-53416200D01*
X113614200Y-53416200D01*
X113614200Y-63500000D01*
X113681871Y-63840206D01*
X113815369Y-64040000D01*
X113874582Y-64128618D01*
X115373182Y-65627218D01*
X115661594Y-65819929D01*
X116001800Y-65887600D01*
X118452964Y-65887600D01*
X118872000Y-66306636D01*
X118872000Y-75450764D01*
X117714780Y-76607984D01*
X117583957Y-76662039D01*
X117315780Y-76929747D01*
X117170465Y-77279705D01*
X117170135Y-77658633D01*
X117314839Y-78008843D01*
X117582547Y-78277020D01*
X117932505Y-78422335D01*
X118311433Y-78422665D01*
X118661643Y-78277961D01*
X118929820Y-78010253D01*
X119002844Y-77834392D01*
X120389618Y-76447618D01*
X120582330Y-76159205D01*
X120650000Y-75819000D01*
X120650000Y-73684155D01*
X129590690Y-73684155D01*
X129687160Y-73917628D01*
X129781300Y-74011933D01*
X129781300Y-76860400D01*
X129815136Y-77030503D01*
X129910970Y-77173929D01*
X129911491Y-77174709D01*
X130165491Y-77428709D01*
X130309697Y-77525064D01*
X130479800Y-77558900D01*
X135858282Y-77558900D01*
X137261606Y-78962224D01*
X137261490Y-79094355D01*
X137357960Y-79327828D01*
X137536432Y-79506613D01*
X137769737Y-79603489D01*
X138022355Y-79603710D01*
X138255828Y-79507240D01*
X138434613Y-79328768D01*
X138531489Y-79095463D01*
X138531710Y-78842845D01*
X138435240Y-78609372D01*
X138256768Y-78430587D01*
X138023463Y-78333711D01*
X137890212Y-78333594D01*
X136356709Y-76800091D01*
X136338356Y-76787828D01*
X136212503Y-76703736D01*
X136042400Y-76669900D01*
X130670300Y-76669900D01*
X130670300Y-74011917D01*
X130763813Y-73918568D01*
X130860689Y-73685263D01*
X130860910Y-73432645D01*
X130764440Y-73199172D01*
X130585968Y-73020387D01*
X130352663Y-72923511D01*
X130100045Y-72923290D01*
X129866572Y-73019760D01*
X129687787Y-73198232D01*
X129590911Y-73431537D01*
X129590690Y-73684155D01*
X120650000Y-73684155D01*
X120650000Y-65938400D01*
X120582329Y-65598194D01*
X120389618Y-65309782D01*
X119449818Y-64369982D01*
X119161406Y-64177271D01*
X118821200Y-64109600D01*
X116370036Y-64109600D01*
X115392200Y-63131764D01*
X115392200Y-52693600D01*
X115810000Y-52693600D01*
X115810000Y-61684400D01*
X115831406Y-61792015D01*
X115831350Y-61856199D01*
X115856076Y-61916040D01*
X115877671Y-62024606D01*
X115938632Y-62115840D01*
X115963141Y-62175157D01*
X116008884Y-62220981D01*
X116070382Y-62313018D01*
X116161613Y-62373977D01*
X116206959Y-62419402D01*
X116266759Y-62444233D01*
X116358794Y-62505729D01*
X116466410Y-62527135D01*
X116525687Y-62551749D01*
X116590437Y-62551805D01*
X116699000Y-62573400D01*
X116806615Y-62551994D01*
X116870799Y-62552050D01*
X116930640Y-62527324D01*
X117039206Y-62505729D01*
X117130440Y-62444768D01*
X117189757Y-62420259D01*
X117235581Y-62374516D01*
X117327618Y-62313018D01*
X117388577Y-62221787D01*
X117434002Y-62176441D01*
X117458833Y-62116641D01*
X117520329Y-62024606D01*
X117537947Y-61936033D01*
X120256135Y-61936033D01*
X120400839Y-62286243D01*
X120668547Y-62554420D01*
X121018505Y-62699735D01*
X121397433Y-62700065D01*
X121703985Y-62573400D01*
X124319000Y-62573400D01*
X124426615Y-62551994D01*
X124490799Y-62552050D01*
X124550640Y-62527324D01*
X124659206Y-62505729D01*
X124750440Y-62444768D01*
X124809757Y-62420259D01*
X124855581Y-62374516D01*
X124947618Y-62313018D01*
X125008577Y-62221787D01*
X125054002Y-62176441D01*
X125078833Y-62116641D01*
X125140329Y-62024606D01*
X125161735Y-61916990D01*
X125186349Y-61857713D01*
X125186405Y-61792963D01*
X125208000Y-61684400D01*
X125186594Y-61576785D01*
X125186650Y-61512601D01*
X125161924Y-61452760D01*
X125140329Y-61344194D01*
X125079368Y-61252960D01*
X125054859Y-61193643D01*
X125009116Y-61147819D01*
X124947618Y-61055782D01*
X124856387Y-60994823D01*
X124811041Y-60949398D01*
X124751241Y-60924567D01*
X124659206Y-60863071D01*
X124551590Y-60841665D01*
X124492313Y-60817051D01*
X124427563Y-60816995D01*
X124319000Y-60795400D01*
X121399902Y-60795400D01*
X121399095Y-60795065D01*
X121020167Y-60794735D01*
X120669957Y-60939439D01*
X120401780Y-61207147D01*
X120256465Y-61557105D01*
X120256135Y-61936033D01*
X117537947Y-61936033D01*
X117541735Y-61916990D01*
X117566349Y-61857713D01*
X117566405Y-61792963D01*
X117588000Y-61684400D01*
X117588000Y-59144400D01*
X123430000Y-59144400D01*
X123451406Y-59252015D01*
X123451350Y-59316199D01*
X123476076Y-59376040D01*
X123497671Y-59484606D01*
X123558632Y-59575840D01*
X123583141Y-59635157D01*
X123628884Y-59680981D01*
X123690382Y-59773018D01*
X123781613Y-59833977D01*
X123826959Y-59879402D01*
X123886759Y-59904233D01*
X123978794Y-59965729D01*
X124086410Y-59987135D01*
X124145687Y-60011749D01*
X124210437Y-60011805D01*
X124319000Y-60033400D01*
X126326400Y-60033400D01*
X126456427Y-60007536D01*
X126604433Y-60007665D01*
X126954643Y-59862961D01*
X127222820Y-59595253D01*
X127368135Y-59245295D01*
X127368465Y-58866367D01*
X127223761Y-58516157D01*
X126956053Y-58247980D01*
X126606095Y-58102665D01*
X126227167Y-58102335D01*
X125876957Y-58247039D01*
X125868581Y-58255400D01*
X124319000Y-58255400D01*
X124211385Y-58276806D01*
X124147201Y-58276750D01*
X124087360Y-58301476D01*
X123978794Y-58323071D01*
X123887560Y-58384032D01*
X123828243Y-58408541D01*
X123782419Y-58454284D01*
X123690382Y-58515782D01*
X123629423Y-58607013D01*
X123583998Y-58652359D01*
X123559167Y-58712159D01*
X123497671Y-58804194D01*
X123476265Y-58911810D01*
X123451651Y-58971087D01*
X123451595Y-59035837D01*
X123430000Y-59144400D01*
X117588000Y-59144400D01*
X117588000Y-56604400D01*
X123430000Y-56604400D01*
X123451406Y-56712015D01*
X123451350Y-56776199D01*
X123476076Y-56836040D01*
X123497671Y-56944606D01*
X123558632Y-57035840D01*
X123583141Y-57095157D01*
X123628884Y-57140981D01*
X123690382Y-57233018D01*
X123781613Y-57293977D01*
X123826959Y-57339402D01*
X123886759Y-57364233D01*
X123978794Y-57425729D01*
X124086410Y-57447135D01*
X124145687Y-57471749D01*
X124210437Y-57471805D01*
X124319000Y-57493400D01*
X126145196Y-57493400D01*
X126327105Y-57568935D01*
X126706033Y-57569265D01*
X127056243Y-57424561D01*
X127324420Y-57156853D01*
X127469735Y-56806895D01*
X127469857Y-56666155D01*
X130860690Y-56666155D01*
X130957160Y-56899628D01*
X131135632Y-57078413D01*
X131368937Y-57175289D01*
X131502188Y-57175406D01*
X132553091Y-58226309D01*
X132697297Y-58322664D01*
X132867400Y-58356500D01*
X135801100Y-58356500D01*
X135801100Y-64973200D01*
X135834936Y-65143303D01*
X135886730Y-65220818D01*
X135931291Y-65287509D01*
X137325100Y-66681318D01*
X137325100Y-75590400D01*
X137358936Y-75760503D01*
X137402287Y-75825382D01*
X137455291Y-75904709D01*
X137972806Y-76422224D01*
X137972690Y-76554355D01*
X138069160Y-76787828D01*
X138247632Y-76966613D01*
X138480937Y-77063489D01*
X138733555Y-77063710D01*
X138967028Y-76967240D01*
X139145813Y-76788768D01*
X139242689Y-76555463D01*
X139242910Y-76302845D01*
X139146440Y-76069372D01*
X138967968Y-75890587D01*
X138734663Y-75793711D01*
X138601412Y-75793594D01*
X138214100Y-75406282D01*
X138214100Y-73691718D01*
X138404606Y-73882224D01*
X138404490Y-74014355D01*
X138500960Y-74247828D01*
X138679432Y-74426613D01*
X138912737Y-74523489D01*
X139165355Y-74523710D01*
X139398828Y-74427240D01*
X139577613Y-74248768D01*
X139618825Y-74149517D01*
X144402072Y-74149517D01*
X144602227Y-74633929D01*
X144972522Y-75004871D01*
X145343057Y-75158730D01*
X144974471Y-75311027D01*
X144603529Y-75681322D01*
X144402530Y-76165383D01*
X144402072Y-76689517D01*
X144602227Y-77173929D01*
X144972522Y-77544871D01*
X145343057Y-77698730D01*
X144974471Y-77851027D01*
X144603529Y-78221322D01*
X144402530Y-78705383D01*
X144402072Y-79229517D01*
X144602227Y-79713929D01*
X144972522Y-80084871D01*
X145343057Y-80238730D01*
X144974471Y-80391027D01*
X144603529Y-80761322D01*
X144402530Y-81245383D01*
X144402072Y-81769517D01*
X144602227Y-82253929D01*
X144972522Y-82624871D01*
X145343057Y-82778730D01*
X144974471Y-82931027D01*
X144603529Y-83301322D01*
X144402530Y-83785383D01*
X144402072Y-84309517D01*
X144602227Y-84793929D01*
X144972522Y-85164871D01*
X145343057Y-85318730D01*
X144974471Y-85471027D01*
X144603529Y-85841322D01*
X144402530Y-86325383D01*
X144402072Y-86849517D01*
X144602227Y-87333929D01*
X144972522Y-87704871D01*
X145456583Y-87905870D01*
X145980717Y-87906328D01*
X146465129Y-87706173D01*
X146836071Y-87335878D01*
X147037070Y-86851817D01*
X147037528Y-86327683D01*
X146837373Y-85843271D01*
X146467078Y-85472329D01*
X146096543Y-85318470D01*
X146465129Y-85166173D01*
X146836071Y-84795878D01*
X147037070Y-84311817D01*
X147037528Y-83787683D01*
X146837373Y-83303271D01*
X146467078Y-82932329D01*
X146096543Y-82778470D01*
X146465129Y-82626173D01*
X146836071Y-82255878D01*
X147037070Y-81771817D01*
X147037528Y-81247683D01*
X146837373Y-80763271D01*
X146467078Y-80392329D01*
X146096543Y-80238470D01*
X146465129Y-80086173D01*
X146836071Y-79715878D01*
X147037070Y-79231817D01*
X147037528Y-78707683D01*
X146837373Y-78223271D01*
X146467078Y-77852329D01*
X146096543Y-77698470D01*
X146465129Y-77546173D01*
X146836071Y-77175878D01*
X147037070Y-76691817D01*
X147037528Y-76167683D01*
X146837373Y-75683271D01*
X146467078Y-75312329D01*
X146096543Y-75158470D01*
X146465129Y-75006173D01*
X146836071Y-74635878D01*
X147037070Y-74151817D01*
X147037528Y-73627683D01*
X146837373Y-73143271D01*
X146467078Y-72772329D01*
X145983017Y-72571330D01*
X145458883Y-72570872D01*
X144974471Y-72771027D01*
X144603529Y-73141322D01*
X144402530Y-73625383D01*
X144402072Y-74149517D01*
X139618825Y-74149517D01*
X139674489Y-74015463D01*
X139674710Y-73762845D01*
X139578240Y-73529372D01*
X139399768Y-73350587D01*
X139166463Y-73253711D01*
X139033212Y-73253594D01*
X138798300Y-73018682D01*
X138798300Y-58909517D01*
X144402072Y-58909517D01*
X144602227Y-59393929D01*
X144972522Y-59764871D01*
X145343057Y-59918730D01*
X144974471Y-60071027D01*
X144603529Y-60441322D01*
X144402530Y-60925383D01*
X144402072Y-61449517D01*
X144602227Y-61933929D01*
X144972522Y-62304871D01*
X145343057Y-62458730D01*
X144974471Y-62611027D01*
X144603529Y-62981322D01*
X144402530Y-63465383D01*
X144402072Y-63989517D01*
X144602227Y-64473929D01*
X144972522Y-64844871D01*
X145343057Y-64998730D01*
X144974471Y-65151027D01*
X144603529Y-65521322D01*
X144402530Y-66005383D01*
X144402072Y-66529517D01*
X144602227Y-67013929D01*
X144972522Y-67384871D01*
X145343057Y-67538730D01*
X144974471Y-67691027D01*
X144603529Y-68061322D01*
X144402530Y-68545383D01*
X144402072Y-69069517D01*
X144602227Y-69553929D01*
X144972522Y-69924871D01*
X145456583Y-70125870D01*
X145980717Y-70126328D01*
X146465129Y-69926173D01*
X146836071Y-69555878D01*
X147037070Y-69071817D01*
X147037528Y-68547683D01*
X146837373Y-68063271D01*
X146467078Y-67692329D01*
X146096543Y-67538470D01*
X146465129Y-67386173D01*
X146836071Y-67015878D01*
X147037070Y-66531817D01*
X147037528Y-66007683D01*
X146837373Y-65523271D01*
X146467078Y-65152329D01*
X146096543Y-64998470D01*
X146465129Y-64846173D01*
X146836071Y-64475878D01*
X147037070Y-63991817D01*
X147037528Y-63467683D01*
X146837373Y-62983271D01*
X146467078Y-62612329D01*
X146096543Y-62458470D01*
X146465129Y-62306173D01*
X146836071Y-61935878D01*
X147037070Y-61451817D01*
X147037528Y-60927683D01*
X146837373Y-60443271D01*
X146467078Y-60072329D01*
X146096543Y-59918470D01*
X146465129Y-59766173D01*
X146836071Y-59395878D01*
X147037070Y-58911817D01*
X147037528Y-58387683D01*
X146837373Y-57903271D01*
X146467078Y-57532329D01*
X145983017Y-57331330D01*
X145458883Y-57330872D01*
X144974471Y-57531027D01*
X144603529Y-57901322D01*
X144402530Y-58385383D01*
X144402072Y-58909517D01*
X138798300Y-58909517D01*
X138798300Y-53549518D01*
X139988909Y-52358909D01*
X140085264Y-52214703D01*
X140119100Y-52044600D01*
X140119100Y-51736117D01*
X140212613Y-51642768D01*
X140309489Y-51409463D01*
X140309710Y-51156845D01*
X140213240Y-50923372D01*
X140034768Y-50744587D01*
X139801463Y-50647711D01*
X139548845Y-50647490D01*
X139315372Y-50743960D01*
X139136587Y-50922432D01*
X139039711Y-51155737D01*
X139039490Y-51408355D01*
X139135960Y-51641828D01*
X139230100Y-51736133D01*
X139230100Y-51860482D01*
X138039491Y-53051091D01*
X137943136Y-53195297D01*
X137909300Y-53365400D01*
X137909300Y-66008282D01*
X136690100Y-64789082D01*
X136690100Y-58140600D01*
X136656264Y-57970497D01*
X136559909Y-57826291D01*
X136331309Y-57597691D01*
X136233487Y-57532329D01*
X136187103Y-57501336D01*
X136017000Y-57467500D01*
X133051518Y-57467500D01*
X132130794Y-56546776D01*
X132130910Y-56414645D01*
X132034440Y-56181172D01*
X131855968Y-56002387D01*
X131622663Y-55905511D01*
X131370045Y-55905290D01*
X131136572Y-56001760D01*
X130957787Y-56180232D01*
X130860911Y-56413537D01*
X130860690Y-56666155D01*
X127469857Y-56666155D01*
X127470065Y-56427967D01*
X127325361Y-56077757D01*
X127057653Y-55809580D01*
X126707695Y-55664265D01*
X126328767Y-55663935D01*
X126204212Y-55715400D01*
X124319000Y-55715400D01*
X124211385Y-55736806D01*
X124147201Y-55736750D01*
X124087360Y-55761476D01*
X123978794Y-55783071D01*
X123887560Y-55844032D01*
X123828243Y-55868541D01*
X123782419Y-55914284D01*
X123690382Y-55975782D01*
X123629423Y-56067013D01*
X123583998Y-56112359D01*
X123559167Y-56172159D01*
X123497671Y-56264194D01*
X123476265Y-56371810D01*
X123451651Y-56431087D01*
X123451595Y-56495837D01*
X123430000Y-56604400D01*
X117588000Y-56604400D01*
X117588000Y-54064400D01*
X123430000Y-54064400D01*
X123451406Y-54172015D01*
X123451350Y-54236199D01*
X123476076Y-54296040D01*
X123497671Y-54404606D01*
X123558632Y-54495840D01*
X123583141Y-54555157D01*
X123628884Y-54600981D01*
X123690382Y-54693018D01*
X123781613Y-54753977D01*
X123826959Y-54799402D01*
X123886759Y-54824233D01*
X123978794Y-54885729D01*
X124086410Y-54907135D01*
X124145687Y-54931749D01*
X124210437Y-54931805D01*
X124319000Y-54953400D01*
X125691694Y-54953400D01*
X125900947Y-55163020D01*
X126250905Y-55308335D01*
X126629833Y-55308665D01*
X126980043Y-55163961D01*
X127248220Y-54896253D01*
X127393535Y-54546295D01*
X127393865Y-54167367D01*
X127249161Y-53817157D01*
X126981453Y-53548980D01*
X126827482Y-53485046D01*
X126778218Y-53435782D01*
X126749402Y-53416528D01*
X126489806Y-53243071D01*
X126149600Y-53175400D01*
X124319000Y-53175400D01*
X124211385Y-53196806D01*
X124147201Y-53196750D01*
X124087360Y-53221476D01*
X123978794Y-53243071D01*
X123887560Y-53304032D01*
X123828243Y-53328541D01*
X123782419Y-53374284D01*
X123690382Y-53435782D01*
X123629423Y-53527013D01*
X123583998Y-53572359D01*
X123559167Y-53632159D01*
X123497671Y-53724194D01*
X123476265Y-53831810D01*
X123451651Y-53891087D01*
X123451595Y-53955837D01*
X123430000Y-54064400D01*
X117588000Y-54064400D01*
X117588000Y-53061836D01*
X117868636Y-52781200D01*
X126199964Y-52781200D01*
X126665582Y-53246818D01*
X126953994Y-53439529D01*
X127294200Y-53507200D01*
X128866466Y-53507200D01*
X129055108Y-53585531D01*
X129440003Y-53585867D01*
X129795729Y-53438884D01*
X130068128Y-53166960D01*
X130215731Y-52811492D01*
X130216067Y-52426597D01*
X130069084Y-52070871D01*
X129797160Y-51798472D01*
X129441692Y-51650869D01*
X129056797Y-51650533D01*
X128866408Y-51729200D01*
X127662436Y-51729200D01*
X127196818Y-51263582D01*
X126908406Y-51070871D01*
X126568200Y-51003200D01*
X117500400Y-51003200D01*
X117160194Y-51070871D01*
X116871782Y-51263582D01*
X116070382Y-52064982D01*
X115877671Y-52353394D01*
X115810000Y-52693600D01*
X115392200Y-52693600D01*
X115392200Y-50876200D01*
X130359400Y-50876200D01*
X130359400Y-52236266D01*
X130281069Y-52424908D01*
X130280733Y-52809803D01*
X130427716Y-53165529D01*
X130699640Y-53437928D01*
X131055108Y-53585531D01*
X131440003Y-53585867D01*
X131795729Y-53438884D01*
X132068128Y-53166960D01*
X132215731Y-52811492D01*
X132216067Y-52426597D01*
X132137400Y-52236208D01*
X132137400Y-50272623D01*
X132200735Y-50120095D01*
X132201065Y-49741167D01*
X132056361Y-49390957D01*
X131788653Y-49122780D01*
X131438695Y-48977465D01*
X131059767Y-48977135D01*
X130766768Y-49098200D01*
X114579400Y-49098200D01*
X114239194Y-49165871D01*
X114125153Y-49242071D01*
X113950782Y-49358582D01*
X113874582Y-49434782D01*
X113681871Y-49723194D01*
X113614200Y-50063400D01*
X113614200Y-51638200D01*
X113194600Y-51638200D01*
X112854394Y-51705871D01*
X112851507Y-51707800D01*
X111953534Y-51707800D01*
X111764892Y-51629469D01*
X111379997Y-51629133D01*
X111024271Y-51776116D01*
X110751872Y-52048040D01*
X110604269Y-52403508D01*
X110603933Y-52788403D01*
X108419900Y-52788403D01*
X108419900Y-48831500D01*
X147256500Y-48831500D01*
X147256500Y-89344500D01*
M02*
