G04 #@! TF.GenerationSoftware,KiCad,Pcbnew,no-vcs-found-895c0bb~58~ubuntu16.04.1*
G04 #@! TF.CreationDate,2017-07-11T17:07:46-04:00*
G04 #@! TF.ProjectId,alim,616C696D2E6B696361645F7063620000,rev?*
G04 #@! TF.SameCoordinates,Original
G04 #@! TF.FileFunction,Legend,Top*
G04 #@! TF.FilePolarity,Positive*
%FSLAX46Y46*%
G04 Gerber Fmt 4.6, Leading zero omitted, Abs format (unit mm)*
G04 Created by KiCad (PCBNEW no-vcs-found-895c0bb~58~ubuntu16.04.1) date Tue Jul 11 17:07:46 2017*
%MOMM*%
%LPD*%
G01*
G04 APERTURE LIST*
%ADD10C,0.190500*%
%ADD11C,0.254000*%
%ADD12C,0.300000*%
%ADD13C,0.050000*%
%ADD14C,0.150000*%
G04 APERTURE END LIST*
D10*
X114517714Y-62302571D02*
X114517714Y-61830857D01*
X114808000Y-62084857D01*
X114808000Y-61976000D01*
X114844285Y-61903428D01*
X114880571Y-61867142D01*
X114953142Y-61830857D01*
X115134571Y-61830857D01*
X115207142Y-61867142D01*
X115243428Y-61903428D01*
X115279714Y-61976000D01*
X115279714Y-62193714D01*
X115243428Y-62266285D01*
X115207142Y-62302571D01*
X114517714Y-61613142D02*
X115279714Y-61359142D01*
X114517714Y-61105142D01*
X114517714Y-60306857D02*
X114517714Y-59835142D01*
X114808000Y-60089142D01*
X114808000Y-59980285D01*
X114844285Y-59907714D01*
X114880571Y-59871428D01*
X114953142Y-59835142D01*
X115134571Y-59835142D01*
X115207142Y-59871428D01*
X115243428Y-59907714D01*
X115279714Y-59980285D01*
X115279714Y-60198000D01*
X115243428Y-60270571D01*
X115207142Y-60306857D01*
X115207142Y-59508571D02*
X115243428Y-59472285D01*
X115279714Y-59508571D01*
X115243428Y-59544857D01*
X115207142Y-59508571D01*
X115279714Y-59508571D01*
X114517714Y-59218285D02*
X114517714Y-58746571D01*
X114808000Y-59000571D01*
X114808000Y-58891714D01*
X114844285Y-58819142D01*
X114880571Y-58782857D01*
X114953142Y-58746571D01*
X115134571Y-58746571D01*
X115207142Y-58782857D01*
X115243428Y-58819142D01*
X115279714Y-58891714D01*
X115279714Y-59109428D01*
X115243428Y-59182000D01*
X115207142Y-59218285D01*
X114517714Y-58528857D02*
X115279714Y-58274857D01*
X114517714Y-58020857D01*
X114517714Y-56660142D02*
X114517714Y-57023000D01*
X114880571Y-57059285D01*
X114844285Y-57023000D01*
X114808000Y-56950428D01*
X114808000Y-56769000D01*
X114844285Y-56696428D01*
X114880571Y-56660142D01*
X114953142Y-56623857D01*
X115134571Y-56623857D01*
X115207142Y-56660142D01*
X115243428Y-56696428D01*
X115279714Y-56769000D01*
X115279714Y-56950428D01*
X115243428Y-57023000D01*
X115207142Y-57059285D01*
X114517714Y-56406142D02*
X115279714Y-56152142D01*
X114517714Y-55898142D01*
X114644714Y-54319714D02*
X115152714Y-54319714D01*
X114644714Y-54646285D02*
X115043857Y-54646285D01*
X115116428Y-54610000D01*
X115152714Y-54537428D01*
X115152714Y-54428571D01*
X115116428Y-54356000D01*
X115080142Y-54319714D01*
X115080142Y-53521428D02*
X115116428Y-53557714D01*
X115152714Y-53666571D01*
X115152714Y-53739142D01*
X115116428Y-53848000D01*
X115043857Y-53920571D01*
X114971285Y-53956857D01*
X114826142Y-53993142D01*
X114717285Y-53993142D01*
X114572142Y-53956857D01*
X114499571Y-53920571D01*
X114427000Y-53848000D01*
X114390714Y-53739142D01*
X114390714Y-53666571D01*
X114427000Y-53557714D01*
X114463285Y-53521428D01*
D11*
X114820095Y-65586428D02*
X115158761Y-65586428D01*
X115303904Y-66118619D02*
X114820095Y-66118619D01*
X114820095Y-65102619D01*
X115303904Y-65102619D01*
X115739333Y-65441285D02*
X115739333Y-66118619D01*
X115739333Y-65538047D02*
X115787714Y-65489666D01*
X115884476Y-65441285D01*
X116029619Y-65441285D01*
X116126380Y-65489666D01*
X116174761Y-65586428D01*
X116174761Y-66118619D01*
X116658571Y-66118619D02*
X116658571Y-65102619D01*
X116997238Y-65828333D01*
X117335904Y-65102619D01*
X117335904Y-66118619D01*
X118013238Y-65102619D02*
X118206761Y-65102619D01*
X118303523Y-65151000D01*
X118400285Y-65247761D01*
X118448666Y-65441285D01*
X118448666Y-65779952D01*
X118400285Y-65973476D01*
X118303523Y-66070238D01*
X118206761Y-66118619D01*
X118013238Y-66118619D01*
X117916476Y-66070238D01*
X117819714Y-65973476D01*
X117771333Y-65779952D01*
X117771333Y-65441285D01*
X117819714Y-65247761D01*
X117916476Y-65151000D01*
X118013238Y-65102619D01*
X118835714Y-66070238D02*
X118980857Y-66118619D01*
X119222761Y-66118619D01*
X119319523Y-66070238D01*
X119367904Y-66021857D01*
X119416285Y-65925095D01*
X119416285Y-65828333D01*
X119367904Y-65731571D01*
X119319523Y-65683190D01*
X119222761Y-65634809D01*
X119029238Y-65586428D01*
X118932476Y-65538047D01*
X118884095Y-65489666D01*
X118835714Y-65392904D01*
X118835714Y-65296142D01*
X118884095Y-65199380D01*
X118932476Y-65151000D01*
X119029238Y-65102619D01*
X119271142Y-65102619D01*
X119416285Y-65151000D01*
X105881714Y-54537428D02*
X106026857Y-54585809D01*
X106075238Y-54634190D01*
X106123619Y-54730952D01*
X106123619Y-54876095D01*
X106075238Y-54972857D01*
X106026857Y-55021238D01*
X105930095Y-55069619D01*
X105543047Y-55069619D01*
X105543047Y-54053619D01*
X105881714Y-54053619D01*
X105978476Y-54102000D01*
X106026857Y-54150380D01*
X106075238Y-54247142D01*
X106075238Y-54343904D01*
X106026857Y-54440666D01*
X105978476Y-54489047D01*
X105881714Y-54537428D01*
X105543047Y-54537428D01*
X106994476Y-55069619D02*
X106994476Y-54537428D01*
X106946095Y-54440666D01*
X106849333Y-54392285D01*
X106655809Y-54392285D01*
X106559047Y-54440666D01*
X106994476Y-55021238D02*
X106897714Y-55069619D01*
X106655809Y-55069619D01*
X106559047Y-55021238D01*
X106510666Y-54924476D01*
X106510666Y-54827714D01*
X106559047Y-54730952D01*
X106655809Y-54682571D01*
X106897714Y-54682571D01*
X106994476Y-54634190D01*
X107333142Y-54392285D02*
X107720190Y-54392285D01*
X107478285Y-54053619D02*
X107478285Y-54924476D01*
X107526666Y-55021238D01*
X107623428Y-55069619D01*
X107720190Y-55069619D01*
X108058857Y-54682571D02*
X108832952Y-54682571D01*
X105881714Y-74712285D02*
X105881714Y-75389619D01*
X105881714Y-74809047D02*
X105930095Y-74760666D01*
X106026857Y-74712285D01*
X106172000Y-74712285D01*
X106268761Y-74760666D01*
X106317142Y-74857428D01*
X106317142Y-75389619D01*
X106800952Y-75389619D02*
X106800952Y-74373619D01*
X107139619Y-75099333D01*
X107478285Y-74373619D01*
X107478285Y-75389619D01*
X108155619Y-74373619D02*
X108349142Y-74373619D01*
X108445904Y-74422000D01*
X108542666Y-74518761D01*
X108591047Y-74712285D01*
X108591047Y-75050952D01*
X108542666Y-75244476D01*
X108445904Y-75341238D01*
X108349142Y-75389619D01*
X108155619Y-75389619D01*
X108058857Y-75341238D01*
X107962095Y-75244476D01*
X107913714Y-75050952D01*
X107913714Y-74712285D01*
X107962095Y-74518761D01*
X108058857Y-74422000D01*
X108155619Y-74373619D01*
X108978095Y-75341238D02*
X109123238Y-75389619D01*
X109365142Y-75389619D01*
X109461904Y-75341238D01*
X109510285Y-75292857D01*
X109558666Y-75196095D01*
X109558666Y-75099333D01*
X109510285Y-75002571D01*
X109461904Y-74954190D01*
X109365142Y-74905809D01*
X109171619Y-74857428D01*
X109074857Y-74809047D01*
X109026476Y-74760666D01*
X108978095Y-74663904D01*
X108978095Y-74567142D01*
X109026476Y-74470380D01*
X109074857Y-74422000D01*
X109171619Y-74373619D01*
X109413523Y-74373619D01*
X109558666Y-74422000D01*
X118339809Y-74603428D02*
X118484952Y-74651809D01*
X118533333Y-74700190D01*
X118581714Y-74796952D01*
X118581714Y-74942095D01*
X118533333Y-75038857D01*
X118484952Y-75087238D01*
X118388190Y-75135619D01*
X118001142Y-75135619D01*
X118001142Y-74119619D01*
X118339809Y-74119619D01*
X118436571Y-74168000D01*
X118484952Y-74216380D01*
X118533333Y-74313142D01*
X118533333Y-74409904D01*
X118484952Y-74506666D01*
X118436571Y-74555047D01*
X118339809Y-74603428D01*
X118001142Y-74603428D01*
X118920380Y-74458285D02*
X119162285Y-75135619D01*
X119404190Y-74458285D02*
X119162285Y-75135619D01*
X119065523Y-75377523D01*
X119017142Y-75425904D01*
X118920380Y-75474285D01*
X119791238Y-74458285D02*
X119791238Y-75474285D01*
X119791238Y-74506666D02*
X119888000Y-74458285D01*
X120081523Y-74458285D01*
X120178285Y-74506666D01*
X120226666Y-74555047D01*
X120275047Y-74651809D01*
X120275047Y-74942095D01*
X120226666Y-75038857D01*
X120178285Y-75087238D01*
X120081523Y-75135619D01*
X119888000Y-75135619D01*
X119791238Y-75087238D01*
X121145904Y-75135619D02*
X121145904Y-74603428D01*
X121097523Y-74506666D01*
X121000761Y-74458285D01*
X120807238Y-74458285D01*
X120710476Y-74506666D01*
X121145904Y-75087238D02*
X121049142Y-75135619D01*
X120807238Y-75135619D01*
X120710476Y-75087238D01*
X120662095Y-74990476D01*
X120662095Y-74893714D01*
X120710476Y-74796952D01*
X120807238Y-74748571D01*
X121049142Y-74748571D01*
X121145904Y-74700190D01*
X121581333Y-75087238D02*
X121678095Y-75135619D01*
X121871619Y-75135619D01*
X121968380Y-75087238D01*
X122016761Y-74990476D01*
X122016761Y-74942095D01*
X121968380Y-74845333D01*
X121871619Y-74796952D01*
X121726476Y-74796952D01*
X121629714Y-74748571D01*
X121581333Y-74651809D01*
X121581333Y-74603428D01*
X121629714Y-74506666D01*
X121726476Y-74458285D01*
X121871619Y-74458285D01*
X121968380Y-74506666D01*
X122403809Y-75087238D02*
X122500571Y-75135619D01*
X122694095Y-75135619D01*
X122790857Y-75087238D01*
X122839238Y-74990476D01*
X122839238Y-74942095D01*
X122790857Y-74845333D01*
X122694095Y-74796952D01*
X122548952Y-74796952D01*
X122452190Y-74748571D01*
X122403809Y-74651809D01*
X122403809Y-74603428D01*
X122452190Y-74506666D01*
X122548952Y-74458285D01*
X122694095Y-74458285D01*
X122790857Y-74506666D01*
X105881714Y-52505428D02*
X106026857Y-52553809D01*
X106075238Y-52602190D01*
X106123619Y-52698952D01*
X106123619Y-52844095D01*
X106075238Y-52940857D01*
X106026857Y-52989238D01*
X105930095Y-53037619D01*
X105543047Y-53037619D01*
X105543047Y-52021619D01*
X105881714Y-52021619D01*
X105978476Y-52070000D01*
X106026857Y-52118380D01*
X106075238Y-52215142D01*
X106075238Y-52311904D01*
X106026857Y-52408666D01*
X105978476Y-52457047D01*
X105881714Y-52505428D01*
X105543047Y-52505428D01*
X106994476Y-53037619D02*
X106994476Y-52505428D01*
X106946095Y-52408666D01*
X106849333Y-52360285D01*
X106655809Y-52360285D01*
X106559047Y-52408666D01*
X106994476Y-52989238D02*
X106897714Y-53037619D01*
X106655809Y-53037619D01*
X106559047Y-52989238D01*
X106510666Y-52892476D01*
X106510666Y-52795714D01*
X106559047Y-52698952D01*
X106655809Y-52650571D01*
X106897714Y-52650571D01*
X106994476Y-52602190D01*
X107333142Y-52360285D02*
X107720190Y-52360285D01*
X107478285Y-52021619D02*
X107478285Y-52892476D01*
X107526666Y-52989238D01*
X107623428Y-53037619D01*
X107720190Y-53037619D01*
X108058857Y-52650571D02*
X108832952Y-52650571D01*
X108445904Y-53037619D02*
X108445904Y-52263523D01*
X105966380Y-62424571D02*
X106305047Y-63924571D01*
X106643714Y-62424571D01*
X106934000Y-63853142D02*
X107030761Y-63924571D01*
X107224285Y-63924571D01*
X107321047Y-63853142D01*
X107369428Y-63710285D01*
X107369428Y-63638857D01*
X107321047Y-63496000D01*
X107224285Y-63424571D01*
X107079142Y-63424571D01*
X106982380Y-63353142D01*
X106934000Y-63210285D01*
X106934000Y-63138857D01*
X106982380Y-62996000D01*
X107079142Y-62924571D01*
X107224285Y-62924571D01*
X107321047Y-62996000D01*
X107950000Y-63924571D02*
X107853238Y-63853142D01*
X107804857Y-63781714D01*
X107756476Y-63638857D01*
X107756476Y-63210285D01*
X107804857Y-63067428D01*
X107853238Y-62996000D01*
X107950000Y-62924571D01*
X108095142Y-62924571D01*
X108191904Y-62996000D01*
X108240285Y-63067428D01*
X108288666Y-63210285D01*
X108288666Y-63638857D01*
X108240285Y-63781714D01*
X108191904Y-63853142D01*
X108095142Y-63924571D01*
X107950000Y-63924571D01*
X108869238Y-63924571D02*
X108772476Y-63853142D01*
X108724095Y-63710285D01*
X108724095Y-62424571D01*
D12*
X128228885Y-56842742D02*
X128443171Y-56914171D01*
X128800314Y-56914171D01*
X128943171Y-56842742D01*
X129014600Y-56771314D01*
X129086028Y-56628457D01*
X129086028Y-56485600D01*
X129014600Y-56342742D01*
X128943171Y-56271314D01*
X128800314Y-56199885D01*
X128514600Y-56128457D01*
X128371742Y-56057028D01*
X128300314Y-55985600D01*
X128228885Y-55842742D01*
X128228885Y-55699885D01*
X128300314Y-55557028D01*
X128371742Y-55485600D01*
X128514600Y-55414171D01*
X128871742Y-55414171D01*
X129086028Y-55485600D01*
X129586028Y-55414171D02*
X129943171Y-56914171D01*
X130228885Y-55842742D01*
X130514600Y-56914171D01*
X130871742Y-55414171D01*
D11*
X140523685Y-52309485D02*
X140523685Y-52986819D01*
X140088257Y-52309485D02*
X140088257Y-52841676D01*
X140136638Y-52938438D01*
X140233400Y-52986819D01*
X140378542Y-52986819D01*
X140475304Y-52938438D01*
X140523685Y-52890057D01*
X141588066Y-52890057D02*
X141539685Y-52938438D01*
X141394542Y-52986819D01*
X141297780Y-52986819D01*
X141152638Y-52938438D01*
X141055876Y-52841676D01*
X141007495Y-52744914D01*
X140959114Y-52551390D01*
X140959114Y-52406247D01*
X141007495Y-52212723D01*
X141055876Y-52115961D01*
X141152638Y-52019200D01*
X141297780Y-51970819D01*
X141394542Y-51970819D01*
X141539685Y-52019200D01*
X141588066Y-52067580D01*
X141878352Y-51970819D02*
X142217019Y-52986819D01*
X142555685Y-51970819D01*
X131810276Y-63934219D02*
X131326466Y-63934219D01*
X131278085Y-64418028D01*
X131326466Y-64369647D01*
X131423228Y-64321266D01*
X131665133Y-64321266D01*
X131761895Y-64369647D01*
X131810276Y-64418028D01*
X131858657Y-64514790D01*
X131858657Y-64756695D01*
X131810276Y-64853457D01*
X131761895Y-64901838D01*
X131665133Y-64950219D01*
X131423228Y-64950219D01*
X131326466Y-64901838D01*
X131278085Y-64853457D01*
X132148942Y-63934219D02*
X132487609Y-64950219D01*
X132826276Y-63934219D01*
X127379790Y-67083819D02*
X128008742Y-67083819D01*
X127670076Y-67470866D01*
X127815219Y-67470866D01*
X127911980Y-67519247D01*
X127960361Y-67567628D01*
X128008742Y-67664390D01*
X128008742Y-67906295D01*
X127960361Y-68003057D01*
X127911980Y-68051438D01*
X127815219Y-68099819D01*
X127524933Y-68099819D01*
X127428171Y-68051438D01*
X127379790Y-68003057D01*
X128444171Y-68003057D02*
X128492552Y-68051438D01*
X128444171Y-68099819D01*
X128395790Y-68051438D01*
X128444171Y-68003057D01*
X128444171Y-68099819D01*
X128831219Y-67083819D02*
X129460171Y-67083819D01*
X129121504Y-67470866D01*
X129266647Y-67470866D01*
X129363409Y-67519247D01*
X129411790Y-67567628D01*
X129460171Y-67664390D01*
X129460171Y-67906295D01*
X129411790Y-68003057D01*
X129363409Y-68051438D01*
X129266647Y-68099819D01*
X128976361Y-68099819D01*
X128879600Y-68051438D01*
X128831219Y-68003057D01*
X129750457Y-67083819D02*
X130089123Y-68099819D01*
X130427790Y-67083819D01*
X127343504Y-79453619D02*
X127972457Y-79453619D01*
X127633790Y-79840666D01*
X127778933Y-79840666D01*
X127875695Y-79889047D01*
X127924076Y-79937428D01*
X127972457Y-80034190D01*
X127972457Y-80276095D01*
X127924076Y-80372857D01*
X127875695Y-80421238D01*
X127778933Y-80469619D01*
X127488647Y-80469619D01*
X127391885Y-80421238D01*
X127343504Y-80372857D01*
X128262742Y-79453619D02*
X128601409Y-80469619D01*
X128940076Y-79453619D01*
X106667904Y-60452000D02*
X106571142Y-60403619D01*
X106426000Y-60403619D01*
X106280857Y-60452000D01*
X106184095Y-60548761D01*
X106135714Y-60645523D01*
X106087333Y-60839047D01*
X106087333Y-60984190D01*
X106135714Y-61177714D01*
X106184095Y-61274476D01*
X106280857Y-61371238D01*
X106426000Y-61419619D01*
X106522761Y-61419619D01*
X106667904Y-61371238D01*
X106716285Y-61322857D01*
X106716285Y-60984190D01*
X106522761Y-60984190D01*
X107151714Y-61419619D02*
X107151714Y-60403619D01*
X107732285Y-61419619D01*
X107732285Y-60403619D01*
X108216095Y-61419619D02*
X108216095Y-60403619D01*
X108458000Y-60403619D01*
X108603142Y-60452000D01*
X108699904Y-60548761D01*
X108748285Y-60645523D01*
X108796666Y-60839047D01*
X108796666Y-60984190D01*
X108748285Y-61177714D01*
X108699904Y-61274476D01*
X108603142Y-61371238D01*
X108458000Y-61419619D01*
X108216095Y-61419619D01*
D12*
X140812971Y-61019571D02*
X140812971Y-62019571D01*
X140170114Y-61019571D02*
X140170114Y-61805285D01*
X140241542Y-61948142D01*
X140384400Y-62019571D01*
X140598685Y-62019571D01*
X140741542Y-61948142D01*
X140812971Y-61876714D01*
X142384400Y-61876714D02*
X142312971Y-61948142D01*
X142098685Y-62019571D01*
X141955828Y-62019571D01*
X141741542Y-61948142D01*
X141598685Y-61805285D01*
X141527257Y-61662428D01*
X141455828Y-61376714D01*
X141455828Y-61162428D01*
X141527257Y-60876714D01*
X141598685Y-60733857D01*
X141741542Y-60591000D01*
X141955828Y-60519571D01*
X142098685Y-60519571D01*
X142312971Y-60591000D01*
X142384400Y-60662428D01*
X142812971Y-60519571D02*
X143312971Y-62019571D01*
X143812971Y-60519571D01*
X142208285Y-63034171D02*
X141494000Y-63034171D01*
X141422571Y-63748457D01*
X141494000Y-63677028D01*
X141636857Y-63605600D01*
X141994000Y-63605600D01*
X142136857Y-63677028D01*
X142208285Y-63748457D01*
X142279714Y-63891314D01*
X142279714Y-64248457D01*
X142208285Y-64391314D01*
X142136857Y-64462742D01*
X141994000Y-64534171D01*
X141636857Y-64534171D01*
X141494000Y-64462742D01*
X141422571Y-64391314D01*
X142708285Y-63034171D02*
X143208285Y-64534171D01*
X143708285Y-63034171D01*
X139441514Y-65751971D02*
X140370085Y-65751971D01*
X139870085Y-66323400D01*
X140084371Y-66323400D01*
X140227228Y-66394828D01*
X140298657Y-66466257D01*
X140370085Y-66609114D01*
X140370085Y-66966257D01*
X140298657Y-67109114D01*
X140227228Y-67180542D01*
X140084371Y-67251971D01*
X139655800Y-67251971D01*
X139512942Y-67180542D01*
X139441514Y-67109114D01*
X141012942Y-67109114D02*
X141084371Y-67180542D01*
X141012942Y-67251971D01*
X140941514Y-67180542D01*
X141012942Y-67109114D01*
X141012942Y-67251971D01*
X141584371Y-65751971D02*
X142512942Y-65751971D01*
X142012942Y-66323400D01*
X142227228Y-66323400D01*
X142370085Y-66394828D01*
X142441514Y-66466257D01*
X142512942Y-66609114D01*
X142512942Y-66966257D01*
X142441514Y-67109114D01*
X142370085Y-67180542D01*
X142227228Y-67251971D01*
X141798657Y-67251971D01*
X141655800Y-67180542D01*
X141584371Y-67109114D01*
X142941514Y-65751971D02*
X143441514Y-67251971D01*
X143941514Y-65751971D01*
X141554342Y-68114171D02*
X142482914Y-68114171D01*
X141982914Y-68685600D01*
X142197200Y-68685600D01*
X142340057Y-68757028D01*
X142411485Y-68828457D01*
X142482914Y-68971314D01*
X142482914Y-69328457D01*
X142411485Y-69471314D01*
X142340057Y-69542742D01*
X142197200Y-69614171D01*
X141768628Y-69614171D01*
X141625771Y-69542742D01*
X141554342Y-69471314D01*
X142911485Y-68114171D02*
X143411485Y-69614171D01*
X143911485Y-68114171D01*
X139651028Y-58566857D02*
X139865314Y-58638285D01*
X139936742Y-58709714D01*
X140008171Y-58852571D01*
X140008171Y-59066857D01*
X139936742Y-59209714D01*
X139865314Y-59281142D01*
X139722457Y-59352571D01*
X139151028Y-59352571D01*
X139151028Y-57852571D01*
X139651028Y-57852571D01*
X139793885Y-57924000D01*
X139865314Y-57995428D01*
X139936742Y-58138285D01*
X139936742Y-58281142D01*
X139865314Y-58424000D01*
X139793885Y-58495428D01*
X139651028Y-58566857D01*
X139151028Y-58566857D01*
X141293885Y-59352571D02*
X141293885Y-58566857D01*
X141222457Y-58424000D01*
X141079600Y-58352571D01*
X140793885Y-58352571D01*
X140651028Y-58424000D01*
X141293885Y-59281142D02*
X141151028Y-59352571D01*
X140793885Y-59352571D01*
X140651028Y-59281142D01*
X140579600Y-59138285D01*
X140579600Y-58995428D01*
X140651028Y-58852571D01*
X140793885Y-58781142D01*
X141151028Y-58781142D01*
X141293885Y-58709714D01*
X141793885Y-58352571D02*
X142365314Y-58352571D01*
X142008171Y-57852571D02*
X142008171Y-59138285D01*
X142079600Y-59281142D01*
X142222457Y-59352571D01*
X142365314Y-59352571D01*
X142865314Y-58781142D02*
X144008171Y-58781142D01*
X143436742Y-59352571D02*
X143436742Y-58209714D01*
X140756342Y-70796200D02*
X140613485Y-70724771D01*
X140399200Y-70724771D01*
X140184914Y-70796200D01*
X140042057Y-70939057D01*
X139970628Y-71081914D01*
X139899200Y-71367628D01*
X139899200Y-71581914D01*
X139970628Y-71867628D01*
X140042057Y-72010485D01*
X140184914Y-72153342D01*
X140399200Y-72224771D01*
X140542057Y-72224771D01*
X140756342Y-72153342D01*
X140827771Y-72081914D01*
X140827771Y-71581914D01*
X140542057Y-71581914D01*
X141470628Y-72224771D02*
X141470628Y-70724771D01*
X142327771Y-72224771D01*
X142327771Y-70724771D01*
X143042057Y-72224771D02*
X143042057Y-70724771D01*
X143399200Y-70724771D01*
X143613485Y-70796200D01*
X143756342Y-70939057D01*
X143827771Y-71081914D01*
X143899200Y-71367628D01*
X143899200Y-71581914D01*
X143827771Y-71867628D01*
X143756342Y-72010485D01*
X143613485Y-72153342D01*
X143399200Y-72224771D01*
X143042057Y-72224771D01*
X140286800Y-73959257D02*
X140786800Y-73959257D01*
X141001085Y-74744971D02*
X140286800Y-74744971D01*
X140286800Y-73244971D01*
X141001085Y-73244971D01*
X142286800Y-73744971D02*
X142286800Y-74744971D01*
X141643942Y-73744971D02*
X141643942Y-74530685D01*
X141715371Y-74673542D01*
X141858228Y-74744971D01*
X142072514Y-74744971D01*
X142215371Y-74673542D01*
X142286800Y-74602114D01*
X143858228Y-74602114D02*
X143786800Y-74673542D01*
X143572514Y-74744971D01*
X143429657Y-74744971D01*
X143215371Y-74673542D01*
X143072514Y-74530685D01*
X143001085Y-74387828D01*
X142929657Y-74102114D01*
X142929657Y-73887828D01*
X143001085Y-73602114D01*
X143072514Y-73459257D01*
X143215371Y-73316400D01*
X143429657Y-73244971D01*
X143572514Y-73244971D01*
X143786800Y-73316400D01*
X143858228Y-73387828D01*
X140409028Y-76499257D02*
X140909028Y-76499257D01*
X141123314Y-77284971D02*
X140409028Y-77284971D01*
X140409028Y-75784971D01*
X141123314Y-75784971D01*
X142480457Y-75784971D02*
X141766171Y-75784971D01*
X141694742Y-76499257D01*
X141766171Y-76427828D01*
X141909028Y-76356400D01*
X142266171Y-76356400D01*
X142409028Y-76427828D01*
X142480457Y-76499257D01*
X142551885Y-76642114D01*
X142551885Y-76999257D01*
X142480457Y-77142114D01*
X142409028Y-77213542D01*
X142266171Y-77284971D01*
X141909028Y-77284971D01*
X141766171Y-77213542D01*
X141694742Y-77142114D01*
X142980457Y-75784971D02*
X143480457Y-77284971D01*
X143980457Y-75784971D01*
X139008942Y-79090057D02*
X139508942Y-79090057D01*
X139723228Y-79875771D02*
X139008942Y-79875771D01*
X139008942Y-78375771D01*
X139723228Y-78375771D01*
X140223228Y-78375771D02*
X141151800Y-78375771D01*
X140651800Y-78947200D01*
X140866085Y-78947200D01*
X141008942Y-79018628D01*
X141080371Y-79090057D01*
X141151800Y-79232914D01*
X141151800Y-79590057D01*
X141080371Y-79732914D01*
X141008942Y-79804342D01*
X140866085Y-79875771D01*
X140437514Y-79875771D01*
X140294657Y-79804342D01*
X140223228Y-79732914D01*
X141651800Y-78375771D02*
X142580371Y-78375771D01*
X142080371Y-78947200D01*
X142294657Y-78947200D01*
X142437514Y-79018628D01*
X142508942Y-79090057D01*
X142580371Y-79232914D01*
X142580371Y-79590057D01*
X142508942Y-79732914D01*
X142437514Y-79804342D01*
X142294657Y-79875771D01*
X141866085Y-79875771D01*
X141723228Y-79804342D01*
X141651800Y-79732914D01*
X143008942Y-78375771D02*
X143508942Y-79875771D01*
X144008942Y-78375771D01*
X140485228Y-81655457D02*
X140985228Y-81655457D01*
X141199514Y-82441171D02*
X140485228Y-82441171D01*
X140485228Y-80941171D01*
X141199514Y-80941171D01*
X141699514Y-80941171D02*
X142628085Y-80941171D01*
X142128085Y-81512600D01*
X142342371Y-81512600D01*
X142485228Y-81584028D01*
X142556657Y-81655457D01*
X142628085Y-81798314D01*
X142628085Y-82155457D01*
X142556657Y-82298314D01*
X142485228Y-82369742D01*
X142342371Y-82441171D01*
X141913800Y-82441171D01*
X141770942Y-82369742D01*
X141699514Y-82298314D01*
X143056657Y-80941171D02*
X143556657Y-82441171D01*
X144056657Y-80941171D01*
X136797085Y-84914942D02*
X137011371Y-84986371D01*
X137368514Y-84986371D01*
X137511371Y-84914942D01*
X137582800Y-84843514D01*
X137654228Y-84700657D01*
X137654228Y-84557800D01*
X137582800Y-84414942D01*
X137511371Y-84343514D01*
X137368514Y-84272085D01*
X137082800Y-84200657D01*
X136939942Y-84129228D01*
X136868514Y-84057800D01*
X136797085Y-83914942D01*
X136797085Y-83772085D01*
X136868514Y-83629228D01*
X136939942Y-83557800D01*
X137082800Y-83486371D01*
X137439942Y-83486371D01*
X137654228Y-83557800D01*
X138511371Y-84986371D02*
X138368514Y-84914942D01*
X138297085Y-84843514D01*
X138225657Y-84700657D01*
X138225657Y-84272085D01*
X138297085Y-84129228D01*
X138368514Y-84057800D01*
X138511371Y-83986371D01*
X138725657Y-83986371D01*
X138868514Y-84057800D01*
X138939942Y-84129228D01*
X139011371Y-84272085D01*
X139011371Y-84700657D01*
X138939942Y-84843514D01*
X138868514Y-84914942D01*
X138725657Y-84986371D01*
X138511371Y-84986371D01*
X139868514Y-84986371D02*
X139725657Y-84914942D01*
X139654228Y-84772085D01*
X139654228Y-83486371D01*
X141297085Y-84843514D02*
X141225657Y-84914942D01*
X141011371Y-84986371D01*
X140868514Y-84986371D01*
X140654228Y-84914942D01*
X140511371Y-84772085D01*
X140439942Y-84629228D01*
X140368514Y-84343514D01*
X140368514Y-84129228D01*
X140439942Y-83843514D01*
X140511371Y-83700657D01*
X140654228Y-83557800D01*
X140868514Y-83486371D01*
X141011371Y-83486371D01*
X141225657Y-83557800D01*
X141297085Y-83629228D01*
X141725657Y-83986371D02*
X142297085Y-83986371D01*
X141939942Y-83486371D02*
X141939942Y-84772085D01*
X142011371Y-84914942D01*
X142154228Y-84986371D01*
X142297085Y-84986371D01*
X142797085Y-84986371D02*
X142797085Y-83986371D01*
X142797085Y-84272085D02*
X142868514Y-84129228D01*
X142939942Y-84057800D01*
X143082800Y-83986371D01*
X143225657Y-83986371D01*
X143939942Y-84986371D02*
X143797085Y-84914942D01*
X143725657Y-84772085D01*
X143725657Y-83486371D01*
X137581600Y-87251742D02*
X137795885Y-87323171D01*
X138153028Y-87323171D01*
X138295885Y-87251742D01*
X138367314Y-87180314D01*
X138438742Y-87037457D01*
X138438742Y-86894600D01*
X138367314Y-86751742D01*
X138295885Y-86680314D01*
X138153028Y-86608885D01*
X137867314Y-86537457D01*
X137724457Y-86466028D01*
X137653028Y-86394600D01*
X137581600Y-86251742D01*
X137581600Y-86108885D01*
X137653028Y-85966028D01*
X137724457Y-85894600D01*
X137867314Y-85823171D01*
X138224457Y-85823171D01*
X138438742Y-85894600D01*
X138867314Y-86323171D02*
X139438742Y-86323171D01*
X139081600Y-85823171D02*
X139081600Y-87108885D01*
X139153028Y-87251742D01*
X139295885Y-87323171D01*
X139438742Y-87323171D01*
X140581600Y-87323171D02*
X140581600Y-86537457D01*
X140510171Y-86394600D01*
X140367314Y-86323171D01*
X140081600Y-86323171D01*
X139938742Y-86394600D01*
X140581600Y-87251742D02*
X140438742Y-87323171D01*
X140081600Y-87323171D01*
X139938742Y-87251742D01*
X139867314Y-87108885D01*
X139867314Y-86966028D01*
X139938742Y-86823171D01*
X140081600Y-86751742D01*
X140438742Y-86751742D01*
X140581600Y-86680314D01*
X141081600Y-86323171D02*
X141653028Y-86323171D01*
X141295885Y-85823171D02*
X141295885Y-87108885D01*
X141367314Y-87251742D01*
X141510171Y-87323171D01*
X141653028Y-87323171D01*
X142795885Y-86323171D02*
X142795885Y-87323171D01*
X142153028Y-86323171D02*
X142153028Y-87108885D01*
X142224457Y-87251742D01*
X142367314Y-87323171D01*
X142581600Y-87323171D01*
X142724457Y-87251742D01*
X142795885Y-87180314D01*
X143438742Y-87251742D02*
X143581600Y-87323171D01*
X143867314Y-87323171D01*
X144010171Y-87251742D01*
X144081600Y-87108885D01*
X144081600Y-87037457D01*
X144010171Y-86894600D01*
X143867314Y-86823171D01*
X143653028Y-86823171D01*
X143510171Y-86751742D01*
X143438742Y-86608885D01*
X143438742Y-86537457D01*
X143510171Y-86394600D01*
X143653028Y-86323171D01*
X143867314Y-86323171D01*
X144010171Y-86394600D01*
D13*
X137035400Y-54824200D02*
X139035400Y-54824200D01*
X137035400Y-54824200D02*
X137035400Y-56124200D01*
X137035400Y-56124200D02*
X139035400Y-56124200D01*
X139060800Y-54824200D02*
X139060800Y-56124200D01*
X137277882Y-55974200D02*
G75*
G03X137277882Y-55974200I-67082J0D01*
G01*
X131117200Y-61072600D02*
X133117200Y-61072600D01*
X131117200Y-61072600D02*
X131117200Y-62372600D01*
X131117200Y-62372600D02*
X133117200Y-62372600D01*
X133142600Y-61072600D02*
X133142600Y-62372600D01*
X131359682Y-62222600D02*
G75*
G03X131359682Y-62222600I-67082J0D01*
G01*
X136296400Y-53721000D02*
X134696400Y-53721000D01*
X134696400Y-53721000D02*
X134696400Y-57121000D01*
X134696400Y-57121000D02*
X136296400Y-57121000D01*
X136296400Y-57121000D02*
X136296400Y-53721000D01*
X130200400Y-60121800D02*
X128600400Y-60121800D01*
X128600400Y-60121800D02*
X128600400Y-63521800D01*
X128600400Y-63521800D02*
X130200400Y-63521800D01*
X130200400Y-63521800D02*
X130200400Y-60121800D01*
X142240000Y-53822600D02*
X140640000Y-53822600D01*
X140640000Y-53822600D02*
X140640000Y-57222600D01*
X140640000Y-57222600D02*
X142240000Y-57222600D01*
X142240000Y-57222600D02*
X142240000Y-53822600D01*
X135788400Y-60121800D02*
X134188400Y-60121800D01*
X134188400Y-60121800D02*
X134188400Y-63521800D01*
X134188400Y-63521800D02*
X135788400Y-63521800D01*
X135788400Y-63521800D02*
X135788400Y-60121800D01*
X111506000Y-79857600D02*
X109906000Y-79857600D01*
X109906000Y-79857600D02*
X109906000Y-83257600D01*
X109906000Y-83257600D02*
X111506000Y-83257600D01*
X111506000Y-83257600D02*
X111506000Y-79857600D01*
X126695200Y-71069200D02*
X125095200Y-71069200D01*
X125095200Y-71069200D02*
X125095200Y-74469200D01*
X125095200Y-74469200D02*
X126695200Y-74469200D01*
X126695200Y-74469200D02*
X126695200Y-71069200D01*
X126034800Y-83693000D02*
X124434800Y-83693000D01*
X124434800Y-83693000D02*
X124434800Y-87093000D01*
X124434800Y-87093000D02*
X126034800Y-87093000D01*
X126034800Y-87093000D02*
X126034800Y-83693000D01*
X118922800Y-79781400D02*
X117322800Y-79781400D01*
X117322800Y-79781400D02*
X117322800Y-83181400D01*
X117322800Y-83181400D02*
X118922800Y-83181400D01*
X118922800Y-83181400D02*
X118922800Y-79781400D01*
X132715000Y-66776600D02*
X131115000Y-66776600D01*
X131115000Y-66776600D02*
X131115000Y-70176600D01*
X131115000Y-70176600D02*
X132715000Y-70176600D01*
X132715000Y-70176600D02*
X132715000Y-66776600D01*
X132689600Y-71551800D02*
X131089600Y-71551800D01*
X131089600Y-71551800D02*
X131089600Y-74951800D01*
X131089600Y-74951800D02*
X132689600Y-74951800D01*
X132689600Y-74951800D02*
X132689600Y-71551800D01*
X135585200Y-79375000D02*
X133985200Y-79375000D01*
X133985200Y-79375000D02*
X133985200Y-82775000D01*
X133985200Y-82775000D02*
X135585200Y-82775000D01*
X135585200Y-82775000D02*
X135585200Y-79375000D01*
X135559800Y-83616800D02*
X133959800Y-83616800D01*
X133959800Y-83616800D02*
X133959800Y-87016800D01*
X133959800Y-87016800D02*
X135559800Y-87016800D01*
X135559800Y-87016800D02*
X135559800Y-83616800D01*
X124383800Y-66675000D02*
X122783800Y-66675000D01*
X122783800Y-66675000D02*
X122783800Y-70075000D01*
X122783800Y-70075000D02*
X124383800Y-70075000D01*
X124383800Y-70075000D02*
X124383800Y-66675000D01*
X123901200Y-79095600D02*
X122301200Y-79095600D01*
X122301200Y-79095600D02*
X122301200Y-82495600D01*
X122301200Y-82495600D02*
X123901200Y-82495600D01*
X123901200Y-82495600D02*
X123901200Y-79095600D01*
X114404443Y-83616000D02*
G75*
G03X114404443Y-83616000I-89443J0D01*
G01*
X113595000Y-80876000D02*
X115095000Y-80876000D01*
X115095000Y-83776000D02*
X115095000Y-80876000D01*
X113595000Y-83776000D02*
X115095000Y-83776000D01*
X113595000Y-83776000D02*
X113595000Y-80876000D01*
X109342800Y-65151000D02*
X109342800Y-59151000D01*
X113842800Y-59151000D02*
X109342800Y-59151000D01*
X111592800Y-65151000D02*
X109342800Y-65151000D01*
X111592800Y-65151000D02*
X113842800Y-65151000D01*
X113842800Y-65151000D02*
X113842800Y-59151000D01*
X117652800Y-76123800D02*
X117652800Y-73583800D01*
X117652800Y-73583800D02*
X110032800Y-73583800D01*
X110032800Y-73583800D02*
X110032800Y-76123800D01*
X110032800Y-76123800D02*
X117652800Y-76123800D01*
X113821600Y-50596800D02*
X113821600Y-56596800D01*
X109321600Y-56596800D02*
X113821600Y-56596800D01*
X111571600Y-50596800D02*
X113821600Y-50596800D01*
X111571600Y-50596800D02*
X109321600Y-50596800D01*
X109321600Y-50596800D02*
X109321600Y-56596800D01*
X115112800Y-66624200D02*
X117652800Y-66624200D01*
X117652800Y-66624200D02*
X117652800Y-71704200D01*
X117652800Y-71704200D02*
X115112800Y-71704200D01*
X115112800Y-71704200D02*
X115112800Y-66624200D01*
X146989800Y-57378600D02*
X144449800Y-57378600D01*
X144449800Y-57378600D02*
X144449800Y-87858600D01*
X144449800Y-87858600D02*
X146989800Y-87858600D01*
X146989800Y-87858600D02*
X146989800Y-57378600D01*
X139090400Y-53009800D02*
X139090400Y-51409800D01*
X139090400Y-51409800D02*
X135690400Y-51409800D01*
X135690400Y-51409800D02*
X135690400Y-53009800D01*
X135690400Y-53009800D02*
X139090400Y-53009800D01*
X133172200Y-58928000D02*
X133172200Y-57328000D01*
X133172200Y-57328000D02*
X129772200Y-57328000D01*
X129772200Y-57328000D02*
X129772200Y-58928000D01*
X129772200Y-58928000D02*
X133172200Y-58928000D01*
X125120400Y-70078600D02*
X126720400Y-70078600D01*
X126720400Y-70078600D02*
X126720400Y-66678600D01*
X126720400Y-66678600D02*
X125120400Y-66678600D01*
X125120400Y-66678600D02*
X125120400Y-70078600D01*
X124434600Y-82473800D02*
X126034600Y-82473800D01*
X126034600Y-82473800D02*
X126034600Y-79073800D01*
X126034600Y-79073800D02*
X124434600Y-79073800D01*
X124434600Y-79073800D02*
X124434600Y-82473800D01*
X113569395Y-69040600D02*
G75*
G03X113569395Y-69040600I-92195J0D01*
G01*
X110797200Y-70150600D02*
X110797200Y-68850600D01*
X113697200Y-68850600D02*
X110797200Y-68850600D01*
X113697200Y-70150600D02*
X110797200Y-70150600D01*
X113697200Y-70150600D02*
X113697200Y-68850600D01*
X114122200Y-86410800D02*
X114122200Y-84010800D01*
X114122200Y-84010800D02*
X110022200Y-84010800D01*
X110022200Y-84010800D02*
X110022200Y-86410800D01*
X110022200Y-86410800D02*
X114122200Y-86410800D01*
X135001000Y-66802000D02*
X133401000Y-66802000D01*
X133401000Y-66802000D02*
X133401000Y-70202000D01*
X133401000Y-70202000D02*
X135001000Y-70202000D01*
X135001000Y-70202000D02*
X135001000Y-66802000D01*
X135763000Y-70891400D02*
X133363000Y-70891400D01*
X133363000Y-70891400D02*
X133363000Y-74991400D01*
X133363000Y-74991400D02*
X135763000Y-74991400D01*
X135763000Y-74991400D02*
X135763000Y-70891400D01*
X132816600Y-78790800D02*
X130416600Y-78790800D01*
X130416600Y-78790800D02*
X130416600Y-82890800D01*
X130416600Y-82890800D02*
X132816600Y-82890800D01*
X132816600Y-82890800D02*
X132816600Y-78790800D01*
X132791200Y-83388200D02*
X130391200Y-83388200D01*
X130391200Y-83388200D02*
X130391200Y-87488200D01*
X130391200Y-87488200D02*
X132791200Y-87488200D01*
X132791200Y-87488200D02*
X132791200Y-83388200D01*
X127695384Y-70862600D02*
G75*
G03X127695384Y-70862600I-130384J0D01*
G01*
X127355000Y-71712600D02*
X130405000Y-71712600D01*
X130405000Y-70112600D02*
X130405000Y-71712600D01*
X127355000Y-70112600D02*
X127355000Y-71712600D01*
X127355000Y-70112600D02*
X130405000Y-70112600D01*
X126958784Y-83181600D02*
G75*
G03X126958784Y-83181600I-130384J0D01*
G01*
X126618400Y-84031600D02*
X129668400Y-84031600D01*
X129668400Y-82431600D02*
X129668400Y-84031600D01*
X126618400Y-82431600D02*
X126618400Y-84031600D01*
X126618400Y-82431600D02*
X129668400Y-82431600D01*
X125349000Y-63914400D02*
X115699000Y-63914400D01*
X115699000Y-51714400D02*
X115699000Y-63914400D01*
X125349000Y-51714400D02*
X115699000Y-51714400D01*
X125349000Y-51714400D02*
X125349000Y-63914400D01*
X133248400Y-54868200D02*
X127248400Y-54868200D01*
X127248400Y-50368200D02*
X127248400Y-54868200D01*
X133248400Y-52618200D02*
X133248400Y-54868200D01*
X133248400Y-52618200D02*
X133248400Y-50368200D01*
X133248400Y-50368200D02*
X127248400Y-50368200D01*
D14*
X135342333Y-58472342D02*
X135294714Y-58519961D01*
X135151857Y-58567580D01*
X135056619Y-58567580D01*
X134913761Y-58519961D01*
X134818523Y-58424723D01*
X134770904Y-58329485D01*
X134723285Y-58139009D01*
X134723285Y-57996152D01*
X134770904Y-57805676D01*
X134818523Y-57710438D01*
X134913761Y-57615200D01*
X135056619Y-57567580D01*
X135151857Y-57567580D01*
X135294714Y-57615200D01*
X135342333Y-57662819D01*
X136294714Y-58567580D02*
X135723285Y-58567580D01*
X136009000Y-58567580D02*
X136009000Y-57567580D01*
X135913761Y-57710438D01*
X135818523Y-57805676D01*
X135723285Y-57853295D01*
X127138133Y-61698142D02*
X127090514Y-61745761D01*
X126947657Y-61793380D01*
X126852419Y-61793380D01*
X126709561Y-61745761D01*
X126614323Y-61650523D01*
X126566704Y-61555285D01*
X126519085Y-61364809D01*
X126519085Y-61221952D01*
X126566704Y-61031476D01*
X126614323Y-60936238D01*
X126709561Y-60841000D01*
X126852419Y-60793380D01*
X126947657Y-60793380D01*
X127090514Y-60841000D01*
X127138133Y-60888619D01*
X127519085Y-60888619D02*
X127566704Y-60841000D01*
X127661942Y-60793380D01*
X127900038Y-60793380D01*
X127995276Y-60841000D01*
X128042895Y-60888619D01*
X128090514Y-60983857D01*
X128090514Y-61079095D01*
X128042895Y-61221952D01*
X127471466Y-61793380D01*
X128090514Y-61793380D01*
X143216333Y-55043342D02*
X143168714Y-55090961D01*
X143025857Y-55138580D01*
X142930619Y-55138580D01*
X142787761Y-55090961D01*
X142692523Y-54995723D01*
X142644904Y-54900485D01*
X142597285Y-54710009D01*
X142597285Y-54567152D01*
X142644904Y-54376676D01*
X142692523Y-54281438D01*
X142787761Y-54186200D01*
X142930619Y-54138580D01*
X143025857Y-54138580D01*
X143168714Y-54186200D01*
X143216333Y-54233819D01*
X143549666Y-54138580D02*
X144168714Y-54138580D01*
X143835380Y-54519533D01*
X143978238Y-54519533D01*
X144073476Y-54567152D01*
X144121095Y-54614771D01*
X144168714Y-54710009D01*
X144168714Y-54948104D01*
X144121095Y-55043342D01*
X144073476Y-55090961D01*
X143978238Y-55138580D01*
X143692523Y-55138580D01*
X143597285Y-55090961D01*
X143549666Y-55043342D01*
X136815533Y-61545742D02*
X136767914Y-61593361D01*
X136625057Y-61640980D01*
X136529819Y-61640980D01*
X136386961Y-61593361D01*
X136291723Y-61498123D01*
X136244104Y-61402885D01*
X136196485Y-61212409D01*
X136196485Y-61069552D01*
X136244104Y-60879076D01*
X136291723Y-60783838D01*
X136386961Y-60688600D01*
X136529819Y-60640980D01*
X136625057Y-60640980D01*
X136767914Y-60688600D01*
X136815533Y-60736219D01*
X137672676Y-60974314D02*
X137672676Y-61640980D01*
X137434580Y-60593361D02*
X137196485Y-61307647D01*
X137815533Y-61307647D01*
X110628133Y-79071742D02*
X110580514Y-79119361D01*
X110437657Y-79166980D01*
X110342419Y-79166980D01*
X110199561Y-79119361D01*
X110104323Y-79024123D01*
X110056704Y-78928885D01*
X110009085Y-78738409D01*
X110009085Y-78595552D01*
X110056704Y-78405076D01*
X110104323Y-78309838D01*
X110199561Y-78214600D01*
X110342419Y-78166980D01*
X110437657Y-78166980D01*
X110580514Y-78214600D01*
X110628133Y-78262219D01*
X111532895Y-78166980D02*
X111056704Y-78166980D01*
X111009085Y-78643171D01*
X111056704Y-78595552D01*
X111151942Y-78547933D01*
X111390038Y-78547933D01*
X111485276Y-78595552D01*
X111532895Y-78643171D01*
X111580514Y-78738409D01*
X111580514Y-78976504D01*
X111532895Y-79071742D01*
X111485276Y-79119361D01*
X111390038Y-79166980D01*
X111151942Y-79166980D01*
X111056704Y-79119361D01*
X111009085Y-79071742D01*
X125791933Y-75820542D02*
X125744314Y-75868161D01*
X125601457Y-75915780D01*
X125506219Y-75915780D01*
X125363361Y-75868161D01*
X125268123Y-75772923D01*
X125220504Y-75677685D01*
X125172885Y-75487209D01*
X125172885Y-75344352D01*
X125220504Y-75153876D01*
X125268123Y-75058638D01*
X125363361Y-74963400D01*
X125506219Y-74915780D01*
X125601457Y-74915780D01*
X125744314Y-74963400D01*
X125791933Y-75011019D01*
X126649076Y-74915780D02*
X126458600Y-74915780D01*
X126363361Y-74963400D01*
X126315742Y-75011019D01*
X126220504Y-75153876D01*
X126172885Y-75344352D01*
X126172885Y-75725304D01*
X126220504Y-75820542D01*
X126268123Y-75868161D01*
X126363361Y-75915780D01*
X126553838Y-75915780D01*
X126649076Y-75868161D01*
X126696695Y-75820542D01*
X126744314Y-75725304D01*
X126744314Y-75487209D01*
X126696695Y-75391971D01*
X126649076Y-75344352D01*
X126553838Y-75296733D01*
X126363361Y-75296733D01*
X126268123Y-75344352D01*
X126220504Y-75391971D01*
X126172885Y-75487209D01*
X122997933Y-85015342D02*
X122950314Y-85062961D01*
X122807457Y-85110580D01*
X122712219Y-85110580D01*
X122569361Y-85062961D01*
X122474123Y-84967723D01*
X122426504Y-84872485D01*
X122378885Y-84682009D01*
X122378885Y-84539152D01*
X122426504Y-84348676D01*
X122474123Y-84253438D01*
X122569361Y-84158200D01*
X122712219Y-84110580D01*
X122807457Y-84110580D01*
X122950314Y-84158200D01*
X122997933Y-84205819D01*
X123331266Y-84110580D02*
X123997933Y-84110580D01*
X123569361Y-85110580D01*
X117943333Y-79249542D02*
X117895714Y-79297161D01*
X117752857Y-79344780D01*
X117657619Y-79344780D01*
X117514761Y-79297161D01*
X117419523Y-79201923D01*
X117371904Y-79106685D01*
X117324285Y-78916209D01*
X117324285Y-78773352D01*
X117371904Y-78582876D01*
X117419523Y-78487638D01*
X117514761Y-78392400D01*
X117657619Y-78344780D01*
X117752857Y-78344780D01*
X117895714Y-78392400D01*
X117943333Y-78440019D01*
X118514761Y-78773352D02*
X118419523Y-78725733D01*
X118371904Y-78678114D01*
X118324285Y-78582876D01*
X118324285Y-78535257D01*
X118371904Y-78440019D01*
X118419523Y-78392400D01*
X118514761Y-78344780D01*
X118705238Y-78344780D01*
X118800476Y-78392400D01*
X118848095Y-78440019D01*
X118895714Y-78535257D01*
X118895714Y-78582876D01*
X118848095Y-78678114D01*
X118800476Y-78725733D01*
X118705238Y-78773352D01*
X118514761Y-78773352D01*
X118419523Y-78820971D01*
X118371904Y-78868590D01*
X118324285Y-78963828D01*
X118324285Y-79154304D01*
X118371904Y-79249542D01*
X118419523Y-79297161D01*
X118514761Y-79344780D01*
X118705238Y-79344780D01*
X118800476Y-79297161D01*
X118848095Y-79249542D01*
X118895714Y-79154304D01*
X118895714Y-78963828D01*
X118848095Y-78868590D01*
X118800476Y-78820971D01*
X118705238Y-78773352D01*
X131684733Y-66346342D02*
X131637114Y-66393961D01*
X131494257Y-66441580D01*
X131399019Y-66441580D01*
X131256161Y-66393961D01*
X131160923Y-66298723D01*
X131113304Y-66203485D01*
X131065685Y-66013009D01*
X131065685Y-65870152D01*
X131113304Y-65679676D01*
X131160923Y-65584438D01*
X131256161Y-65489200D01*
X131399019Y-65441580D01*
X131494257Y-65441580D01*
X131637114Y-65489200D01*
X131684733Y-65536819D01*
X132160923Y-66441580D02*
X132351400Y-66441580D01*
X132446638Y-66393961D01*
X132494257Y-66346342D01*
X132589495Y-66203485D01*
X132637114Y-66013009D01*
X132637114Y-65632057D01*
X132589495Y-65536819D01*
X132541876Y-65489200D01*
X132446638Y-65441580D01*
X132256161Y-65441580D01*
X132160923Y-65489200D01*
X132113304Y-65536819D01*
X132065685Y-65632057D01*
X132065685Y-65870152D01*
X132113304Y-65965390D01*
X132160923Y-66013009D01*
X132256161Y-66060628D01*
X132446638Y-66060628D01*
X132541876Y-66013009D01*
X132589495Y-65965390D01*
X132637114Y-65870152D01*
X131233942Y-76480942D02*
X131186323Y-76528561D01*
X131043466Y-76576180D01*
X130948228Y-76576180D01*
X130805371Y-76528561D01*
X130710133Y-76433323D01*
X130662514Y-76338085D01*
X130614895Y-76147609D01*
X130614895Y-76004752D01*
X130662514Y-75814276D01*
X130710133Y-75719038D01*
X130805371Y-75623800D01*
X130948228Y-75576180D01*
X131043466Y-75576180D01*
X131186323Y-75623800D01*
X131233942Y-75671419D01*
X132186323Y-76576180D02*
X131614895Y-76576180D01*
X131900609Y-76576180D02*
X131900609Y-75576180D01*
X131805371Y-75719038D01*
X131710133Y-75814276D01*
X131614895Y-75861895D01*
X132805371Y-75576180D02*
X132900609Y-75576180D01*
X132995847Y-75623800D01*
X133043466Y-75671419D01*
X133091085Y-75766657D01*
X133138704Y-75957133D01*
X133138704Y-76195228D01*
X133091085Y-76385704D01*
X133043466Y-76480942D01*
X132995847Y-76528561D01*
X132900609Y-76576180D01*
X132805371Y-76576180D01*
X132710133Y-76528561D01*
X132662514Y-76480942D01*
X132614895Y-76385704D01*
X132567276Y-76195228D01*
X132567276Y-75957133D01*
X132614895Y-75766657D01*
X132662514Y-75671419D01*
X132710133Y-75623800D01*
X132805371Y-75576180D01*
X134383542Y-78233542D02*
X134335923Y-78281161D01*
X134193066Y-78328780D01*
X134097828Y-78328780D01*
X133954971Y-78281161D01*
X133859733Y-78185923D01*
X133812114Y-78090685D01*
X133764495Y-77900209D01*
X133764495Y-77757352D01*
X133812114Y-77566876D01*
X133859733Y-77471638D01*
X133954971Y-77376400D01*
X134097828Y-77328780D01*
X134193066Y-77328780D01*
X134335923Y-77376400D01*
X134383542Y-77424019D01*
X135335923Y-78328780D02*
X134764495Y-78328780D01*
X135050209Y-78328780D02*
X135050209Y-77328780D01*
X134954971Y-77471638D01*
X134859733Y-77566876D01*
X134764495Y-77614495D01*
X136288304Y-78328780D02*
X135716876Y-78328780D01*
X136002590Y-78328780D02*
X136002590Y-77328780D01*
X135907352Y-77471638D01*
X135812114Y-77566876D01*
X135716876Y-77614495D01*
X134129542Y-88901542D02*
X134081923Y-88949161D01*
X133939066Y-88996780D01*
X133843828Y-88996780D01*
X133700971Y-88949161D01*
X133605733Y-88853923D01*
X133558114Y-88758685D01*
X133510495Y-88568209D01*
X133510495Y-88425352D01*
X133558114Y-88234876D01*
X133605733Y-88139638D01*
X133700971Y-88044400D01*
X133843828Y-87996780D01*
X133939066Y-87996780D01*
X134081923Y-88044400D01*
X134129542Y-88092019D01*
X135081923Y-88996780D02*
X134510495Y-88996780D01*
X134796209Y-88996780D02*
X134796209Y-87996780D01*
X134700971Y-88139638D01*
X134605733Y-88234876D01*
X134510495Y-88282495D01*
X135462876Y-88092019D02*
X135510495Y-88044400D01*
X135605733Y-87996780D01*
X135843828Y-87996780D01*
X135939066Y-88044400D01*
X135986685Y-88092019D01*
X136034304Y-88187257D01*
X136034304Y-88282495D01*
X135986685Y-88425352D01*
X135415257Y-88996780D01*
X136034304Y-88996780D01*
X122572542Y-66219342D02*
X122524923Y-66266961D01*
X122382066Y-66314580D01*
X122286828Y-66314580D01*
X122143971Y-66266961D01*
X122048733Y-66171723D01*
X122001114Y-66076485D01*
X121953495Y-65886009D01*
X121953495Y-65743152D01*
X122001114Y-65552676D01*
X122048733Y-65457438D01*
X122143971Y-65362200D01*
X122286828Y-65314580D01*
X122382066Y-65314580D01*
X122524923Y-65362200D01*
X122572542Y-65409819D01*
X123524923Y-66314580D02*
X122953495Y-66314580D01*
X123239209Y-66314580D02*
X123239209Y-65314580D01*
X123143971Y-65457438D01*
X123048733Y-65552676D01*
X122953495Y-65600295D01*
X123858257Y-65314580D02*
X124477304Y-65314580D01*
X124143971Y-65695533D01*
X124286828Y-65695533D01*
X124382066Y-65743152D01*
X124429685Y-65790771D01*
X124477304Y-65886009D01*
X124477304Y-66124104D01*
X124429685Y-66219342D01*
X124382066Y-66266961D01*
X124286828Y-66314580D01*
X124001114Y-66314580D01*
X123905876Y-66266961D01*
X123858257Y-66219342D01*
X121734342Y-78233542D02*
X121686723Y-78281161D01*
X121543866Y-78328780D01*
X121448628Y-78328780D01*
X121305771Y-78281161D01*
X121210533Y-78185923D01*
X121162914Y-78090685D01*
X121115295Y-77900209D01*
X121115295Y-77757352D01*
X121162914Y-77566876D01*
X121210533Y-77471638D01*
X121305771Y-77376400D01*
X121448628Y-77328780D01*
X121543866Y-77328780D01*
X121686723Y-77376400D01*
X121734342Y-77424019D01*
X122686723Y-78328780D02*
X122115295Y-78328780D01*
X122401009Y-78328780D02*
X122401009Y-77328780D01*
X122305771Y-77471638D01*
X122210533Y-77566876D01*
X122115295Y-77614495D01*
X123543866Y-77662114D02*
X123543866Y-78328780D01*
X123305771Y-77281161D02*
X123067676Y-77995447D01*
X123686723Y-77995447D01*
X112466049Y-80275702D02*
X112418430Y-80323321D01*
X112275573Y-80370940D01*
X112180335Y-80370940D01*
X112037478Y-80323321D01*
X111942240Y-80228083D01*
X111894620Y-80132845D01*
X111847001Y-79942369D01*
X111847001Y-79799512D01*
X111894620Y-79609036D01*
X111942240Y-79513798D01*
X112037478Y-79418560D01*
X112180335Y-79370940D01*
X112275573Y-79370940D01*
X112418430Y-79418560D01*
X112466049Y-79466179D01*
X112894620Y-80370940D02*
X112894620Y-79370940D01*
X113323192Y-80370940D02*
X113323192Y-79847131D01*
X113275573Y-79751893D01*
X113180335Y-79704274D01*
X113037478Y-79704274D01*
X112942240Y-79751893D01*
X112894620Y-79799512D01*
X114370811Y-80275702D02*
X114323192Y-80323321D01*
X114180335Y-80370940D01*
X114085097Y-80370940D01*
X113942240Y-80323321D01*
X113847001Y-80228083D01*
X113799382Y-80132845D01*
X113751763Y-79942369D01*
X113751763Y-79799512D01*
X113799382Y-79609036D01*
X113847001Y-79513798D01*
X113942240Y-79418560D01*
X114085097Y-79370940D01*
X114180335Y-79370940D01*
X114323192Y-79418560D01*
X114370811Y-79466179D01*
X114656525Y-79704274D02*
X115037478Y-79704274D01*
X114799382Y-79370940D02*
X114799382Y-80228083D01*
X114847001Y-80323321D01*
X114942240Y-80370940D01*
X115037478Y-80370940D01*
X115370811Y-80370940D02*
X115370811Y-79704274D01*
X115370811Y-79894750D02*
X115418430Y-79799512D01*
X115466049Y-79751893D01*
X115561287Y-79704274D01*
X115656525Y-79704274D01*
X116132716Y-80370940D02*
X116037478Y-80323321D01*
X115989859Y-80228083D01*
X115989859Y-79370940D01*
X117037478Y-80370940D02*
X116466049Y-80370940D01*
X116751763Y-80370940D02*
X116751763Y-79370940D01*
X116656525Y-79513798D01*
X116561287Y-79609036D01*
X116466049Y-79656655D01*
X145183266Y-55713380D02*
X145183266Y-56427666D01*
X145135647Y-56570523D01*
X145040409Y-56665761D01*
X144897552Y-56713380D01*
X144802314Y-56713380D01*
X146135647Y-55713380D02*
X145659457Y-55713380D01*
X145611838Y-56189571D01*
X145659457Y-56141952D01*
X145754695Y-56094333D01*
X145992790Y-56094333D01*
X146088028Y-56141952D01*
X146135647Y-56189571D01*
X146183266Y-56284809D01*
X146183266Y-56522904D01*
X146135647Y-56618142D01*
X146088028Y-56665761D01*
X145992790Y-56713380D01*
X145754695Y-56713380D01*
X145659457Y-56665761D01*
X145611838Y-56618142D01*
X137298133Y-51023780D02*
X136821942Y-51023780D01*
X136821942Y-50023780D01*
X138155276Y-51023780D02*
X137583847Y-51023780D01*
X137869561Y-51023780D02*
X137869561Y-50023780D01*
X137774323Y-50166638D01*
X137679085Y-50261876D01*
X137583847Y-50309495D01*
X128408133Y-58567580D02*
X127931942Y-58567580D01*
X127931942Y-57567580D01*
X128693847Y-57662819D02*
X128741466Y-57615200D01*
X128836704Y-57567580D01*
X129074800Y-57567580D01*
X129170038Y-57615200D01*
X129217657Y-57662819D01*
X129265276Y-57758057D01*
X129265276Y-57853295D01*
X129217657Y-57996152D01*
X128646228Y-58567580D01*
X129265276Y-58567580D01*
X125791933Y-66289180D02*
X125315742Y-66289180D01*
X125315742Y-65289180D01*
X126030028Y-65289180D02*
X126649076Y-65289180D01*
X126315742Y-65670133D01*
X126458600Y-65670133D01*
X126553838Y-65717752D01*
X126601457Y-65765371D01*
X126649076Y-65860609D01*
X126649076Y-66098704D01*
X126601457Y-66193942D01*
X126553838Y-66241561D01*
X126458600Y-66289180D01*
X126172885Y-66289180D01*
X126077647Y-66241561D01*
X126030028Y-66193942D01*
X124979133Y-78277980D02*
X124502942Y-78277980D01*
X124502942Y-77277980D01*
X125741038Y-77611314D02*
X125741038Y-78277980D01*
X125502942Y-77230361D02*
X125264847Y-77944647D01*
X125883895Y-77944647D01*
X109378761Y-70143619D02*
X109283523Y-70096000D01*
X109188285Y-70000761D01*
X109045428Y-69857904D01*
X108950190Y-69810285D01*
X108854952Y-69810285D01*
X108902571Y-70048380D02*
X108807333Y-70000761D01*
X108712095Y-69905523D01*
X108664476Y-69715047D01*
X108664476Y-69381714D01*
X108712095Y-69191238D01*
X108807333Y-69096000D01*
X108902571Y-69048380D01*
X109093047Y-69048380D01*
X109188285Y-69096000D01*
X109283523Y-69191238D01*
X109331142Y-69381714D01*
X109331142Y-69715047D01*
X109283523Y-69905523D01*
X109188285Y-70000761D01*
X109093047Y-70048380D01*
X108902571Y-70048380D01*
X110283523Y-70048380D02*
X109712095Y-70048380D01*
X109997809Y-70048380D02*
X109997809Y-69048380D01*
X109902571Y-69191238D01*
X109807333Y-69286476D01*
X109712095Y-69334095D01*
X111948933Y-87777580D02*
X111615600Y-87301390D01*
X111377504Y-87777580D02*
X111377504Y-86777580D01*
X111758457Y-86777580D01*
X111853695Y-86825200D01*
X111901314Y-86872819D01*
X111948933Y-86968057D01*
X111948933Y-87110914D01*
X111901314Y-87206152D01*
X111853695Y-87253771D01*
X111758457Y-87301390D01*
X111377504Y-87301390D01*
X112901314Y-87777580D02*
X112329885Y-87777580D01*
X112615600Y-87777580D02*
X112615600Y-86777580D01*
X112520361Y-86920438D01*
X112425123Y-87015676D01*
X112329885Y-87063295D01*
X134097733Y-66492380D02*
X133764400Y-66016190D01*
X133526304Y-66492380D02*
X133526304Y-65492380D01*
X133907257Y-65492380D01*
X134002495Y-65540000D01*
X134050114Y-65587619D01*
X134097733Y-65682857D01*
X134097733Y-65825714D01*
X134050114Y-65920952D01*
X134002495Y-65968571D01*
X133907257Y-66016190D01*
X133526304Y-66016190D01*
X134478685Y-65587619D02*
X134526304Y-65540000D01*
X134621542Y-65492380D01*
X134859638Y-65492380D01*
X134954876Y-65540000D01*
X135002495Y-65587619D01*
X135050114Y-65682857D01*
X135050114Y-65778095D01*
X135002495Y-65920952D01*
X134431066Y-66492380D01*
X135050114Y-66492380D01*
X136871413Y-73482460D02*
X136538080Y-73006270D01*
X136299984Y-73482460D02*
X136299984Y-72482460D01*
X136680937Y-72482460D01*
X136776175Y-72530080D01*
X136823794Y-72577699D01*
X136871413Y-72672937D01*
X136871413Y-72815794D01*
X136823794Y-72911032D01*
X136776175Y-72958651D01*
X136680937Y-73006270D01*
X136299984Y-73006270D01*
X137204746Y-72482460D02*
X137823794Y-72482460D01*
X137490460Y-72863413D01*
X137633318Y-72863413D01*
X137728556Y-72911032D01*
X137776175Y-72958651D01*
X137823794Y-73053889D01*
X137823794Y-73291984D01*
X137776175Y-73387222D01*
X137728556Y-73434841D01*
X137633318Y-73482460D01*
X137347603Y-73482460D01*
X137252365Y-73434841D01*
X137204746Y-73387222D01*
X131456133Y-78328780D02*
X131122800Y-77852590D01*
X130884704Y-78328780D02*
X130884704Y-77328780D01*
X131265657Y-77328780D01*
X131360895Y-77376400D01*
X131408514Y-77424019D01*
X131456133Y-77519257D01*
X131456133Y-77662114D01*
X131408514Y-77757352D01*
X131360895Y-77804971D01*
X131265657Y-77852590D01*
X130884704Y-77852590D01*
X132313276Y-77662114D02*
X132313276Y-78328780D01*
X132075180Y-77281161D02*
X131837085Y-77995447D01*
X132456133Y-77995447D01*
X131506933Y-88996780D02*
X131173600Y-88520590D01*
X130935504Y-88996780D02*
X130935504Y-87996780D01*
X131316457Y-87996780D01*
X131411695Y-88044400D01*
X131459314Y-88092019D01*
X131506933Y-88187257D01*
X131506933Y-88330114D01*
X131459314Y-88425352D01*
X131411695Y-88472971D01*
X131316457Y-88520590D01*
X130935504Y-88520590D01*
X132411695Y-87996780D02*
X131935504Y-87996780D01*
X131887885Y-88472971D01*
X131935504Y-88425352D01*
X132030742Y-88377733D01*
X132268838Y-88377733D01*
X132364076Y-88425352D01*
X132411695Y-88472971D01*
X132459314Y-88568209D01*
X132459314Y-88806304D01*
X132411695Y-88901542D01*
X132364076Y-88949161D01*
X132268838Y-88996780D01*
X132030742Y-88996780D01*
X131935504Y-88949161D01*
X131887885Y-88901542D01*
M02*
